<?xml version="1.0" encoding="utf-8"?>
<!-- Generator: Adobe Illustrator 21.0.0, SVG Export Plug-In . SVG Version: 6.00 Build 0)  -->
<svg version="1.1" xmlns="http://www.w3.org/2000/svg" xmlns:xlink="http://www.w3.org/1999/xlink" x="0px" y="0px"
	 viewBox="0 0 94 94" style="enable-background:new 0 0 94 94;" xml:space="preserve">
<style type="text/css">
	.st0{display:none;}
	.st1{display:inline;fill-rule:evenodd;clip-rule:evenodd;fill:none;stroke:#3EC6C6;stroke-miterlimit:10;}
	.st2{display:inline;fill-rule:evenodd;clip-rule:evenodd;fill:#E7F7F8;stroke:#E7F7F8;stroke-miterlimit:10;}
	.st3{display:inline;}
	.st4{fill:#00ADB4;fill-opacity:0.35;}
	.st5{clip-path:url(#SVGID_2_);fill:#00ADB4;}
	.st6{fill-rule:evenodd;clip-rule:evenodd;fill:none;stroke:#3EC6C6;stroke-miterlimit:10;}
	.st7{fill-rule:evenodd;clip-rule:evenodd;fill:#E7F7F8;stroke:#E7F7F8;stroke-miterlimit:10;}
	.st8{opacity:0.32;fill:#00ADB4;stroke:#00ADB4;stroke-miterlimit:10;}
	.st9{fill:#00ADB4;stroke:#00ADB4;stroke-miterlimit:10;}
	.st10{fill-rule:evenodd;clip-rule:evenodd;fill:none;}
	.st11{display:inline;fill:#0D8E8B;fill-opacity:0.2;stroke:#00ADB4;stroke-width:2.5;stroke-miterlimit:10;}
	.st12{display:inline;fill:#FFFFFF;}
	.st13{display:inline;fill:#00ADB4;}
	.st14{display:inline;filter:url(#Adobe_OpacityMaskFilter);}
	.st15{display:inline;mask:url(#SVGID_4_);fill:#00ADB4;fill-opacity:0.43;}
	.st16{display:inline;fill:#00ADB4;stroke:#00ADB4;stroke-width:0.5;stroke-miterlimit:10;}
	.st17{filter:url(#Adobe_OpacityMaskFilter_1_);}
	.st18{mask:url(#SVGID_5_);fill:#00ADB4;fill-opacity:0.46;}
	.st19{fill:#00ADB4;}
	.st20{fill:#00ADB4;fill-opacity:0.21;}
	.st21{clip-path:url(#SVGID_6_);fill:#00ADB4;fill-opacity:0.45;}
</style>
<g id="图层_1" class="st0">
	<path class="st1" d="M71.5,80.9c-6.9,5-15.4,8-24.5,8c-18.7,0-34.5-12.3-39.9-29.3c-1.3-4-1.9-8.2-1.9-12.6 M13.7,21.6
		c3.9-5.2,9.1-9.4,15-12.3c2.1-1,4.2-1.8,6.4-2.5c3.8-1.1,7.7-1.7,11.9-1.7c4,0,7.8,0.6,11.5,1.6 M70,12c1.7,1.1,3.3,2.3,4.8,3.7
		c8.6,7.7,14,18.9,14,31.3c0,5.4-1,10.6-2.9,15.3"/>
	<path class="st1" d="M17.2,60.8c-1.9-4.2-3-8.9-3-13.8c0-18.1,14.7-32.9,32.8-32.9c4.3,0,8.4,0.8,12.2,2.3 M76.5,32.7
		c2.1,4.3,3.3,9.2,3.3,14.3c0,3.1-0.4,6.1-1.2,8.9c-1,3.4-2.4,6.6-4.3,9.4 M65.3,74.2c-2.7,1.8-5.7,3.3-8.9,4.2
		c-3,0.9-6.2,1.4-9.4,1.4c-5.2,0-10.2-1.2-14.6-3.4"/>
	<path class="st2" d="M47.3,20.6c14.8,0,26.7,12,26.7,26.7s-12,26.7-26.7,26.7c-14.8,0-26.7-12-26.7-26.7S32.6,20.6,47.3,20.6z"/>
	<g class="st3">
		<path class="st4" d="M62.7,41.5h0.4c-1.6-1.3-2.4-2.6-2.4-3.9c0-1.3,0.8-2.6,2.4-3.9H38.2c-2.2,0-3.9,1.8-3.9,3.9v20.3
			c0,4,3.2,7.2,7.2,7.2h21.7V41.5L62.7,41.5z M62.7,41.5"/>
		<g>
			<defs>
				<rect id="SVGID_3_" x="30.7" y="30" width="32.6" height="35.1"/>
			</defs>
			<clipPath id="SVGID_2_">
				<use xlink:href="#SVGID_3_"  style="overflow:visible;"/>
			</clipPath>
			<path class="st5" d="M59.5,55.1c-0.7,0-1.2,0.5-1.2,1.2v1.8c0,0.7,0.5,1.2,1.2,1.2c0.7,0,1.2-0.5,1.2-1.2v-1.8
				C60.7,55.6,60.2,55.1,59.5,55.1L59.5,55.1z M59.5,55.1"/>
			<path class="st5" d="M59.5,36.7c-0.1,0-0.2,0-0.2,0c-0.5-0.6-0.8-1.3-0.8-1.8c0-0.9,0.6-1.8,1.8-2.8c0.4-0.3,0.5-0.9,0.4-1.3
				C60.5,30.3,60,30,59.5,30H35.6c-2.6,0-4.8,2.1-4.9,4.7c0,0,0,0.1,0,0.1v23.8c0,2.7,2.3,5,5,5h23.8c0.7,0,1.2-0.5,1.2-1.2
				c0-0.7-0.5-1.2-1.2-1.2H35.7c-1.4,0-2.6-1.1-2.6-2.6V39.2c0.7,0.5,1.6,0.7,2.6,0.7h0.2c0,0.1-0.1,0.3-0.1,0.4v8.5
				c0,0.5,0.3,0.9,0.7,1.1c0.4,0.2,0.9,0.2,1.3-0.1l4.3-3.2l3.7,3.1c0.2,0.2,0.5,0.3,0.8,0.3c0.2,0,0.3,0,0.5-0.1
				c0.4-0.2,0.7-0.6,0.7-1.1V40c0,0,0,0,0,0h10.6v12.2c0,0.7,0.5,1.2,1.2,1.2c0.7,0,1.2-0.5,1.2-1.2V38
				C60.7,37.3,60.2,36.7,59.5,36.7L59.5,36.7z M45.3,40v6.3l-2.4-2.1c-0.4-0.4-1-0.4-1.5-0.1l-3.2,2.3v-6.1c0-0.1,0-0.3-0.1-0.4
				L45.3,40C45.3,39.9,45.3,40,45.3,40L45.3,40z M35.6,37.5c-1.4,0-2.6-1.1-2.6-2.6c0-1.4,1.1-2.6,2.6-2.6h21.2
				C56.3,33.2,56,34.1,56,35c0,0.9,0.3,1.7,0.8,2.6H35.6z M35.6,37.5"/>
		</g>
	</g>
</g>
<g id="图层_2">
	<path class="st6" d="M88.6,52.6c-1.1,8.4-4.9,16.6-11.2,23.3c-12.9,13.6-32.7,16.5-48.7,8.7c-3.7-1.8-7.3-4.3-10.4-7.3 M5.9,53.6
		c-1-6.4-0.5-13.1,1.5-19.3c0.7-2.2,1.6-4.3,2.6-6.4c1.8-3.5,4.1-6.8,7-9.8c2.7-2.9,5.8-5.3,9.1-7.2 M37.8,6.2
		c2-0.5,3.9-0.8,5.9-0.9c11.5-0.9,23.3,2.8,32.3,11.4c3.9,3.7,6.9,8,9.1,12.7"/>
	<path class="st6" d="M17.4,60.8c-1.9-4.2-3-8.9-3-13.8c0-18.1,14.7-32.9,32.8-32.9c4.3,0,8.4,0.8,12.2,2.3 M76.7,32.7
		C78.8,37,80,41.9,80,47c0,3.1-0.4,6.1-1.2,8.9c-1,3.4-2.4,6.6-4.3,9.4 M65.5,74.2c-2.7,1.8-5.7,3.3-8.9,4.2c-3,0.9-6.2,1.4-9.4,1.4
		c-5.2,0-10.2-1.2-14.6-3.4"/>
	<path class="st7" d="M47,20.3c14.8,0,26.7,12,26.7,26.7S61.8,73.7,47,73.7S20.3,61.8,20.3,47S32.2,20.3,47,20.3z"/>
	<g>
		<path class="st8" d="M60.1,38.5h-1.5v8.9h4.6v3.7h-4.6v1.2c0,1.7-1.4,3.1-3.1,3.1H30.8V57c0,1.7,1.4,3.1,3.1,3.1h26.3
			c1.7,0,3.1-1.4,3.1-3.1V41.6C63.2,39.9,61.8,38.5,60.1,38.5L60.1,38.5z M60.1,38.5"/>
		<path class="st9" d="M60.1,60.9H33.9c-2.1,0-3.9-1.7-3.9-3.9V38.5c0-0.4,0.3-0.8,0.8-0.8h29.4c2.1,0,3.9,1.7,3.9,3.9V57
			C64,59.2,62.3,60.9,60.1,60.9L60.1,60.9z M31.5,39.3V57c0,1.3,1,2.3,2.3,2.3h26.3c1.3,0,2.3-1,2.3-2.3V41.6c0-1.3-1-2.3-2.3-2.3
			H31.5z M31.5,39.3"/>
		<path class="st8" d="M52.4,38.5H30.8v-2.3c0-1.3,1-2.3,2.3-2.3h17c1.3,0,2.3,1,2.3,2.3V38.5z M52.4,38.5"/>
		<path class="st9" d="M52.4,39.3H30.8c-0.4,0-0.8-0.3-0.8-0.8v-2.3c0-1.7,1.4-3.1,3.1-3.1h17c1.7,0,3.1,1.4,3.1,3.1v2.3
			C53.2,38.9,52.8,39.3,52.4,39.3L52.4,39.3z M31.5,37.7h20.1v-1.5c0-0.9-0.7-1.5-1.5-1.5h-17c-0.9,0-1.5,0.7-1.5,1.5V37.7z
			 M63.2,52.3h-7c-1.7,0-3.1-1.4-3.1-3.1c0-1.7,1.4-3.1,3.1-3.1h7c0.2,0,0.4,0.1,0.5,0.2c0.1,0.1,0.2,0.3,0.2,0.5v4.6
			C63.9,51.9,63.6,52.3,63.2,52.3L63.2,52.3z M56.2,47.7c-0.9,0-1.5,0.7-1.5,1.5c0,0.9,0.7,1.5,1.5,1.5h6.2v-3.1H56.2z M56.2,47.7"
			/>
		<path class="st9" d="M48.2,49.3c0,0.9,0.7,1.5,1.5,1.5c0.9,0,1.5-0.7,1.5-1.5s-0.7-1.5-1.5-1.5C48.8,47.8,48.2,48.5,48.2,49.3
			L48.2,49.3z M48.2,49.3"/>
	</g>
</g>
<g id="图层_3" class="st0">
	<path class="st1" d="M71.5,80.9c-6.9,5-15.4,8-24.5,8c-18.7,0-34.5-12.3-39.9-29.3c-1.3-4-1.9-8.2-1.9-12.6 M13.7,21.6
		c3.9-5.2,9.1-9.4,15-12.3c2.1-1,4.2-1.8,6.4-2.5c3.8-1.1,7.7-1.7,11.9-1.7c4,0,7.8,0.6,11.5,1.6 M70,12c1.7,1.1,3.3,2.3,4.8,3.7
		c8.6,7.7,14,18.9,14,31.3c0,5.4-1,10.6-2.9,15.3"/>
	<path class="st1" d="M17.2,60.8c-1.9-4.2-3-8.9-3-13.8c0-18.1,14.7-32.9,32.8-32.9c4.3,0,8.4,0.8,12.2,2.3 M76.5,32.7
		c2.1,4.3,3.3,9.2,3.3,14.3c0,3.1-0.4,6.1-1.2,8.9c-1,3.4-2.4,6.6-4.3,9.4 M65.3,74.2c-2.7,1.8-5.7,3.3-8.9,4.2
		c-3,0.9-6.2,1.4-9.4,1.4c-5.2,0-10.2-1.2-14.6-3.4"/>
	<path class="st2" d="M47,20.3c14.8,0,26.7,12,26.7,26.7S61.8,73.7,47,73.7c-14.8,0-26.7-12-26.7-26.7S32.2,20.3,47,20.3z"/>
	<path class="st11" d="M62.5,59h-31c-1.1,0-2-0.9-2-2V37c0-1.1,0.9-2,2-2h31c1.1,0,2,0.9,2,2V57C64.5,58.1,63.6,59,62.5,59z"/>
	<rect x="34" y="40" class="st12" width="13.4" height="14"/>
	<path class="st13" d="M46.7,39H34.6c-0.8,0-1.4,0.6-1.4,1.4v13.2c0,0.8,0.6,1.4,1.4,1.4h12.1c0.8,0,1.4-0.6,1.4-1.4V40.4
		C48.1,39.6,47.5,39,46.7,39L46.7,39z M47.4,53.6c0,0.3-0.1,0.5-0.4,0.6c-0.5-2.1-3.5-3-4.2-3.2c0-0.3,0-0.8,0-1.1
		c0.4-0.5,0.6-1.4,0.6-1.8c0.1-0.1,0.3-0.4,0.4-0.9c0.1-0.5,0.1-0.8,0-1.1c0-0.1-0.1-0.1-0.1-0.1c0.3-1.1,0.2-2-0.2-2.7
		c-0.6-0.9-1.5-1.1-2.1-1.1c-1.1-0.1-2.1-0.9-2.1-0.9c-0.1-0.1-0.2-0.1-0.3,0c-0.1,0-0.1,0.1-0.1,0.2l0,1c-0.8,0.4-1.9,1.3-1.3,3.6
		c0,0-0.1,0.1-0.1,0.1c-0.1,0.3-0.1,0.6,0,1.1c0.1,0.5,0.3,0.8,0.4,0.9c0,0.4,0.2,1.3,0.6,1.8c0,0.3,0.1,0.8,0,1.1
		c-0.7,0.2-3.7,1-4.2,3.2c-0.2-0.1-0.4-0.3-0.4-0.6V40.4c0-0.3,0.3-0.6,0.6-0.6h12.2c0.3,0,0.6,0.3,0.6,0.6V53.6z M51.5,40.5h5.1v1
		h-5.1V40.5z M51.5,43.5h9.3v1h-9.3V43.5z M51.5,48.4h2.2v1h-2.2V48.4z M54.9,48.4h2.9v1h-2.9V48.4z M51.5,51.4h9.3v1h-9.3V51.4z
		 M51.5,51.4"/>
</g>
<g id="图层_4" class="st0">
	<path class="st1" d="M31.9,86.4c-7.9-3.1-15-8.6-20-16.3C1.7,54.4,3.4,34.4,14.8,20.7c2.7-3.2,5.8-6.1,9.5-8.5 M50.2,5.6
		c6.5,0.5,12.8,2.5,18.5,5.9c2,1.2,3.8,2.5,5.6,4.1c3,2.6,5.6,5.6,7.9,9.1c2.2,3.3,3.8,6.9,4.9,10.5 M88.8,47.7c0,2-0.2,4-0.5,6
		c-1.8,11.4-8.2,22-18.6,28.8c-4.5,2.9-9.4,4.9-14.4,5.9"/>
	<path class="st1" d="M17.2,61.2c-1.9-4.2-3-8.9-3-13.8c0-18.1,14.7-32.9,32.8-32.9c4.3,0,8.4,0.8,12.2,2.3 M76.5,33
		c2.1,4.3,3.3,9.2,3.3,14.3c0,3.1-0.4,6.1-1.2,8.9c-1,3.4-2.4,6.6-4.3,9.4 M65.3,74.6c-2.7,1.8-5.7,3.3-8.9,4.2
		c-3,0.9-6.2,1.4-9.4,1.4c-5.2,0-10.2-1.2-14.6-3.4"/>
	<path class="st2" d="M46.6,19.9c14.8,0,26.7,12,26.7,26.7c0,14.8-12,26.7-26.7,26.7s-26.7-12-26.7-26.7
		C19.9,31.8,31.9,19.9,46.6,19.9z"/>
	<defs>
		<filter id="Adobe_OpacityMaskFilter" filterUnits="userSpaceOnUse" x="28.9" y="41.3" width="35.5" height="11.3">
			<feFlood  style="flood-color:white;flood-opacity:1" result="back"/>
			<feBlend  in="SourceGraphic" in2="back" mode="normal"/>
		</filter>
	</defs>
	<mask maskUnits="userSpaceOnUse" x="28.9" y="41.3" width="35.5" height="11.3" id="SVGID_4_" class="st3">
	</mask>
	<rect x="28.9" y="41.3" class="st15" width="35.5" height="11.3"/>
	<path class="st16" d="M30.9,34.2v16.4c0,0.4,0.3,0.7,0.7,0.7h29.9c0.4,0,0.7-0.3,0.7-0.7V34.2c0-0.4-0.3-0.7-0.7-0.7H31.7
		C31.2,33.4,30.9,33.7,30.9,34.2L30.9,34.2z M28.7,34.2c0-1.6,1.3-3,3-3h29.9c1.6,0,3,1.3,3,3v16.4c0,1.6-1.3,3-3,3H31.7
		c-1.6,0-3-1.3-3-3V34.2z M34.4,59.6h23.2c0.6,0,1.2,0.4,1.2,1.2c0,0.6-0.4,1.2-1.2,1.2H34.4c-0.6,0-1.2-0.4-1.2-1.2
		C33.2,60.1,33.6,59.6,34.4,59.6L34.4,59.6z M34.4,59.6"/>
	<path class="st13" d="M33.4,47.7h25c0.6,0,1.3,0.5,1.3,1.3c0,0.6-0.5,1.3-1.3,1.3h-25c-0.6,0-1.3-0.5-1.3-1.3
		C32.1,48.2,32.6,47.7,33.4,47.7L33.4,47.7z M45,52.6h2.4v9.7H45V52.6z M45,52.6"/>
</g>
<g id="图层_5" class="st0">
	<path class="st1" d="M8.8,64.1c-3.5-7.8-4.6-16.7-2.7-25.7C9.9,20,25.2,7.1,42.9,5.3C47,4.9,51.3,5.1,55.6,6 M78.6,19.6
		c4.3,4.9,7.3,10.8,8.9,17.2c0.6,2.2,0.9,4.5,1.1,6.8c0.3,3.9,0.1,7.9-0.8,12c-0.8,3.9-2.2,7.6-3.9,10.9 M76.4,76.8
		c-1.4,1.4-3,2.7-4.6,3.9c-9.3,6.9-21.3,9.9-33.5,7.3c-5.3-1.1-10.1-3.2-14.4-6"/>
	<path class="st1" d="M17.2,60.8c-1.9-4.2-3-8.9-3-13.8c0-18.1,14.7-32.9,32.8-32.9c4.3,0,8.4,0.8,12.2,2.3 M76.5,32.7
		c2.1,4.3,3.3,9.2,3.3,14.3c0,3.1-0.4,6.1-1.2,8.9c-1,3.4-2.4,6.6-4.3,9.4 M65.3,74.2c-2.7,1.8-5.7,3.3-8.9,4.2
		c-3,0.9-6.2,1.4-9.4,1.4c-5.2,0-10.2-1.2-14.6-3.4"/>
	<path class="st2" d="M47.6,20.6c14.8,0,26.7,12,26.7,26.7c0,14.8-12,26.7-26.7,26.7s-26.7-12-26.7-26.7
		C20.9,32.5,32.8,20.6,47.6,20.6z"/>
	<g class="st3">
		<defs>
			<filter id="Adobe_OpacityMaskFilter_1_" filterUnits="userSpaceOnUse" x="34.9" y="49.7" width="23.3" height="13.5">
				<feFlood  style="flood-color:white;flood-opacity:1" result="back"/>
				<feBlend  in="SourceGraphic" in2="back" mode="normal"/>
			</filter>
		</defs>
		<mask maskUnits="userSpaceOnUse" x="34.9" y="49.7" width="23.3" height="13.5" id="SVGID_5_">
		</mask>
		<path class="st18" d="M58.3,60.9c0-4.9-3.1-9.4-7.5-11.1c-1.2,1.2-2.6,1.8-4.1,1.8c-1.5,0-2.9-0.6-4.1-1.7
			c-4.5,1.7-7.6,6.2-7.6,11.1c0,0.6,3.6,2.3,11.7,2.3C54.7,63.2,58.3,61.5,58.3,60.9L58.3,60.9z M58.3,60.9"/>
		<path class="st19" d="M47.6,31.2L47.6,31.2c0-0.3-0.3-0.6-0.6-0.6h0c-3.2,0-5.8,2.6-5.8,5.8c0,0.3,0.3,0.6,0.6,0.6
			c0.1,0,0.2,0,0.3-0.1c0.2-0.1,0.3-0.3,0.3-0.5v0c0-2.6,2.1-4.6,4.6-4.6h0C47.3,31.8,47.6,31.6,47.6,31.2L47.6,31.2L47.6,31.2z
			 M41.6,38.3c-0.1,0.1-0.2,0.3-0.2,0.4s0.1,0.3,0.2,0.4c0.1,0.1,0.3,0.2,0.4,0.2c0,0,0,0,0,0c0.2,0,0.3-0.1,0.4-0.2
			c0.1-0.1,0.2-0.3,0.2-0.4c0-0.2-0.1-0.3-0.2-0.4c-0.1-0.1-0.2-0.2-0.4-0.2C41.8,38.1,41.7,38.2,41.6,38.3L41.6,38.3z M41.6,38.3"
			/>
		<path class="st19" d="M52.2,47.8c2.5-3.4,4-8.4,4-11.7c0-5.3-4.3-9.5-9.6-9.5c-5.3,0-9.5,4.3-9.5,9.5c0,3.2,1.5,8.3,4,11.7
			c-4.4,1.9-7.6,6.1-8.4,10.9c-0.1,0.6-0.2,1.4-0.2,2.1c0,1.8,1.9,2.9,4.4,3.6c3.4,0.9,7.7,1,9.6,1c1.8,0,5.6-0.1,8.9-0.8
			c2.8-0.7,5.1-1.8,5.1-3.8c0-1-0.1-2-0.3-3c-1-4.4-3-8.2-7.1-10.1H52.2z M39.4,36.2c0-4,3.2-7.2,7.2-7.2c4,0,7.2,3.2,7.2,7.2
			c0,4.5-3.7,12.9-7.2,12.9C43.1,49.1,39.4,40.7,39.4,36.2L39.4,36.2z M34.9,60.9c0-4.9,3.1-9.4,7.6-11.1c1.2,1.1,2.6,1.7,4.1,1.7
			c1.4,0,2.8-0.6,4.1-1.8c4.5,1.7,7.5,6.2,7.5,11.1c0,0.6-3.6,2.3-11.7,2.3C38.5,63.2,34.9,61.5,34.9,60.9L34.9,60.9z M34.9,60.9"/>
	</g>
</g>
<g id="图层_6" class="st0">
	<path class="st1" d="M23.4,80.5c-7-4.8-12.7-11.8-15.7-20.5c-6.3-17.6,0-36.7,14.1-47.5C25.1,10.1,28.9,8,33,6.6 M59.7,6.1
		c6.2,2,11.9,5.4,16.6,10c1.6,1.6,3.1,3.3,4.5,5.2c2.3,3.2,4.2,6.7,5.6,10.6c1.3,3.8,2.1,7.6,2.4,11.4 M87.7,56
		c-0.5,2-1.1,3.9-1.8,5.7c-4.3,10.7-13,19.6-24.7,23.8C56,87.3,50.8,88,45.7,87.9"/>
	<path class="st1" d="M17.3,59.8c-1.9-4.2-3-8.9-3-13.8c0-18.1,14.7-32.9,32.8-32.9c4.3,0,8.4,0.8,12.2,2.3 M76.6,31.7
		c2.1,4.3,3.3,9.2,3.3,14.3c0,3.1-0.4,6.1-1.2,8.9c-1,3.4-2.4,6.6-4.3,9.4 M65.4,73.3c-2.7,1.8-5.7,3.3-8.9,4.2
		c-3,0.9-6.2,1.4-9.4,1.4c-5.2,0-10.2-1.2-14.6-3.4"/>
	<path class="st2" d="M47.4,19.6c14.8,0,26.7,12,26.7,26.7s-12,26.7-26.7,26.7s-26.7-12-26.7-26.7S32.6,19.6,47.4,19.6z"/>
	<g class="st3">
		<path class="st20" d="M49.3,32.2c0.4-0.2,1.1-0.2,1.5,0l14.1,8.3c0.4,0.2,0.7,0.8,0.7,1.3v16.5c0,0.5-0.3,1-0.7,1.3l-14.1,8.3
			c-0.4,0.2-1.1,0.2-1.5,0l-14.1-8.3c-0.4-0.2-0.7-0.8-0.7-1.3V41.8c0-0.5,0.3-1,0.7-1.3L49.3,32.2z M49.3,32.2"/>
		<g>
			<path class="st9" d="M62.3,35.1l-15.1-8.9c-0.4-0.2-1.1-0.2-1.5,0l-15.1,8.9c-0.4,0.2-0.7,0.8-0.7,1.3v17.8c0,0.5,0.3,1,0.7,1.3
				l15.1,8.9c0.4,0.2,1.1,0.2,1.5,0l15.1-8.9c0.4-0.2,0.7-0.8,0.7-1.3V36.3C63,35.9,62.7,35.3,62.3,35.1L62.3,35.1z M61.4,53.2
				c0,0.4-0.3,0.9-0.7,1.2l-13.7,8c-0.4,0.2-1,0.2-1.3,0l-13.7-8c-0.4-0.2-0.7-0.7-0.7-1.2v-16c0-0.4,0.3-0.9,0.7-1.2l13.7-8
				c0.4-0.2,1-0.2,1.3,0l13.7,8c0.4,0.2,0.7,0.7,0.7,1.2L61.4,53.2L61.4,53.2z M61.4,53.2"/>
			<path class="st9" d="M46.4,52.6c-0.2,0-0.4-0.1-0.6-0.2c-0.4-0.3-4.5-5.4-5.8-7c-0.1-0.1-0.5-0.7-0.1-1.6
				c0.2-0.4,0.3-0.8,0.5-1.3c0.1-0.3,0.2-0.7,0.4-1c0.2-0.5,0.7-0.8,1.2-0.8h8.6c0.6,0,1.2,0.4,1.4,1c0.3,0.7,0.9,2.3,0.9,2.4
				c0,0.1,0.2,0.7-0.4,1.6c-0.5,0.7-5.2,6.4-5.4,6.6l0,0C46.9,52.5,46.7,52.6,46.4,52.6L46.4,52.6z M46.4,52.6"/>
			<path class="st9" d="M46.4,52.9c-0.3,0-0.6-0.1-0.8-0.3c-0.4-0.3-3.4-4-5.8-7c-0.1-0.1-0.6-0.8-0.1-2c0.2-0.4,0.3-0.8,0.5-1.2
				c0.1-0.4,0.3-0.7,0.4-1.1c0.3-0.6,0.9-1,1.6-1h8.6c0.8,0,1.5,0.5,1.7,1.2c0.3,0.6,0.8,2,0.9,2.4c0.1,0.2,0.3,1-0.5,1.9
				c-0.5,0.6-4.2,5.2-5.4,6.6l-0.1,0.1C47.1,52.8,46.8,52.9,46.4,52.9L46.4,52.9z M50.7,41.1"/>
			<path class="st9" d="M49.1,45.1h-5.3c-0.2,0-0.4-0.2-0.4-0.4c0-0.2,0.2-0.4,0.4-0.4h5.3c0.2,0,0.4,0.2,0.4,0.4
				C49.5,44.9,49.3,45.1,49.1,45.1"/>
		</g>
	</g>
</g>
<g id="图层_7" class="st0">
	<g class="st3">
		<path class="st6" d="M15.3,74.3c-5.6-6.4-9.2-14.7-10-23.8C3.7,31.8,14.6,15,31,8.2c3.9-1.6,8-2.6,12.4-3 M69.4,11.6
			c5.5,3.5,10.1,8.3,13.5,13.9c1.2,2,2.2,4,3,6.2c1.4,3.7,2.4,7.6,2.7,11.7c0.3,4,0.1,7.9-0.6,11.6 M83.8,66.9c-1,1.8-2,3.5-3.2,5.1
			c-6.9,9.2-17.6,15.6-30,16.7c-5.4,0.5-10.6-0.1-15.5-1.6"/>
		<path class="st6" d="M17.2,60.7c-1.9-4.2-3-8.9-3-13.8c0-18.1,14.7-32.9,32.8-32.9c4.3,0,8.4,0.8,12.2,2.3 M76.5,32.6
			c2.1,4.3,3.3,9.2,3.3,14.3c0,3.1-0.4,6.1-1.2,8.9c-1,3.4-2.4,6.6-4.3,9.4 M65.3,74.2c-2.7,1.8-5.7,3.3-8.9,4.2
			c-3,0.9-6.2,1.4-9.4,1.4c-5.2,0-10.2-1.2-14.6-3.4"/>
		<path class="st7" d="M47.4,21.1c14.8,0,26.7,12,26.7,26.7s-12,26.7-26.7,26.7s-26.7-12-26.7-26.7S32.7,21.1,47.4,21.1z"/>
		<g>
			<g>
				<defs>
					<rect id="SVGID_1_" x="31.1" y="29.8" width="34.7" height="40"/>
				</defs>
				<clipPath id="SVGID_6_">
					<use xlink:href="#SVGID_1_"  style="overflow:visible;"/>
				</clipPath>
				<path class="st21" d="M63.3,45.5c0,19.8-13,22.1-13,22.1s-12.9-2.3-12.9-22.1v-5.8c0,0,0.4,0,1.2,0c1.2,0,3.3-0.1,5.3-0.6
					c3.3-0.8,6.4-4,6.4-4s3.3,3.3,6.6,4c2,0.5,4,0.6,5.3,0.6c0.7,0,1.2,0,1.2,0L63.3,45.5z M63.3,45.5"/>
			</g>
			<path class="st19" d="M59.2,42.6c0,19.8-13,22.1-13,22.1s-12.9-2.3-12.9-22.1v-5.8c0,0,0.4,0,1.2,0c1.2,0,3.3-0.1,5.3-0.6
				c3.3-0.8,6.4-4,6.4-4s3.3,3.3,6.6,4c2,0.5,4,0.6,5.3,0.6c0.7,0,1.2,0,1.2,0L59.2,42.6z M60.8,35c-0.4-0.4-1-0.6-1.6-0.6
				c-0.1,0-0.1,0-0.2,0c0,0-0.4,0-1,0c-1,0-2.9-0.1-4.7-0.5c-2.3-0.6-5-3.2-5.8-3.7c-0.4-0.3-0.8-0.4-1.3-0.4
				c-0.5,0-0.9,0.1-1.3,0.4c-0.7,0.5-2.9,3.1-5.7,3.7c-1.8,0.4-3.7,0.5-4.7,0.5c-0.6,0-1,0-1,0c0,0-0.1,0-0.2,0
				c-0.6,0-1.2,0.2-1.6,0.6c-0.5,0.4-0.7,1.1-0.7,1.7v5.8c0,21.5,14.2,24.3,14.8,24.4c0.1,0,0.3,0,0.4,0c0.1,0,0.3,0,0.4,0
				c0.6-0.1,14.9-2.9,14.9-24.4v-5.8C61.6,36.1,61.3,35.5,60.8,35L60.8,35z M60.8,35"/>
			<path class="st19" d="M55.1,44.4c0.5-0.5,0.5-1.4,0-2c-0.5-0.5-1.4-0.5-2,0l-9.1,9.1l-4.6-4.6c-0.5-0.5-1.4-0.5-2,0
				c-0.5,0.5-0.5,1.4,0,2l5.6,5.6c0.5,0.5,1.4,0.5,2,0L55.1,44.4z M55.1,44.4"/>
		</g>
	</g>
</g>
</svg>
