<?xml version="1.0" encoding="utf-8"?>
<!-- Generator: Adobe Illustrator 21.0.0, SVG Export Plug-In . SVG Version: 6.00 Build 0)  -->
<svg version="1.1" xmlns="http://www.w3.org/2000/svg" xmlns:xlink="http://www.w3.org/1999/xlink" x="0px" y="0px"
	 viewBox="0 0 94 94" style="enable-background:new 0 0 94 94;" xml:space="preserve">
<style type="text/css">
	.st0{display:none;}
	.st1{display:inline;fill-rule:evenodd;clip-rule:evenodd;fill:none;stroke:#3EC6C6;stroke-miterlimit:10;}
	.st2{display:inline;fill-rule:evenodd;clip-rule:evenodd;fill:#E7F7F8;stroke:#E7F7F8;stroke-miterlimit:10;}
	.st3{display:inline;}
	.st4{fill:#00ADB4;fill-opacity:0.35;}
	.st5{clip-path:url(#SVGID_1_);fill:#00ADB4;}
	.st6{opacity:0.32;fill:#00ADB4;stroke:#00ADB4;stroke-miterlimit:10;}
	.st7{fill:#00ADB4;stroke:#00ADB4;stroke-miterlimit:10;}
	.st8{fill-rule:evenodd;clip-rule:evenodd;fill:none;}
	.st9{display:inline;fill:#0D8E8B;fill-opacity:0.2;stroke:#00ADB4;stroke-width:2.5;stroke-miterlimit:10;}
	.st10{display:inline;fill:#FFFFFF;}
	.st11{display:inline;fill:#00ADB4;}
	.st12{fill-rule:evenodd;clip-rule:evenodd;fill:none;stroke:#3EC6C6;stroke-miterlimit:10;}
	.st13{fill-rule:evenodd;clip-rule:evenodd;fill:#E7F7F8;stroke:#E7F7F8;stroke-miterlimit:10;}
	.st14{filter:url(#Adobe_OpacityMaskFilter);}
	.st15{mask:url(#SVGID_2_);fill:#00ADB4;fill-opacity:0.43;}
	.st16{fill:#00ADB4;stroke:#00ADB4;stroke-width:0.5;stroke-miterlimit:10;}
	.st17{fill:#00ADB4;}
	.st18{filter:url(#Adobe_OpacityMaskFilter_1_);}
	.st19{mask:url(#SVGID_4_);fill:#00ADB4;fill-opacity:0.46;}
</style>
<g id="图层_1" class="st0">
	<path class="st1" d="M71.5,80.9c-6.9,5-15.4,8-24.5,8c-18.7,0-34.5-12.3-39.9-29.3c-1.3-4-1.9-8.2-1.9-12.6 M13.7,21.6
		c3.9-5.2,9.1-9.4,15-12.3c2.1-1,4.2-1.8,6.4-2.5c3.8-1.1,7.7-1.7,11.9-1.7c4,0,7.8,0.6,11.5,1.6 M70,12c1.7,1.1,3.3,2.3,4.8,3.7
		c8.6,7.7,14,18.9,14,31.3c0,5.4-1,10.6-2.9,15.3"/>
	<path class="st1" d="M17.2,60.8c-1.9-4.2-3-8.9-3-13.8c0-18.1,14.7-32.9,32.8-32.9c4.3,0,8.4,0.8,12.2,2.3 M76.5,32.7
		c2.1,4.3,3.3,9.2,3.3,14.3c0,3.1-0.4,6.1-1.2,8.9c-1,3.4-2.4,6.6-4.3,9.4 M65.3,74.2c-2.7,1.8-5.7,3.3-8.9,4.2
		c-3,0.9-6.2,1.4-9.4,1.4c-5.2,0-10.2-1.2-14.6-3.4"/>
	<path class="st2" d="M47.3,20.6c14.8,0,26.7,12,26.7,26.7s-12,26.7-26.7,26.7c-14.8,0-26.7-12-26.7-26.7S32.6,20.6,47.3,20.6z"/>
	<g class="st3">
		<path class="st4" d="M62.7,41.5h0.4c-1.6-1.3-2.4-2.6-2.4-3.9c0-1.3,0.8-2.6,2.4-3.9H38.2c-2.2,0-3.9,1.8-3.9,3.9v20.3
			c0,4,3.2,7.2,7.2,7.2h21.7V41.5L62.7,41.5z M62.7,41.5"/>
		<g>
			<defs>
				<rect id="SVGID_3_" x="30.7" y="30" width="32.6" height="35.1"/>
			</defs>
			<clipPath id="SVGID_1_">
				<use xlink:href="#SVGID_3_"  style="overflow:visible;"/>
			</clipPath>
			<path class="st5" d="M59.5,55.1c-0.7,0-1.2,0.5-1.2,1.2v1.8c0,0.7,0.5,1.2,1.2,1.2c0.7,0,1.2-0.5,1.2-1.2v-1.8
				C60.7,55.6,60.2,55.1,59.5,55.1L59.5,55.1z M59.5,55.1"/>
			<path class="st5" d="M59.5,36.7c-0.1,0-0.2,0-0.2,0c-0.5-0.6-0.8-1.3-0.8-1.8c0-0.9,0.6-1.8,1.8-2.8c0.4-0.3,0.5-0.9,0.4-1.3
				C60.5,30.3,60,30,59.5,30H35.6c-2.6,0-4.8,2.1-4.9,4.7c0,0,0,0.1,0,0.1v23.8c0,2.7,2.3,5,5,5h23.8c0.7,0,1.2-0.5,1.2-1.2
				c0-0.7-0.5-1.2-1.2-1.2H35.7c-1.4,0-2.6-1.1-2.6-2.6V39.2c0.7,0.5,1.6,0.7,2.6,0.7h0.2c0,0.1-0.1,0.3-0.1,0.4v8.5
				c0,0.5,0.3,0.9,0.7,1.1c0.4,0.2,0.9,0.2,1.3-0.1l4.3-3.2l3.7,3.1c0.2,0.2,0.5,0.3,0.8,0.3c0.2,0,0.3,0,0.5-0.1
				c0.4-0.2,0.7-0.6,0.7-1.1V40c0,0,0,0,0,0h10.6v12.2c0,0.7,0.5,1.2,1.2,1.2c0.7,0,1.2-0.5,1.2-1.2V38
				C60.7,37.3,60.2,36.7,59.5,36.7L59.5,36.7z M45.3,40v6.3l-2.4-2.1c-0.4-0.4-1-0.4-1.5-0.1l-3.2,2.3v-6.1c0-0.1,0-0.3-0.1-0.4
				L45.3,40C45.3,39.9,45.3,40,45.3,40L45.3,40z M35.6,37.5c-1.4,0-2.6-1.1-2.6-2.6c0-1.4,1.1-2.6,2.6-2.6h21.2
				C56.3,33.2,56,34.1,56,35c0,0.9,0.3,1.7,0.8,2.6H35.6z M35.6,37.5"/>
		</g>
	</g>
</g>
<g id="图层_2" class="st0">
	<path class="st1" d="M88.6,52.6c-1.1,8.4-4.9,16.6-11.2,23.3c-12.9,13.6-32.7,16.5-48.7,8.7c-3.7-1.8-7.3-4.3-10.4-7.3 M5.9,53.6
		c-1-6.4-0.5-13.1,1.5-19.3c0.7-2.2,1.6-4.3,2.6-6.4c1.8-3.5,4.1-6.8,7-9.8c2.7-2.9,5.8-5.3,9.1-7.2 M37.8,6.2
		c2-0.5,3.9-0.8,5.9-0.9c11.5-0.9,23.3,2.8,32.3,11.4c3.9,3.7,6.9,8,9.1,12.7"/>
	<path class="st1" d="M17.4,60.8c-1.9-4.2-3-8.9-3-13.8c0-18.1,14.7-32.9,32.8-32.9c4.3,0,8.4,0.8,12.2,2.3 M76.7,32.7
		C78.8,37,80,41.9,80,47c0,3.1-0.4,6.1-1.2,8.9c-1,3.4-2.4,6.6-4.3,9.4 M65.5,74.2c-2.7,1.8-5.7,3.3-8.9,4.2c-3,0.9-6.2,1.4-9.4,1.4
		c-5.2,0-10.2-1.2-14.6-3.4"/>
	<path class="st2" d="M47,20.3c14.8,0,26.7,12,26.7,26.7S61.8,73.7,47,73.7S20.3,61.8,20.3,47S32.2,20.3,47,20.3z"/>
	<g class="st3">
		<path class="st6" d="M61.6,37.5h-1.7v10H65v4.1h-5.1V53c0,1.9-1.5,3.4-3.4,3.4H28.9v1.7c0,1.9,1.5,3.4,3.4,3.4h29.3
			c1.9,0,3.4-1.5,3.4-3.4V41C65.1,39.1,63.5,37.5,61.6,37.5L61.6,37.5z M61.6,37.5"/>
		<path class="st7" d="M61.6,62.5H32.4c-2.4,0-4.3-1.9-4.3-4.3V37.5c0-0.5,0.4-0.9,0.9-0.9h32.7c2.4,0,4.3,1.9,4.3,4.3v17.2
			C65.9,60.6,64,62.5,61.6,62.5L61.6,62.5z M29.8,38.4v19.8c0,1.4,1.2,2.6,2.6,2.6h29.3c1.4,0,2.6-1.2,2.6-2.6V41
			c0-1.4-1.2-2.6-2.6-2.6H29.8z M29.8,38.4"/>
		<path class="st6" d="M53,37.5H28.9V35c0-1.4,1.2-2.6,2.6-2.6h18.9c1.4,0,2.6,1.2,2.6,2.6V37.5z M53,37.5"/>
		<path class="st7" d="M53,38.4H28.9c-0.5,0-0.9-0.4-0.9-0.9V35c0-1.9,1.5-3.4,3.4-3.4h18.9c1.9,0,3.4,1.5,3.4,3.4v2.6
			C53.9,38,53.5,38.4,53,38.4L53,38.4z M29.8,36.7h22.4V35c0-0.9-0.8-1.7-1.7-1.7H31.5c-0.9,0-1.7,0.8-1.7,1.7V36.7z M65,52.9h-7.7
			c-1.9,0-3.4-1.5-3.4-3.4c0-1.9,1.5-3.4,3.4-3.4H65c0.2,0,0.4,0.1,0.6,0.3c0.2,0.2,0.3,0.4,0.3,0.6V52C65.9,52.5,65.5,52.9,65,52.9
			L65,52.9z M57.3,47.7c-0.9,0-1.7,0.8-1.7,1.7c0,0.9,0.8,1.7,1.7,1.7h6.9v-3.4H57.3z M57.3,47.7"/>
		<path class="st7" d="M48.3,49.6c0,1,0.8,1.7,1.7,1.7c1,0,1.7-0.8,1.7-1.7c0-1-0.8-1.7-1.7-1.7C49.1,47.9,48.3,48.6,48.3,49.6
			L48.3,49.6z M48.3,49.6"/>
	</g>
</g>
<g id="图层_3" class="st0">
	<path class="st1" d="M71.5,80.9c-6.9,5-15.4,8-24.5,8c-18.7,0-34.5-12.3-39.9-29.3c-1.3-4-1.9-8.2-1.9-12.6 M13.7,21.6
		c3.9-5.2,9.1-9.4,15-12.3c2.1-1,4.2-1.8,6.4-2.5c3.8-1.1,7.7-1.7,11.9-1.7c4,0,7.8,0.6,11.5,1.6 M70,12c1.7,1.1,3.3,2.3,4.8,3.7
		c8.6,7.7,14,18.9,14,31.3c0,5.4-1,10.6-2.9,15.3"/>
	<path class="st1" d="M17.2,60.8c-1.9-4.2-3-8.9-3-13.8c0-18.1,14.7-32.9,32.8-32.9c4.3,0,8.4,0.8,12.2,2.3 M76.5,32.7
		c2.1,4.3,3.3,9.2,3.3,14.3c0,3.1-0.4,6.1-1.2,8.9c-1,3.4-2.4,6.6-4.3,9.4 M65.3,74.2c-2.7,1.8-5.7,3.3-8.9,4.2
		c-3,0.9-6.2,1.4-9.4,1.4c-5.2,0-10.2-1.2-14.6-3.4"/>
	<path class="st2" d="M47,20.3c14.8,0,26.7,12,26.7,26.7S61.8,73.7,47,73.7c-14.8,0-26.7-12-26.7-26.7S32.2,20.3,47,20.3z"/>
	<path class="st9" d="M64.5,60.3h-35c-1.1,0-2-0.9-2-2V35.7c0-1.1,0.9-2,2-2h35c1.1,0,2,0.9,2,2v22.7C66.5,59.4,65.6,60.3,64.5,60.3
		z"/>
	<rect x="32.2" y="38.5" class="st10" width="15.6" height="17.1"/>
	<path class="st11" d="M46.7,37.7H32.6c-0.9,0-1.6,0.7-1.6,1.6v15.4c0,0.9,0.7,1.6,1.6,1.6h14.1c0.9,0,1.6-0.7,1.6-1.6V39.3
		C48.3,38.4,47.6,37.7,46.7,37.7L46.7,37.7z M47.4,54.7c0,0.3-0.2,0.5-0.4,0.7c-0.6-2.5-4.1-3.5-4.9-3.7c0-0.3,0-0.9,0-1.3
		c0.5-0.6,0.7-1.7,0.7-2.1c0.2-0.1,0.3-0.5,0.5-1.1c0.2-0.5,0.1-1,0-1.2c0-0.1-0.1-0.1-0.1-0.1c0.4-1.3,0.3-2.4-0.3-3.2
		c-0.7-1-1.8-1.3-2.4-1.3c-1.3-0.2-2.5-1-2.5-1c-0.1-0.1-0.2-0.1-0.3,0c-0.1,0-0.2,0.1-0.2,0.3l0,1.1c-0.9,0.4-2.2,1.5-1.5,4.2
		c0,0-0.1,0.1-0.1,0.1c-0.2,0.3-0.2,0.7,0,1.2c0.2,0.6,0.3,0.9,0.5,1.1c0,0.4,0.2,1.5,0.7,2.1c0,0.4,0.1,1,0,1.3
		c-0.9,0.2-4.4,1.2-5,3.7c-0.2-0.1-0.4-0.4-0.4-0.7V39.3c0-0.4,0.3-0.7,0.7-0.7h14.2c0.4,0,0.7,0.3,0.7,0.7V54.7z M52.2,39.4h5.9
		v1.2h-5.9V39.4z M52.2,42.9H63v1.2H52.2V42.9z M52.2,48.6h2.5v1.2h-2.5V48.6z M56.2,48.6h3.4v1.2h-3.4V48.6z M52.2,52.1H63v1.2
		H52.2V52.1z M52.2,52.1"/>
</g>
<g id="图层_4" class="st0">
	<g class="st3">
		<path class="st12" d="M31.9,86.4c-7.9-3.1-15-8.6-20-16.3C1.7,54.4,3.4,34.4,14.8,20.7c2.7-3.2,5.8-6.1,9.5-8.5 M50.2,5.6
			c6.5,0.5,12.8,2.5,18.5,5.9c2,1.2,3.8,2.5,5.6,4.1c3,2.6,5.6,5.6,7.9,9.1c2.2,3.3,3.8,6.9,4.9,10.5 M88.8,47.7c0,2-0.2,4-0.5,6
			c-1.8,11.4-8.2,22-18.6,28.8c-4.5,2.9-9.4,4.9-14.4,5.9"/>
		<path class="st12" d="M17.2,61.2c-1.9-4.2-3-8.9-3-13.8c0-18.1,14.7-32.9,32.8-32.9c4.3,0,8.4,0.8,12.2,2.3 M76.5,33
			c2.1,4.3,3.3,9.2,3.3,14.3c0,3.1-0.4,6.1-1.2,8.9c-1,3.4-2.4,6.6-4.3,9.4 M65.3,74.6c-2.7,1.8-5.7,3.3-8.9,4.2
			c-3,0.9-6.2,1.4-9.4,1.4c-5.2,0-10.2-1.2-14.6-3.4"/>
		<path class="st13" d="M46.6,19.9c14.8,0,26.7,12,26.7,26.7c0,14.8-12,26.7-26.7,26.7s-26.7-12-26.7-26.7
			C19.9,31.8,31.9,19.9,46.6,19.9z"/>
		<defs>
			<filter id="Adobe_OpacityMaskFilter" filterUnits="userSpaceOnUse" x="28.9" y="41.3" width="35.5" height="11.3">
				<feFlood  style="flood-color:white;flood-opacity:1" result="back"/>
				<feBlend  in="SourceGraphic" in2="back" mode="normal"/>
			</filter>
		</defs>
		<mask maskUnits="userSpaceOnUse" x="28.9" y="41.3" width="35.5" height="11.3" id="SVGID_2_">
		</mask>
		<rect x="28.9" y="41.3" class="st15" width="35.5" height="11.3"/>
		<path class="st16" d="M30.3,33.7v17.1c0,0.5,0.3,0.8,0.8,0.8h31.1c0.5,0,0.8-0.3,0.8-0.8V33.7c0-0.5-0.3-0.8-0.8-0.8H31.1
			C30.6,32.9,30.3,33.2,30.3,33.7L30.3,33.7z M28,33.7c0-1.7,1.4-3.1,3.1-3.1h31.1c1.7,0,3.1,1.4,3.1,3.1v17.1
			c0,1.7-1.4,3.1-3.1,3.1H31.1c-1.7,0-3.1-1.4-3.1-3.1V33.7z M33.9,60.1H58c0.6,0,1.2,0.5,1.2,1.2c0,0.6-0.5,1.2-1.2,1.2H33.9
			c-0.6,0-1.2-0.5-1.2-1.2C32.7,60.6,33.1,60.1,33.9,60.1L33.9,60.1z M33.9,60.1"/>
		<path class="st17" d="M33.4,47.7h25c0.6,0,1.3,0.5,1.3,1.3c0,0.6-0.5,1.3-1.3,1.3h-25c-0.6,0-1.3-0.5-1.3-1.3
			C32.1,48.2,32.6,47.7,33.4,47.7L33.4,47.7z M45,52.6h2.4v9.7H45V52.6z M45,52.6"/>
	</g>
</g>
<g id="图层_5">
	<path class="st12" d="M8.8,64.1c-3.5-7.8-4.6-16.7-2.7-25.7C9.9,20,25.2,7.1,42.9,5.3C47,4.9,51.3,5.1,55.6,6 M78.6,19.6
		c4.3,4.9,7.3,10.8,8.9,17.2c0.6,2.2,0.9,4.5,1.1,6.8c0.3,3.9,0.1,7.9-0.8,12c-0.8,3.9-2.2,7.6-3.9,10.9 M76.4,76.8
		c-1.4,1.4-3,2.7-4.6,3.9c-9.3,6.9-21.3,9.9-33.5,7.3c-5.3-1.1-10.1-3.2-14.4-6"/>
	<path class="st12" d="M17.2,60.8c-1.9-4.2-3-8.9-3-13.8c0-18.1,14.7-32.9,32.8-32.9c4.3,0,8.4,0.8,12.2,2.3 M76.5,32.7
		c2.1,4.3,3.3,9.2,3.3,14.3c0,3.1-0.4,6.1-1.2,8.9c-1,3.4-2.4,6.6-4.3,9.4 M65.3,74.2c-2.7,1.8-5.7,3.3-8.9,4.2
		c-3,0.9-6.2,1.4-9.4,1.4c-5.2,0-10.2-1.2-14.6-3.4"/>
	<path class="st13" d="M47.6,20.6c14.8,0,26.7,12,26.7,26.7c0,14.8-12,26.7-26.7,26.7s-26.7-12-26.7-26.7
		C20.9,32.5,32.8,20.6,47.6,20.6z"/>
	<g>
		<defs>
			<filter id="Adobe_OpacityMaskFilter_1_" filterUnits="userSpaceOnUse" x="34.9" y="49.7" width="23.3" height="13.5">
				<feFlood  style="flood-color:white;flood-opacity:1" result="back"/>
				<feBlend  in="SourceGraphic" in2="back" mode="normal"/>
			</filter>
		</defs>
		<mask maskUnits="userSpaceOnUse" x="34.9" y="49.7" width="23.3" height="13.5" id="SVGID_4_">
		</mask>
		<path class="st19" d="M58.3,60.9c0-4.9-3.1-9.4-7.5-11.1c-1.2,1.2-2.6,1.8-4.1,1.8c-1.5,0-2.9-0.6-4.1-1.7
			c-4.5,1.7-7.6,6.2-7.6,11.1c0,0.6,3.6,2.3,11.7,2.3C54.7,63.2,58.3,61.5,58.3,60.9L58.3,60.9z M58.3,60.9"/>
		<path class="st17" d="M47.6,31.2L47.6,31.2c0-0.3-0.3-0.6-0.6-0.6h0c-3.2,0-5.8,2.6-5.8,5.8c0,0.3,0.3,0.6,0.6,0.6
			c0.1,0,0.2,0,0.3-0.1c0.2-0.1,0.3-0.3,0.3-0.5v0c0-2.6,2.1-4.6,4.6-4.6h0C47.3,31.8,47.6,31.6,47.6,31.2L47.6,31.2L47.6,31.2z
			 M41.6,38.3c-0.1,0.1-0.2,0.3-0.2,0.4s0.1,0.3,0.2,0.4c0.1,0.1,0.3,0.2,0.4,0.2c0,0,0,0,0,0c0.2,0,0.3-0.1,0.4-0.2
			c0.1-0.1,0.2-0.3,0.2-0.4c0-0.2-0.1-0.3-0.2-0.4c-0.1-0.1-0.2-0.2-0.4-0.2C41.8,38.1,41.7,38.2,41.6,38.3L41.6,38.3z M41.6,38.3"
			/>
		<path class="st17" d="M52.2,47.8c2.5-3.4,4-8.4,4-11.7c0-5.3-4.3-9.5-9.6-9.5c-5.3,0-9.5,4.3-9.5,9.5c0,3.2,1.5,8.3,4,11.7
			c-4.4,1.9-7.6,6.1-8.4,10.9c-0.1,0.6-0.2,1.4-0.2,2.1c0,1.8,1.9,2.9,4.4,3.6c3.4,0.9,7.7,1,9.6,1c1.8,0,5.6-0.1,8.9-0.8
			c2.8-0.7,5.1-1.8,5.1-3.8c0-1-0.1-2-0.3-3c-1-4.4-3-8.2-7.1-10.1H52.2z M39.4,36.2c0-4,3.2-7.2,7.2-7.2c4,0,7.2,3.2,7.2,7.2
			c0,4.5-3.7,12.9-7.2,12.9C43.1,49.1,39.4,40.7,39.4,36.2L39.4,36.2z M34.9,60.9c0-4.9,3.1-9.4,7.6-11.1c1.2,1.1,2.6,1.7,4.1,1.7
			c1.4,0,2.8-0.6,4.1-1.8c4.5,1.7,7.5,6.2,7.5,11.1c0,0.6-3.6,2.3-11.7,2.3C38.5,63.2,34.9,61.5,34.9,60.9L34.9,60.9z M34.9,60.9"/>
	</g>
</g>
</svg>
