<?xml version="1.0" encoding="utf-8"?>
<!-- Generator: Adobe Illustrator 21.0.0, SVG Export Plug-In . SVG Version: 6.00 Build 0)  -->
<svg version="1.1" id="图层_1" xmlns="http://www.w3.org/2000/svg" xmlns:xlink="http://www.w3.org/1999/xlink" x="0px" y="0px"
	 viewBox="0 0 70 70" style="enable-background:new 0 0 70 70;" xml:space="preserve">
<style type="text/css">
	.st0{fill:#F4F5F9;}
	.st1{fill:#00ADB4;}
	.st2{fill:#FEAF3F;}
</style>
<circle class="st0" cx="35.2" cy="35" r="35"/>
<path class="st1" d="M48.4,18.2c-3.5-3.5-8.1-5.4-12.9-5.4s-9.5,1.9-13,5.4s-5.3,8.1-5.3,13s1.9,9.5,5.3,12.9c1.7,1.7,3.6,3,5.7,3.9
	v7h14.5v-7c2.1-0.9,4-2.2,5.7-3.9c3.5-3.5,5.4-8.1,5.4-12.9S51.9,21.7,48.4,18.2L48.4,18.2z M41.4,45.9c-0.4,0.2-0.7,0.3-1.1,0.4
	v6.3h-9.7v-6.3c-0.4-0.1-0.8-0.2-1.1-0.4c-5.8-2.4-9.9-8.1-9.9-14.7c0-8.8,7.1-15.9,15.9-15.9s15.9,7.1,15.9,15.9
	C51.3,37.8,47.2,43.5,41.4,45.9z M28.2,57.4h14.5v2.4H28.2C28.2,59.8,28.2,57.4,28.2,57.4z"/>
<path class="st2" d="M44,30.7L42.3,29l-3.4,3.4l-1.7-1.7L35.5,29l-1.7,1.7l-1.8,1.7L28.7,29L27,30.7l3.4,3.4l1.7,1.7l3.4-3.4
	l3.4,3.4l1.7-1.7C40.6,34.1,44,30.7,44,30.7z M34.3,8.7h2.4v2.4h-2.4C34.3,11.1,34.3,8.7,34.3,8.7z M12.9,29.8h2.4v2.4h-2.4V29.8z
	 M17.9,16.9l1.7-1.7l1.7,1.7l-1.7,1.7C19.6,18.6,17.9,16.9,17.9,16.9z M49.6,16.9l1.7-1.7l1.7,1.7l-1.7,1.7L49.6,16.9z M55.6,29.8
	H58v2.4h-2.4V29.8z"/>
</svg>
