<?xml version="1.0" encoding="utf-8"?>
<!-- Generator: Adobe Illustrator 21.0.0, SVG Export Plug-In . SVG Version: 6.00 Build 0)  -->
<svg version="1.1" id="图层_1" xmlns="http://www.w3.org/2000/svg" xmlns:xlink="http://www.w3.org/1999/xlink" x="0px" y="0px"
	 viewBox="0 0 70 70" style="enable-background:new 0 0 70 70;" xml:space="preserve">
<style type="text/css">
	.st0{fill:#F4F5F9;}
	.st1{fill:#1296DB;}
	.st2{fill:#FEAF3F;}
</style>
<circle class="st0" cx="35" cy="35" r="35"/>
<path class="st1" d="M36.7,10.2c-10,0-18.2,8.9-18.2,20v0.4l-2.9,6.3c-0.1,0.2-0.1,0.6,0,0.9c0.1,0.2,0.4,0.6,0.6,0.7l4.7,2.2v8.3
	c0,0.7,0.5,1.2,1.2,1.2h5.9v8.2c0,0.7,0.5,1.2,1.2,1.2h16.4c0.7,0,1.2-0.5,1.2-1.2V46.9c5.2-3.8,8.2-10,8.2-16.7
	C54.9,19.1,46.7,10.2,36.7,10.2z M45.2,44.9l-0.5,0.4c-0.4,0.2-0.5,0.6-0.5,0.9v10.9H30.2v-8.2c0-0.7-0.5-1.2-1.2-1.2h-5.9v-7.9
	c0-0.5-0.2-0.8-0.7-1.1l-4.3-2l2.6-5.5c0.1-0.1,0.1-0.4,0.1-0.5v-0.6c0-9.7,7.2-17.6,15.9-17.6s15.9,7.9,15.9,17.6
	C52.5,36.1,49.8,41.6,45.2,44.9z"/>
<path class="st2" d="M36.1,16c-5.9,0-10.6,4.7-10.6,10.6s4.7,10.6,10.6,10.6s10.6-4.7,10.6-10.6S42,16,36.1,16z M36.1,34.8
	c-4.6,0-8.2-3.6-8.2-8.2s3.6-8.2,8.2-8.2s8.2,3.6,8.2,8.2S40.7,34.8,36.1,34.8z"/>
<path class="st2" d="M37.6,27.3c0.1-0.2,0.2-0.5,0.2-0.7c0-0.8-0.5-1.4-1.2-1.6v-1.9c0-0.4-0.2-0.6-0.6-0.6c-0.4,0-0.6,0.2-0.6,0.6
	V25c-0.7,0.2-1.2,0.9-1.2,1.6c0,0.9,0.8,1.8,1.8,1.8c0.2,0,0.5-0.1,0.7-0.2l2.6,2.6c0.2,0.2,0.6,0.2,0.8,0c0.2-0.2,0.2-0.6,0-0.8
	C40.2,29.9,37.6,27.3,37.6,27.3z"/>
<path class="st1" d="M34.9,26.6c0,0.6,0.5,1.2,1.2,1.2s1.2-0.5,1.2-1.2c0-0.6-0.5-1.2-1.2-1.2S34.9,26,34.9,26.6z"/>
</svg>
