<?xml version="1.0" encoding="utf-8"?>
<!-- Generator: Adobe Illustrator 21.0.0, SVG Export Plug-In . SVG Version: 6.00 Build 0)  -->
<svg version="1.1" id="图层_1" xmlns="http://www.w3.org/2000/svg" xmlns:xlink="http://www.w3.org/1999/xlink" x="0px" y="0px"
	 viewBox="0 0 70 70" style="enable-background:new 0 0 70 70;" xml:space="preserve">
<style type="text/css">
	.st0{fill:#F4F5F9;}
	.st1{fill:none;stroke:#FEAF3F;stroke-width:3;stroke-miterlimit:10;}
	.st2{fill:#3CA5FF;}
</style>
<circle class="st0" cx="35" cy="35" r="35"/>
<path class="st1" d="M41.9,32.5c2.5-1.9,4-4.9,4-8.2c0-5.8-4.7-10.5-10.5-10.5c-5.8,0-10.5,4.7-10.5,10.5c0,3.3,1.6,6.3,4,8.2
	c-6.5,2.6-11.1,8.8-11.1,16.2v3.5c0,1,0.8,1.7,1.8,1.7h31.6c1,0,1.8-0.8,1.8-1.7v-3.5C53,41.3,48.4,35.1,41.9,32.5L41.9,32.5
	L41.9,32.5L41.9,32.5z"/>
<path class="st2" d="M21.9,34.1l0.3-0.1c0.7-0.2,1.3-0.9,1.3-1.6c0-0.7-0.5-1.4-1.2-1.6c-1.9-0.8-3.1-2.7-3.1-4.8c0-2.3,2-4.3,4.1-5
	c0.4-1.1,0.9-2.2,1.6-3.1c0.1-0.2,0.3-0.4,0.4-0.6c-0.1,0-0.3,0-0.4,0c-4.8,0-8.8,3.9-8.8,8.7c0,2.2,0.8,4.3,2.3,5.8
	c-4.6,2.4-7.5,7.1-7.5,12.4v2.7c0,1,0.8,1.7,1.8,1.7h3.1c0-1.2,0.1-2,0.4-3.1h-2.2v-1.4C13.9,39.4,17.2,35.3,21.9,34.1L21.9,34.1
	L21.9,34.1L21.9,34.1z"/>
<path class="st2" d="M52.5,31.9c1.4-1.6,2.3-3.6,2.3-5.8c0-4.8-3.9-8.7-8.8-8.7c-0.1,0-0.3,0-0.4,0c0.1,0.2,0.3,0.4,0.4,0.6
	c0.7,0.9,1.3,2,1.6,3.1c2.1,0.7,4.4,2.6,4.4,5c0,2.1-1.2,3.9-3.1,4.8c-0.7,0.3-1.2,0.9-1.2,1.6c0,0.8,0.5,1.4,1.3,1.6l0.3,0.1
	c4.7,1.2,7.9,5.3,7.9,10.1v1.4h-2.5c0.2,1.1,0.4,1.9,0.4,3.1h3.1c1,0,1.8-0.8,1.8-1.7v-2.7C60,38.9,57,34.2,52.5,31.9L52.5,31.9
	L52.5,31.9L52.5,31.9z"/>
</svg>
