<?xml version="1.0" encoding="utf-8"?>
<!-- Generator: Adobe Illustrator 21.0.0, SVG Export Plug-In . SVG Version: 6.00 Build 0)  -->
<svg version="1.1" id="图层_1" xmlns="http://www.w3.org/2000/svg" xmlns:xlink="http://www.w3.org/1999/xlink" x="0px" y="0px"
	 viewBox="0 0 70 70" style="enable-background:new 0 0 70 70;" xml:space="preserve">
<style type="text/css">
	.st0{fill:#F4F5F9;}
	.st1{fill:#24E2CB;}
	.st2{fill:#FEAF3F;}
</style>
<circle class="st0" cx="35" cy="35" r="35"/>
<path class="st1" d="M52,17.9h-4.6v2.8H52c0.7,0,1.2,0.5,1.2,1.2v22.9c0,0.6-0.6,1.2-1.2,1.2H19.6c-0.7,0-1.2-0.5-1.2-1.2V21.8
	c0-0.6,0.6-1.2,1.2-1.2h4.6v-2.8h-4.6c-2.3,0-4.1,1.8-4.1,4v22.9c0,2.2,1.8,4,4.1,4H52c2.3,0,4.1-1.8,4.1-4V21.8
	C56.1,19.7,54.3,17.9,52,17.9L52,17.9z M21.6,20.7h27v-2.8h-27V20.7z"/>
<path class="st2" d="M23.5,36.6c0,1,0.8,1.8,1.8,1.8c1,0,1.8-0.8,1.8-1.8c0,0,0,0,0,0c0-1-0.8-1.8-1.8-1.8
	C24.3,34.9,23.5,35.7,23.5,36.6C23.5,36.6,23.5,36.6,23.5,36.6z"/>
<path class="st2" d="M44.7,27.7c0,1,0.8,1.8,1.8,1.8s1.8-0.8,1.8-1.8c0,0,0,0,0,0c0-1-0.8-1.8-1.8-1.8S44.7,26.7,44.7,27.7
	C44.7,27.7,44.7,27.7,44.7,27.7z"/>
<path class="st1" d="M56.1,53c0,0.8-0.6,1.4-1.4,1.4H16.9c-0.8,0-1.4-0.6-1.4-1.4c0,0,0,0,0,0c0-0.8,0.6-1.4,1.4-1.4h37.8
	C55.5,51.5,56.1,52.2,56.1,53z"/>
<path class="st2" d="M24,35.4l5.6-5.6l2.5,2.5l-5.6,5.6L24,35.4z M36,35.6l9-9l2.5,2.5l-9,9L36,35.6z"/>
<path class="st2" d="M30.4,28.7l9.2,8.1l-2.3,2.6l-9.2-8.1L30.4,28.7z"/>
</svg>
