<?xml version="1.0" encoding="utf-8"?>
<!-- Generator: Adobe Illustrator 21.0.0, SVG Export Plug-In . SVG Version: 6.00 Build 0)  -->
<svg version="1.1" id="图层_1" xmlns="http://www.w3.org/2000/svg" xmlns:xlink="http://www.w3.org/1999/xlink" x="0px" y="0px"
	 viewBox="0 0 44 56" style="enable-background:new 0 0 44 56;" xml:space="preserve">
<style type="text/css">
	.st0{fill:url(#SVGID_1_);}
	.st1{fill:url(#SVGID_2_);}
	.st2{fill:url(#SVGID_3_);}
	.st3{fill:#FFFFFF;}
</style>
<g>
	
		<linearGradient id="SVGID_1_" gradientUnits="userSpaceOnUse" x1="24.1371" y1="37.7836" x2="4.3836" y2="20.8053" gradientTransform="matrix(0.7584 -0.6518 0.6518 0.7584 -15.5088 16.1635)">
		<stop  offset="0" style="stop-color:#71CEE9"/>
		<stop  offset="0.2036" style="stop-color:#5EBAD0"/>
		<stop  offset="0.5395" style="stop-color:#429DAD"/>
		<stop  offset="0.8152" style="stop-color:#318B98"/>
		<stop  offset="0.9944" style="stop-color:#2B8590"/>
	</linearGradient>
	<path class="st0" d="M12.7,14c-1.5,4.6-5.8,8.1-10.5,9.2c-1.1,0.3-1.1,1.7-0.5,2.5c2.5,4.2,5.2,8.4,8.3,12.1
		c1.8,2.1,3.8,4.2,6.4,5.4c1.7,0.8,3.7,0.8,5.6,0.9c1.7,0,3.4,0.2,5.1,0l0.3-0.1C25.4,40.2,14.6,17.5,13.9,16c0,0,0,0,0,0
		C13.6,15.3,13.4,14.5,12.7,14z"/>
	
		<linearGradient id="SVGID_2_" gradientUnits="userSpaceOnUse" x1="30.0772" y1="40.783" x2="14.0151" y2="26.9775" gradientTransform="matrix(0.7584 -0.6518 0.6518 0.7584 -15.5088 16.1635)">
		<stop  offset="0" style="stop-color:#71CEE9"/>
		<stop  offset="0.2036" style="stop-color:#5EBAD0"/>
		<stop  offset="0.5395" style="stop-color:#429DAD"/>
		<stop  offset="0.8152" style="stop-color:#318B98"/>
		<stop  offset="0.9944" style="stop-color:#2B8590"/>
	</linearGradient>
	<path class="st1" d="M26.8,11.3c-2,1.5-4.3,2.8-6.8,3.1c-2.3,0.4-4.7,0-6.9-0.6L12.7,14l0,0c0.7,0.4,0.9,1.3,1.2,2c0,0,0,0,0,0l0,0
		l0,0c0.7,1.5,11.4,24.2,13.5,27.9l0.1-0.1c1.4-1.5,2.6-3.2,3.8-4.8c1.2-1.5,2.2-3.3,2.4-5.2c0.5-3.5-0.3-7-1.1-10.4
		c-1-3.8-2.2-7.6-3.6-11.2C28.7,11.4,27.6,10.7,26.8,11.3z"/>
</g>
<linearGradient id="SVGID_3_" gradientUnits="userSpaceOnUse" x1="25.9256" y1="42.7081" x2="25.9256" y2="11.3095">
	<stop  offset="0" style="stop-color:#71CEE9"/>
	<stop  offset="0.4089" style="stop-color:#3DBFD0"/>
	<stop  offset="0.7977" style="stop-color:#11B2BC"/>
	<stop  offset="0.9944" style="stop-color:#00ADB4"/>
</linearGradient>
<path class="st2" d="M39.9,18.3c-2.4-0.1-4.9-0.7-7-2c-2-1.2-3.4-3-4.7-4.8l-0.4-0.1l0,0c-4,2.5-9.4,2.3-13.5,0.1
	c-1-0.5-1.9,0.6-2,1.5c-0.8,4.7-1.5,9.4-1.6,14.2c0,2.7,0.1,5.5,1.3,8c0.8,1.7,2.2,2.9,3.6,4.2c1.2,1.1,2.4,2.3,3.8,3.2l0.3,0.1
	c0.6-3.1,4.7-18.2,6.7-25.4c0.2-0.6,0.3-1.1,0.4-1.6c-0.1,0.5-0.3,1-0.4,1.6c-2,7.2-6.1,22.2-6.7,25.4l0.1,0c2-0.2,3.9-0.7,5.9-1.1
	c1.8-0.4,3.7-1,5-2.3c2.6-2.3,4.2-5.4,5.8-8.4c1.7-3.4,3.2-7,4.4-10.6C41.2,19.5,40.9,18.3,39.9,18.3z M27.5,13.6
	c0.1-0.5,0.4-1.1,0.4-1.6C27.9,12.5,27.6,13,27.5,13.6z"/>
<g>
	<path class="st3" d="M26,33.7l-3.3-2.9l-4.3,0.6l1.6-4.1l-2-4l4.3,0.4l3.1-3.1l1,4.3l3.8,2.1l-3.7,2.3L26,33.7z"/>
</g>
</svg>
