<?xml version="1.0" encoding="utf-8"?>
<!-- Generator: Adobe Illustrator 21.0.0, SVG Export Plug-In . SVG Version: 6.00 Build 0)  -->
<svg version="1.1" id="图层_1__x2B__人事管理_xA0_图像_1_"
	 xmlns="http://www.w3.org/2000/svg" xmlns:xlink="http://www.w3.org/1999/xlink" x="0px" y="0px" viewBox="0 0 44 56"
	 style="enable-background:new 0 0 44 56;" xml:space="preserve">
<style type="text/css">
	.st0{fill-rule:evenodd;clip-rule:evenodd;fill:url(#SVGID_1_);}
	.st1{fill-rule:evenodd;clip-rule:evenodd;fill:url(#SVGID_2_);}
	.st2{fill-rule:evenodd;clip-rule:evenodd;fill:#FFFFFF;}
</style>
<g>
	<linearGradient id="SVGID_1_" gradientUnits="userSpaceOnUse" x1="5.077" y1="8.759" x2="40.9318" y2="44.6137">
		<stop  offset="3.999072e-02" style="stop-color:#3F8890"/>
		<stop  offset="0.2915" style="stop-color:#418A93"/>
		<stop  offset="0.4834" style="stop-color:#46929D"/>
		<stop  offset="0.6555" style="stop-color:#4F9FAD"/>
		<stop  offset="0.816" style="stop-color:#5CB1C4"/>
		<stop  offset="0.967" style="stop-color:#6DC8E1"/>
		<stop  offset="1" style="stop-color:#71CEE9"/>
	</linearGradient>
	<path class="st0" d="M5.9,8.3l28.9-3.8c0.8-0.1,1.5,0.4,1.6,1.2l4.9,37.8c0.1,0.8-0.4,1.5-1.2,1.6l-28.9,3.8
		c-0.8,0.1-1.5-0.4-1.6-1.2L4.7,9.9C4.6,9.1,5.2,8.4,5.9,8.3z"/>
</g>
<g>
	<linearGradient id="SVGID_2_" gradientUnits="userSpaceOnUse" x1="22.625" y1="6.2038" x2="22.625" y2="50.2203">
		<stop  offset="3.999072e-02" style="stop-color:#50AAB3"/>
		<stop  offset="1" style="stop-color:#71CEE9"/>
	</linearGradient>
	<path class="st1" d="M13.1,6.2L40.2,12c0.7,0.2,1.2,0.9,1,1.6l-7.5,35.6c-0.2,0.7-0.9,1.2-1.6,1L5,44.4c-0.7-0.2-1.2-0.9-1-1.6
		l7.5-35.6C11.7,6.5,12.4,6.1,13.1,6.2z"/>
</g>
<g>
	<g>
		<path class="st2" d="M24,25.8c-1.2-0.3-2.4,0.4-2.7,1.5c-1,3.7-1.9,7.4-2.9,11.1c-0.2,0.9,0.2,1.9,1,2.4c0.1,0.1,0.2,0.1,0.3,0.2
			c0.2,0,0.3,0.1,0.5,0.1c0,0,0.1,0,0.1,0c1,0.1,2-0.6,2.3-1.6c1-3.7,1.9-7.4,2.9-11.1C25.9,27.3,25.2,26.1,24,25.8z M29.9,20
			c-0.9-0.8-2-1.4-3.2-1.8c0,0-0.1,0-0.1-0.1c-0.4-0.1-0.7-0.2-1.1-0.3c-0.3,0-0.7-0.1-1-0.1c-2.9-0.2-5.4,0.7-7.5,2.7
			c-1.1,1-1.8,2.3-2.3,3.7c0,0.1,0,0.1-0.1,0.2c-0.1,0.4-0.2,0.7-0.3,1.1c0,0.3-0.1,0.6-0.1,0.9c-0.2,2.3,0.3,4.4,1.6,6.3
			c0.6,0.8,1.3,1.6,2.1,2.2c0.2,0.2,0.5,0.1,0.7,0c0.2-0.2,0.3-0.4,0.1-0.6c-0.1-0.1-0.2-0.2-0.3-0.3c-3.3-2.7-4.1-7.4-1.9-11
			c2.2-3.6,6.8-5,10.7-3.2c4.4,2,6.2,7.5,3.8,11.7c-1.3,2.3-3.3,3.7-5.9,4.2c-0.4,0.1-0.6,0.3-0.5,0.6c0.1,0.3,0.3,0.5,0.7,0.4
			c0.3-0.1,0.7-0.1,1-0.2c2.7-0.9,4.7-2.6,6-5.2c0.1-0.3,0.3-0.6,0.4-0.9c0.1-0.4,0.2-0.7,0.3-1.1c0-0.3,0.1-0.7,0.1-1
			C33.3,24.8,32.2,22.2,29.9,20z M26.2,30.6c-0.3,0.2-0.3,0.5-0.1,0.8c0.2,0.2,0.5,0.3,0.7,0.1c1.3-1,2-2.3,2.2-3.9
			c0.3-2.9-1.9-5.4-4.7-5.7c-2.6-0.3-5,1.4-5.7,3.9c0,0.4-0.1,0.8-0.1,1.2c0,0.7,0.1,1.4,0.4,2.1c0.1,0.3,0.4,0.5,0.7,0.4
			c0.3-0.1,0.4-0.4,0.3-0.7c-0.5-1.1-0.4-2.2,0-3.3c1-2.4,3.9-3.3,6.1-2c1.8,1.1,2.6,3.4,1.7,5.3C27.3,29.5,26.8,30.1,26.2,30.6z"/>
	</g>
</g>
</svg>
