<?xml version="1.0" encoding="utf-8"?>
<!-- Generator: Adobe Illustrator 21.0.0, SVG Export Plug-In . SVG Version: 6.00 Build 0)  -->
<svg version="1.1" id="图层_1" xmlns="http://www.w3.org/2000/svg" xmlns:xlink="http://www.w3.org/1999/xlink" x="0px" y="0px"
	 viewBox="0 0 44 56" style="enable-background:new 0 0 44 56;" xml:space="preserve">
<style type="text/css">
	.st0{fill:url(#SVGID_1_);}
	.st1{fill:url(#SVGID_2_);}
	.st2{opacity:0.75;}
	.st3{fill:#00ADB4;}
	.st4{fill:url(#SVGID_3_);}
</style>
<g>
	
		<linearGradient id="SVGID_1_" gradientUnits="userSpaceOnUse" x1="-16.2974" y1="9.4615" x2="4.5001" y2="45.4839" gradientTransform="matrix(0.6543 -0.7563 0.7563 0.6543 4.1075 4.5225)">
		<stop  offset="8.402305e-02" style="stop-color:#3F8890"/>
		<stop  offset="0.9961" style="stop-color:#71CEE9"/>
	</linearGradient>
	<path class="st0" d="M39.6,34.3L17,47c-1.7,0.9-3.6,0.2-4.4-1.5L1.5,20.4C1,19.1,1.7,17.5,3,16.8L21.7,6.3c1.4-0.8,3.1-0.5,3.8,0.6
		l15.2,22.8C41.8,31.3,41.3,33.4,39.6,34.3z"/>
</g>
<g>
	<linearGradient id="SVGID_2_" gradientUnits="userSpaceOnUse" x1="14.1282" y1="9.3369" x2="34.9258" y2="45.3593">
		<stop  offset="3.094059e-04" style="stop-color:#50AAB2"/>
		<stop  offset="1" style="stop-color:#71CEE9"/>
	</linearGradient>
	<path class="st1" d="M31.1,46.2L6.7,37.4C5,36.8,4.2,34.8,5,33.1L16.7,8.3c0.6-1.2,2.3-1.8,3.7-1.2l20.1,7.3c1.5,0.5,2.4,2,2,3.3
		l-7.3,26.4C34.8,45.9,32.9,46.9,31.1,46.2z"/>
</g>
<g>
	<g class="st2">
		<path class="st3" d="M27.4,28.6c-1.2,0-2.5-0.2-3.6-0.7c-5.2-2-7.8-7.7-5.8-12.9c0.4-0.9,1.4-1.4,2.4-1c0.9,0.4,1.4,1.4,1,2.3
			c-1.3,3.3,0.4,7,3.7,8.2c1.6,0.6,3.4,0.6,4.9-0.1c1.6-0.7,2.8-1.9,3.4-3.5c0.4-0.9,1.4-1.4,2.4-1c0.9,0.4,1.4,1.4,1,2.3
			c-1,2.5-2.9,4.4-5.3,5.5C30.2,28.4,28.8,28.6,27.4,28.6z"/>
	</g>
	<g>
		<linearGradient id="SVGID_3_" gradientUnits="userSpaceOnUse" x1="28.2388" y1="12.0964" x2="27.985" y2="26.6372">
			<stop  offset="0.1506" style="stop-color:#76D0EA"/>
			<stop  offset="0.9878" style="stop-color:#FFFFFF"/>
		</linearGradient>
		<path class="st4" d="M28.4,26.6c-1.2,0-2.5-0.2-3.6-0.7c-5.2-2-7.8-7.7-5.8-12.9c0.4-0.9,1.4-1.4,2.4-1c0.9,0.4,1.4,1.4,1,2.3
			c-1.3,3.3,0.4,7,3.7,8.2c1.6,0.6,3.4,0.6,4.9-0.1c1.6-0.7,2.8-1.9,3.4-3.5c0.4-0.9,1.4-1.4,2.4-1c0.9,0.4,1.4,1.4,1,2.3
			c-1,2.5-2.9,4.4-5.3,5.5C31.2,26.4,29.8,26.6,28.4,26.6z"/>
	</g>
</g>
</svg>
