<?xml version="1.0" encoding="utf-8"?>
<!-- Generator: Adobe Illustrator 21.0.0, SVG Export Plug-In . SVG Version: 6.00 Build 0)  -->
<svg version="1.1" id="图层_1" xmlns="http://www.w3.org/2000/svg" xmlns:xlink="http://www.w3.org/1999/xlink" x="0px" y="0px"
	 viewBox="0 0 27 27" style="enable-background:new 0 0 27 27;" xml:space="preserve">
<style type="text/css">
	.st0{fill:#999999;}
</style>
<path class="st0" d="M26.2,13.7c0,0.8-0.6,1.3-1.3,1.3l-10.4,0l0,10.4c0,0.8-0.6,1.3-1.3,1.3c-0.8,0-1.3-0.6-1.3-1.3L12,15H1.6
	c-0.8,0-1.3-0.6-1.3-1.3c0-0.8,0.6-1.3,1.3-1.3l10.4,0l0-10.4c0-0.8,0.6-1.3,1.3-1.3c0.7,0.1,1.3,0.6,1.3,1.3v10.4h10.4
	C25.6,12.4,26.3,13,26.2,13.7z"/>
</svg>
