<?xml version="1.0" encoding="utf-8"?>
<!-- Generator: Adobe Illustrator 21.0.0, SVG Export Plug-In . SVG Version: 6.00 Build 0)  -->
<svg version="1.1" id="图层_1" xmlns="http://www.w3.org/2000/svg" xmlns:xlink="http://www.w3.org/1999/xlink" x="0px" y="0px"
	 viewBox="0 0 27 27" style="enable-background:new 0 0 27 27;" xml:space="preserve">
<style type="text/css">
	.st0{fill:#999999;}
</style>
<path class="st0" d="M24.3,2.7c0.6,0.6,0.6,1.6,0,2.1l-8.7,8.7l8.7,8.7c0.6,0.6,0.6,1.6,0,2.1c-0.6,0.6-1.6,0.6-2.1,0l-8.7-8.7
	l-8.7,8.7c-0.6,0.6-1.6,0.6-2.1,0c-0.6-0.6-0.6-1.6,0-2.1l8.7-8.7L2.7,4.8C2,4.1,2,3.1,2.7,2.7s1.6-0.6,2.1,0l8.7,8.7l8.7-8.7
	C22.7,2,23.9,2,24.3,2.7z"/>
</svg>
