<?xml version="1.0" encoding="utf-8"?>
<!-- Generator: Adobe Illustrator 21.0.0, SVG Export Plug-In . SVG Version: 6.00 Build 0)  -->
<svg version="1.1" id="图层_1" xmlns="http://www.w3.org/2000/svg" xmlns:xlink="http://www.w3.org/1999/xlink" x="0px" y="0px"
	 viewBox="0 0 500 500" style="enable-background:new 0 0 500 500;" xml:space="preserve">
<style type="text/css">
	.st0{opacity:0.42;}
	.st1{clip-path:url(#SVGID_2_);}
	.st2{fill:#FFFFFF;}
</style>
<path class="st0" d="M430.3,492.5h-356c-35.5,0-64.5-29-64.5-64.5V72c0-35.5,29-64.5,64.5-64.5h356c35.5,0,64.5,29,64.5,64.5v356
	C494.8,463.5,465.8,492.5,430.3,492.5z"/>
<g>
	<g>
		<defs>
			<rect id="SVGID_1_" x="-153" y="-149" width="819.8" height="820.7"/>
		</defs>
		<clipPath id="SVGID_2_">
			<use xlink:href="#SVGID_1_"  style="overflow:visible;"/>
		</clipPath>
		<path class="st1" d="M-153.1,261.1"/>
	</g>
	<path class="st2" d="M247,186.8L142.9,290.9c-4.1,4.1-4.1,10.2,0,14.2l14.2,14.2c4.1,4.1,10.2,4.1,14.2,0l104.1-104.1
		c4.1-4.1,4.1-10.2,0-14.2l-14.2-14.2C257.2,182.7,251.1,182.7,247,186.8L247,186.8z M247,186.8"/>
	<path class="st2" d="M161.8,123.2h182.9c4.9,0,8.9,4,8.9,8.9v22.3c0,4.9-4,8.9-8.9,8.9H161.8c-4.9,0-8.9-4-8.9-8.9v-22.3
		C152.9,127.3,156.9,123.2,161.8,123.2L161.8,123.2z"/>
	<path class="st2" d="M269.9,195.1l91.5,91.5c3.6,3.6,3.6,8.9,0,12.5l-12.5,12.5c-3.6,3.6-8.9,3.6-12.5,0L245,220.1
		c-3.6-3.6-3.6-8.9,0-12.5l12.5-12.5C261,191.6,266.4,191.6,269.9,195.1L269.9,195.1z"/>
	<path class="st2" d="M263.9,181.1"/>
	<path class="st2" d="M235.4,241.5v151.7c0,4.9,4,8.9,8.9,8.9h17.8c4.9,0,8.9-4,8.9-8.9V241.5c0-4.9-4-8.9-8.9-8.9h-17.8
		C239.4,232.6,235.4,236.6,235.4,241.5L235.4,241.5z M235.4,241.5"/>
</g>
</svg>
