<?xml version="1.0" encoding="utf-8"?>
<!-- Generator: Adobe Illustrator 21.0.0, SVG Export Plug-In . SVG Version: 6.00 Build 0)  -->
<svg version="1.1" id="图层_1" xmlns="http://www.w3.org/2000/svg" xmlns:xlink="http://www.w3.org/1999/xlink" x="0px" y="0px"
	 viewBox="0 0 80 80" style="enable-background:new 0 0 80 80;" xml:space="preserve">
<style type="text/css">
	.st0{fill:#FFFFFF;}
	.st1{display:none;fill:#00ADB4;}
	.st2{display:none;}
	.st3{display:inline;}
	.st4{clip-path:url(#SVGID_2_);fill:#00ADB4;}
	.st5{display:inline;fill:#00ADB4;}
	.st6{fill:#00ADB4;}
	.st7{clip-path:url(#SVGID_4_);fill:#00ADB4;}
</style>
<circle class="st0" cx="40" cy="40" r="39.5"/>
<g>
	<g>
		<path class="st1" d="M26.1,49.8c-1.1,2.2-2,6-2,6s3.8-0.8,6-2l2,2c-0.2,0.4-0.5,0.8-0.9,1.2C29,59.3,18,62,18,62s2.7-11,5-13.3
			c0.4-0.4,0.8-0.6,1.2-0.9L26.1,49.8z M45.9,56.1l1.4-9.2l8.7-8.7l0,0c2.1-2.3,9-11.2,4.6-18.7C53.1,15,44.2,21.9,41.9,24l0,0
			l-8.7,8.7l-9.2,1.4l-1.5,1.4l4.8,4.8L24,41.9c-1.1,1.1-1.1,2.8,0,3.9L34.3,56c1.1,1.1,2.8,1.1,3.9,0l1.5-3.3l4.8,4.8L45.9,56.1z
			 M50.7,36.7c-1.1,1.1-2.8,1.1-3.9,0l-3.4-3.4c-1.1-1.1-1.1-2.8,0-3.9l3.4-3.4c1.1-1.1,2.8-1.1,3.9,0l3.4,3.4
			c1.1,1.1,1.1,2.8,0,3.9L50.7,36.7z M34.2,47.3l-1.5-1.5l6-6c0.4-0.4,1.1-0.4,1.5,0c0.4,0.4,0.4,1.1,0,1.5L34.2,47.3z M34.2,47.3"
			/>
	</g>
</g>
<g class="st2">
	<g class="st3">
		<defs>
			<rect id="SVGID_1_" x="21.9" y="17.9" width="35.2" height="44.1"/>
		</defs>
		<clipPath id="SVGID_2_">
			<use xlink:href="#SVGID_1_"  style="overflow:visible;"/>
		</clipPath>
		<path class="st4" d="M56.2,23.4c-6.9,0.8-13.7-3.3-16.7-5.4c-3,2.2-9.8,6.2-16.7,5.4c0,0-4.8,22.1,8.3,33.3c3.2,2.7,6,4.3,8.4,5.2
			c2.5-0.9,5.3-2.5,8.4-5.2C60.9,45.5,56.2,23.4,56.2,23.4L56.2,23.4z M47.6,48.2c-2.2,2.2-5.1,3.4-8.2,3.4c-3.1,0-6-1.2-8.2-3.4
			c-2.2-2.2-3.4-5.1-3.4-8.2c0-3.1,1.2-6,3.4-8.2c2.2-2.2,5.1-3.4,8.2-3.4c3.1,0,6,1.2,8.2,3.4C49.8,34,51,36.9,51,40
			C51,43.1,49.8,46,47.6,48.2L47.6,48.2z M47.6,48.2"/>
	</g>
	<rect x="35.7" y="40.5" class="st5" width="7.5" height="1"/>
	<path class="st5" d="M39.5,29.4c-5.8,0-10.6,4.7-10.6,10.6c0,5.8,4.7,10.6,10.6,10.6C45.3,50.5,50,45.8,50,40
		C50,34.2,45.3,29.4,39.5,29.4L39.5,29.4z M33.3,47c-0.1-0.3-0.3-0.6-0.5-1c1.4-0.4,3-1,4.7-1.8l0.7,0.8
		C36.7,45.8,35.1,46.4,33.3,47L33.3,47z M45.6,46.9c-1.7-0.7-3.3-1.2-4.9-1.8l0.5-0.9c1.4,0.4,3.1,1,4.9,1.6L45.6,46.9z M46.3,44.1
		H32.6v-0.9h2V36h4.1v-1h-5.9v-0.9h5.9V33h1.1v1.1H46V35h-6.2v1h4.4v7.2h2.1L46.3,44.1L46.3,44.1z M46.3,44.1"/>
	<rect x="35.7" y="38.7" class="st5" width="7.5" height="1"/>
	<rect x="35.7" y="42.3" class="st5" width="7.5" height="1"/>
	<rect x="35.7" y="36.9" class="st5" width="7.5" height="1"/>
</g>
<g class="st2">
	<g class="st3">
		<path class="st6" d="M34.2,18.6H22.5c-2.1,0-3.9,1.8-3.9,3.9v11.7c0,2.1,1.8,3.9,3.9,3.9h11.7c2.1,0,3.9-1.8,3.9-3.9V22.5
			C38.1,20.4,36.3,18.6,34.2,18.6L34.2,18.6z M51.7,38.1c5.4,0,9.7-4.4,9.7-9.7c0-5.4-4.4-9.7-9.7-9.7c-5.4,0-9.7,4.4-9.7,9.7
			C41.9,33.7,46.3,38.1,51.7,38.1L51.7,38.1z M34.2,41.9H22.5c-2.1,0-3.9,1.8-3.9,3.9v11.7c0,2.1,1.8,3.9,3.9,3.9h11.7
			c2.1,0,3.9-1.8,3.9-3.9V45.8C38.1,43.7,36.3,41.9,34.2,41.9L34.2,41.9z M57.5,41.9H45.8c-2.1,0-3.9,1.8-3.9,3.9v11.7
			c0,2.1,1.8,3.9,3.9,3.9h11.7c2.1,0,3.9-1.8,3.9-3.9V45.8C61.4,43.7,59.6,41.9,57.5,41.9L57.5,41.9z M57.5,41.9"/>
	</g>
</g>
<g class="st2">
	<g class="st3">
		<defs>
			<rect id="SVGID_3_" x="18" y="21.9" width="43.9" height="36.2"/>
		</defs>
		<clipPath id="SVGID_4_">
			<use xlink:href="#SVGID_3_"  style="overflow:visible;"/>
		</clipPath>
		<path class="st7" d="M58,21.9h-9.1c-2.1,0-5.1,1.2-6.7,2.8L27,40c-1.5,1.5-1.5,4,0,5.5l11.4,11.4c1.5,1.5,4,1.5,5.5,0l15.3-15.3
			c1.5-1.5,2.8-4.5,2.8-6.7v-9.1C61.9,23.7,60.2,21.9,58,21.9L58,21.9z M52.8,34.9c-2.2,0-3.9-1.7-3.9-3.9c0-2.2,1.7-3.9,3.9-3.9
			c2.2,0,3.9,1.7,3.9,3.9C56.7,33.2,55,34.9,52.8,34.9L52.8,34.9z M21.2,43.7l13.9,13.9c-1.5,0.8-3.4,0.6-4.6-0.7L19.2,45.5
			c-1.5-1.5-1.5-4,0-5.5l15.3-15.3c1.5-1.5,4.5-2.8,6.7-2.8L21.2,41.8C20.7,42.3,20.7,43.2,21.2,43.7L21.2,43.7z M21.2,43.7"/>
	</g>
</g>
<g>
	<g>
		<path class="st6" d="M26.1,49.8c-1.1,2.2-2,6-2,6s3.8-0.8,6-2l2,2c-0.2,0.4-0.5,0.8-0.9,1.2C29,59.3,18,62,18,62s2.7-11,5-13.3
			c0.4-0.4,0.8-0.6,1.2-0.9L26.1,49.8z M45.9,56.1l1.4-9.2l8.7-8.7l0,0c2.1-2.3,9-11.2,4.6-18.7C53.1,15,44.2,21.9,41.9,24l0,0
			l-8.7,8.7l-9.2,1.4l-1.5,1.4l4.8,4.8L24,41.9c-1.1,1.1-1.1,2.8,0,3.9L34.3,56c1.1,1.1,2.8,1.1,3.9,0l1.5-3.3l4.8,4.8L45.9,56.1z
			 M50.7,36.7c-1.1,1.1-2.8,1.1-3.9,0l-3.4-3.4c-1.1-1.1-1.1-2.8,0-3.9l3.4-3.4c1.1-1.1,2.8-1.1,3.9,0l3.4,3.4
			c1.1,1.1,1.1,2.8,0,3.9L50.7,36.7z M34.2,47.3l-1.5-1.5l6-6c0.4-0.4,1.1-0.4,1.5,0c0.4,0.4,0.4,1.1,0,1.5L34.2,47.3z M34.2,47.3"
			/>
	</g>
</g>
</svg>
