<?xml version="1.0" encoding="utf-8"?>
<!-- Generator: Adobe Illustrator 21.0.0, SVG Export Plug-In . SVG Version: 6.00 Build 0)  -->
<svg version="1.1" id="图层_1" xmlns="http://www.w3.org/2000/svg" xmlns:xlink="http://www.w3.org/1999/xlink" x="0px" y="0px"
	 viewBox="0 0 60 60" style="enable-background:new 0 0 60 60;" xml:space="preserve">
<style type="text/css">
	.st0{clip-path:url(#SVGID_2_);fill:#00ADB4;}
</style>
<g>
	<g>
		<defs>
			<rect id="SVGID_1_" x="3.4" y="10.4" width="53.2" height="39.1"/>
		</defs>
		<clipPath id="SVGID_2_">
			<use xlink:href="#SVGID_1_"  style="overflow:visible;"/>
		</clipPath>
		<path class="st0" d="M51.8,49.5H8.1c-2.6,0-4.7-2.1-4.7-4.7V27h53.2v17.7C56.5,47.4,54.4,49.5,51.8,49.5L51.8,49.5z M51.8,39.4
			c0-0.3-0.3-0.6-0.6-0.6h-13c-0.3,0-0.6,0.3-0.6,0.6v2.4c0,0.3,0.3,0.6,0.6,0.6h13c0.3,0,0.6-0.3,0.6-0.6L51.8,39.4L51.8,39.4z
			 M3.4,15.2c0-2.6,2.1-4.7,4.7-4.7h43.7c2.6,0,4.7,2.1,4.7,4.7V20H3.4V15.2z M3.4,15.2"/>
	</g>
</g>
</svg>
