<?xml version="1.0" encoding="utf-8"?>
<!-- Generator: Adobe Illustrator 21.0.0, SVG Export Plug-In . SVG Version: 6.00 Build 0)  -->
<svg version="1.1" id="图层_1" xmlns="http://www.w3.org/2000/svg" xmlns:xlink="http://www.w3.org/1999/xlink" x="0px" y="0px"
	 viewBox="0 0 60 60" style="enable-background:new 0 0 60 60;" xml:space="preserve">
<style type="text/css">
	.st0{display:none;}
	.st1{display:inline;}
	.st2{clip-path:url(#SVGID_2_);fill:#00ADB4;}
	.st3{fill:#00ADB4;}
	.st4{clip-path:url(#SVGID_4_);fill:#00ADB4;}
</style>
<g class="st0">
	<g class="st1">
		<defs>
			<rect id="SVGID_1_" x="3.4" y="10.4" width="53.2" height="39.1"/>
		</defs>
		<clipPath id="SVGID_2_">
			<use xlink:href="#SVGID_1_"  style="overflow:visible;"/>
		</clipPath>
		<path class="st2" d="M51.8,49.5H8.1c-2.6,0-4.7-2.1-4.7-4.7V27h53.2v17.7C56.5,47.4,54.4,49.5,51.8,49.5L51.8,49.5z M51.8,39.4
			c0-0.3-0.3-0.6-0.6-0.6h-13c-0.3,0-0.6,0.3-0.6,0.6v2.4c0,0.3,0.3,0.6,0.6,0.6h13c0.3,0,0.6-0.3,0.6-0.6L51.8,39.4L51.8,39.4z
			 M3.4,15.2c0-2.6,2.1-4.7,4.7-4.7h43.7c2.6,0,4.7,2.1,4.7,4.7V20H3.4V15.2z M3.4,15.2"/>
	</g>
</g>
<g class="st0">
	<g class="st1">
		<path class="st3" d="M13.5,6.6h33c3.8,0,6.9,3.1,6.9,6.9v33c0,3.8-3.1,6.9-6.9,6.9h-33c-3.8,0-6.9-3.1-6.9-6.9v-33
			C6.6,9.7,9.7,6.6,13.5,6.6L13.5,6.6z M30,20.8c0.6,0,1.1-0.5,1.1-1.1v-2.3c0-0.6-0.5-1.1-1.1-1.1c-0.6,0-1.1,0.5-1.1,1.1v2.3
			C28.9,20.3,29.4,20.8,30,20.8L30,20.8z M23.5,23.5c0.2-0.2,0.3-0.5,0.3-0.8c0-0.3-0.1-0.6-0.3-0.8l-1.6-1.6
			c-0.4-0.4-1.2-0.4-1.6,0c-0.4,0.4-0.4,1.2,0,1.6l1.6,1.6c0.2,0.2,0.5,0.3,0.8,0.3C23,23.8,23.3,23.7,23.5,23.5L23.5,23.5z
			 M20.8,30c0-0.6-0.5-1.1-1.1-1.1h-2.3c-0.6,0-1.1,0.5-1.1,1.1c0,0.6,0.5,1.1,1.1,1.1h2.3C20.3,31.1,20.8,30.6,20.8,30L20.8,30z
			 M39.2,30c0,0.6,0.5,1.1,1.1,1.1h2.3c0.6,0,1.1-0.5,1.1-1.1c0-0.6-0.5-1.1-1.1-1.1h-2.3C39.7,28.9,39.2,29.4,39.2,30L39.2,30z
			 M36.5,23.5c0.2,0.2,0.5,0.3,0.8,0.3c0.3,0,0.6-0.1,0.8-0.3l1.6-1.6c0.2-0.2,0.3-0.5,0.3-0.8c0-0.3-0.1-0.6-0.3-0.8
			c-0.4-0.4-1.2-0.4-1.6,0l-1.6,1.6c-0.2,0.2-0.3,0.5-0.3,0.8C36.2,23,36.3,23.3,36.5,23.5L36.5,23.5z M37.5,29.4
			c0-4.1-3.3-7.5-7.5-7.5c-4.1,0-7.5,3.3-7.5,7.5c0,4.1,3.3,7.5,7.5,7.5C34.1,36.9,37.5,33.5,37.5,29.4L37.5,29.4z M25.4,39.2
			c0,0.6,0.5,1.1,1.1,1.1h6.9c0.6,0,1.1-0.5,1.1-1.1c0-0.6-0.5-1.1-1.1-1.1h-6.9C25.9,38,25.4,38.5,25.4,39.2L25.4,39.2z M27.7,42.6
			c0,0.6,0.5,1.1,1.1,1.1h2.3c0.6,0,1.1-0.5,1.1-1.1c0-0.6-0.5-1.1-1.1-1.1h-2.3C28.2,41.5,27.7,42,27.7,42.6L27.7,42.6z M27.7,42.6
			"/>
	</g>
</g>
<g>
	<g>
		<defs>
			<rect id="SVGID_3_" x="11.5" y="6" width="37" height="48"/>
		</defs>
		<clipPath id="SVGID_4_">
			<use xlink:href="#SVGID_3_"  style="overflow:visible;"/>
		</clipPath>
		<path class="st4" d="M29.8,7.8c0.1,0,0.2,0,0.3-0.1c0.2-0.1,0.5-0.4,0.8-0.7c0.4-0.4,0.8-0.7,1.3-0.8c0.4-0.2,1-0.1,1.7,0.2
			c0.4,0.1,0.6,0.3,0.8,0.4c0.2,0.2,0.4,0.4,0.6,0.6c0.2,0.2,0.4,0.3,0.6,0.4c0.2,0.1,0.5,0.2,0.9,0.2c0.4,0,0.7-0.1,0.9-0.2
			c0.2-0.1,0.5-0.2,0.7-0.3c0.2-0.1,0.5-0.1,0.7-0.2c0.2,0,0.5,0,0.8,0.1c0.4,0.1,0.6,0.3,0.7,0.6c0.1,0.3,0.2,0.5,0.1,0.8
			c-0.1,0.3-0.2,0.6-0.4,0.8c-0.2,0.3-0.4,0.5-0.7,0.7c-0.7,0.4-1.2,0.8-1.5,1.3c-0.4,0.4-0.7,0.9-1.1,1.4c-0.2,0.2-0.4,0.5-0.6,0.8
			c-0.2,0.3-0.4,0.6-0.6,0.9c-0.2,0.4-0.4,0.8-0.7,1.1H24.4c-0.2-0.4-0.5-0.8-0.7-1.2c-0.2-0.4-0.4-0.7-0.7-1.1
			c-0.2-0.4-0.5-0.7-0.6-0.9c-0.4-0.5-0.7-1-1.2-1.4c-0.4-0.4-0.9-0.8-1.3-1.1c-0.5-0.3-0.8-0.7-0.9-1.3c-0.2-0.5,0-1,0.5-1.4
			c0.2-0.2,0.5-0.2,0.8-0.2c0.3,0,0.6,0.1,1,0.2c0.4,0.1,0.7,0.2,1,0.3C22.6,8,22.9,8,23.1,7.9c0.5-0.1,0.9-0.3,1.1-0.6
			c0.2-0.3,0.7-0.6,1.3-1C26,6.1,26.5,6,27,6.1c0.6,0.1,1,0.3,1.3,0.6c0.1,0.2,0.3,0.3,0.4,0.4c0.2,0.1,0.3,0.2,0.5,0.3
			C29.4,7.6,29.6,7.7,29.8,7.8L29.8,7.8z M35.8,18.3c0.4,0.6,0.9,1.2,1.6,1.8c0.5,0.6,1.2,1.3,1.9,2c0.8,0.8,1.7,1.6,2.7,2.4
			c0.8,0.7,1.7,1.6,2.6,2.6c0.9,1,1.7,2.2,2.3,3.5c0.7,1.3,1.1,2.9,1.4,4.6c0.3,1.7,0.2,3.7-0.1,5.8c-0.3,1.8-0.9,3.4-1.9,5
			c-0.9,1.6-2.2,2.9-3.7,4.1c-1.5,1.2-3.4,2.1-5.5,2.8c-2.1,0.7-4.5,1-7.2,1c-2.8,0-5.2-0.4-7.4-1.2c-2.1-0.8-4-1.8-5.4-3.1
			c-1.5-1.3-2.7-2.7-3.6-4.2c-0.9-1.6-1.5-3.1-1.7-4.7c-0.3-1.7-0.4-3.4-0.1-4.9c0.2-1.6,0.6-3.1,1.2-4.4c0.6-1.4,1.3-2.7,2.2-3.8
			c0.9-1.2,1.9-2.2,2.9-3.1c0.9-0.8,1.7-1.6,2.5-2.3c0.7-0.7,1.4-1.4,1.8-2c0.6-0.7,1.1-1.3,1.6-1.9L35.8,18.3L35.8,18.3z
			 M30.2,34.5L27.7,32c-0.4-0.3-0.6-0.6-0.7-0.8c-0.3-0.2-0.6-0.4-1.1-0.6c-0.5-0.2-0.8-0.1-1.2,0.3c-0.3,0.4-0.3,0.8-0.2,1.1
			c0.1,0.4,0.3,0.7,0.5,0.9l0.8,0.7c0.4,0.4,0.8,0.9,1.3,1.4c0.5,0.6,1.1,1.2,1.7,1.8l-0.1,1.1h-3.6c-0.3,0-0.6,0.1-0.8,0.4
			c-0.2,0.2-0.3,0.5-0.3,0.8c0,0.3,0.1,0.5,0.3,0.7c0.2,0.2,0.5,0.3,0.8,0.3h3.6v1.8h-3.6c-0.3,0-0.6,0.1-0.8,0.3
			c-0.2,0.2-0.3,0.4-0.3,0.8c0,0.3,0.1,0.5,0.3,0.7c0.2,0.2,0.5,0.3,0.9,0.3h3.6v1c0,0.5,0.2,0.8,0.5,1c0.3,0.2,0.6,0.3,1.1,0.3
			c0.4,0,0.8-0.1,1-0.4c0.3-0.3,0.4-0.6,0.4-0.9v-1h3.7c0.3,0,0.6-0.1,0.9-0.2c0.2-0.2,0.3-0.4,0.3-0.8c0-0.7-0.5-1.1-1.5-1.1h-3.4
			l0.1-1.8l3.4-0.1c0.5,0,0.8-0.1,1.1-0.3c0.2-0.2,0.3-0.5,0.3-0.8c0-0.3-0.1-0.5-0.3-0.8c-0.2-0.2-0.6-0.3-1.1-0.3h-3.4v-1
			c0.6-0.6,1.1-1.1,1.6-1.6c0.4-0.4,0.8-0.9,1.3-1.3c0.4-0.4,0.7-0.7,0.9-0.9c0.8-0.7,1-1.3,0.5-1.8c-0.2-0.3-0.6-0.5-0.9-0.5
			c-0.4,0-0.7,0.1-1.1,0.4c-0.2,0.1-0.5,0.4-0.9,0.8c-0.4,0.4-0.8,0.7-1.3,1.1C31.3,33.4,30.8,33.9,30.2,34.5L30.2,34.5z M30.2,34.5
			"/>
	</g>
</g>
</svg>
