<?xml version="1.0" encoding="utf-8"?>
<!-- Generator: Adobe Illustrator 21.0.0, SVG Export Plug-In . SVG Version: 6.00 Build 0)  -->
<svg version="1.1" id="图层_1" xmlns="http://www.w3.org/2000/svg" xmlns:xlink="http://www.w3.org/1999/xlink" x="0px" y="0px"
	 viewBox="0 0 60 60" style="enable-background:new 0 0 60 60;" xml:space="preserve">
<style type="text/css">
	.st0{fill:#00ADB4;}
</style>
<g>
	<path class="st0" d="M52.5,13.8H39.8v-4c0-1.6-1.4-3-3.1-3H23.4c-1.7,0-3.1,1.3-3.1,3v4H7.5c-2.3,0-4.2,1.8-4.2,4v31.4
		c0,2.2,1.9,4,4.2,4h44.9c2.3,0,4.2-1.8,4.2-4V17.8C56.7,15.6,54.8,13.8,52.5,13.8L52.5,13.8z M22.4,9.8c0-0.5,0.4-0.9,0.9-0.9h13.2
		c0.5,0,0.9,0.4,0.9,0.9v3.9H22.4V9.8z M55.7,34.8H36.6v0.8c0,0.5-0.5,1-1,1H24.7c-0.6,0-1-0.4-1-1v-0.8H3.8v-1.8h19.9v-0.8
		c0-0.5,0.5-1,1-1h10.8c0.6,0,1,0.4,1,1v0.8h19.2V34.8z M55.7,34.8"/>
</g>
</svg>
