<?xml version="1.0" encoding="utf-8"?>
<!-- Generator: Adobe Illustrator 21.0.0, SVG Export Plug-In . SVG Version: 6.00 Build 0)  -->
<svg version="1.1" id="图层_1" xmlns="http://www.w3.org/2000/svg" xmlns:xlink="http://www.w3.org/1999/xlink" x="0px" y="0px"
	 viewBox="0 0 44 56" style="enable-background:new 0 0 44 56;" xml:space="preserve">
<style type="text/css">
	.st0{fill:#FFFFFF;}
</style>
<path class="st0" d="M28.4,13.8v-2.2h-2.1v2.2H28.4z M17.7,13.8v-2.2h-2.1v2.2H17.7z M29.5,7.7c3.5,2.5,5.3,6,5.3,10.3H9.1
	c0-4.4,1.7-7.9,5.2-10.3l-2.8-2.8c-0.5-0.5-0.5-1,0-1.5c0.5-0.5,1-0.5,1.5,0l3.2,3.2C18,5.7,19.9,5.2,22,5.2c2,0,3.9,0.5,5.6,1.4
	l3.2-3.2c0.5-0.5,1-0.5,1.5,0s0.5,1,0,1.5L29.5,7.7z M40.2,20.3c0.9,0,1.6,0.3,2.3,1s1,1.4,1,2.3v15c0,0.9-0.3,1.7-1,2.3
	c-0.6,0.6-1.4,0.9-2.3,0.9s-1.6-0.3-2.3-0.9c-0.6-0.6-1-1.4-1-2.3v-15c0-0.9,0.3-1.6,1-2.3C38.6,20.6,39.3,20.3,40.2,20.3z
	 M3.8,20.3c0.9,0,1.6,0.3,2.3,1s1,1.4,1,2.3v15c0,0.9-0.3,1.7-1,2.3s-1.4,0.9-2.3,0.9s-1.6-0.3-2.3-0.9s-1-1.4-1-2.3v-15
	c0-0.9,0.3-1.6,1-2.3S2.9,20.3,3.8,20.3z M9.1,41.7V20.3h25.7v21.4c0,0.6-0.2,1.1-0.6,1.5c-0.4,0.4-0.9,0.6-1.5,0.6h-2.2v7.5
	c0,0.9-0.3,1.7-1,2.3c-0.6,0.6-1.4,0.9-2.3,0.9s-1.6-0.3-2.3-0.9s-1-1.4-1-2.3v-7.5h-4.2v7.5c0,0.9-0.3,1.7-1,2.3
	c-0.6,0.6-1.4,0.9-2.3,0.9c-0.9,0-1.6-0.3-2.3-0.9s-1-1.4-1-2.3v-7.5h-2.2c-0.6,0-1.1-0.2-1.5-0.6C9.3,42.8,9.1,42.3,9.1,41.7
	L9.1,41.7z"/>
</svg>
