<?xml version="1.0" encoding="utf-8"?>
<!-- Generator: Adobe Illustrator 21.0.0, SVG Export Plug-In . SVG Version: 6.00 Build 0)  -->
<svg version="1.1" id="图层_1" xmlns="http://www.w3.org/2000/svg" xmlns:xlink="http://www.w3.org/1999/xlink" x="0px" y="0px"
	 viewBox="0 0 537 242" style="enable-background:new 0 0 537 242;" xml:space="preserve">
<style type="text/css">
	.st0{fill:#FFFFFF;stroke:#FFFFFF;stroke-width:2;stroke-miterlimit:10;}
	.st1{fill:#FFFFFF;}
	.st2{fill:#FC933D;stroke:#FC933D;stroke-width:0.5;stroke-miterlimit:10;}
	.st3{fill:#F68601;stroke:#F68601;stroke-width:0.5;stroke-miterlimit:10;}
	.st4{fill:#FFFFFF;stroke:#FFFFFF;stroke-width:0.5;stroke-miterlimit:10;}
	.st5{fill:#F68601;}
</style>
<g>
	<path class="st0" d="M93.8,43.2c4.8-2.6,8.8-6.1,12.2-10.6l3.2,1.2c-0.6,0.8-1.2,1.6-1.8,2.3h27.9c-0.3,5.7-0.6,10-0.9,13.1
		c-0.4,4.8-2.8,7.2-7.3,7.3c-2.5,0-5.1,0-7.8,0c-0.2-1.3-0.4-2.6-0.7-3.8c2.6,0.2,5.1,0.4,7.5,0.4c2.8,0,4.4-1.4,4.7-4.2
		c0.3-2.7,0.6-5.9,0.7-9.6h-6.9c-1.8,7.9-7.1,13.9-15.9,18.1c-0.8-1-1.6-2-2.5-3.1c8.4-3.4,13.4-8.5,15-15.1h-6.8
		c-2.2,6.4-8,11.4-17.3,15c-0.8-1-1.6-2-2.5-3c8.8-3.3,14.2-7.3,16.1-12h-6.1c-2.5,2.6-5.4,4.8-8.5,6.8
		C95.4,45.1,94.7,44.2,93.8,43.2z M99.6,14.9h33.1v18.7h-3.5v-1.8H99.6V14.9z M129.2,18h-26.1v3.7h26.1V18z M103.1,28.7h26.1v-3.8
		h-26.1V28.7z"/>
	<path class="st0" d="M140.4,15.8h19.3v3.1h-3.1v24.5c1.1-0.3,2.2-0.6,3.3-0.9c0,1.4,0,2.6,0,3.5c-1.1,0.2-2.2,0.5-3.3,0.7v9.8h-3.3
		v-9c-4.2,1-8.4,2-12.7,3.1l-0.7-3.5l3-0.6V18.9h-2.5V15.8z M146.2,25.5h7.1V19h-7.1V25.5z M146.2,35.1h7.1v-6.5h-7.1V35.1z
		 M153.2,44.3v-6h-7.1v7.6C148.5,45.4,150.9,44.8,153.2,44.3z M166,41.9l3.3,1.7c-2.7,5-5.3,9.3-7.9,13c-1-0.8-2.1-1.4-3.1-1.8
		C161.2,50.8,163.7,46.5,166,41.9z M161.6,16.2h19.3V40h-3.3v-2.6H165V40h-3.3L161.6,16.2L161.6,16.2z M177.5,19.4h-12.6v14.7h12.6
		V19.4z M176.4,41.7c2.6,3.9,5.2,8.2,7.8,13l-3.1,2c-2.4-4.5-5-8.9-7.8-13.2L176.4,41.7z"/>
	<path class="st0" d="M185.6,34.4c4.4-6.5,7.7-13.7,9.9-21.7l3.5,1c-1.3,4-2.7,7.7-4.3,11.1V57h-3.3V31.5c-1.4,2.4-2.8,4.6-4.4,6.6
		C186.6,36.9,186.1,35.6,185.6,34.4z M198.6,18.9h14.7c-0.9-1.5-1.8-3.1-2.8-4.6l3-1.6c1.1,1.6,2.1,3.3,3.2,5.1l-2,1h15.5V22h-31.6
		L198.6,18.9L198.6,18.9z M201,26.2h26.5v3.1H201V26.2z M201,33.4h26.5v3.1H201V33.4z M201.5,40.7h25.6v16.4h-3.5v-2.7H205v2.7h-3.5
		V40.7z M223.6,43.7H205v7.6h18.6V43.7z"/>
	<path class="st0" d="M248.7,16.7c2.7,3.5,5.1,6.9,7.1,10.2c-1.1,0.8-2.2,1.5-3.1,2.1c-0.6-1-1.2-2.1-1.9-3.2
		c-7.3,0.5-13.2,1-17.6,1.5l-1.4-3.8c1.3-0.7,2.8-2.1,4.4-4c1.6-2.2,3.3-4.6,4.9-7.2l3.5,1.3c-2.5,3.6-5.1,7-7.9,10.2
		c4.5-0.3,8.6-0.6,12.2-0.9c-0.9-1.4-2-2.9-3-4.4L248.7,16.7z M237.8,56.5h-3.5V30h18.2v21.2c0,3.2-1.5,4.9-4.5,4.9
		c-1.3,0-3,0-5.1,0c-0.1-0.9-0.4-2.1-0.7-3.4c1.9,0.1,3.4,0.2,4.5,0.2c1.5,0,2.2-0.8,2.2-2.3v-3.7h-11.2v9.6H237.8z M249.1,32.8
		h-11.2v4.3h11.2V32.8z M237.8,44.2H249v-4.4h-11.2V44.2z M256.9,34.8h3.5v7.4c4.3-1.6,8.7-3.7,13.3-6.2l2,3.1
		c-4.9,2.6-10,4.9-15.4,6.9v3.9c0,1.9,0.7,2.8,2.2,2.8h6.6c1.5,0,2.4-0.7,2.7-2.2c0.2-1.3,0.4-3.3,0.5-5.9c1.1,0.4,2.3,0.9,3.5,1.3
		c-0.2,2.6-0.5,4.6-0.8,6c-0.4,2.6-2.3,4-5.6,4H262c-3.4,0-5.1-1.8-5.1-5.3V34.8z M257,12.9h3.5v7.7c4.1-1.6,8.2-3.6,12.3-5.9l2,3.1
		c-4.7,2.4-9.4,4.5-14.3,6.5v2.6c0,2,0.8,3,2.4,3h5.7c1.9,0,3-0.8,3.2-2.3c0.2-1.3,0.4-3.2,0.5-5.6c1.1,0.4,2.3,0.9,3.5,1.3
		c-0.2,2.4-0.5,4.3-0.8,5.8c-0.4,2.6-2.5,3.9-6.1,3.9h-6.6c-3.6,0-5.4-1.8-5.4-5.4L257,12.9L257,12.9z"/>
	<path class="st0" d="M277.3,34.3c3.9-6.2,6.8-13.3,8.6-21.2l3.3,0.9c-1,3.5-2,6.8-3.1,9.8v33.4H283V30.7c-1.3,2.7-2.8,5.1-4.3,7.3
		C278.3,36.8,277.8,35.6,277.3,34.3z M290.1,34h5.1v-8.9h-7.1V22h7.1v-8.7h3.3V22h7.1v3.1h-7.1V34h5.4v16.5h-10.6v3.1h-3.2L290.1,34
		L290.1,34z M300.7,37h-7.4v10.6h7.4V37z M309.9,13l3.3,0.5c-0.5,2.8-1.2,5.5-1.8,8H322v2.9h-2.3c-0.4,8.6-1.9,15.6-4.5,20.9
		c1.9,3.3,4.4,5.9,7.3,7.9c-0.8,1.1-1.5,2.2-2.1,3.3c-2.8-2.3-5.2-4.9-7.1-8c-2.1,3.1-4.7,6.1-7.9,8.9c-0.6-0.9-1.3-1.8-2.2-2.8
		c3.6-3.1,6.4-6.2,8.3-9.4c-1.9-4.1-3.1-8.7-3.7-14c-0.7,1.5-1.5,3-2.3,4.3c-0.5-0.9-1.2-1.9-2-2.9C306.6,27.3,308.7,20.7,309.9,13z
		 M316.4,24.5h-5.9c-0.1,0.4-0.2,0.7-0.4,1c0.4,6.3,1.4,11.6,3.2,16C315.1,37.2,316.1,31.5,316.4,24.5z"/>
	<path class="st0" d="M323.6,35.3c4.5-6.2,8-13.5,10.5-22.1l3.8,1.1c-1.2,3.5-2.5,6.7-3.8,9.7v32.8h-3.7V31.3
		c-1.6,2.9-3.4,5.5-5.2,7.9C324.8,37.9,324.2,36.6,323.6,35.3z M337.5,29.3h13.6V13.2h3.8v16.1h13.4v3.6h-13.4v23.8h-3.8V32.9h-13.6
		V29.3z"/>
	<path class="st0" d="M369.5,36.5c8.3-6.4,15.2-14.3,20.8-23.7l3.7,1.8c-6,10.2-13.2,18.5-21.7,24.8
		C371.5,38.5,370.6,37.5,369.5,36.5z M402.5,36.8c4,5.7,7.9,11.5,11.5,17.3l-3.6,2.2c-0.8-1.4-1.6-2.7-2.4-4
		c-14.2,0.8-23.1,1.4-26.8,1.7c-2.4,0.2-4.3,0.5-5.7,0.8l-1.8-4c1.8-0.7,3.6-1.9,5.3-3.5c7.8-7.9,14.7-16.6,20.6-26.2l3.9,2
		c-6.9,10.2-14.2,19.3-22.1,27.1c5.6-0.2,13.7-0.6,24.5-1.2c-2.3-3.7-4.5-7.1-6.6-10.3L402.5,36.8z"/>
	<path class="st0" d="M438.9,41.2H435v-1.9c0-1.6,0.3-2.9,0.9-4.1c0.6-1.1,1.8-2.3,3.4-3.6c1.6-1.2,2.7-2.4,3.4-3.4
		c0.7-1.1,1-2.3,1-3.7c0-1.5-0.5-2.7-1.6-3.7s-2.5-1.4-4.3-1.4c-2.9,0-5.4,1.1-7.5,3.3V18c2.5-1.6,5.2-2.4,8.2-2.4
		c2.9,0,5.2,0.8,7,2.3c1.7,1.5,2.6,3.5,2.6,6c0,1.7-0.4,3.3-1.2,4.7c-0.8,1.4-2.2,2.9-4.1,4.5c-1.5,1.3-2.6,2.3-3.1,3
		s-0.8,1.8-0.8,3.1V41.2z M436.9,45.9c0.8,0,1.5,0.3,2,0.8c0.6,0.6,0.9,1.2,0.9,2s-0.3,1.5-0.9,2s-1.2,0.8-2,0.8s-1.4-0.3-2-0.8
		s-0.9-1.2-0.9-2s0.3-1.5,0.8-2C435.5,46.1,436.1,45.9,436.9,45.9z"/>
</g>
<g>
	<rect x="3" y="116" class="st1" width="8" height="8"/>
	<g>
		<path class="st1" d="M27,113.8l-5.3,13h-1.8l5.1-12.1h-6.8v-1.5H27V113.8z"/>
		<path class="st1" d="M28,124.9c1-0.2,1.8-0.4,2.7-0.6V115h-2.4v-1.3h6v1.3H32v9c1-0.2,1.8-0.4,2.5-0.6c0,0.6,0.1,1.1,0.1,1.4
			c-2.8,0.7-4.9,1.2-6.3,1.6L28,124.9z M39.1,118.7h1.4v2.7c0,1.2-0.2,2.3-0.5,3.2c2.1,1.1,3.9,2.2,5.5,3.3l-0.9,1.2
			c-1.6-1.2-3.3-2.3-5.1-3.4c-0.1,0.1-0.2,0.3-0.2,0.4c-0.9,1.3-2.6,2.4-5,3.2c-0.2-0.4-0.5-0.8-0.9-1.2c2.3-0.8,3.9-1.7,4.8-2.9
			c0.7-0.9,1-2.2,1-3.9L39.1,118.7L39.1,118.7z M35.2,116.3h3.3l0.5-2.2h-4.1v-1.2h10.6v1.2h-4.9l-0.6,2.2h4.6v9.2h-1.4v-7.9h-6.6
			v7.9h-1.4C35.2,125.5,35.2,116.3,35.2,116.3z"/>
		<path class="st1" d="M46.1,120.3c1.7-2.6,3-5.4,3.9-8.5l1.4,0.4c-0.5,1.6-1.1,3-1.7,4.4v12.6h-1.3v-10c-0.5,0.9-1.1,1.8-1.7,2.6
			C46.5,121.3,46.3,120.8,46.1,120.3z M51.2,114.2h5.7c-0.4-0.6-0.7-1.2-1.1-1.8l1.2-0.6c0.4,0.6,0.8,1.3,1.2,2l-0.8,0.4h6.1v1.2
			H51.2V114.2z M52.1,117.1h10.4v1.2H52.1V117.1z M52.1,119.9h10.4v1.2H52.1V119.9z M52.3,122.8h10v6.4H61v-1.1h-7.3v1.1h-1.4V122.8
			z M61,124h-7.3v3H61V124z"/>
		<path class="st1" d="M65.7,123.6L67,124c-0.5,1.4-1.1,2.7-1.6,3.8c-0.4-0.2-0.8-0.3-1.3-0.5C64.6,126.4,65.1,125.1,65.7,123.6z
			 M66.4,113.5h4.3c0.3-0.6,0.5-1.2,0.6-1.8l1.4,0.4c-0.2,0.5-0.4,1-0.6,1.4h7v9.6h-1.4v-0.5h-10v0.5h-1.4L66.4,113.5L66.4,113.5z
			 M77.8,114.7h-10v1.5h10V114.7z M67.8,118.8h10v-1.5h-10V118.8z M67.8,121.4h10v-1.5h-10V121.4z M68.3,123.8h1.3v2.6
			c0,0.7,0.4,1.1,1.2,1.1h3.9c0.9,0,1.5-0.3,1.6-1c0.1-0.4,0.2-1.1,0.4-1.9c0.4,0.2,0.9,0.3,1.4,0.5c-0.1,0.8-0.3,1.5-0.4,2
			c-0.3,1.1-1.1,1.7-2.6,1.7h-4.4c-1.5,0-2.3-0.7-2.3-2.2L68.3,123.8L68.3,123.8z M71.4,123.6l0.9-0.8c0.7,0.7,1.5,1.4,2.4,2.4
			l-1.1,0.9C72.7,125.1,72,124.2,71.4,123.6z M78.3,124.2l1-0.8c0.8,0.9,1.7,1.9,2.5,3l-1.1,0.9C79.9,126.2,79.1,125.1,78.3,124.2z"
			/>
		<path class="st1" d="M82.1,123c1.3-2,2.1-4.1,2.6-6.4h-2.5v-1.2h2.5v-3.5H86v3.5h2v1.2h-2v3.1l0.5-0.6c0.8,0.6,1.4,1.3,2.1,1.9
			l-0.9,0.9c-0.6-0.6-1.2-1.2-1.7-1.7v9h-1.3v-9.3c-0.6,1.9-1.3,3.5-2.1,4.6C82.5,124,82.3,123.5,82.1,123z M87.7,124.7
			c2.3-1.2,4.3-2.6,5.9-4.3c-1.1,0.1-2.2,0.2-3.2,0.3c-0.4,0-0.8,0.1-1.2,0.2l-0.7-1.3c0.5-0.3,0.9-0.6,1.1-0.9
			c0.7-0.9,1.5-1.9,2.2-3.1h-3.3v-1.3h5.4c-0.5-0.7-0.9-1.4-1.3-1.9l1.1-0.7c0.4,0.6,1,1.2,1.5,2l-0.9,0.6h5.4v1.3h-6.2
			c-0.9,1.3-1.7,2.5-2.7,3.7c1.3-0.1,2.6-0.1,3.9-0.2c0.7-0.8,1.3-1.7,1.8-2.7l1.3,0.7c-2,3.5-5,6.4-9,8.6
			C88.3,125.4,88,125,87.7,124.7z M88.2,128.1c4-1.7,7.3-4.4,9.9-8.3l1.2,0.8c-1,1.5-2.1,2.8-3.3,3.9c1.3,1.1,2.6,2.2,3.8,3.2
			l-1.1,1.1c-1.1-1.1-2.3-2.2-3.7-3.5c-1.8,1.6-3.7,2.8-5.9,3.8C88.9,129,88.6,128.6,88.2,128.1z"/>
		<path class="st1" d="M100,123.9c1.4-0.3,2.9-0.6,4.5-1c0,0.5,0,0.9,0,1.2c-1.3,0.3-2.7,0.6-4.2,1L100,123.9z M102.6,115.2
			l-0.4,4.8h1.8l0.5-5.9h-4v-1.2h5.3l-0.5,7.1h1.1c-0.1,2.5-0.2,4.5-0.2,6.1c0,1.8-0.8,2.7-2.3,2.7c-0.6,0-1.4,0-2.2-0.1
			c-0.1-0.4-0.1-0.9-0.2-1.4c0.8,0.1,1.6,0.2,2.2,0.2c0.8,0,1.3-0.5,1.3-1.5c0.1-1.3,0.1-2.9,0.2-4.8H101l0.6-6
			C101.6,115.2,102.6,115.2,102.6,115.2z M112.8,111.9l-0.3,0.6c1.4,2.5,3.2,4.4,5.3,5.5c-0.4,0.5-0.7,0.9-0.9,1.2
			c-2.1-1.5-3.7-3.4-5-5.5c-1.2,2.1-2.9,4-5,5.7c-0.2-0.3-0.5-0.7-0.9-1.1c2.3-1.6,4.1-3.8,5.4-6.4
			C111.4,111.9,112.8,111.9,112.8,111.9z M106.4,127.1h6.3c0.8-2.1,1.6-4.3,2.2-6.5l1.3,0.4c-0.7,2.1-1.4,4.1-2.2,6.1h3.1v1.2h-10.8
			L106.4,127.1L106.4,127.1z M107.3,121.5l1.2-0.4c0.6,1.7,1.1,3.1,1.4,4.4l-1.3,0.4C108.3,124.5,107.9,123,107.3,121.5z
			 M108.2,118.4h7.2v1.2h-7.2V118.4z M110.4,120.7l1.2-0.3c0.5,1.8,0.9,3.3,1.2,4.6l-1.3,0.4C111.2,123.7,110.8,122.1,110.4,120.7z"
			/>
		<path class="st1" d="M127.8,124.6l-1.5,4.7h-1.2l1.1-4.7C126.2,124.6,127.8,124.6,127.8,124.6z"/>
		<path class="st1" d="M136,124.3c1.1-1.6,1.9-3.6,2.6-6.1h-2.4V117h2.8v-2.7c-0.7,0.1-1.5,0.2-2.3,0.3c-0.1-0.4-0.2-0.8-0.4-1.2
			c2.1-0.2,4.1-0.5,6.2-1l0.4,1.2c-0.8,0.2-1.7,0.3-2.6,0.5v2.9h2.5v1.2h-2.5v2.5l0.8-0.7c0.5,0.5,1.2,1.2,2.1,2.3l-1.1,0.9
			c-0.7-0.9-1.3-1.7-1.8-2.2v8.2H139v-8.4c-0.6,2.1-1.4,3.8-2.4,5.1C136.4,125.3,136.2,124.8,136,124.3z M141.3,127.7
			c4.8-1.1,8.2-3.5,10.3-7.3l1.2,0.8c-2.4,4-6,6.6-10.7,7.8C141.9,128.5,141.6,128.1,141.3,127.7z M144.5,114.8l1.3,0.4
			c-0.5,2-1.1,4-1.8,6c-0.4-0.2-0.9-0.4-1.4-0.5C143.5,118.7,144.1,116.7,144.5,114.8z M147.2,111.9h1.4V123h-1.4V111.9z
			 M149.8,115.1l1.2-0.6c0.9,1.5,1.8,3,2.5,4.6l-1.3,0.7C151.5,118.2,150.7,116.7,149.8,115.1z"/>
		<path class="st1" d="M155.2,112.9h15.4V129h-1.5v-1.1h-12.4v1.1h-1.5V112.9z M169.1,114.2h-12.4v12.4h12.4V114.2z M159.1,116.9
			h7.5v7.7h-1.4v-1h-4.7v1h-1.4L159.1,116.9L159.1,116.9z M165.2,118.1h-4.7v4.2h4.7V118.1z"/>
		<path class="st1" d="M172.1,121.2c0.9-0.2,1.7-0.5,2.6-0.7v-3.8h-2.3v-1.2h2.3V112h1.4v3.4h2.1v1.2h-2.1v3.4
			c0.7-0.2,1.4-0.4,2.1-0.7c0,0.6,0,1,0,1.4c-0.7,0.2-1.4,0.4-2.1,0.7v5.6c0,1.3-0.6,1.9-1.7,1.9c-0.5,0-1,0-1.7,0
			c-0.1-0.5-0.1-1-0.2-1.5c0.7,0.1,1.2,0.1,1.6,0.1c0.5,0,0.8-0.3,0.8-0.9v-4.8c-0.8,0.3-1.6,0.5-2.4,0.8L172.1,121.2z M178.8,112.8
			h9.7c-0.1,1.2-0.1,2.1-0.2,2.7c-0.1,1.5-0.9,2.2-2.6,2.2c-0.7,0-1.7,0-3,0c-0.1-0.4-0.2-0.9-0.3-1.4c1.3,0.1,2.3,0.2,3.1,0.2
			c0.9,0,1.3-0.4,1.4-1.1c0-0.4,0.1-0.8,0.1-1.3h-6.9v5h8.5v1.2c-0.6,2.1-1.5,3.9-2.9,5.3c1.1,0.9,2.4,1.6,3.9,2.1
			c-0.4,0.5-0.8,0.9-1,1.3c-1.5-0.7-2.8-1.5-3.9-2.5c-1.1,0.9-2.4,1.8-3.8,2.6c-0.2-0.4-0.5-0.8-0.8-1.2c1.4-0.8,2.6-1.5,3.6-2.4
			c-1.2-1.4-2.1-3.1-2.5-5.3h-1.1v8.9h-1.4L178.8,112.8L178.8,112.8z M187.2,120.3h-4.7c0.4,1.7,1.2,3.2,2.3,4.4
			C185.9,123.4,186.8,122,187.2,120.3z"/>
		<path class="st1" d="M190.4,118.8h8.3v-2.9H194c-0.5,0.9-1,1.8-1.6,2.6c-0.4-0.3-0.8-0.5-1.3-0.8c1.3-1.7,2.2-3.5,2.9-5.5l1.5,0.4
			c-0.3,0.7-0.5,1.4-0.8,2h4.1v-2.8h1.4v2.8h6.1v1.3h-6.1v2.9h7.4v1.3h-17.2L190.4,118.8L190.4,118.8z M192.7,121.9h12.5v7h-1.4V128
			h-9.7v0.9h-1.4L192.7,121.9L192.7,121.9z M203.8,123.2h-9.7v3.6h9.7V123.2z"/>
	</g>
</g>
<rect x="273" y="116" class="st1" width="8" height="8"/>
<g>
	<path class="st1" d="M288.8,115.9l0.9-0.8c0.4,0.4,0.8,0.8,1.2,1.1l1.9-2.3h-5v-1.2h6.6v1.2l-2.6,3.1c0.2,0.2,0.4,0.4,0.6,0.6
		l-0.7,0.6h3.2v1.2c-0.2,0.9-0.5,1.9-0.9,3.1c-0.4-0.1-0.8-0.3-1.2-0.4c0.3-0.7,0.6-1.6,0.8-2.7h-1.8v7.4c0,1.3-0.7,2-2,2h-1.9
		c-0.1-0.4-0.1-0.9-0.2-1.4c0.6,0.1,1.2,0.1,1.8,0.1c0.7,0,1-0.4,1-1.1v-7h-2.8v-1.2h3.5C290.3,117.4,289.6,116.6,288.8,115.9z
		 M299.3,118.3h1.3v2.6c0,1.4-0.2,2.5-0.5,3.5c1.8,1.2,3.5,2.4,5,3.6l-1,1.1c-1.4-1.2-3-2.4-4.6-3.6c-0.1,0.2-0.2,0.3-0.4,0.5
		c-0.9,1.2-2.4,2.3-4.5,3.2c-0.4-0.5-0.7-0.9-1-1.2c2.1-0.9,3.6-1.9,4.4-3c0.8-1,1.2-2.5,1.2-4.4v-2.3H299.3z M295.7,116.3h3
		l0.4-2.4h-4v-1.2h10v1.2h-4.5l-0.5,2.4h4.2v8.6H303v-7.4h-6v7.4h-1.3L295.7,116.3L295.7,116.3z"/>
	<path class="st1" d="M306.3,116.8c1,0.8,1.9,1.6,2.8,2.4c-0.3,0.3-0.6,0.7-1,1.1c-1.1-1-1.9-1.9-2.6-2.5L306.3,116.8z M307.8,121.9
		c0.6,0.3,1,0.5,1.4,0.7c-0.8,2.9-1.4,5.1-1.7,6.5l-1.4-0.7C306.7,126.4,307.3,124.2,307.8,121.9z M307.1,112.3
		c0.7,0.6,1.6,1.4,2.7,2.4c-0.4,0.4-0.7,0.7-1.1,1.1c-0.9-0.9-1.7-1.8-2.5-2.6L307.1,112.3z M312.9,115.6h1.3v4.4
		c0,1.8-0.2,3.2-0.5,4.3c1.5,1.2,2.8,2.2,4,3.2l-0.9,1.1c-0.9-0.9-2.1-1.9-3.5-3.1c-0.7,1.4-2,2.7-3.9,3.8c-0.3-0.4-0.5-0.8-0.9-1.1
		c1.7-1,2.9-2.1,3.6-3.4c0.6-1.1,0.9-2.7,0.9-4.8v-4.4H312.9z M310.1,112.9h6.6V124h-1.3v-9.9h-4.1v9.9H310L310.1,112.9L310.1,112.9
		z M321,111.9h1.3v15c0,1.3-0.7,2-2,2c-0.6,0-1.2,0-2,0c0-0.4-0.1-0.9-0.2-1.4c0.8,0.1,1.4,0.1,1.9,0.1c0.7,0,1-0.3,1-1L321,111.9
		L321,111.9z M319.5,125h-1.2v-11.7h1.2V125z"/>
	<path class="st1" d="M323.9,113h7.5v1.2h-1.2v9.6c0.4-0.1,0.9-0.2,1.3-0.3c0,0.5,0,1,0,1.4c-0.4,0.1-0.9,0.2-1.3,0.3v3.8h-1.3v-3.5
		c-1.6,0.4-3.3,0.8-5,1.2l-0.3-1.4l1.2-0.2v-10.8h-1L323.9,113L323.9,113z M326.1,116.8h2.8v-2.5h-2.8V116.8z M326.1,120.6h2.8V118
		h-2.8V120.6z M328.9,124.2v-2.4h-2.8v3C327,124.6,328,124.4,328.9,124.2z M333.9,123.2l1.3,0.7c-1.1,1.9-2.1,3.6-3.1,5.1
		c-0.4-0.3-0.8-0.5-1.2-0.7C332,126.7,333,125,333.9,123.2z M332.2,113.2h7.5v9.3h-1.3v-1h-4.9v1h-1.3L332.2,113.2L332.2,113.2z
		 M338.4,114.4h-4.9v5.8h4.9V114.4z M337.9,123.2c1,1.5,2,3.2,3.1,5.1l-1.2,0.8c-0.9-1.7-2-3.5-3-5.2L337.9,123.2z"/>
	<path class="st1" d="M341.6,126.7h5.6v-14.5h1.5v14.5h3.1v-14.5h1.5v14.5h5.7v1.3h-17.4L341.6,126.7L341.6,126.7z M343.7,115.6
		c1,2.3,1.9,4.7,2.8,7.2l-1.4,0.7c-0.8-2.5-1.7-4.9-2.6-7.3L343.7,115.6z M354,123c1.2-2.5,2.2-4.9,3-7.2l1.4,0.6
		c-1.1,2.8-2.1,5.2-3.1,7.2L354,123z"/>
	<path class="st1" d="M361.5,124.5l1,0.5c-0.7,1.2-1.4,2.2-2,3c-0.4-0.3-0.7-0.6-0.9-0.7C360.3,126.6,360.9,125.7,361.5,124.5z
		 M359.7,113.3h5.7v-1.4h1.3v1.4h3.7v-1.4h1.3v1.4h5.2v1.2h-5.2v1.3h-1.3v-1.3h-3.7v1.3h-1.3v-1.3h-5.7V113.3z M359.7,120.1h2.6
		c-0.4-0.5-0.7-1.1-1.1-1.5l0.9-0.6c0.5,0.5,0.9,1,1.3,1.6l-0.8,0.6h2.3c0.4-0.7,0.8-1.4,1.2-2.2l1.2,0.5c-0.4,0.6-0.8,1.1-1.2,1.7
		h2.6v1.1h-9V120.1z M360.1,122.8h3.6v-1.3h1.2v1.3h3.4v1.1h-3.4v3.3c0,1.2-0.5,1.8-1.6,1.8h-1.7c0-0.4-0.1-0.8-0.2-1.3
		c0.6,0,1.2,0.1,1.6,0.1c0.5,0,0.7-0.3,0.7-0.8v-3.1h-3.6V122.8z M360.1,116.7h3.7c-0.4-0.6-0.7-1.1-0.9-1.5l1-0.5
		c0.5,0.7,0.8,1.3,1,1.6l-0.8,0.4h4.2v1.1h-8.2L360.1,116.7L360.1,116.7z M365.3,125l0.8-0.7c0.7,0.6,1.3,1.2,1.8,1.8l-0.9,0.8
		C366.5,126.3,365.9,125.7,365.3,125z M376.5,117.2c-1.3,0.2-3.3,0.4-5.9,0.7v2.6h6.3v1.2h-2.5v7.5h-1.2v-7.5h-2.6
		c0,3.1-0.8,5.6-2.4,7.4c-0.4-0.3-0.7-0.6-1.2-0.8c1.6-1.6,2.3-3.8,2.3-6.6v-4.8c2.6-0.1,4.8-0.4,6.4-0.8L376.5,117.2z"/>
	<path class="st1" d="M382.2,115.8c0.2,0.5,0.4,0.9,0.7,1.2c-1.4,1-2.8,2.2-4.4,3.4l-0.9-1.2C379.3,118.1,380.8,116.9,382.2,115.8z
		 M387,122.3c0,1.3-0.1,2.2-0.3,2.9c2.7,0.9,5.2,1.8,7.6,2.7l-0.7,1.3c-2.2-0.9-4.7-1.9-7.4-2.8c-0.8,1.4-3.3,2.4-7.5,2.9
		c-0.2-0.4-0.5-0.9-0.8-1.4c3.9-0.3,6.2-1.1,7-2.2c0.4-0.6,0.6-1.7,0.6-3.4L387,122.3L387,122.3z M379.1,111.9c1,0.6,2,1.3,2.9,2
		l-0.9,1.1c-0.8-0.7-1.8-1.4-2.8-2.1L379.1,111.9z M380.2,120.4h12.2v5.7H391v-4.5h-9.5v4.5h-1.4v-5.7H380.2z M382.5,119.2
		c3.5-0.9,5.4-2.4,5.7-4.6h-2.8c-0.4,0.9-0.9,1.6-1.4,2.3c-0.4-0.3-0.8-0.5-1.2-0.8c1.1-1.3,1.9-2.8,2.3-4.5l1.3,0.3
		c-0.2,0.5-0.4,1-0.5,1.5h8.3v1.1l-1.2,2.4c-0.4-0.2-0.8-0.4-1.3-0.5l0.9-1.8h-3.1c-0.1,0.4-0.2,0.7-0.3,1.1c1,1.7,2.9,2.8,5.7,3.5
		c-0.3,0.4-0.6,0.9-0.9,1.3c-2.5-0.8-4.3-2-5.3-3.5c-0.8,1.4-2.6,2.5-5.3,3.4C383.1,120,382.8,119.6,382.5,119.2z"/>
	<path class="st1" d="M405.2,124.6l-1.5,4.7h-1.2l1.1-4.7C403.6,124.6,405.2,124.6,405.2,124.6z"/>
	<path class="st1" d="M415.5,124.5l1,0.5c-0.7,1.2-1.4,2.2-2,3c-0.4-0.3-0.7-0.6-0.9-0.7C414.3,126.6,414.9,125.7,415.5,124.5z
		 M413.7,113.3h5.7v-1.4h1.3v1.4h3.7v-1.4h1.3v1.4h5.2v1.2h-5.2v1.3h-1.3v-1.3h-3.7v1.3h-1.3v-1.3h-5.7V113.3z M413.7,120.1h2.6
		c-0.4-0.5-0.7-1.1-1.1-1.5l0.9-0.6c0.5,0.5,0.9,1,1.3,1.6l-0.8,0.6h2.3c0.4-0.7,0.8-1.4,1.2-2.2l1.2,0.5c-0.4,0.6-0.8,1.1-1.2,1.7
		h2.6v1.1h-9V120.1z M414.1,122.8h3.6v-1.3h1.2v1.3h3.4v1.1h-3.4v3.3c0,1.2-0.5,1.8-1.6,1.8h-1.7c0-0.4-0.1-0.8-0.2-1.3
		c0.6,0,1.2,0.1,1.6,0.1c0.5,0,0.7-0.3,0.7-0.8v-3.1h-3.6V122.8z M414.1,116.7h3.7c-0.4-0.6-0.7-1.1-0.9-1.5l1-0.5
		c0.5,0.7,0.8,1.3,1,1.6l-0.8,0.4h4.2v1.1h-8.2L414.1,116.7L414.1,116.7z M419.3,125l0.8-0.7c0.7,0.6,1.3,1.2,1.8,1.8l-0.9,0.8
		C420.5,126.3,419.9,125.7,419.3,125z M430.5,117.2c-1.3,0.2-3.3,0.4-5.9,0.7v2.6h6.3v1.2h-2.5v7.5h-1.2v-7.5h-2.6
		c0,3.1-0.8,5.6-2.4,7.4c-0.4-0.3-0.7-0.6-1.2-0.8c1.6-1.6,2.3-3.8,2.3-6.6v-4.8c2.6-0.1,4.8-0.4,6.4-0.8L430.5,117.2z"/>
	<path class="st1" d="M436.2,115.8c0.2,0.5,0.4,0.9,0.7,1.2c-1.4,1-2.8,2.2-4.4,3.4l-0.9-1.2C433.3,118.1,434.8,116.9,436.2,115.8z
		 M441,122.3c0,1.3-0.1,2.2-0.3,2.9c2.7,0.9,5.2,1.8,7.6,2.7l-0.7,1.3c-2.2-0.9-4.7-1.9-7.4-2.8c-0.8,1.4-3.3,2.4-7.5,2.9
		c-0.2-0.4-0.5-0.9-0.8-1.4c3.9-0.3,6.2-1.1,7-2.2c0.4-0.6,0.6-1.7,0.6-3.4L441,122.3L441,122.3z M433.1,111.9c1,0.6,2,1.3,2.9,2
		l-0.9,1.1c-0.8-0.7-1.8-1.4-2.8-2.1L433.1,111.9z M434.2,120.4h12.2v5.7H445v-4.5h-9.5v4.5h-1.4v-5.7H434.2z M436.5,119.2
		c3.5-0.9,5.4-2.4,5.7-4.6h-2.8c-0.4,0.9-0.9,1.6-1.4,2.3c-0.4-0.3-0.8-0.5-1.2-0.8c1.1-1.3,1.9-2.8,2.3-4.5l1.3,0.3
		c-0.2,0.5-0.4,1-0.5,1.5h8.3v1.1l-1.2,2.4c-0.4-0.2-0.8-0.4-1.3-0.5l0.9-1.8h-3.1c-0.1,0.4-0.2,0.7-0.3,1.1c1,1.7,2.9,2.8,5.7,3.5
		c-0.3,0.4-0.6,0.9-0.9,1.3c-2.5-0.8-4.3-2-5.3-3.5c-0.8,1.4-2.6,2.5-5.3,3.4C437.1,120,436.8,119.6,436.5,119.2z"/>
	<path class="st1" d="M449.6,128c2.1-0.4,3.9-0.9,5.2-1.7c-1-0.7-1.9-1.6-2.7-2.7l0.9-0.7h-1.4v-7.4h6.2c0-0.5,0-1,0-1.6h-7.6v-1.2
		h16.1v1.2h-7.2c0,0.6,0,1.1,0,1.6h5.8v8.2h-1.3v-0.9h-4.9c-0.3,1.4-0.8,2.5-1.5,3.2c2.3,0.9,5.6,1.3,9.8,1.3
		c-0.3,0.5-0.5,1-0.7,1.4c-4.7-0.1-8.1-0.7-10.3-1.7c-1.3,0.9-3.2,1.6-5.7,2.2C450.2,128.8,449.9,128.4,449.6,128z M453,118.6h4.8
		c0-0.6,0-1.2,0-1.9H453V118.6z M457.8,119.8H453v1.9h4.6C457.7,121.1,457.7,120.5,457.8,119.8z M456,125.5c0.6-0.5,1.1-1.4,1.4-2.6
		h-4.3C453.9,124,454.8,124.9,456,125.5z M458.9,121.7h4.7v-1.9H459C459.1,120.5,459,121.1,458.9,121.7z M463.7,116.7h-4.5
		c0,0.7,0,1.3,0,1.9h4.5V116.7z"/>
	<path class="st1" d="M475.1,127.2l3.9,0.1l6.1-0.2c-0.2,0.5-0.4,0.9-0.6,1.4l-5.7,0.1l-3.9-0.1c-1.9,0-3.4-0.7-4.3-2.1
		c-0.7,0.6-1.5,1.4-2.2,2.3l-0.8-1.5c0.9-0.8,1.7-1.4,2.3-2v-5.9h-2.1V118h3.5v7.2C472.1,126.6,473.4,127.2,475.1,127.2z M469.9,112
		c0.7,1.1,1.3,2.2,2,3.4l-1.3,0.7c-0.5-1.2-1.1-2.4-1.8-3.6L469.9,112z M485,118.5c-0.3,0.4-0.6,0.8-0.8,1.3c-2.3-0.7-4-1.6-5.3-2.9
		v2.5h-1.2v-2.5c-1.3,1.1-3,2.1-5.2,2.9c-0.3-0.4-0.6-0.8-0.9-1.1c2.1-0.5,3.8-1.3,5.3-2.3h-4.4v-1.2h5.2v-1.4
		c-1.3,0.1-2.8,0.1-4.3,0.2c-0.1-0.4-0.2-0.8-0.2-1.2c3.5-0.1,6.8-0.3,9.9-0.6l0.2,1.2c-1.3,0.1-2.7,0.2-4.4,0.3v1.5h5.5v1.2h-4.8
		C481,117.5,482.8,118.2,485,118.5z M480.2,121.1h-3.4c-0.1,2.4-1.2,4.2-3.3,5.6c-0.2-0.3-0.6-0.7-0.9-1.1c1.9-1,2.9-2.5,3-4.5h-2
		v-1.2h8.2l-0.5,2h2.4c-0.1,1.2-0.2,2.1-0.2,2.7c-0.1,1.1-0.9,1.7-2.4,1.7h-2c-0.1-0.5-0.2-0.9-0.3-1.3c0.8,0.1,1.6,0.1,2.2,0.1
		c0.8,0,1.2-0.3,1.3-0.8c0.1-0.4,0.1-0.8,0.1-1.2h-2.7L480.2,121.1z"/>
	<path class="st1" d="M486.7,113.2h5.5v12H488v1.3h-1.3V113.2z M490.8,114.5H488v4h2.9v-4H490.8z M490.8,123.9v-4.1H488v4.1H490.8z
		 M491.9,129.2c-0.3-0.3-0.7-0.7-1.1-1.1c1.4-1.3,2.4-2.5,2.8-3.8c0.4-1.2,0.7-3,0.7-5.5v-6.2h7.7v14.2c0,1.4-0.7,2.1-2,2.1
		c-0.8,0-1.8,0-3-0.1c-0.1-0.5-0.2-0.9-0.3-1.4c1.2,0.1,2.1,0.1,2.8,0.1s1.1-0.3,1.1-1v-3.4h-5.2C495,125.4,493.9,127.4,491.9,129.2
		z M495.5,121.9h5.1v-3.3h-4.9C495.7,119.8,495.6,120.9,495.5,121.9z M500.6,114h-4.9v3.3h4.9V114z"/>
</g>
<rect x="273" y="153" class="st1" width="8" height="8"/>
<g>
	<path class="st1" d="M325.3,151.7h1.8c0.4-1.1,0.8-2,1.1-2.9l1.5,0.4c-0.4,0.9-0.7,1.7-1.1,2.5h3.5v14h-1.4v-1.4h-4v1.5h-1.4V151.7
		z M330.7,153.1h-4v4.3h4V153.1z M326.7,163h4v-4.4h-4V163z M332.3,155.3c1.1-1.7,2-3.9,2.8-6.5l1.5,0.4c-0.3,0.9-0.6,1.7-0.9,2.5
		h5.7c-0.1,6-0.3,9.8-0.4,11.4c-0.1,1.8-1,2.8-2.9,2.8c-1.1,0-2.2,0-3.3-0.1c-0.1-0.6-0.2-1.1-0.3-1.6h0.1c1.2,0.2,2.2,0.2,3.2,0.2
		c1.1,0,1.6-0.6,1.7-1.7c0.1-1.7,0.2-5,0.3-9.7h-4.7c-0.5,1.1-1,2.1-1.6,3C333.2,155.8,332.8,155.6,332.3,155.3z M333.9,156.5
		l1.1-0.8c1.3,1.5,2.3,2.9,3.1,4l-1.3,0.9C335.9,159.3,335,157.9,333.9,156.5z"/>
	<path class="st1" d="M342.5,157.7c1.6-2.5,2.8-5.4,3.7-8.7l1.4,0.4c-0.4,1.3-0.9,2.6-1.3,3.8v13H345v-10.1
		c-0.6,1.1-1.2,2.2-1.8,3.1C342.9,158.6,342.7,158.1,342.5,157.7z M354.5,149l-0.2,0.4c1.5,2.6,3.4,4.4,5.9,5.6
		c-0.3,0.4-0.6,0.8-1,1.2c-2.4-1.4-4.3-3.2-5.6-5.6c-1.3,2.3-3.2,4.2-5.6,5.9c-0.3-0.4-0.6-0.8-0.9-1.1c2.6-1.7,4.6-3.8,5.9-6.4
		L354.5,149L354.5,149z M351.6,155.8v2.5c0,3.4-1,6-2.9,8c-0.3-0.3-0.7-0.7-1.2-1c1.8-1.7,2.7-3.9,2.7-6.9v-2.6H351.6z M355.3,155.8
		h1.4v10.3h-1.4V155.8z"/>
	<path class="st1" d="M360.6,159.9c1.3-2,2.1-4.1,2.6-6.4h-2.5v-1.2h2.5v-3.4h1.3v3.4h2.2v1.2h-2.2v1.9l0.5-0.5
		c0.6,0.6,1.3,1.3,2.1,2.1l-0.9,0.9c-0.6-0.7-1.2-1.4-1.7-1.9v10.2h-1.3v-9.3c-0.6,1.9-1.3,3.5-2.1,4.6
		C361,161,360.8,160.4,360.6,159.9z M366.6,154.6c1.5-1.9,2.6-3.9,3.3-5.8l1.3,0.4c-0.2,0.5-0.5,1-0.7,1.6h6.4v1.2
		c-0.8,1.4-1.9,2.7-3.3,3.9c1.3,0.8,2.8,1.3,4.4,1.6c-0.3,0.6-0.5,1.1-0.6,1.5c-1.8-0.5-3.5-1.3-5-2.2c-1.6,1-3.4,1.9-5.6,2.7
		c-0.2-0.4-0.4-0.8-0.6-1.2c1.9-0.6,3.6-1.4,5.1-2.4c-0.9-0.8-1.6-1.7-2.1-2.7c-0.5,0.8-1.1,1.6-1.7,2.4
		C367.3,155.2,367,154.9,366.6,154.6z M367.9,159.4h8.7v6.8h-1.4v-0.9h-6v0.9h-1.4L367.9,159.4L367.9,159.4z M375.3,160.7h-6v3.4h6
		V160.7z M375.3,152h-5.4c0.7,1.3,1.5,2.4,2.5,3.2C373.6,154.2,374.6,153.2,375.3,152z"/>
	<path class="st1" d="M388.2,161.6l-1.5,4.7h-1.2l1.1-4.7H388.2z"/>
	<path class="st1" d="M396.6,160c1.3-2,2.1-4.1,2.6-6.4h-2.5v-1.2h2.5v-3.5h1.3v3.5h2v1.2h-2v3.1l0.5-0.6c0.8,0.6,1.4,1.3,2.1,1.9
		l-0.9,0.9c-0.6-0.6-1.2-1.2-1.7-1.7v9h-1.3v-9.3c-0.6,1.9-1.3,3.5-2.1,4.6C397,161,396.8,160.5,396.6,160z M402.1,161.7
		c2.3-1.2,4.3-2.6,5.9-4.3c-1.1,0.1-2.2,0.2-3.2,0.3c-0.4,0-0.8,0.1-1.2,0.2l-0.7-1.3c0.5-0.3,0.9-0.6,1.1-0.9
		c0.7-0.9,1.5-1.9,2.2-3.1h-3.3v-1.3h5.4c-0.5-0.7-0.9-1.4-1.3-1.9l1.1-0.7c0.4,0.6,1,1.2,1.5,2l-0.9,0.6h5.4v1.3h-6.2
		c-0.9,1.3-1.7,2.5-2.7,3.7c1.3-0.1,2.6-0.1,3.9-0.2c0.7-0.8,1.3-1.7,1.8-2.7l1.3,0.7c-2,3.5-5,6.4-9,8.6
		C402.8,162.4,402.5,162,402.1,161.7z M402.6,165.1c4-1.7,7.3-4.4,9.9-8.3l1.2,0.8c-1,1.5-2.1,2.8-3.3,3.9c1.3,1.1,2.6,2.2,3.8,3.2
		l-1.1,1.1c-1.1-1.1-2.3-2.2-3.7-3.5c-1.8,1.6-3.7,2.8-5.9,3.8C403.4,166,403,165.6,402.6,165.1z"/>
	<path class="st1" d="M414.4,160.9c1.4-0.3,2.9-0.6,4.5-1c0,0.5,0,0.9,0,1.2c-1.3,0.3-2.7,0.6-4.2,1L414.4,160.9z M417,152.2
		l-0.4,4.8h1.8l0.5-5.9h-4v-1.2h5.3l-0.5,7.1h1.1c-0.1,2.5-0.2,4.5-0.2,6.1c0,1.8-0.8,2.7-2.3,2.7c-0.6,0-1.4,0-2.2-0.1
		c-0.1-0.4-0.1-0.9-0.2-1.4c0.8,0.1,1.6,0.2,2.2,0.2c0.8,0,1.3-0.5,1.3-1.5c0.1-1.3,0.1-2.9,0.2-4.8h-4.2l0.6-6L417,152.2L417,152.2
		z M427.3,148.9l-0.3,0.6c1.4,2.5,3.2,4.4,5.3,5.5c-0.4,0.5-0.7,0.9-0.9,1.2c-2.1-1.5-3.7-3.4-5-5.5c-1.2,2.1-2.9,4-5,5.7
		c-0.2-0.3-0.5-0.7-0.9-1.1c2.3-1.6,4.1-3.8,5.4-6.4H427.3z M420.9,164.1h6.3c0.8-2.1,1.6-4.3,2.2-6.5l1.3,0.4
		c-0.7,2.1-1.4,4.1-2.2,6.1h3.1v1.2h-10.8v-1.2H420.9z M421.8,158.5l1.2-0.4c0.6,1.7,1.1,3.1,1.4,4.4l-1.3,0.4
		C422.8,161.5,422.3,160,421.8,158.5z M422.7,155.4h7.2v1.2h-7.2V155.4z M424.8,157.7l1.2-0.3c0.5,1.8,0.9,3.3,1.2,4.6l-1.3,0.4
		C425.6,160.7,425.3,159.1,424.8,157.7z"/>
	<path class="st1" d="M481.3,151.7h1.8c0.4-1.1,0.8-2,1.1-2.9l1.5,0.4c-0.4,0.9-0.7,1.7-1.1,2.5h3.5v14h-1.4v-1.4h-4v1.5h-1.4V151.7
		z M486.6,153.1h-4v4.3h4V153.1z M482.7,163h4v-4.4h-4V163z M488.3,155.3c1.1-1.7,2-3.9,2.8-6.5l1.5,0.4c-0.3,0.9-0.6,1.7-0.9,2.5
		h5.7c-0.1,6-0.3,9.8-0.4,11.4c-0.1,1.8-1,2.8-2.9,2.8c-1.1,0-2.2,0-3.3-0.1c-0.1-0.6-0.2-1.1-0.3-1.6h0.1c1.2,0.2,2.2,0.2,3.2,0.2
		c1.1,0,1.6-0.6,1.7-1.7c0.1-1.7,0.2-5,0.3-9.7h-4.7c-0.5,1.1-1,2.1-1.6,3C489.2,155.8,488.8,155.6,488.3,155.3z M489.8,156.5
		l1.1-0.8c1.3,1.5,2.3,2.9,3.1,4l-1.3,0.9C491.9,159.3,490.9,157.9,489.8,156.5z"/>
	<path class="st1" d="M498.7,159h2.7c0.3-0.4,0.5-0.9,0.8-1.4l1.3,0.4c-0.2,0.3-0.4,0.7-0.6,1h4.3v1.1c-0.4,1.1-1.1,2.2-2,3
		c0.6,0.3,1.3,0.6,2,0.9l-0.8,1.2c-0.7-0.4-1.5-0.8-2.3-1.2c-1.3,0.9-3,1.7-5,2.2c-0.2-0.4-0.4-0.8-0.6-1.2c1.7-0.4,3.2-0.9,4.3-1.7
		c-1-0.5-2.1-1-3.2-1.6c0.4-0.5,0.7-1.1,1.1-1.7h-2L498.7,159L498.7,159z M498.9,153h4v-4h1.3v3.9h3.4v1.2h-3.4v1.1l0.5-0.6
		c1.1,0.8,2,1.5,2.7,2.1l-0.8,1c-0.6-0.6-1.5-1.3-2.4-2.1v2h-1.3v-2.5c-1.1,1.1-2.3,2.1-3.7,2.9c-0.2-0.3-0.5-0.7-0.8-1.1
		c1.5-0.8,2.8-1.8,4.1-2.9h-3.6L498.9,153L498.9,153z M499.3,150.2l1-0.7c0.5,0.6,1.1,1.3,1.6,2.1l-1.1,0.8
		C500.4,151.6,499.8,150.9,499.3,150.2z M501.3,161.4c0.8,0.4,1.7,0.8,2.6,1.2c0.8-0.7,1.4-1.5,1.9-2.4h-3.7
		C501.8,160.6,501.6,161,501.3,161.4z M506.8,149.5l1.1,0.7c-0.6,0.8-1.3,1.6-1.9,2.3c-0.3-0.2-0.6-0.5-0.9-0.7
		C505.6,151.1,506.2,150.3,506.8,149.5z M510,148.9l1.4,0.2c-0.2,1.1-0.5,2.2-0.9,3.2h5.4v1.2h-1.1c-0.3,3.4-1,6.2-2.2,8.2
		c0.9,1.3,2.2,2.3,3.6,3.2c-0.4,0.5-0.7,1-0.9,1.4c-1.4-0.9-2.6-2-3.6-3.3c-1.1,1.3-2.4,2.5-3.8,3.5c-0.3-0.3-0.6-0.7-1-1.1
		c1.6-1.1,3-2.3,4-3.7c-0.9-1.6-1.6-3.5-1.9-5.7c-0.2,0.4-0.5,0.8-0.8,1.2c-0.2-0.3-0.5-0.7-0.9-1.1
		C508.6,154.1,509.5,151.7,510,148.9z M513.4,153.5h-3.3c-0.1,0.2-0.1,0.3-0.2,0.4c0.2,2.5,0.8,4.6,1.8,6.4
		C512.6,158.6,513.2,156.3,513.4,153.5z"/>
	<path class="st1" d="M516.5,158.3c0.8-0.2,1.6-0.5,2.4-0.7v-4h-2.2v-1.3h2.2v-3.4h1.3v3.4h1.9v1.3h-1.9v3.6
		c0.6-0.2,1.1-0.4,1.6-0.5c0,0.5,0,1,0.1,1.4c-0.6,0.2-1.2,0.4-1.7,0.6v5.3c0,1.3-0.6,2-1.7,2c-0.4,0-0.9,0-1.6,0
		c0-0.5-0.1-1-0.2-1.5c0.6,0.1,1.1,0.1,1.5,0.1c0.5,0,0.8-0.3,0.8-0.9V159c-0.8,0.3-1.6,0.5-2.2,0.8L516.5,158.3z M524.4,160h3.6
		v-2.2h-4.1c-0.1,3.6-1,6.4-2.5,8.3c-0.3-0.4-0.6-0.7-0.9-1.1c1.5-1.8,2.2-4.6,2.2-8.3v-6.9h10.4v5.1h-1.3v-0.5H524v2.2h4.1v-1.8
		h1.3v1.8h4.6v1.2h-4.6v2.2h3.7v5.9h-1.3v-1h-6v1h-1.3L524.4,160L524.4,160z M531.8,151H524v2.2h7.8V151z M531.7,161.2h-6v2.6h6
		V161.2z"/>
</g>
<g>
	<path class="st2" d="M288.2,163.8c0.8,0.9,2,1.4,3.5,1.4c1.2,0,2.2-0.3,3.1-0.9c0.9-0.6,1.5-1.3,1.9-2.3c0.8-2.2-0.4-3.2-3.5-3.2
		h-1.4l0.6-1.8h1.4c2.7,0,4.5-1,5.2-3c0.7-1.9,0-2.8-2.1-2.8c-1.2,0-2.5,0.4-3.8,1.2l0.7-2c1.4-0.6,2.8-1,4.3-1s2.5,0.4,3.1,1.1
		s0.7,1.7,0.2,3c-0.8,2.2-2.5,3.7-5,4.3l0,0c1.2,0.1,2,0.6,2.4,1.3s0.5,1.7,0.1,2.8c-0.6,1.5-1.6,2.8-3,3.7s-3.1,1.4-4.9,1.4
		c-1.6,0-2.8-0.3-3.6-0.9L288.2,163.8z"/>
	<path class="st2" d="M321.4,149.6l-17.2,17.2h-1.8l17.2-17.2H321.4z M304.4,153.9c0.5-1.4,1.3-2.5,2.3-3.3s2.2-1.2,3.5-1.2
		c1.2,0,2,0.4,2.4,1.1c0.4,0.8,0.4,1.8-0.1,3.2c-0.5,1.3-1.3,2.4-2.3,3.3c-1.1,0.8-2.2,1.3-3.4,1.3c-1.2,0-2-0.4-2.4-1.2
		C303.9,156.3,304,155.2,304.4,153.9z M306.2,153.8c-0.3,0.9-0.4,1.7-0.2,2.2c0.2,0.5,0.7,0.8,1.4,0.8c0.7,0,1.4-0.3,2-0.8
		s1.1-1.3,1.4-2.3c0.3-0.9,0.4-1.7,0.2-2.2c-0.2-0.5-0.7-0.8-1.4-0.8c-0.7,0-1.4,0.3-2,0.8C307,152.1,306.5,152.9,306.2,153.8z
		 M311.5,162.7c0.5-1.4,1.3-2.5,2.3-3.3s2.2-1.2,3.5-1.2c1.2,0,2,0.4,2.4,1.1s0.4,1.8-0.1,3.2c-0.5,1.3-1.3,2.4-2.3,3.3
		c-1.1,0.8-2.2,1.2-3.4,1.2c-1.2,0-2-0.4-2.4-1.2S311,164,311.5,162.7z M313.2,162.6c-0.3,0.9-0.4,1.6-0.2,2.2
		c0.2,0.5,0.7,0.8,1.4,0.8c0.7,0,1.4-0.3,2-0.8s1.1-1.3,1.4-2.2c0.3-1,0.4-1.7,0.2-2.2c-0.2-0.5-0.7-0.8-1.4-0.8
		c-0.7,0-1.4,0.3-2,0.8C314,160.9,313.5,161.6,313.2,162.6z"/>
</g>
<g>
	<path class="st2" d="M438.7,157.7c-1.7-0.9-2.2-2.3-1.6-4.1c0.5-1.3,1.3-2.3,2.5-3.1s2.6-1.2,4.1-1.2c1.4,0,2.3,0.4,3,1.1
		c0.6,0.7,0.7,1.7,0.3,2.9c-0.7,1.9-2.3,3.4-4.8,4.4l0,0c2.2,0.9,2.9,2.4,2.1,4.6c-0.5,1.4-1.4,2.5-2.8,3.4
		c-1.3,0.8-2.9,1.3-4.7,1.3c-1.5,0-2.6-0.4-3.2-1.2s-0.7-1.9-0.2-3.2C434.1,160.3,435.9,158.8,438.7,157.7L438.7,157.7z M440,158.7
		c-2.4,0.9-3.9,2.1-4.5,3.7c-0.3,0.8-0.2,1.5,0.2,2c0.4,0.5,1.1,0.8,2.1,0.8s1.8-0.3,2.6-0.8c0.8-0.5,1.3-1.2,1.6-2
		C442.7,160.8,442,159.6,440,158.7z M444.7,153.6c0.3-0.8,0.3-1.4-0.1-1.8s-0.9-0.7-1.7-0.7c-0.8,0-1.5,0.2-2.2,0.7s-1.2,1-1.4,1.8
		c-0.5,1.4,0,2.5,1.5,3.2C442.9,156.1,444.2,155,444.7,153.6z"/>
	<path class="st2" d="M447.8,158.5c1.1-3,2.4-5.3,4-6.8s3.3-2.3,5.2-2.3c3.6,0,4.4,2.9,2.2,8.7c-1,2.9-2.4,5.1-3.9,6.6
		c-1.6,1.5-3.3,2.3-5.1,2.3c-1.7,0-2.8-0.7-3.2-2.2C446.5,163.4,446.8,161.3,447.8,158.5z M450,158.4c-1.6,4.5-1.3,6.8,1,6.8
		s4.2-2.3,5.9-6.9c1.7-4.8,1.5-7.1-0.7-7.1C453.9,151.1,451.8,153.6,450,158.4z"/>
	<path class="st2" d="M479.6,149.6l-17.2,17.2h-1.8l17.2-17.2H479.6z M462.6,153.9c0.5-1.4,1.3-2.5,2.3-3.3s2.2-1.2,3.5-1.2
		c1.2,0,2,0.4,2.4,1.1c0.4,0.8,0.4,1.8-0.1,3.2c-0.5,1.3-1.3,2.4-2.3,3.3c-1.1,0.8-2.2,1.3-3.4,1.3c-1.2,0-2-0.4-2.4-1.2
		S462.2,155.2,462.6,153.9z M464.4,153.8c-0.3,0.9-0.4,1.7-0.2,2.2c0.2,0.5,0.7,0.8,1.4,0.8c0.7,0,1.4-0.3,2-0.8s1.1-1.3,1.4-2.3
		c0.3-0.9,0.4-1.7,0.2-2.2s-0.7-0.8-1.4-0.8c-0.7,0-1.4,0.3-2,0.8C465.2,152.1,464.7,152.9,464.4,153.8z M469.7,162.7
		c0.5-1.4,1.3-2.5,2.3-3.3s2.2-1.2,3.5-1.2c1.2,0,2,0.4,2.4,1.1c0.4,0.8,0.4,1.8-0.1,3.2c-0.5,1.3-1.3,2.4-2.3,3.3
		c-1.1,0.8-2.2,1.2-3.4,1.2c-1.2,0-2-0.4-2.4-1.2S469.2,164,469.7,162.7z M471.4,162.6c-0.3,0.9-0.4,1.6-0.2,2.2s0.7,0.8,1.4,0.8
		c0.7,0,1.4-0.3,2-0.8s1.1-1.3,1.4-2.2c0.3-1,0.4-1.7,0.2-2.2c-0.2-0.5-0.7-0.8-1.4-0.8c-0.7,0-1.4,0.3-2,0.8
		C472.2,160.9,471.8,161.6,471.4,162.6z"/>
</g>
<rect x="3" y="156" class="st1" width="8" height="8"/>
<g>
	<path class="st1" d="M17.9,159.9h7.7v-3.7h-4.2c-0.6,1.2-1.2,2.2-1.9,3c-0.4-0.3-0.8-0.6-1.1-0.8c1.3-1.7,2.3-3.7,3.1-6.1l1.4,0.4
		c-0.3,0.8-0.5,1.5-0.8,2.2h3.6v-3h1.4v3h6.5v1.3h-6.5v3.7h7.7v1.3h-5.7v5c-0.1,0.9,0.3,1.3,1.2,1.2h1.8c0.8,0,1.3-0.3,1.3-0.9
		c0.1-0.6,0.1-1.5,0.2-2.6c0.4,0.2,0.9,0.4,1.5,0.5c-0.1,0.9-0.2,1.8-0.3,2.7c-0.1,0.6-0.4,1-0.8,1.2c-0.4,0.2-1,0.3-1.9,0.3H30
		c-1.6,0.1-2.4-0.7-2.4-2.3v-5.2h-3.4c-0.1,2-0.5,3.6-1.2,4.7c-0.9,1.4-2.4,2.5-4.7,3.3c-0.2-0.4-0.5-0.8-0.9-1.3
		c2.1-0.7,3.5-1.6,4.3-2.8c0.6-0.9,1-2.2,1.1-4h-4.9C17.9,161,17.9,159.9,17.9,159.9z"/>
	<path class="st1" d="M35.7,157c2.1-0.3,3.9-0.6,5.6-1v-1.2h-5.1v-1.1h5.1v-1.8h1.3v6.6h-1.3v-1.3c-1.8,0.4-3.6,0.7-5.3,1.1
		L35.7,157z M39.5,169.1h-1.4v-9.7h12.4v7.4c0,1.4-0.8,2.1-2.3,2.1c-1.1,0-2.2,0-3.5-0.1c-0.1-0.4-0.2-0.9-0.3-1.4
		c1.1,0.1,2.3,0.1,3.5,0.1c0.8,0,1.2-0.3,1.2-1.1v-0.8h-9.7L39.5,169.1L39.5,169.1z M49.2,160.6h-9.7v1.4h9.7V160.6z M39.5,164.6
		h9.7v-1.4h-9.7V164.6z M45.4,151.9h1.3v2.5c1.7-0.4,3.4-0.9,5.2-1.5l0.5,1.2c-2,0.5-3.8,1-5.6,1.4v0.7c0,0.7,0.4,1,1.1,1h2.3
		c0.7,0,1.1-0.2,1.2-0.6c0.1-0.4,0.2-0.9,0.3-1.7c0.4,0.2,0.8,0.3,1.3,0.5c-0.2,0.8-0.3,1.4-0.5,1.8c-0.3,0.8-0.9,1.2-2,1.2h-2.9
		c-1.5,0-2.2-0.7-2.2-2.1C45.4,156.3,45.4,151.9,45.4,151.9z"/>
	<path class="st1" d="M58.8,162.7c0,0.5,0.1,1,0.1,1.5c-1.2,0.9-2.3,1.7-3.2,2.5l-0.8-1.1c0.4-0.4,0.6-0.9,0.6-1.6v-5.4h-1.9v-1.2
		h3.2v6.8C57.4,163.8,58.1,163.3,58.8,162.7z M55.7,152.2c0.8,0.8,1.7,1.7,2.6,2.8l-1.2,1c-0.9-1.2-1.7-2.1-2.5-2.9L55.7,152.2z
		 M60.6,154.1v7.2c0,3.4-0.9,6-2.8,7.8c-0.3-0.4-0.6-0.8-0.9-1.1c1.6-1.5,2.4-3.7,2.4-6.6v-8.6h10.8V167c0,1.3-0.6,2-1.8,2
		c-0.7,0-1.6,0-2.8-0.1c-0.1-0.4-0.1-0.9-0.3-1.4c1.2,0.1,2.1,0.1,2.7,0.1s0.9-0.3,0.9-0.9v-12.6H60.6z M61.2,158.9h3v-1.6h-2.5
		v-1.1h2.5v-1.7h1.3v1.7h2.4v1.1h-2.4v1.6h3v1.1h-7.2L61.2,158.9L61.2,158.9z M62,161.5h5.4v4.5h-4.1v0.8H62V161.5z M66.1,162.6
		h-2.9v2.2h2.9V162.6z"/>
	<path class="st1" d="M75,158.4c0,3.2-0.2,5.4-0.5,6.5c-0.3,1.3-1,2.7-2.1,4.3c-0.3-0.4-0.6-0.8-1-1.2c0.8-1.2,1.4-2.4,1.7-3.6
		c0.3-1.1,0.4-2.8,0.4-5.1v-5.9c5.1-0.2,9.7-0.5,13.6-1.1l0.8,1.5c-4.9,0.5-9.2,0.8-13,0.9v2.3h13.9v1.3H75V158.4z M76.6,161.2h10.7
		v7.9h-1.4v-1.2H78v1.2h-1.4V161.2z M85.9,162.5H78v4.2h7.9V162.5z"/>
	<path class="st1" d="M90.8,156.5h5.6c0.3-0.9,0.6-1.7,0.8-2.3h-7.3v-1.3h16.9v1.3h-8c-0.3,0.6-0.6,1.4-1,2.3h8v12.6h-1.4v-1H92.1v1
		h-1.4v-12.6H90.8z M92.1,166.9H95v-9.3h-2.8L92.1,166.9L92.1,166.9z M96.2,160h4.1v-2.3h-4.1V160z M96.2,163.5h4.1v-2.3h-4.1V163.5
		z M96.2,166.9h4.1v-2.3h-4.1V166.9z M104.4,157.7h-2.8v9.3h2.8V157.7z"/>
	<path class="st1" d="M113,163c0.1,0.7,0.1,1.2,0.2,1.7c-0.8,0.8-1.6,1.5-2.4,2.3c-0.4,0.4-0.7,0.7-0.9,1.1l-1-1.1
		c0.4-0.5,0.6-1,0.6-1.7v-6.5h-2v-1.2h3.4v7.6C111.6,164.6,112.3,163.9,113,163z M109.3,152.2c1.1,1,2,2,2.8,2.9l-1.2,1
		c-0.7-1-1.6-2-2.6-3L109.3,152.2z M112.4,166.6c0.9-0.1,1.8-0.3,2.8-0.4v-5.4h-2.5v-1.2h6.1v1.2h-2.3v5.2c0.9-0.2,1.9-0.3,2.9-0.5
		c0,0.5,0,0.9,0,1.4c-2.6,0.4-4.8,0.8-6.6,1.1L112.4,166.6z M112.7,155.3h6.4c0-1.1,0-2.3,0-3.5h1.4c0,1.4,0,2.6,0,3.5h4.3v1.3h-4.3
		c0.1,5,0.7,8.3,1.7,10.1c0.4,0.6,0.7,0.9,0.9,0.9c0.2,0,0.3-0.2,0.4-0.7c0.1-0.7,0.2-1.6,0.3-2.8c0.5,0.2,0.9,0.4,1.3,0.5
		c-0.2,1.3-0.3,2.3-0.4,3c-0.2,1-0.7,1.5-1.5,1.5c-0.7,0-1.3-0.5-2-1.4c-1.2-1.7-1.9-5.4-2.1-11.1h-6.5L112.7,155.3L112.7,155.3z
		 M121.1,153l0.8-0.8c0.9,0.7,1.7,1.3,2.2,1.8l-1,1C122.6,154.3,121.9,153.6,121.1,153z"/>
	<path class="st1" d="M135.2,164.6l-1.5,4.7h-1.2l1.1-4.7H135.2z"/>
	<path class="st1" d="M150.1,152l-0.2,0.4c1.5,1.4,2.9,2.8,4.3,4.2l-1,1.1c-1.3-1.4-2.6-2.8-4-4.1c-1.1,1.8-2.3,3.3-3.6,4.6h7.2
		c-0.1,1.6-0.1,2.8-0.2,3.4c-0.1,1.7-0.9,2.6-2.4,2.6c-0.6,0-1.4,0-2.3-0.1c-0.1-0.5-0.2-1-0.2-1.4c0.8,0.1,1.5,0.2,2.2,0.2
		c0.8,0,1.3-0.5,1.4-1.6c0-0.6,0.1-1.2,0.1-2h-4.7v7c0,0.7,0.4,1,1.1,1h2.9c0.9,0,1.4-0.3,1.6-0.9c0.1-0.6,0.2-1.3,0.3-2.1
		c0.5,0.2,0.9,0.4,1.4,0.5c-0.1,0.8-0.3,1.5-0.4,2.1c-0.3,1.1-1.1,1.6-2.5,1.6h-3.5c-1.4,0-2.2-0.7-2.2-2.1v-8.2
		c-0.4,0.4-0.7,0.7-1.1,1c-0.4-0.6-0.6-1-0.8-1.3c1.9-1.5,3.6-3.5,5-6h1.6V152z M158.6,152.2h1.4v14.6c0,1.4-0.7,2.2-2.1,2.2
		c-0.5,0-1.4,0-2.8,0c-0.1-0.5-0.2-1.1-0.3-1.6c1.2,0.1,2.1,0.2,2.6,0.2c0.8,0,1.1-0.4,1.1-1.1v-14.3H158.6z M156.2,164.6h-1.4
		v-10.8h1.4V164.6z"/>
	<path class="st1" d="M161.6,157.9h2.8c-0.5-0.8-1-1.5-1.4-2l0.9-0.7c0.4,0.5,0.9,1.1,1.5,2l-1,0.7h2.3c0.6-0.9,1.2-1.8,1.8-2.7
		l1.2,0.7c-0.6,0.7-1.1,1.4-1.6,2h2.7v1.1h-9.2V157.9z M163.4,163.1l1.2,0.6c-0.6,1.3-1.3,2.5-1.9,3.6c-0.3-0.2-0.7-0.4-1.2-0.6
		C162.1,165.7,162.8,164.6,163.4,163.1z M162.1,161.2h3.6v-1.7h1.3v1.7h3.4v1.1H167v4.6c0,1.2-0.6,1.9-1.8,1.9c-0.5,0-1.1,0-1.7,0
		c0-0.4-0.1-0.8-0.2-1.3c0.7,0.1,1.2,0.1,1.6,0.1c0.6,0,0.8-0.3,0.8-0.9v-4.3h-3.6L162.1,161.2L162.1,161.2z M162.1,153.8h3.8
		c-0.3-0.5-0.5-1-0.9-1.6l1.1-0.5c0.4,0.6,0.7,1.2,1,1.8l-0.6,0.3h3.7v1.1H162L162.1,153.8L162.1,153.8z M168.5,163.2
		c0.7,0.9,1.2,1.7,1.7,2.5l-1.1,0.8c-0.5-0.9-1.1-1.8-1.6-2.5L168.5,163.2z M171.4,153.3c2.4,0,4.7-0.3,6.7-0.7l0.5,1.4
		c-2.3,0.3-4.3,0.5-5.9,0.6v4.1h6.4v1.2h-2.5v9.2h-1.3v-9.2h-2.6v0.9c0,3.6-0.9,6.4-2.6,8.4c-0.3-0.4-0.6-0.7-0.9-1.1
		c1.5-1.7,2.3-4.1,2.3-7.3L171.4,153.3L171.4,153.3z"/>
	<path class="st1" d="M179.7,157c2.1-0.3,3.9-0.6,5.6-1v-1.2h-5.1v-1.1h5.1v-1.8h1.3v6.6h-1.3v-1.3c-1.8,0.4-3.6,0.7-5.3,1.1
		L179.7,157z M183.5,169.1h-1.4v-9.7h12.4v7.4c0,1.4-0.8,2.1-2.3,2.1c-1.1,0-2.2,0-3.5-0.1c-0.1-0.4-0.2-0.9-0.3-1.4
		c1.1,0.1,2.3,0.1,3.5,0.1c0.8,0,1.2-0.3,1.2-1.1v-0.8h-9.7v3.5H183.5z M193.2,160.6h-9.7v1.4h9.7V160.6z M183.5,164.6h9.7v-1.4
		h-9.7V164.6z M189.4,151.9h1.3v2.5c1.7-0.4,3.4-0.9,5.2-1.5l0.5,1.2c-2,0.5-3.8,1-5.6,1.4v0.7c0,0.7,0.4,1,1.1,1h2.3
		c0.7,0,1.1-0.2,1.2-0.6c0.1-0.4,0.2-0.9,0.3-1.7c0.4,0.2,0.8,0.3,1.3,0.5c-0.2,0.8-0.3,1.4-0.5,1.8c-0.3,0.8-0.9,1.2-2,1.2h-2.9
		c-1.5,0-2.2-0.7-2.2-2.1L189.4,151.9L189.4,151.9z"/>
	<path class="st1" d="M202.8,162.7c0,0.5,0.1,1,0.1,1.5c-1.2,0.9-2.3,1.7-3.2,2.5l-0.8-1.1c0.4-0.4,0.6-0.9,0.6-1.6v-5.4h-1.9v-1.2
		h3.2v6.8C201.4,163.8,202.1,163.3,202.8,162.7z M199.7,152.2c0.8,0.8,1.7,1.7,2.6,2.8l-1.2,1c-0.9-1.2-1.7-2.1-2.5-2.9L199.7,152.2
		z M204.6,154.1v7.2c0,3.4-0.9,6-2.8,7.8c-0.3-0.4-0.6-0.8-0.9-1.1c1.6-1.5,2.4-3.7,2.4-6.6v-8.6h10.8V167c0,1.3-0.6,2-1.8,2
		c-0.7,0-1.6,0-2.8-0.1c-0.1-0.4-0.1-0.9-0.3-1.4c1.2,0.1,2.1,0.1,2.7,0.1c0.6,0,0.9-0.3,0.9-0.9v-12.6H204.6z M205.2,158.9h3v-1.6
		h-2.5v-1.1h2.5v-1.7h1.3v1.7h2.4v1.1h-2.4v1.6h3v1.1h-7.2v-1.1H205.2z M206,161.5h5.4v4.5h-4.1v0.8H206V161.5z M210.1,162.6h-2.9
		v2.2h2.9V162.6z"/>
</g>
<path class="st3" d="M144.6,197h254.9l-14.1,36H130.5L144.6,197z"/>
<g>
	<path class="st4" d="M147.7,225.4H159l1.7-4.8h-8.9l0.7-2h8.9l1.5-4.2h-7.8l0.7-2h18l-0.7,2h-7.9l-1.5,4.2h8.9l-0.7,2H163l-1.7,4.8
		h11.3l-0.7,2h-24.8L147.7,225.4z M170.5,202.1l-0.8,0.7c1.6,4,4.6,7,8.9,9.1c-0.9,0.8-1.6,1.5-2.2,2.2c-4-2.4-6.8-5.6-8.6-9.5
		c-4.1,3.6-9.4,6.9-16,9.9c-0.1-0.6-0.3-1.3-0.6-2.1c6.7-2.8,12.2-6.2,16.5-10.2L170.5,202.1L170.5,202.1z"/>
	<path class="st4" d="M182.3,209h8.7c1-1.4,1.9-2.6,2.6-3.6h-11.4l0.7-2h26.3l-0.7,2H196c-0.8,1-1.7,2.2-2.8,3.6h12.4l-7.1,19.6
		h-2.1l0.6-1.5h-19.1l-0.6,1.6h-2.1L182.3,209z M178.5,225.2h4.4l5.2-14.4h-4.4L178.5,225.2z M184.9,225.2h6.4l1.3-3.6h-6.4
		L184.9,225.2z M186.8,219.8h6.4l1.3-3.6h-6.4L186.8,219.8z M188.8,214.4h6.4l1.3-3.6h-6.4L188.8,214.4z M202.9,210.8h-4.4
		l-5.2,14.4h4.4L202.9,210.8z"/>
	<path class="st4" d="M204.8,219.1c3.1-3.1,5.6-6.4,7.7-9.9h-3.9l0.7-1.9h3.9l2-5.4h2.1l-2,5.4h3.1l-0.7,1.9h-3.1l-1.8,4.8l1.2-0.9
		c0.8,1,1.5,2,2.2,3l-1.9,1.4c-0.5-1-1.1-1.9-1.7-2.7l-5.1,14.1h-2.1l5.3-14.5c-2,3-4,5.4-5.9,7.2
		C204.8,220.7,204.8,219.9,204.8,219.1z M211.3,227c7.2-2.6,13.9-6.9,20.1-12.9l1.4,1.3c-2.4,2.3-4.8,4.3-7.4,6.1
		c1.5,1.7,2.8,3.4,4.1,5l-2.3,1.8c-1.1-1.7-2.4-3.5-3.8-5.4c-3.6,2.4-7.4,4.4-11.3,5.9C211.9,228.4,211.7,227.8,211.3,227z
		 M212.5,221.7c4.3-1.9,8.2-4.1,11.6-6.7c-1.9,0.2-3.6,0.4-5.2,0.5c-0.7,0.1-1.4,0.2-2,0.4l-0.3-2c0.9-0.4,1.6-0.9,2.3-1.4
		c1.7-1.4,3.4-3,5.1-4.8h-5.2l0.7-2h8.4c-0.3-1.1-0.7-2.1-1-3l2.2-1.1c0.4,0.9,0.8,1.9,1.3,3.1l-1.8,1h8.4l-0.7,2h-9.7
		c-2.1,2-4.1,3.9-6.2,5.7c2-0.1,4.1-0.2,6.2-0.4c1.5-1.3,2.9-2.7,4.2-4.1l1.6,1.1c-5.1,5.5-11.4,9.9-18.9,13.4
		C213.1,222.8,212.8,222.2,212.5,221.7z"/>
	<path class="st4" d="M241,207l-3.4,7.5h2.8l4.1-9.2h-6.2l0.7-1.9h8.3l-4.9,11.1h1.7c-1.5,3.8-2.8,7-3.8,9.5
		c-1.1,2.8-2.8,4.2-5.1,4.2c-1,0-2.1,0-3.4-0.1c0.2-0.7,0.3-1.4,0.4-2.2c1.3,0.2,2.4,0.2,3.4,0.2c1.3,0,2.2-0.8,2.9-2.3
		c0.8-2,1.8-4.5,3-7.5h-6.6l4.3-9.4L241,207L241,207z M232,220.5c2.3-0.4,4.8-0.9,7.5-1.5c-0.3,0.7-0.5,1.4-0.7,1.9
		c-2.2,0.4-4.6,1-7.2,1.6L232,220.5z M240.3,225.4h9.9c2.5-3.2,4.9-6.6,7.2-10.2l1.8,0.7c-2.3,3.3-4.6,6.4-6.9,9.5h4.8l-0.7,1.9
		h-16.8L240.3,225.4z M258.8,201.9l-0.8,0.9c0.8,3.9,2.5,6.8,5.1,8.6c-0.8,0.7-1.6,1.4-2.1,1.9c-2.3-2.4-3.9-5.2-4.7-8.6
		c-3.1,3.3-6.7,6.3-11,8.9c-0.2-0.5-0.4-1-0.7-1.7c4.5-2.5,8.5-5.8,12-10L258.8,201.9L258.8,201.9z M244.9,216.7l2.1-0.6
		c0,2.6-0.1,4.9-0.3,6.9l-2.3,0.7C244.7,221.4,244.8,219,244.9,216.7z M248,212h11.3l-0.7,1.9h-11.3L248,212z M250,215.5l2.1-0.5
		c-0.2,2.7-0.5,5.1-0.7,7.2l-2.2,0.6C249.6,220.2,249.9,217.8,250,215.5z"/>
	<path class="st4" d="M262.3,214.6c4.3-3.9,8-8.2,11.1-12.9l1.9,0.7c-1.7,2.4-3.5,4.7-5.3,6.7l-7,19.3h-2.1l5.6-15.5
		c-1.4,1.4-2.8,2.8-4.3,4C262.3,216.2,262.3,215.4,262.3,214.6z M274.6,205.7l0.7-1.9h16.5l-0.7,1.9c-3,6-7,11.1-11.9,15.2
		c1.4,2.3,3.5,4.1,6.3,5.4c-1,0.9-1.9,1.6-2.5,2.2c-2.7-1.6-4.7-3.5-6-5.9c-3.3,2.4-6.9,4.4-10.9,6c-0.2-0.5-0.5-1.2-0.9-2
		c4.1-1.6,7.7-3.6,10.9-5.9c-1.7-4-1.7-9.1,0-15.1h-1.5V205.7z M288.6,205.7h-10.5c-1.4,5.4-1.3,9.8,0.1,13.4
		C282.7,215.3,286.2,210.9,288.6,205.7z"/>
	<path class="st4" d="M290.1,228.6H288l3.3-9h8.9l1.2-2.1h-11.9l0.6-1.7H317l-0.6,1.7h-12.9l-1.3,2.1h11l-2.2,6.1
		c-0.7,1.8-1.9,2.7-3.7,2.7c-0.9,0-1.8,0-2.9-0.1c0.2-0.6,0.3-1.3,0.4-2.1c1,0.1,1.9,0.2,2.6,0.2c0.8,0,1.4-0.4,1.6-1.1l1.5-4h-4.7
		l-2.4,6.5h-1.9l2.4-6.5h-4.5l-2.4,6.5h-2l2.4-6.5h-4.6L290.1,228.6z M294.5,206.3H306l0.6-1.6h-10.2l0.6-1.7h22.1l-0.6,1.7h-10
		l-0.6,1.6h11.6l-1.9,5.1h-2.1l1.2-3.4h-9.5l-2.4,6.5h-1.9l2.4-6.5H296l-1.2,3.4h-2.1L294.5,206.3z M295.9,212.7h6.4l-0.5,1.5h-6.4
		L295.9,212.7z M297,209.6h6.4l-0.5,1.5h-6.4L297,209.6z M307.1,212.7h6.4l-0.5,1.5h-6.4L307.1,212.7z M308.2,209.6h6.4l-0.5,1.5
		h-6.4L308.2,209.6z"/>
	<path class="st4" d="M329,225h-12.1l0.8-2.3h4.7l5.9-16.1l-5.4,1.4l0.9-2.5l8.3-2.2l-7,19.3h4.7L329,225z"/>
	<path class="st4" d="M334.3,221.7c1.1,0.9,2.4,1.4,3.9,1.4s2.8-0.4,4-1.2s2-1.9,2.5-3.2c0.5-1.4,0.4-2.4-0.2-3.2
		c-0.6-0.7-1.8-1.1-3.5-1.1c-0.8,0-2,0.1-3.4,0.2l3.9-10.8h10.4l-0.9,2.4h-7.9l-2.2,6c0.8,0,1.4-0.1,1.8-0.1c2.2,0,3.8,0.6,4.6,1.7
		c0.8,1.1,0.9,2.7,0.2,4.7c-0.7,2.1-2,3.7-3.8,5s-3.9,1.9-6.2,1.9c-2,0-3.4-0.3-4.2-0.9L334.3,221.7z"/>
	<path class="st4" d="M352.8,211.5h26.4l-0.8,2.1h-8.6l-3.9,10.7c-0.4,1.1,0,1.6,1.1,1.6h2.4c1.3,0,2.3-0.6,2.9-1.8
		c0.5-1,1.1-2.3,1.8-3.9c0.6,0.3,1.3,0.5,2.1,0.7c-0.8,1.6-1.4,2.9-2,3.9c-1.1,2-2.8,3-5.1,3h-3.3c-2.3,0-3-1.1-2.2-3.4l4-10.9H362
		l-0.3,0.9c-1.4,3.9-3,6.7-4.9,8.6c-1.9,2-4.9,3.9-9,5.7c-0.4-0.8-0.7-1.4-0.9-1.8c3.7-1.5,6.4-3.2,8.2-4.9c1.7-1.6,3.1-4.1,4.3-7.4
		l0.4-1h-7.6L352.8,211.5z M358.3,203.5h21.2l-0.8,2.1h-21.2L358.3,203.5z"/>
</g>
<path class="st5" d="M49.5,211.5h60v4h-60V211.5z"/>
<path class="st3" d="M423.5,213.5h60v4h-60V213.5z"/>
</svg>
