<?xml version="1.0" encoding="utf-8"?>
<!-- Generator: Adobe Illustrator 21.0.0, SVG Export Plug-In . SVG Version: 6.00 Build 0)  -->
<svg version="1.1" id="图层_1" xmlns="http://www.w3.org/2000/svg" xmlns:xlink="http://www.w3.org/1999/xlink" x="0px" y="0px"
	 viewBox="0 0 346 254" style="enable-background:new 0 0 346 254;" xml:space="preserve">
<style type="text/css">
	.st0{fill:none;stroke:#FFFFFF;stroke-width:0.5;stroke-miterlimit:10;}
	.st1{fill:#FFFFFF;stroke:#FFFFFF;stroke-width:0.5;stroke-miterlimit:10;}
	.st2{fill:#F88101;stroke:#F88101;stroke-width:0.5;stroke-miterlimit:10;}
	.st3{fill:#FFFFFF;}
</style>
<polyline class="st0" points="66.5,27.9 66.5,16 7.5,16 7.5,239 66.5,239 66.5,223.5 "/>
<g>
	<path class="st1" d="M50.3,42.3h32l-6,34.1h-2.8l0.3-1.8H47.4l-0.3,1.9h-2.8L50.3,42.3z M79,44.9H52.6L47.9,72h26.3L79,44.9z
		 M50.7,65.6h10.1l1.3-7.2h-8.8l0.4-2.5h8.8l0.9-4.9h-9.5l0.4-2.5H76L75.6,51H66l-0.9,4.9H74l-0.4,2.5h-8.8l-1.3,7.2h10.2l-0.4,2.5
		h-23L50.7,65.6z M66.2,60.7l2.3-1.5c1.1,1.4,2,2.7,2.7,3.9l-2.4,1.6C67.9,63.1,67.1,61.8,66.2,60.7z"/>
	<path class="st1" d="M87.8,47h13.5l1.1-6.3h3l-1.1,6.3h13.4l-4.3,24.1c-0.5,3.1-2.3,4.6-5.4,4.6c-1.6,0-3.6,0-5.9-0.1
		c0.1-0.8,0.1-1.9,0-3.2c2.3,0.2,4.2,0.3,5.7,0.3c1.5,0,2.4-0.7,2.7-2.3l3.7-20.7h-10.5c-0.5,2.2-1.1,4.2-1.8,5.9
		c3.7,3.5,6.6,6.5,8.8,9.1l-2.6,2.4c-2.1-2.9-4.6-5.8-7.5-8.9c-2.3,3.6-6,6.7-11.1,9.4c-0.8-1.4-1.3-2.3-1.6-2.6
		c4.3-2.1,7.5-4.4,9.4-7c1.5-1.9,2.7-4.6,3.5-8.3H90.3l-4.6,26.3h-3L87.8,47z"/>
	<path class="st2" d="M125.9,52.2h10.5c0.5-1.4,1-2.7,1.4-3.9h-15.5l0.5-2.6h11.1c-0.7-1.6-1.5-2.9-2.2-4.1l2.5-1.5
		c1.3,1.7,2.2,3.2,2.9,4.3l-1.9,1.2h8.6c1.4-1.6,2.9-3.4,4.5-5.5l2.6,1.6c-1.2,1.3-2.5,2.6-3.8,3.9h11.3l-0.5,2.6h-17
		c-0.5,1.3-1.1,2.6-1.6,3.9H153l-4.3,24.2H146l0.4-2.2h-21.5l-0.4,2.2h-2.8L125.9,52.2z M125.3,71.7h21.5l0.7-4.1H126L125.3,71.7z
		 M126.4,65.2h21.5l0.7-4.1h-21.5L126.4,65.2z M149.8,54.7h-21.5l-0.7,4.1h21.5L149.8,54.7z"/>
	<path class="st2" d="M155.2,71.3c1.6-1.9,3.3-4.1,5-6.8l2.1,1.2c-1.8,2.5-3.6,4.8-5.3,6.9C156.5,72.1,155.9,71.7,155.2,71.3z
		 M157.3,61h18.6l-0.4,2.3h-7.8l-1.4,8c-0.5,2.8-2.1,4.2-4.9,4.2c-1.3,0-2.4,0-3.4,0c0-1,0-1.9-0.1-2.8c1,0.1,2,0.2,3.1,0.2
		c1.4,0,2.3-0.7,2.5-2.2l1.3-7.3h-8L157.3,61z M160.2,55.4h14.7l-0.4,2.3h-14.7L160.2,55.4z M160.4,50h6.8l0.6-3.6h-8.1l0.4-2.3h8.1
		l0.7-3.7h2.7L171,44h8l-0.4,2.3h-8L170,50h6.2l-0.4,2.3H160L160.4,50z M168.9,65.7l2.3-1.1c0.9,1.7,1.6,3.4,2.2,5.1l-2.5,1.3
		C170.3,69,169.6,67.3,168.9,65.7z M183.5,50.3h2.7c-0.4,1.9-0.7,3.5-1,5.1c-0.4,8.8,1.6,15,6,18.6c-1.1,0.8-2,1.5-2.7,2.2
		c-3.3-3-5.1-7.6-5.5-14c-2.2,5.6-6,10.3-11.3,14.3c-0.4-0.6-1-1.3-1.8-2c6-4.2,9.9-9.5,11.7-15.7C182.3,56.5,182.9,53.7,183.5,50.3
		z M175.6,54.4c2.8-4.4,5-9.1,6.6-14.1l2.6,0.5c-0.7,1.8-1.4,3.6-2.1,5.3H195l-0.4,2.5c-1,2.1-2.2,4.4-3.5,6.8
		c-0.6-0.4-1.4-0.8-2.4-1.1c1.1-1.9,2.2-3.8,3.1-5.7h-10.1c-1.2,2.5-2.4,4.8-3.7,7C177,55.2,176.3,54.8,175.6,54.4z"/>
</g>
<g>
	<path class="st2" d="M40.6,176.9h15.7l-0.5,2.6h-2.5l-3.5,20c0.9-0.2,1.9-0.5,2.8-0.7c-0.2,1.1-0.4,2.1-0.5,2.9
		c-0.9,0.2-1.9,0.4-2.8,0.6l-1.4,7.9h-2.7l1.3-7.3c-3.6,0.8-7.1,1.6-10.7,2.5l-0.1-2.8l2.5-0.5l4-22.5h-2L40.6,176.9z M46.9,200
		l0.9-4.9h-5.7l-1.1,6.2C42.9,200.9,44.9,200.5,46.9,200z M42.5,192.6h5.7l0.9-5.3h-5.7L42.5,192.6z M43.9,184.7h5.7l0.9-5.3h-5.7
		L43.9,184.7z M57.6,198.1l2.4,1.4c-2.9,4-5.7,7.6-8.3,10.6c-0.7-0.6-1.5-1.1-2.3-1.5C52.4,205.3,55.1,201.8,57.6,198.1z
		 M57.8,177.2h15.7L70,196.6h-2.7l0.4-2.1H57.4l-0.4,2.1h-2.7L57.8,177.2z M70.3,179.8H60l-2.1,12h10.3L70.3,179.8z M66.1,198
		c1.5,3.2,3,6.7,4.5,10.6l-2.8,1.6c-1.3-3.6-2.8-7.2-4.4-10.7L66.1,198z"/>
	<path class="st2" d="M72.5,205.2h11.7l5.3-30.2h3.1l-5.3,30.2h6.4l5.3-30.2h3.1l-5.3,30.2h11.8l-0.5,2.7H72.1L72.5,205.2z
		 M80.8,182.2c1.2,4.7,2.2,9.7,3.2,15l-3.2,1.4c-0.7-5.1-1.7-10.2-2.8-15.2L80.8,182.2z M99.5,197.5c3.3-5.2,6.3-10.2,8.8-15
		l2.8,1.2c-3.3,5.8-6.3,10.8-9.1,15L99.5,197.5z"/>
	<path class="st2" d="M112.1,192c4.5-5.3,8.2-11.2,11.2-17.6l2.7,0.8c-1.6,3.3-3.3,6.3-5.1,9.1l-4.6,26.2h-2.7l3.7-20.8
		c-1.5,2-3,3.8-4.5,5.4C112.5,194,112.3,193,112.1,192z M124.2,197.1h20.8l-2.4,13.4h-2.8l0.4-2.2H125l-0.4,2.2h-2.8L124.2,197.1z
		 M124.8,191.2h21.6l-0.4,2.5h-21.6L124.8,191.2z M124.9,179.4h11.9c-0.5-1.3-1.1-2.5-1.6-3.7l2.7-1.3c0.6,1.3,1.3,2.7,1.9,4.2
		l-1.7,0.8h12.6l-0.5,2.6h-25.7L124.9,179.4z M125.8,185.3h21.6l-0.4,2.5h-21.6L125.8,185.3z M141.7,199.6h-15.2l-1.1,6.2h15.2
		L141.7,199.6z"/>
	<path class="st2" d="M163.9,209.8l2-11.6h-10.6c-1.3,5.1-3.5,9.3-6.6,12.6c-0.5-0.8-1.1-1.6-1.7-2.5c2-2.2,3.5-4.7,4.5-7.5
		c1-2.6,1.9-6.4,2.8-11.2l2.3-13h29.8l-5.1,29.1c-0.5,2.9-2.1,4.3-4.9,4.3c-1.7,0-3.6,0-5.6-0.1c0-0.8,0-1.8,0-3
		c2.1,0.1,3.8,0.2,5.1,0.2c1.5,0,2.4-0.7,2.6-2.2l1.2-6.7h-10.7l-2,11.6H163.9z M156,195.5h10.4l1.2-6.8h-10.3
		C157,191.1,156.6,193.3,156,195.5z M159.1,179.3l-1.2,6.8h10.3l1.2-6.8H159.1z M169.4,195.5h10.7l1.2-6.8h-10.7L169.4,195.5z
		 M183,179.3h-10.7l-1.2,6.8h10.7L183,179.3z"/>
	<path class="st2" d="M195.7,179.4l-1.8,10.3c-1,5.5-2,9.7-3.1,12.5c-1.1,2.9-2.8,5.7-5,8.3c-0.8-1.1-1.4-2-1.7-2.5
		c1.8-2.2,3.1-4.6,4.2-7.2c0.9-2.5,1.8-6.1,2.7-10.9l2.3-13.1h27l-3.5,20c-0.8,4.4-1,7.4-0.8,9.2c0.1,0.6,0.4,0.8,0.8,0.8
		c0.4,0,0.7-0.4,1-1.3c0.4-1.3,1-3.3,1.6-6.2c1,0.4,1.9,0.8,2.6,1c-0.7,2.6-1.3,4.6-1.9,6.2c-0.9,2.4-2.2,3.6-4,3.6
		c-1.4,0-2.3-0.9-2.9-2.7c-0.5-1.7-0.3-5.2,0.7-10.5l3.1-17.3H195.7z M197.2,183.7l2.6-1.7c1.5,2.8,3.1,5.7,4.6,8.7
		c2.4-3,4.7-6.2,6.9-9.4l2.3,1.2c-2.5,3.7-5.1,7.3-7.9,10.8c1.8,3.5,3.6,7.1,5.4,10.9l-2.9,1.8c-1.6-3.5-3.2-6.8-4.8-9.9
		c-3,3.6-6.2,7.1-9.6,10.5c-0.5-0.5-1.2-1.1-2.1-1.8c3.6-3.6,7-7.3,10.3-11.3C200.5,189.9,198.8,186.6,197.2,183.7z"/>
	<path class="st2" d="M224,193.9c1.9-0.4,3.7-0.9,5.4-1.3l1.5-8.5h-5l0.5-2.6h5l1.2-7.1h2.9l-1.2,7.1h3.7l-0.5,2.6h-3.7l-1.4,7.7
		c1.3-0.3,2.6-0.7,3.8-1c-0.1,1.1-0.2,2.1-0.2,2.9c-1.4,0.4-2.8,0.7-4.1,1.1l-2,11.3c-0.5,2.6-1.8,3.9-4.2,3.9c-0.8,0-2.1,0-3.8-0.1
		c0.1-1,0.1-2,0.1-3c1.4,0.2,2.5,0.3,3.2,0.3c1.1,0,1.7-0.6,1.9-1.7l1.7-9.8c-1.8,0.5-3.5,1-5.1,1.4L224,193.9z M237.6,194.5h20.8
		l-0.5,2.6h-9l-1.6,9.1h10.7l-0.5,2.7h-24.9l0.5-2.7h11.3l1.6-9.1h-8.9L237.6,194.5z M247.7,187c-3.3,2.6-6.4,4.8-9.3,6.9l-1.6-2.2
		c3.3-2.1,6.4-4.4,9.2-6.7L247.7,187z M239.6,179.9h10.5c-0.6-1.4-1.4-2.9-2.2-4.3l2.6-1.5c1.1,1.7,2,3.2,2.7,4.6l-2,1.2h10.5
		l-1.2,6.6h-2.9l0.7-3.9H242l-0.7,3.9h-2.9L239.6,179.9z M251.1,187l2.3-1.9c2.8,2.4,5.2,4.5,7.1,6.5l-2.5,2.3
		C256.2,191.7,253.9,189.4,251.1,187z"/>
	<path class="st2" d="M261.9,194.2h16.2l2.7-15.3h-14.5l0.5-2.8H299l-0.5,2.8h-14.7l-2.7,15.3h16.3L297,197h-16.3l-2.4,13.4h-3.1
		l2.4-13.4h-16.2L261.9,194.2z M267.4,182.9l2.6-1.6c2.2,3.2,4,6.3,5.4,9.2l-2.9,1.9C271.1,189.5,269.4,186.3,267.4,182.9z
		 M284.6,190.5c3.2-2.8,6.1-5.9,8.9-9.4l2.4,1.8c-3.4,3.8-6.5,6.9-9.4,9.5L284.6,190.5z"/>
	<path class="st2" d="M327.4,179.2c3.2,3.6,6.2,7.2,8.9,10.9l-3,2.2c-0.8-1.1-1.6-2.3-2.4-3.4c-11,0.5-19.4,0.9-25.3,1.2
		c-1.4,0.1-2.7,0.3-4,0.6l-0.7-3.1c1.2-0.4,2.3-1,3.3-1.7c4.8-3.4,9.3-7.3,13.5-11.8l2.4,1.7c-4.4,4.3-8.9,8.1-13.5,11.4
		c7.5-0.2,14.9-0.5,22.2-0.8c-1.3-1.8-2.7-3.6-4.1-5.3L327.4,179.2z M330.2,193.7l-2.9,16.6h-3l0.4-2.4h-20.1l-0.4,2.4h-3l2.9-16.6
		H330.2z M326.7,196.4h-20.1l-1.6,8.8h20.1L326.7,196.4z"/>
</g>
<g>
	<path class="st3" d="M41.4,97h7.1c0.6-1,1.1-2,1.6-3l1.9,0.5c-0.4,0.8-0.9,1.7-1.3,2.5h14l-0.3,1.8H49.6c-1.3,2.1-2.8,4.2-4.4,6
		l-2.2,12.7H41l1.8-10.2c-1.1,1.1-2.2,2.1-3.3,3.1c-0.2-0.6-0.5-1.1-0.8-1.7c3.5-3.1,6.4-6.4,8.7-10h-6.3L41.4,97z M44.4,114.1h7.5
		l1.3-7.2h-6.3l0.3-1.7h6.3l0.9-4.8h2l-0.9,4.8h6.3l-0.3,1.7h-6.3l-1.3,7.2h7.7l-0.3,1.7H44.1L44.4,114.1z"/>
	<path class="st3" d="M62.5,114.1c2.9-0.6,5.9-1.3,8.9-2c-0.2,0.6-0.3,1.2-0.4,1.8c-2.8,0.6-5.6,1.3-8.3,2L62.5,114.1z M66.5,108.6
		c1.5-0.2,3.2-0.5,5.2-0.8c-0.2,0.6-0.4,1.2-0.5,1.9c-2.8,0.4-5.2,0.8-7.2,1.1l-0.1-1.8c1.3-1.2,2.8-2.9,4.6-5.1
		c-1.3,0.1-2.5,0.2-3.7,0.3l-0.2-1.6c1.8-2,3.9-4.9,6.1-8.6l1.7,0.7c-2.2,3.3-4.1,5.8-5.6,7.7c1,0,1.9-0.1,2.9-0.1
		c0.7-1,1.5-2.1,2.3-3.2l1.6,0.9C71,103.3,68.6,106.2,66.5,108.6z M69.3,115.8c3.2-1.1,6-2.3,8.5-3.8c-0.3-1.5-0.5-3.2-0.4-5.2
		l-5.3,0.7l0-1.7l5.3-0.7c0.1-1.1,0.2-2.3,0.3-3.6l-4.4,0.5l0-1.7l4.6-0.5c0.2-1.7,0.5-3.6,0.8-5.7h2c-0.3,2.1-0.6,3.9-0.8,5.5
		l8.2-0.9l-0.1,1.7l-8.4,1c-0.2,1.3-0.3,2.5-0.4,3.6l8.5-1.2l-0.1,1.7l-8.5,1.2c0,1.7,0.1,3.1,0.3,4.3c1.9-1.3,3.6-2.7,5-4.2
		l1.4,1.2c-1.7,1.7-3.7,3.3-5.9,4.7c0.4,1.1,1,2,1.8,2.5c0.9,0.6,1.7,0.3,2.2-1c0.4-1,0.8-2.2,1.1-3.4c0.7,0.3,1.3,0.6,1.7,0.7
		c-0.6,1.7-1.1,3-1.5,3.9c-0.7,1.4-1.6,2-2.7,2c-1.2,0-2.2-0.5-3-1.4c-0.5-0.6-1-1.4-1.3-2.3c-2.5,1.4-5.1,2.7-8.1,3.7
		C70,117,69.7,116.5,69.3,115.8z M82.5,95.4l1.2-1.2c1,0.7,2.1,1.6,3.2,2.6l-1.4,1.4C84.4,97,83.4,96.1,82.5,95.4z"/>
	<path class="st3" d="M86.8,116c6.1-1.1,10.2-2.9,12.3-5.3h-11l0.3-1.8h11.9c0.8-1.7,1.6-4.6,2.3-8.7h2c-0.7,4.1-1.5,7-2.2,8.7h9.1
		l-0.3,1.8h-9.8c-0.2,0.3-0.4,0.5-0.6,0.8c3.2,1.4,6.3,2.9,9.3,4.5l-1.4,1.8c-3.1-1.7-6.2-3.4-9.3-4.9c-2.6,2.1-6.5,3.8-11.8,4.9
		C87.4,117.2,87.1,116.6,86.8,116z M90.9,97.5h11c-0.3-0.7-0.7-1.6-1.2-2.5l1.9-1c0.4,0.7,0.9,1.6,1.4,2.8l-1.4,0.7h10.3l-0.8,4.3
		h-1.9l0.4-2.5H92.5l-0.4,2.5h-1.9L90.9,97.5z M92.7,104c1.7,0.8,3.3,1.7,4.7,2.6l-1.3,1.7c-1.4-1-3-1.9-4.6-2.7L92.7,104z
		 M95.5,100.3c1.7,0.9,3.2,1.8,4.6,2.7l-1.4,1.6c-1.3-1-2.8-1.9-4.4-2.9L95.5,100.3z"/>
	<path class="st3" d="M115.8,96.3h8.3l-3.5,19.6h-1.9l0.4-2h-4.5l-0.4,2.3h-1.9L115.8,96.3z M114.9,112.1h4.5l1.1-6.2H116
		L114.9,112.1z M121.8,98.1h-4.5l-1.1,6.1h4.5L121.8,98.1z M124.3,99.3h8.5l0.9-5.3h1.9l-0.9,5.3h3.4l-0.3,1.8h-3.4l-2.3,12.9
		c-0.4,2.1-1.6,3.2-3.6,3.2c-0.9,0-2.3,0-4.1-0.1c0-0.6,0-1.2,0-2c1.7,0.1,3,0.2,3.9,0.2c1.1,0,1.8-0.6,2-1.7l2.2-12.6H124
		L124.3,99.3z M126.3,103.4c0.9,2.3,1.5,4.2,1.9,5.6c-0.5,0.2-1.1,0.5-2.1,1c-0.4-1.5-0.9-3.4-1.7-5.7L126.3,103.4z"/>
	<path class="st3" d="M137.1,109.3c2.2-2.7,3.9-5.6,5.1-8.7h-3.4l0.3-1.7h3.5l0.8-4.8h1.8l-0.8,4.8h2.7l-0.3,1.7h-2.7l-0.7,4.2
		l0.9-0.8c0.9,0.9,1.7,1.7,2.4,2.6l-1.4,1.2c-0.6-0.9-1.3-1.6-2-2.4l-2.2,12.4h-1.8l2.2-12.7c-1.3,2.6-2.6,4.7-4,6.3
		C137.4,110.7,137.3,110,137.1,109.3z M144.2,116.3c5.9-2.3,11.1-6.1,15.5-11.3l1.4,1.1c-1.7,2-3.6,3.8-5.5,5.4c1.6,1.5,3,3,4.4,4.4
		l-1.7,1.6c-1.2-1.5-2.6-3.1-4.2-4.8c-2.8,2.1-5.8,3.9-9,5.2C145,117.5,144.6,116.9,144.2,116.3z M144.3,111.6
		c3.5-1.7,6.5-3.6,9.1-5.9c-1.6,0.2-3.1,0.3-4.5,0.5c-0.6,0.1-1.2,0.2-1.7,0.3l-0.6-1.8c0.7-0.4,1.3-0.8,1.8-1.3
		c1.2-1.2,2.5-2.6,3.7-4.2h-4.6l0.3-1.7h7.4c-0.5-1-0.9-1.9-1.4-2.6l1.7-1c0.5,0.8,1,1.7,1.6,2.8l-1.4,0.8h7.4l-0.3,1.7h-8.5
		c-1.5,1.8-3,3.5-4.5,5c1.8-0.1,3.6-0.2,5.4-0.3c1.1-1.1,2.1-2.3,3-3.6l1.6,0.9c-3.6,4.8-8.4,8.7-14.4,11.8
		C145.1,112.5,144.7,112.1,144.3,111.6z"/>
	<path class="st3" d="M161.3,110.5c1.9-0.4,4-0.8,6.4-1.3c-0.1,0.6-0.2,1.2-0.3,1.7c-1.9,0.4-3.9,0.9-6,1.4L161.3,110.5z M167,98.7
		l-1.7,6.6h2.4l2.1-8.1h-5.5l0.3-1.6h7.3l-2.5,9.7h1.5c-0.7,3.4-1.3,6.2-1.8,8.3c-0.5,2.4-1.8,3.7-3.8,3.7c-0.9,0-1.9,0-3-0.1
		c0-0.6,0-1.2,0-1.9c1.1,0.1,2.1,0.2,3,0.2c1.1,0,1.8-0.7,2.1-2c0.4-1.8,0.9-4,1.4-6.6h-5.8l2.2-8.2H167z M169.4,114.9h8.7
		c1.7-2.9,3.2-5.8,4.7-8.9l1.7,0.6c-1.5,2.9-2.9,5.7-4.5,8.4h4.2l-0.3,1.7h-14.8L169.4,114.9z M181.8,94.2l-0.6,0.8
		c1.3,3.4,3.3,6,5.9,7.5c-0.6,0.6-1.1,1.2-1.6,1.7c-2.5-2.1-4.3-4.6-5.6-7.5c-2.1,2.9-4.9,5.5-8.2,7.8c-0.2-0.4-0.5-0.9-0.9-1.5
		c3.6-2.2,6.5-5.1,8.9-8.8H181.8z M172,107.2l1.8-0.5c0.4,2.3,0.7,4.3,0.9,6.1l-1.9,0.6C172.6,111.3,172.3,109.3,172,107.2z
		 M173.9,103h9.9l-0.3,1.7h-9.9L173.9,103z M176.3,106.1l1.8-0.5c0.2,2.4,0.4,4.5,0.5,6.3l-1.8,0.5
		C176.7,110.3,176.6,108.1,176.3,106.1z"/>
	<path class="st3" d="M200,94.7l1.9-0.9c0.5,0.9,1,1.8,1.5,2.9l-1.3,0.7h9.7l-0.3,1.8h-18.7l-1,5.9c-1,5.7-2.9,9.9-5.8,12.7
		c-0.3-0.5-0.7-1.1-1.1-1.7c2.3-2.1,3.9-5.8,4.8-11l1.4-7.8h10.2C200.9,96.5,200.5,95.6,200,94.7z M189.9,114.5h11.1
		c1.8-3.2,3.9-7.6,6.3-13.1l2,0.6c-2.4,5.3-4.5,9.5-6.2,12.6h5.9l-0.3,1.8h-19.1L189.9,114.5z M193.3,102.7l1.9-0.6
		c0.5,2.9,0.9,6.2,1.2,9.8l-2.2,0.6C194.1,109.4,193.8,106.1,193.3,102.7z M199.3,101.5l1.9-0.5c0.3,2.9,0.5,6.1,0.5,9.7l-2.2,0.6
		C199.7,108.1,199.6,104.8,199.3,101.5z"/>
	<path class="st3" d="M210.5,112.1c0.5-0.1,1-0.2,1.6-0.2l2.6-14.9h-1.4l0.3-1.6h9.5l-0.3,1.6h-1.6l-2.4,13.6
		c0.6-0.1,1.2-0.2,1.8-0.4c-0.1,0.4-0.1,1-0.1,1.7l-1.9,0.4l-1,5.4h-1.7l0.9-5c-2.1,0.4-4.2,0.8-6.3,1.3L210.5,112.1z M217.1,110.9
		l0.6-3.5h-3.2l-0.7,4.2C214.8,111.3,215.9,111.1,217.1,110.9z M214.8,105.8h3.2l0.6-3.6h-3.2L214.8,105.8z M215.7,100.6h3.2
		l0.6-3.6h-3.2L215.7,100.6z M220.4,107.1h14.9l-0.3,1.5h-10l-0.8,1.9h8.1c-0.3,1.5-0.6,2.7-0.9,3.8c-0.5,2.1-1.8,3.1-3.7,3.1h-4.3
		c0-0.6,0-1.2-0.2-1.9c1.7,0.1,3.1,0.1,4.3,0.1c1.1,0,1.8-0.5,2.1-1.5c0.2-0.5,0.3-1.2,0.6-2.1H222l1.4-3.5h-3.2L220.4,107.1z
		 M223.8,96.3h5.2l0.4-2.2h1.6l-0.4,2.2h5.2l-1.7,9.4h-1.6l0.1-0.6h-8.8l-0.1,0.6h-1.6L223.8,96.3z M224.1,103.7h3.6l0.4-2.2h-3.6
		L224.1,103.7z M224.7,100h3.6l0.4-2.2h-3.6L224.7,100z M229.3,103.7h3.6l0.4-2.2h-3.6L229.3,103.7z M233.9,97.8h-3.6l-0.4,2.2h3.6
		L233.9,97.8z"/>
	<path class="st3" d="M234.5,115.7c7.7-4,12.6-11.1,14.8-21.3h2.1c-0.4,1.7-0.8,3.4-1.4,4.9c0.6,8,3.4,13.3,8.4,15.8
		c-0.8,0.7-1.5,1.4-2.1,2.1c-4.3-2.7-6.8-7.5-7.7-14.3c-2.9,6.6-7.2,11.5-13,14.6C235.4,116.9,235,116.3,234.5,115.7z"/>
	<path class="st3" d="M271.6,106.4h1.9c-0.1,0.9-0.3,1.8-0.6,2.8c-0.2,0.7-0.4,1.4-0.6,2c3.2,1.4,6.7,3,10.5,4.9l-1.4,1.8
		c-2.8-1.6-6.2-3.3-10-5c-0.4,0.6-0.8,1.1-1.4,1.5c-2.2,1.7-5.5,2.9-10.1,3.7c-0.2-0.7-0.4-1.3-0.7-1.8c4.6-0.7,7.8-1.8,9.5-3.2
		c1.1-0.9,1.9-2.2,2.3-4C271.3,108.1,271.5,107.2,271.6,106.4z M263.7,104h18.8l-1.5,8.8h-1.9l1.2-7.1h-15l-1.3,7.2h-1.9L263.7,104z
		 M266.6,95.1h16.2l-1.3,7.5h-1.9l0.2-0.9h-12.3l-0.2,0.9h-1.9L266.6,95.1z M280,100l0.6-3.2h-12.3l-0.6,3.2H280z"/>
	<path class="st3" d="M287.6,95.7H298l-0.3,1.7H296l-2.3,13.1c0.6-0.2,1.2-0.3,1.9-0.5c-0.1,0.7-0.3,1.4-0.3,1.9
		c-0.6,0.1-1.2,0.3-1.8,0.4l-0.9,5.2h-1.8l0.9-4.8c-2.3,0.5-4.7,1.1-7.1,1.6l-0.1-1.9l1.7-0.3l2.6-14.8h-1.3L287.6,95.7z
		 M291.8,110.9l0.6-3.2h-3.8l-0.7,4.1C289.2,111.5,290.5,111.2,291.8,110.9z M288.9,106h3.8l0.6-3.5h-3.8L288.9,106z M289.8,100.8
		h3.8l0.6-3.5h-3.8L289.8,100.8z M298.9,109.7l1.6,0.9c-1.9,2.7-3.7,5-5.4,7c-0.5-0.4-1-0.7-1.5-1
		C295.5,114.4,297.2,112.1,298.9,109.7z M299,95.9h10.3l-2.2,12.7h-1.8l0.2-1.4h-6.8l-0.2,1.4h-1.8L299,95.9z M307.2,97.6h-6.8
		l-1.4,7.9h6.8L307.2,97.6z M304.5,109.5c1,2.1,2,4.4,3,7l-1.9,1.1c-0.9-2.4-1.8-4.7-2.9-7.1L304.5,109.5z"/>
	<path class="st3" d="M308.7,114.3h7.7l3.5-19.9h2l-3.5,19.9h4.2l3.5-19.9h2l-3.5,19.9h7.8l-0.3,1.8h-23.8L308.7,114.3z M314.1,99.2
		c0.8,3.1,1.5,6.4,2.1,9.9l-2.1,0.9c-0.5-3.4-1.1-6.7-1.8-10L314.1,99.2z M326.4,109.2c2.2-3.4,4.1-6.7,5.8-9.9l1.8,0.8
		c-2.2,3.8-4.2,7.1-6,9.9L326.4,109.2z"/>
</g>
<g>
	<path class="st3" d="M40.3,142c2.9-0.4,5.5-0.9,7.9-1.3l0.3-1.7h-7l0.3-1.5h7l0.4-2.5H51l-1.6,9.1h-1.8l0.3-1.8
		c-2.6,0.5-5.1,1-7.5,1.5L40.3,142z M42.6,158.6h-1.9l2.3-13.2h17l-1.8,10.1c-0.3,2-1.6,2.9-3.7,2.9c-1.4,0-3,0-4.7-0.1
		c0-0.6,0-1.2,0-1.9c1.6,0.1,3.1,0.2,4.7,0.2c1.1,0,1.8-0.5,1.9-1.4l0.2-1.1H43.4L42.6,158.6z M43.6,152.5h13.2l0.3-2H44L43.6,152.5
		z M57.8,147H44.6l-0.3,2h13.2L57.8,147z M54.8,135.1h1.8l-0.6,3.4c2.4-0.6,4.9-1.2,7.4-2l0.4,1.6c-2.8,0.7-5.5,1.3-8.1,1.9l-0.2,1
		c-0.2,0.9,0.3,1.4,1.3,1.4H60c0.9,0,1.5-0.3,1.8-0.8c0.3-0.5,0.5-1.3,0.8-2.3c0.4,0.2,1,0.4,1.7,0.7c-0.4,1.1-0.8,1.9-1.1,2.5
		c-0.5,1.1-1.5,1.6-3,1.6h-4c-2,0-2.8-0.9-2.5-2.8L54.8,135.1z"/>
	<path class="st3" d="M70.7,153.6l0.8,1.5c-2.5,1.1-5.1,2.2-7.7,3.3c-0.2-0.5-0.4-1-0.7-1.5C66,155.7,68.5,154.6,70.7,153.6z
		 M65.2,144.9h10.1c-0.1-0.3-0.3-0.7-0.4-1l1.7-0.7c0.2,0.6,0.4,1.1,0.6,1.7h10.1l-0.3,1.5H64.9L65.2,144.9z M67.2,147.8h17l-1,5.5
		h-1.7l0.1-0.8h-5.8l-0.6,3.3c-0.3,1.7-1.3,2.5-3,2.5c-1.1,0-2,0-2.7,0c0-0.2,0-0.9,0-1.9c1,0.1,1.9,0.1,2.6,0.1
		c0.8,0,1.2-0.4,1.4-1.2l0.5-2.9h-6l-0.1,0.8h-1.7L67.2,147.8z M68.9,135.9h17.7l-1.4,8.1h-1.7l0.2-0.9H69.4l-0.2,0.9h-1.7
		L68.9,135.9z M82.3,149.2H68.7l-0.3,1.9H82L82.3,149.2z M69.6,141.7h14.2l0.3-1.5H69.9L69.6,141.7z M84.6,137.4H70.4l-0.3,1.5h14.2
		L84.6,137.4z M77.5,155.1l1.1-1.5c2.3,0.9,4.6,1.9,6.8,2.9l-1.2,1.7C82.1,157.1,79.9,156.1,77.5,155.1z"/>
	<path class="st3" d="M88.5,146.6c3-3.5,5.4-7.4,7.4-11.6l1.8,0.5c-1.1,2.2-2.2,4.1-3.3,6l-3,17.2h-1.8l2.4-13.7c-1,1.3-2,2.5-3,3.5
		C88.8,147.9,88.7,147.3,88.5,146.6z M96.4,150h13.7l-1.6,8.8h-1.9l0.3-1.4H97l-0.3,1.4h-1.9L96.4,150z M96.9,146.1H111l-0.3,1.6
		H96.6L96.9,146.1z M96.9,138.3h7.9c-0.3-0.8-0.7-1.6-1.1-2.5l1.8-0.8c0.4,0.9,0.8,1.8,1.2,2.7l-1.1,0.6h8.3l-0.3,1.7H96.6
		L96.9,138.3z M97.5,142.2h14.2l-0.3,1.6H97.3L97.5,142.2z M108,151.6H98l-0.7,4.1h10L108,151.6z"/>
	<path class="st3" d="M114.5,151.2l1.6,0.6c-1,1.9-2.1,3.7-3.1,5.3c-0.5-0.2-1-0.5-1.7-0.7C112.3,155,113.4,153.2,114.5,151.2z
		 M117.9,137.4h5.9c0.5-0.9,0.9-1.7,1.3-2.5l1.8,0.5c-0.4,0.7-0.8,1.3-1.2,2h9.6l-2.3,13.1h-1.9l0.1-0.7h-13.7l-0.1,0.7h-1.9
		L117.9,137.4z M118,151.4h1.8l-0.6,3.5c-0.2,1,0.3,1.5,1.3,1.5h5.3c1.3,0,2.1-0.4,2.5-1.3c0.3-0.6,0.6-1.4,0.9-2.6
		c0.6,0.2,1.1,0.5,1.8,0.7c-0.4,1.1-0.7,2-1,2.7c-0.6,1.5-2,2.3-4,2.3h-6.1c-2.1,0-2.9-1-2.6-3L118,151.4z M117.9,148.1h13.7l0.4-2
		h-13.7L117.9,148.1z M118.5,144.6h13.7l0.4-2h-13.7L118.5,144.6z M133.2,139h-13.7l-0.4,2h13.7L133.2,139z M122.2,151.2l1.5-1.1
		c0.8,0.9,1.7,2,2.7,3.2l-1.7,1.2C123.8,153.1,122.9,152,122.2,151.2z M131.6,152l1.6-1.1c0.9,1.2,1.8,2.6,2.8,4.1l-1.7,1.2
		C133.3,154.6,132.5,153.3,131.6,152z"/>
	<path class="st3" d="M140.1,139h2.4c0.8-1.5,1.6-2.8,2.2-4l1.9,0.6c-0.7,1.2-1.4,2.4-2.1,3.4h4.8l-3.4,19.1h-1.9l0.3-1.9H139
		l-0.4,2h-1.9L140.1,139z M139.3,154.5h5.4l1.1-6.1h-5.4L139.3,154.5z M147.1,140.8h-5.4l-1,5.8h5.4L147.1,140.8z M148.9,143.9
		c1.9-2.4,3.7-5.4,5.4-8.9l1.9,0.5c-0.6,1.2-1.2,2.3-1.9,3.4h7.7c-1.6,8.2-2.7,13.4-3.2,15.6c-0.6,2.5-2.1,3.8-4.6,3.8
		c-1.5,0-2.9,0-4.4-0.1c0-0.8,0-1.5,0-2.1h0.1c1.6,0.2,3,0.3,4.3,0.3c1.5,0,2.4-0.8,2.8-2.3c0.6-2.4,1.5-6.8,2.7-13.3h-6.4
		c-1,1.5-1.9,2.9-2.9,4.1C150,144.5,149.5,144.2,148.9,143.9z M150.7,145.6l1.7-1.1c1.4,2.1,2.5,3.9,3.3,5.5l-2,1.2
		C152.9,149.3,151.9,147.5,150.7,145.6z"/>
</g>
</svg>
