<?xml version="1.0" encoding="utf-8"?>
<!-- Generator: Adobe Illustrator 21.0.0, SVG Export Plug-In . SVG Version: 6.00 Build 0)  -->
<svg version="1.1" id="图层_1" xmlns="http://www.w3.org/2000/svg" xmlns:xlink="http://www.w3.org/1999/xlink" x="0px" y="0px"
	 viewBox="0 0 346 165" style="enable-background:new 0 0 346 165;" xml:space="preserve">
<style type="text/css">
	.st0{fill:#F88101;stroke:#F88101;stroke-width:0.5;stroke-miterlimit:10;}
	.st1{font-family:'STHeiti';}
	.st2{font-size:38px;}
	.st3{font-family:'MicrosoftYaHei';}
	.st4{fill:#FFFFFF;}
	.st5{font-size:18px;}
	.st6{fill:#F88101;}
	.st7{font-size:24px;}
	.st8{font-size:25px;}
	.st9{font-size:16px;}
	.st10{fill:none;stroke:#FFFFFF;stroke-width:0.5;stroke-miterlimit:10;}
</style>
<text transform="matrix(0.9848 0 -0.1736 0.9848 8.3767 37.5004)"><tspan x="0" y="0" class="st0 st1 st2">“</tspan><tspan x="38" y="0" class="st0 st3 st2">首款+时代</tspan><tspan x="218.2" y="0" class="st0 st1 st2">”</tspan></text>
<text transform="matrix(0.9848 0 -0.1736 0.9848 29.3767 155.5004)"><tspan x="0" y="0" class="st4 st3 st5">大幅度</tspan><tspan x="54" y="0" class="st6 st3 st7">降低</tspan><tspan x="102" y="0" class="st4 st3 st5">企业面试成本及招聘成本</tspan></text>
<text transform="matrix(0.9848 0 -0.1736 0.9848 32.3767 79.5004)" class="st4 st3 st8">如何低成本极速完成核验？</text>
<text transform="matrix(0.9848 0 -0.1736 0.9848 32.3767 120.5004)" class="st4 st3 st9">第一环节极速核验人员简历</text>
<polyline class="st10" points="26,20 4,20 4,115 25.5,114.5 "/>
<polyline class="st10" points="256,20 343,20 343,115 256,115 "/>
<rect x="33.2" y="96" class="st6" width="7.5" height="1"/>
<rect x="42.2" y="96" class="st6" width="7.5" height="1"/>
</svg>
