<?xml version="1.0" encoding="utf-8"?>
<!-- Generator: Adobe Illustrator 21.0.0, SVG Export Plug-In . SVG Version: 6.00 Build 0)  -->
<svg version="1.1" id="图层_1" xmlns="http://www.w3.org/2000/svg" xmlns:xlink="http://www.w3.org/1999/xlink" x="0px" y="0px"
	 viewBox="0 0 662 259" style="enable-background:new 0 0 662 259;" xml:space="preserve">
<style type="text/css">
	.st0{fill-rule:evenodd;clip-rule:evenodd;fill:#F68601;stroke:#F68601;stroke-miterlimit:10;}
	.st1{fill:#FFFFFF;stroke:#FFFFFF;stroke-width:2;stroke-miterlimit:10;}
	.st2{fill:#FFFFFF;stroke:#FFFFFF;stroke-miterlimit:10;}
	.st3{fill-rule:evenodd;clip-rule:evenodd;fill:#FFFFFF;}
	.st4{fill:#FFFFFF;}
	.st5{fill:#F68601;stroke:#F68601;stroke-width:0.5;stroke-miterlimit:10;}
</style>
<path class="st0" d="M54.5,111.5h336l-24,36h-336L54.5,111.5z"/>
<g>
	<path class="st1" d="M54.6,37.3c4.8-2.6,8.8-6.1,12.2-10.6l3.2,1.2c-0.6,0.8-1.2,1.6-1.8,2.3h27.9c-0.3,5.7-0.6,10-0.9,13.1
		c-0.4,4.8-2.8,7.2-7.3,7.3c-2.5,0-5.1,0-7.8,0c-0.2-1.3-0.4-2.6-0.7-3.8c2.6,0.2,5.1,0.4,7.5,0.4c2.8,0,4.4-1.4,4.7-4.2
		c0.3-2.7,0.6-5.9,0.7-9.6h-6.9c-1.8,7.9-7.1,13.9-15.9,18.1c-0.8-1-1.6-2-2.5-3.1c8.4-3.4,13.4-8.5,15-15.1h-6.8
		c-2.2,6.4-8,11.4-17.3,15c-0.8-1-1.6-2-2.5-3c8.8-3.3,14.2-7.3,16.1-12h-6.1c-2.5,2.6-5.4,4.8-8.5,6.8
		C56.3,39.3,55.5,38.3,54.6,37.3z M60.4,9.1h33.1v18.7H90V26H60.4V9.1z M90,12.2H63.9v3.7H90V12.2z M63.9,22.8H90V19H63.9V22.8z"/>
	<path class="st1" d="M101.2,10h19.3v3.1h-3.1v24.5c1.1-0.3,2.2-0.6,3.3-0.9c0,1.4,0,2.6,0,3.5c-1.1,0.2-2.2,0.5-3.3,0.7v9.8h-3.3
		v-9c-4.2,1-8.4,2-12.7,3.1l-0.7-3.5l3-0.6V13.1h-2.5V10z M107,19.6h7.1v-6.5H107V19.6z M107,29.3h7.1v-6.5H107V29.3z M114.1,38.4
		v-6H107v7.6C109.4,39.5,111.7,39,114.1,38.4z M126.8,36.1l3.3,1.7c-2.7,5-5.3,9.3-7.9,13c-1-0.8-2.1-1.4-3.1-1.8
		C122,44.9,124.6,40.7,126.8,36.1z M122.4,10.4h19.3v23.8h-3.3v-2.6h-12.6v2.6h-3.3V10.4z M138.4,13.6h-12.6v14.7h12.6V13.6z
		 M137.2,35.9c2.6,3.9,5.2,8.2,7.8,13l-3.1,2c-2.4-4.5-5-8.9-7.8-13.2L137.2,35.9z"/>
	<path class="st1" d="M146.4,28.6c4.4-6.5,7.7-13.7,9.9-21.7l3.5,1c-1.3,4-2.7,7.7-4.3,11.1v32.2h-3.3V25.7
		c-1.4,2.4-2.8,4.6-4.4,6.6C147.4,31,146.9,29.8,146.4,28.6z M159.4,13h14.7c-0.9-1.5-1.8-3.1-2.8-4.6l3-1.6
		c1.1,1.6,2.1,3.3,3.2,5.1l-2,1H191v3.1h-31.6V13z M161.9,20.3h26.5v3.1h-26.5V20.3z M161.9,27.6h26.5v3.1h-26.5V27.6z M162.4,34.8
		h25.6v16.4h-3.5v-2.7h-18.6v2.7h-3.5V34.8z M184.5,37.9h-18.6v7.6h18.6V37.9z"/>
	<path class="st1" d="M217.2,39.6l-3.8,12h-3.1l2.8-12H217.2z"/>
	<path class="st1" d="M239.2,10h19.3v3.1h-3.1v24.5c1.1-0.3,2.2-0.6,3.3-0.9c0,1.4,0,2.6,0,3.5c-1.1,0.2-2.2,0.5-3.3,0.7v9.8h-3.3
		v-9c-4.2,1-8.4,2-12.7,3.1l-0.7-3.5l3-0.6V13.1h-2.5V10z M245,19.6h7.1v-6.5H245V19.6z M245,29.3h7.1v-6.5H245V29.3z M252.1,38.4
		v-6H245v7.6C247.4,39.5,249.7,39,252.1,38.4z M264.8,36.1l3.3,1.7c-2.7,5-5.3,9.3-7.9,13c-1-0.8-2.1-1.4-3.1-1.8
		C260,44.9,262.6,40.7,264.8,36.1z M260.4,10.4h19.3v23.8h-3.3v-2.6h-12.6v2.6h-3.3V10.4z M276.4,13.6h-12.6v14.7h12.6V13.6z
		 M275.2,35.9c2.6,3.9,5.2,8.2,7.8,13l-3.1,2c-2.4-4.5-5-8.9-7.8-13.2L275.2,35.9z"/>
	<path class="st1" d="M284.7,44.8h14.4V7.7h3.8v37.1h7.9V7.7h3.8v37.1h14.6v3.3h-44.4V44.8z M289.9,16.5c2.5,5.8,4.8,11.9,7.1,18.4
		l-3.7,1.7c-2-6.3-4.3-12.5-6.7-18.6L289.9,16.5z M316.1,35.3c3-6.3,5.5-12.5,7.5-18.4l3.6,1.4c-2.8,7.2-5.4,13.3-8,18.5L316.1,35.3
		z"/>
	<path class="st1" d="M330.4,28.6c4.4-6.5,7.7-13.7,9.9-21.7l3.5,1c-1.3,4-2.7,7.7-4.3,11.1v32.2h-3.3V25.7
		c-1.4,2.4-2.8,4.6-4.4,6.6C331.4,31,330.9,29.8,330.4,28.6z M343.4,13h14.7c-0.9-1.5-1.8-3.1-2.8-4.6l3-1.6
		c1.1,1.6,2.1,3.3,3.2,5.1l-2,1H375v3.1h-31.6V13z M345.9,20.3h26.5v3.1h-26.5V20.3z M345.9,27.6h26.5v3.1h-26.5V27.6z M346.4,34.8
		h25.6v16.4h-3.5v-2.7h-18.6v2.7h-3.5V34.8z M368.5,37.9h-18.6v7.6h18.6V37.9z"/>
	<path class="st1" d="M380.4,37.1l3.3,1.1c-1.3,3.6-2.7,6.9-4.1,9.8c-1-0.4-2.1-0.9-3.3-1.3C377.7,44.1,379.1,40.9,380.4,37.1z
		 M382.4,11.3h11c0.6-1.6,1.2-3.1,1.6-4.6l3.5,0.9c-0.5,1.3-1,2.5-1.5,3.7h17.9v24.5h-3.5v-1.4h-25.5v1.4h-3.5V11.3z M411.4,14.4
		h-25.5v3.7h25.5V14.4z M385.9,24.7h25.5V21h-25.5V24.7z M385.9,31.4h25.5v-3.8h-25.5V31.4z M387.1,37.5h3.4v6.6c0,1.9,1,2.8,3,2.8
		h10c2.4,0,3.8-0.8,4.2-2.5c0.3-1.1,0.6-2.7,0.9-4.9c1.1,0.4,2.3,0.9,3.5,1.3c-0.4,2.1-0.7,3.7-1.1,5c-0.7,2.8-2.9,4.3-6.7,4.3H393
		c-3.9,0-5.8-1.9-5.8-5.6V37.5z M395,37l2.4-2.1c1.8,1.7,3.8,3.7,6,6l-2.7,2.3C398.5,40.7,396.6,38.6,395,37z M412.6,38.5l2.6-2
		c2.1,2.3,4.3,4.8,6.5,7.6l-2.9,2.2C416.8,43.5,414.8,41,412.6,38.5z"/>
	<path class="st1" d="M422.8,20c5.3-0.8,10-1.6,14.3-2.5v-3.1H424v-2.8h13.1V7h3.4v17h-3.4v-3.3c-4.7,0.9-9.2,1.9-13.5,2.7L422.8,20
		z M432.5,51H429V26.3h31.8v19c0,3.7-2,5.5-6,5.5c-2.7,0-5.6-0.1-8.8-0.2c-0.2-1-0.4-2.3-0.7-3.6c2.9,0.2,5.9,0.3,8.8,0.3
		c2.1,0,3.1-0.9,3.1-2.7v-2.1h-24.7V51z M457.2,29.3h-24.7V33h24.7V29.3z M432.5,39.5h24.7v-3.7h-24.7V39.5z M447.7,7.1h3.4v6.4
		c4.3-1.1,8.7-2.3,13.2-3.8l1.2,3c-5,1.3-9.8,2.5-14.4,3.6v1.8c0,1.8,0.9,2.7,2.8,2.7h6c1.8,0,2.8-0.5,3-1.6c0.3-1,0.6-2.4,0.8-4.4
		c0.9,0.4,2,0.8,3.3,1.3c-0.4,2-0.8,3.5-1.2,4.7c-0.7,2-2.4,3-5.1,3h-7.5c-3.7,0-5.6-1.8-5.6-5.3V7.1z"/>
	<path class="st1" d="M481.8,34.6c0.1,1.3,0.2,2.7,0.3,3.9c-3.1,2.3-5.8,4.4-8.1,6.4L472,42c1-1.1,1.5-2.4,1.5-4V24.3h-4.9v-3.1h8.2
		v17.5C478.3,37.5,480,36.1,481.8,34.6z M474,7.8c2,2,4.3,4.3,6.7,7.1l-3,2.5c-2.3-3-4.4-5.4-6.3-7.4L474,7.8z M486.5,12.7v18.5
		c0,8.8-2.4,15.4-7.1,20c-0.7-1.1-1.5-2-2.3-2.9c4.1-4,6.2-9.5,6.2-16.8V9.7h27.7v35.9c0,3.3-1.5,5-4.6,5c-1.8,0-4.1,0-7.1-0.1
		c-0.1-1.1-0.4-2.3-0.7-3.5c3.2,0.2,5.5,0.3,6.8,0.3c1.5,0,2.2-0.8,2.2-2.4V12.7H486.5z M487.9,25.1h7.5V21h-6.3v-2.9h6.3v-4.3h3.2
		v4.3h6.2V21h-6.2v4.1h7.5V28h-18.3V25.1z M490,31.6h13.7v11.5h-10.6v2.1H490V31.6z M500.6,34.5h-7.5v5.7h7.5V34.5z"/>
	<path class="st1" d="M515.1,44.5h19.7v-30h-17.1v-3.6H556v3.6h-17.2v30h19.7V48h-43.3V44.5z"/>
	<path class="st1" d="M560.5,37.8h6.2V8.9h32.2v28.9h6.1V41h-44.5V37.8z M576.5,42l2.2,3c-5.3,2.4-10.6,4.6-15.9,6.5
		c-0.4-1-1-2.1-1.7-3.4C565.7,46.7,570.8,44.7,576.5,42z M595.5,12.2h-25.3v4.1h25.3V12.2z M570.2,23.4h25.3v-4.1h-25.3V23.4z
		 M570.2,30.6h25.3v-4.1h-25.3V30.6z M570.2,37.8h25.3v-4.2h-25.3V37.8z M586.6,45.2l1.9-3c5.2,1.6,10.6,3.4,15.9,5.4l-1.8,3.5
		C598.6,49.4,593.2,47.4,586.6,45.2z"/>
</g>
<g>
	<path class="st2" d="M62.1,139.1H49.3l0.8-2.3l8.4-6.1c2.3-1.7,3.9-3,4.9-4c0.9-1,1.6-2,2-3.1c0.4-1.2,0.4-2.1,0-2.8
		c-0.4-0.6-1.3-1-2.6-1c-1.9,0-4,0.8-6.3,2.4l1-2.7c2.1-1.3,4.3-1.9,6.5-1.9c1.9,0,3.2,0.5,3.9,1.5c0.7,1,0.8,2.4,0.1,4.2
		c-0.5,1.3-1.3,2.6-2.5,3.9c-1.2,1.3-3.1,2.9-5.8,4.8l-6.5,4.7l0,0.1H63L62.1,139.1z"/>
	<path class="st2" d="M69.2,128.9c1.4-3.7,3-6.6,4.9-8.5c1.9-1.9,4.1-2.9,6.4-2.9c4.5,0,5.4,3.6,2.8,10.9c-1.3,3.6-2.9,6.3-4.9,8.2
		s-4.1,2.8-6.3,2.8c-2.2,0-3.5-0.9-4-2.7C67.6,134.9,67.9,132.3,69.2,128.9z M72,128.8c-2,5.6-1.6,8.4,1.2,8.4
		c2.8,0,5.3-2.9,7.3-8.6c2.2-5.9,1.9-8.9-0.9-8.9C76.7,119.8,74.1,122.8,72,128.8z"/>
	<path class="st2" d="M95.4,139.1H83.2l0.8-2.3h4.7l5.9-16.1l-5.4,1.4l0.9-2.5l8.3-2.2l-7,19.3h4.7L95.4,139.1z"/>
	<path class="st2" d="M119.5,118.8l-15.7,20.3h-2.8l14.7-18.8h-10.6l0.9-2.4h13.8L119.5,118.8z"/>
	<path class="st2" d="M116.1,133.5h4.4l2.8-7.8h9.7l1.8-4.9h-8c-2,2.2-4.2,4.3-6.4,6.1c-0.3-0.5-0.7-1-1.1-1.5
		c3.7-2.9,6.8-6.2,9.4-9.8l2,0.6c-0.7,0.9-1.4,1.8-2.2,2.6h18.8l-0.7,2H137l-1.8,4.9h9.1l-0.7,1.9h-9.1l-2.2,5.9h10.8l-0.7,2h-10.8
		l-2.7,7.4h-2.2l2.7-7.4h-14.1L116.1,133.5z M122.6,133.5h7.5l2.2-5.9h-7.5L122.6,133.5z"/>
	<path class="st2" d="M142.2,139.2c0.9-0.1,1.9-0.2,2.8-0.3l3.8-10.4h-3l0.6-1.6h27.1l-0.6,1.6h-14.3l-3.3,9.1
		c0.9-0.1,1.8-0.3,2.8-0.4c-0.1,0.3-0.3,0.9-0.6,1.8c-0.9,0.1-1.8,0.2-2.8,0.4l-1.3,3.5h-1.9l1.2-3.2c-3.3,0.4-6.9,1-10.7,1.5
		L142.2,139.2z M153.3,137.9l0.7-1.8h-6.1l-1,2.6C149.1,138.5,151.2,138.2,153.3,137.9z M148.5,134.5h6.1l0.8-2.2h-6.1L148.5,134.5z
		 M149.8,130.7h6.1l0.8-2.2h-6.1L149.8,130.7z M154.1,117H173l-3.2,8.8h-1.9l0.2-0.6H153l-0.2,0.6h-1.9L154.1,117z M153.6,123.5
		h15.1l0.6-1.8h-15.1L153.6,123.5z M158.7,132l0.6-1.6h10.9l-0.6,1.6c-1.7,2.2-3.7,4.2-5.8,5.8c1.1,1.1,2.8,2,4.9,2.6
		c-0.7,0.7-1.4,1.3-1.9,1.9c-2.1-0.8-3.7-1.8-4.8-3.1c-2.1,1.4-4.3,2.6-6.7,3.4c-0.1-0.5-0.3-1.1-0.6-1.7c2.4-0.8,4.5-1.8,6.5-3
		c-0.9-1.6-1.3-3.6-1.1-5.9H158.7z M170.5,118.6h-15.1l-0.6,1.8h15.1L170.5,118.6z M167.4,132h-5.8c-0.1,1.8,0.3,3.3,1.1,4.6
		C164.5,135.3,166.1,133.8,167.4,132z"/>
	<path class="st2" d="M180.4,137.2l0.7,1.8c-3.7,1.5-7.5,2.8-11.1,3.9c-0.1-0.6-0.1-1.3-0.3-2.1C172.7,140,176.3,138.8,180.4,137.2z
		 M171.5,134.6h3.8l6.4-17.6h19.6l-6.4,17.6h3.7l-0.7,2h-27.1L171.5,134.6z M177.4,134.6h15.4l0.9-2.6h-15.4L177.4,134.6z
		 M179,130.2h15.4l0.9-2.5h-15.4L179,130.2z M180.6,125.9H196l0.9-2.5h-15.4L180.6,125.9z M198.5,119h-15.4l-0.9,2.5h15.4L198.5,119
		z M185.8,139.1l1.8-1.8c2.8,1,5.7,2.1,8.5,3.3l-1.9,2.2C192.1,141.7,189.3,140.5,185.8,139.1z"/>
	<path class="st2" d="M206.1,120.9h8c0.7-1.6,1.3-3.3,1.9-4.9h2.3c-0.6,1.7-1.3,3.3-2,4.9h10.1c-2.9,7.4-4.9,12.6-6.1,15.6
		c-1.5,3.6-3.8,5.4-6.7,5.4c-1.6,0-3.3,0-5.2-0.1c0.2-0.7,0.4-1.6,0.6-2.6c1.9,0.2,3.6,0.3,5.1,0.3c1.8,0,3.2-1.2,4.1-3.6
		c1.5-3.7,3.2-8,5.1-12.8h-7.9c-2.3,5.7-4.6,9.7-6.6,12.1c-2.1,2.5-5.5,5-10.2,7.4c-0.2-0.7-0.4-1.3-0.7-1.9
		c4.5-2.4,7.7-4.7,9.4-6.9c1.7-1.9,3.7-5.5,5.9-10.7h-7.9L206.1,120.9z M206.7,125.5l1.9,0.8c-2.2,2.8-4.5,5.5-6.9,8.3
		c-0.5-0.3-1.1-0.7-1.7-1C202.3,131.1,204.6,128.4,206.7,125.5z M224.9,126.4l2.2-0.7c0.1,2.2,0.2,4.6,0.2,7.3l-2.5,0.8
		C225,131.4,225,128.9,224.9,126.4z"/>
	<path class="st2" d="M246.2,132.1c1.4,3.4,2.5,6.5,3.3,9.3l-2.6,1.4c-0.2-0.8-0.4-1.7-0.7-2.6c-6.1,0.3-11.1,0.6-15,0.9
		c-0.7,0.1-1.6,0.2-2.7,0.5l-0.4-2.3c0.9-0.3,1.9-0.8,2.8-1.5c3-2.5,6.7-6.1,10.9-10.9l2,1.1c-3.7,3.9-7.4,7.5-11.2,10.9
		c3.8-0.1,8.1-0.3,13-0.5c-0.5-1.6-1-3.2-1.6-5L246.2,132.1z M229.6,128.7c5.3-3.3,9.7-7.2,13.4-11.7l1.8,0.9
		c-4.3,5.1-9,9.3-14.1,12.6C230.5,129.9,230.1,129.3,229.6,128.7z M249.2,117.4l2.3-0.8c0,4.8,2,8.5,5.8,11.3
		c-0.7,0.5-1.5,1.2-2.5,2.1C251,126.6,249.1,122.4,249.2,117.4z"/>
	<path class="st2" d="M259.6,130.7l1.9-1.3c0.8,1.2,1.6,2.4,2.3,3.5c1.3-1.3,2.5-2.8,3.7-4.3l1.6,1c-1.4,1.7-2.8,3.3-4.3,4.8
		c0.8,1.3,1.6,2.7,2.4,4l-2.4,1.6c-0.7-1.3-1.3-2.5-2-3.7c-2.8,2.5-5.9,4.6-9.1,6.3c-0.2-0.5-0.4-1.1-0.8-1.8c3.2-1.5,6.2-3.5,9-6
		C261.2,133.3,260.4,131.9,259.6,130.7z M263.9,123.2l1.4,1.1c-2.3,2.1-4.6,4.2-6.9,6.2c-0.3-0.4-0.7-0.8-1.2-1.3
		C259.2,127.7,261.4,125.6,263.9,123.2z M261.1,120.3h13.8l-0.7,1.9h-13.8L261.1,120.3z M279.9,115.7l2,0.4c-1,1.8-2.1,3.4-3.2,4.9
		h8.8l-0.7,1.9h-1.9c-2.4,5.3-5.1,9.5-8,12.5c0.8,2.1,2.1,3.8,4,5.2c-0.9,0.8-1.6,1.5-2.3,2.2c-1.8-1.5-3-3.3-3.8-5.4
		c-2.4,2.1-5.2,4-8.3,5.6c-0.2-0.5-0.5-1.1-0.9-1.7c3.4-1.8,6.2-3.8,8.6-5.9c-0.5-2.8-0.4-5.9,0.5-9.5c-0.7,0.8-1.4,1.5-2.2,2.2
		c-0.2-0.5-0.4-1.1-0.7-1.8C275,123.3,277.7,119.8,279.9,115.7z M267.4,116.6l2.2-1c0.3,1.2,0.6,2.4,0.8,3.6l-2.3,1
		C268,118.9,267.7,117.7,267.4,116.6z M269.5,123.3c0.7,1.2,1.5,2.7,2.4,4.5l-2.1,1.4c-0.6-1.4-1.4-3-2.2-4.6L269.5,123.3z
		 M282.8,122.9h-5.3c-1.2,4-1.5,7.5-1.1,10.3C278.9,130.4,281.1,127,282.8,122.9z"/>
	<path class="st2" d="M283.7,134.7h12.5l0.9-2.4h2.2l-0.9,2.4h12.2l-0.7,1.9h-12.2l-2.2,6.2h-2.2l2.2-6.2H283L283.7,134.7z
		 M293.3,127.4l0.4,1.6c-2.6,1.3-5.3,2.6-8.1,3.9l-0.5-1.8C287.4,130.2,290.1,129,293.3,127.4z M288.9,123.2l1.9-1.3
		c1.1,1.2,2,2.3,2.7,3.4l-2.1,1.5C290.8,125.6,289.9,124.5,288.9,123.2z M295.8,130.3c0.3,0,2.4-0.1,6.3-0.3
		c-0.2-0.6-0.4-1.2-0.7-1.8l1.8-0.9c0.8,1.5,1.4,3,2,4.6l-2.1,1.1c-0.1-0.5-0.3-1-0.4-1.4c-3.5,0.2-6.5,0.4-8.8,0.6
		c-0.4,0-0.9,0.1-1.5,0.2l0-1.9c0.6-0.2,1.1-0.4,1.4-0.5c1.9-1,3.9-2.2,5.9-3.6c-1.3,0.1-2.5,0.1-3.5,0.2c-0.4,0.1-0.9,0.1-1.3,0.2
		l-0.2-1.7c0.5-0.2,1-0.4,1.5-0.8c1.6-1,3.2-2.3,4.8-3.8h-11.6l0.7-1.9h12.3c-0.2-0.8-0.3-1.5-0.5-2.1l2.3-1
		c0.3,1.1,0.6,2.1,0.7,3.1H316l-0.7,1.9h-13.7l1,0.7c-2,1.5-3.7,2.7-5.1,3.6c1,0,2.4-0.1,4.1-0.1c1-0.7,2-1.5,3-2.3l1.5,1.1
		C302.3,126.3,298.8,128.6,295.8,130.3z M307,127.4c2.1,1.5,3.6,2.7,4.7,3.8l-1.9,1.8c-1.3-1.5-2.9-2.8-4.5-4.1L307,127.4z
		 M313.5,123.4c-1.8,1.2-3.7,2.3-5.8,3.4l-0.9-1.4c2.2-1.1,4-2.3,5.6-3.4L313.5,123.4z"/>
	<path class="st2" d="M328.9,139.1h-3l-0.1-5.8H317l-4.1,5.8h-3l15.8-21.2h2.9L328.9,139.1z M325.8,130.9l0-8.8
		c0-0.3,0.1-0.8,0.2-1.5H326c-0.3,0.6-0.6,1.1-0.9,1.5l-6.4,8.8H325.8z"/>
	<path class="st2" d="M337.6,131.2l-2.9,7.9H332l7.7-21.2h6c2.3,0,3.9,0.6,4.7,1.7s0.9,2.7,0.2,4.7c-0.8,2.1-2.1,3.8-4.1,5.1
		c-1.9,1.3-4,1.9-6.2,1.8H337.6z M341.5,120.3l-3.1,8.5h2.5c1.7,0,3.1-0.4,4.2-1.1c1.1-0.8,2-1.8,2.5-3.2c1-2.7-0.1-4.1-3.4-4.1
		H341.5z"/>
	<path class="st2" d="M354.7,131.2l-2.9,7.9h-2.7l7.7-21.2h6c2.3,0,3.9,0.6,4.7,1.7s0.9,2.7,0.2,4.7c-0.8,2.1-2.1,3.8-4.1,5.1
		c-1.9,1.3-4,1.9-6.2,1.8H354.7z M358.7,120.3l-3.1,8.5h2.5c1.7,0,3.1-0.4,4.2-1.1c1.1-0.8,2-1.8,2.5-3.2c1-2.7-0.1-4.1-3.4-4.1
		H358.7z"/>
</g>
<rect x="13" y="122" class="st3" width="8" height="8"/>
<rect x="13" y="175" class="st3" width="8" height="8"/>
<g>
	<path class="st4" d="M31.2,182.6c1.9-1,3.5-2.4,4.8-4.1l1.2,0.5c-0.2,0.3-0.5,0.6-0.7,0.9h10.9c-0.1,2.2-0.2,3.9-0.3,5.1
		c-0.2,1.9-1.1,2.8-2.8,2.8c-1,0-2,0-3,0c-0.1-0.5-0.2-1-0.3-1.5c1,0.1,2,0.1,3,0.1c1.1,0,1.7-0.6,1.8-1.7c0.1-1.1,0.2-2.3,0.3-3.7
		h-2.7c-0.7,3.1-2.8,5.4-6.2,7.1c-0.3-0.4-0.6-0.8-1-1.2c3.3-1.3,5.2-3.3,5.9-5.9h-2.7c-0.9,2.5-3.1,4.5-6.8,5.9
		c-0.3-0.4-0.6-0.8-1-1.2c3.5-1.3,5.6-2.9,6.3-4.7h-2.4c-1,1-2.1,1.9-3.3,2.7C31.8,183.3,31.5,183,31.2,182.6z M33.4,171.5h12.9v7.3
		H45v-0.7H33.4V171.5z M45,172.7H34.8v1.4H45V172.7z M34.8,176.9H45v-1.5H34.8V176.9z"/>
	<path class="st4" d="M49.4,171.8h7.5v1.2h-1.2v9.6c0.4-0.1,0.9-0.2,1.3-0.3c0,0.5,0,1,0,1.4c-0.4,0.1-0.9,0.2-1.3,0.3v3.8h-1.3
		v-3.5c-1.6,0.4-3.3,0.8-5,1.2l-0.3-1.4l1.2-0.2v-10.8h-1V171.8z M51.7,175.6h2.8v-2.5h-2.8V175.6z M51.7,179.4h2.8v-2.5h-2.8V179.4
		z M54.4,183v-2.4h-2.8v3C52.6,183.4,53.5,183.2,54.4,183z M59.4,182.1l1.3,0.7c-1.1,1.9-2.1,3.6-3.1,5.1c-0.4-0.3-0.8-0.5-1.2-0.7
		C57.5,185.5,58.5,183.9,59.4,182.1z M57.7,172h7.5v9.3h-1.3v-1H59v1h-1.3V172z M63.9,173.3H59v5.8h4.9V173.3z M63.5,182
		c1,1.5,2,3.2,3.1,5.1l-1.2,0.8c-0.9-1.7-2-3.5-3-5.2L63.5,182z"/>
	<path class="st4" d="M67.1,179.1c1.7-2.6,3-5.4,3.9-8.5l1.4,0.4c-0.5,1.6-1.1,3-1.7,4.4V188h-1.3v-10c-0.5,0.9-1.1,1.8-1.7,2.6
		C67.5,180.1,67.3,179.6,67.1,179.1z M72.2,173h5.7c-0.4-0.6-0.7-1.2-1.1-1.8l1.2-0.6c0.4,0.6,0.8,1.3,1.2,2l-0.8,0.4h6.1v1.2H72.2
		V173z M73.1,175.9h10.4v1.2H73.1V175.9z M73.1,178.7h10.4v1.2H73.1V178.7z M73.3,181.6h10v6.4H82V187h-7.3v1.1h-1.4V181.6z
		 M82,182.8h-7.3v3H82V182.8z"/>
	<path class="st4" d="M95.3,170.9l-0.4,0.5c2,2.5,4.6,4.5,7.8,5.7c-0.4,0.5-0.7,1-0.9,1.4c-0.9-0.5-1.9-1-2.7-1.5v1H88.7v-0.9
		c-0.9,0.6-1.8,1.1-2.7,1.7c-0.2-0.4-0.5-0.8-0.9-1.3c3.6-1.8,6.4-4,8.2-6.6H95.3z M87.7,180.3H100v7.8h-1.4v-1.2h-9.4v1.2h-1.4
		V180.3z M98.6,181.5h-9.4v4.1h9.4V181.5z M93.9,172.4c-1.2,1.5-2.8,3-4.7,4.3h9.4C96.8,175.6,95.3,174.1,93.9,172.4z"/>
	<path class="st4" d="M103,179.4c1.7-2.4,3-5.3,3.9-8.7l1.4,0.4c-0.5,1.4-0.9,2.7-1.4,3.9v12.9h-1.4v-10c-0.6,1.1-1.2,2.1-1.9,3
		C103.5,180.5,103.3,180,103,179.4z M107.9,177.8c1.6-2.1,2.7-4.5,3.4-7.1l1.4,0.3c-0.3,0.9-0.6,1.8-0.9,2.6h8.7v1.2h-6.4v3.1h5.7
		v1.2h-5.7v3.2h5.9v1.2h-5.9v4.4h-1.4v-13.2h-1.4c-0.7,1.4-1.4,2.8-2.3,4C108.7,178.5,108.3,178.1,107.9,177.8z"/>
	<path class="st4" d="M121.9,173.6h1.8c0.4-1.1,0.8-2,1.1-2.9l1.5,0.4c-0.4,0.9-0.7,1.7-1.1,2.5h3.5v14h-1.4v-1.4h-4v1.5h-1.4V173.6
		z M127.2,174.9h-4v4.3h4V174.9z M123.3,184.9h4v-4.4h-4V184.9z M128.9,177.2c1.1-1.7,2-3.9,2.8-6.5l1.5,0.4
		c-0.3,0.9-0.6,1.7-0.9,2.5h5.7c-0.1,6-0.3,9.8-0.4,11.4c-0.1,1.8-1,2.8-2.9,2.8c-1.1,0-2.2,0-3.3-0.1c-0.1-0.6-0.2-1.1-0.3-1.6h0.1
		c1.2,0.2,2.2,0.2,3.2,0.2c1.1,0,1.6-0.6,1.7-1.7c0.1-1.7,0.2-5,0.3-9.7h-4.7c-0.5,1.1-1,2.1-1.6,3
		C129.8,177.6,129.4,177.4,128.9,177.2z M130.4,178.4l1.1-0.8c1.3,1.5,2.3,2.9,3.1,4l-1.3,0.9C132.5,181.1,131.5,179.8,130.4,178.4z
		"/>
	<path class="st4" d="M149.2,170.8l-0.4,0.5c1.8,2.4,4.4,4.3,7.8,5.6c-0.3,0.4-0.6,0.9-1,1.5c-3.2-1.6-5.8-3.6-7.7-6
		c-1.8,2.4-4.5,4.5-8,6.5c-0.3-0.4-0.6-0.9-1-1.4c3.6-1.6,6.4-3.8,8.3-6.6H149.2z M139.9,185.9h2.4v-6.8h1.5v6.8h3.6v-9.8h1.5v3.9
		h5.4v1.3h-5.4v4.7h7v1.3h-16V185.9z"/>
	<path class="st4" d="M157.2,185.5h5.6V171h1.5v14.5h3.1V171h1.5v14.5h5.7v1.3h-17.4V185.5z M159.2,174.4c1,2.3,1.9,4.7,2.8,7.2
		l-1.4,0.7c-0.8-2.5-1.7-4.9-2.6-7.3L159.2,174.4z M169.5,181.8c1.2-2.5,2.2-4.9,3-7.2l1.4,0.6c-1.1,2.8-2.1,5.2-3.1,7.2
		L169.5,181.8z"/>
	<path class="st4" d="M176.9,175.3h1.5v2.4H189v-4.5h-12.7v-1.3h14.2v8.2H189V179h-10.5v5.1c0,1.1,0.5,1.6,1.5,1.6h8.7
		c1,0,1.6-0.4,1.8-1.1c0.2-0.7,0.4-1.7,0.5-2.9c0.5,0.2,1,0.4,1.5,0.5c-0.2,1.2-0.3,2.2-0.5,2.9c-0.4,1.3-1.3,2-3,2h-9.4
		c-1.8,0-2.7-0.9-2.7-2.8V175.3z"/>
	<path class="st4" d="M193.2,185.2c2.4-0.5,4.5-0.9,6.2-1.4c0,0.5-0.1,0.9-0.1,1.3c-1.6,0.3-3.5,0.8-5.7,1.4L193.2,185.2z
		 M195.4,181.1c1.1-0.2,2.4-0.3,3.8-0.6c-0.1,0.5-0.1,0.9-0.2,1.3c-1.4,0.2-3.2,0.5-5.2,0.8l-0.3-1.3c0.9-0.9,1.8-2.1,2.8-3.5
		c-1.1,0.1-2,0.1-2.6,0.2l-0.3-1.2c1.3-1.7,2.5-3.8,3.6-6.3l1.3,0.5c-1.1,2.1-2.2,4-3.3,5.6c0.7,0,1.5,0,2.1-0.1
		c0.5-0.7,0.9-1.5,1.4-2.4l1.3,0.7C198.1,177.4,196.7,179.4,195.4,181.1z M200,172.8v-1.3h8.5v1.3c-0.8,1.1-1.7,2.1-2.7,3
		c1.8,0.9,3.4,1.8,4.8,2.7l-0.9,1.2c-1.5-1-3.1-2-4.9-3c-1.4,1.1-3.2,2.1-5.3,3c-0.2-0.4-0.5-0.8-0.8-1.2c3.4-1.1,6.2-3,8.2-5.7H200
		z M198.9,185.9h5v-4.3h-3.8v-1.3h8.9v1.3h-3.7v4.3h4.9v1.3h-11.3V185.9z"/>
	<path class="st4" d="M211.2,186.4c0.9-1.6,1.4-3.9,1.4-7l1.3,0.1c0,1.1-0.1,2.2-0.3,3.2c0.4,0.9,1,1.6,1.7,2.2v-6.5h-4.1V177h3.5
		v-2.5h-2.9v-1.3h2.9v-2.5h1.4v2.5h2.6v1.3h-2.6v2.5h2.8v1.3h-2.4v2.7h2.5v1.3h-2.5v3.3c0.8,0.4,1.8,0.5,2.9,0.5
		c2.2,0,5.2,0,9.1-0.1c-0.2,0.5-0.4,1-0.5,1.4c-3.5,0-6.5,0-9-0.1c-2.8-0.1-4.8-1.1-5.8-3.1c-0.3,1.5-0.8,2.8-1.4,3.7
		C211.7,187.5,211.4,186.9,211.2,186.4z M219.2,172.6v-1.2h8.4c-0.1,1.6-0.1,3-0.2,4c-0.1,1.3-0.8,2-2.1,2.1c-0.6,0-1.4,0-2.2-0.1
		c-0.1-0.4-0.2-0.9-0.3-1.4c0.9,0.1,1.6,0.2,2.2,0.2c0.7,0,1-0.4,1.1-1.1c0.1-0.7,0.1-1.5,0.2-2.5H223c-0.1,2.6-1.1,4.5-3,5.6
		c-0.2-0.4-0.5-0.7-0.9-1.1c1.6-0.9,2.5-2.4,2.5-4.4H219.2z M220.1,178.7h7.3v6.3h-1.3v-0.8h-4.7v0.9h-1.3V178.7z M226.1,179.9h-4.7
		v3.1h4.7V179.9z"/>
	<path class="st4" d="M236.5,186l4.7,0.1l5.3-0.2c-0.2,0.5-0.4,0.9-0.6,1.4l-5.2,0.1l-4.5-0.1c-2,0-3.5-0.7-4.4-2
		c-0.3,0.3-1,1-2,2.2l-0.7-1.5c0.9-0.8,1.6-1.5,2.2-1.9v-6h-2v-1.3h3.4v7.6C233.5,185.5,234.8,186,236.5,186z M231,170.8
		c0.8,0.9,1.6,2,2.5,3.3c-0.5,0.3-0.9,0.6-1.2,0.8c-0.8-1.3-1.6-2.4-2.3-3.4L231,170.8z M234.4,174.1h7.5v-3.4h1.4v3.4h3v1.3h-3v7.3
		c0,1.5-0.7,2.3-2.2,2.3c-0.8,0-1.7,0-2.7,0c-0.1-0.5-0.1-1-0.3-1.6c0.9,0.1,1.8,0.1,2.6,0.1c0.7,0,1.1-0.4,1.1-1.2v-6.9h-7.5V174.1
		z M235.1,177.4l1.1-0.8c1.3,1.6,2.3,2.9,2.9,3.8l-1.2,0.9C236.9,179.9,236,178.6,235.1,177.4z"/>
	<path class="st4" d="M329.9,183.4l-1.5,4.7h-1.2l1.1-4.7H329.9z"/>
	<path class="st4" d="M343.5,185.6h-1.9l-1.4-3.7h-5.7l-1.3,3.7h-1.9l5.2-13.6h1.9L343.5,185.6z M339.7,180.4l-2.1-5.7
		c-0.1-0.2-0.1-0.5-0.2-0.9h0c-0.1,0.4-0.1,0.7-0.2,0.9l-2,5.7H339.7z"/>
	<path class="st4" d="M347.3,180.5v5.1h-1.8V172h3.9c1.5,0,2.6,0.4,3.4,1.1c0.8,0.7,1.2,1.7,1.2,3c0,1.3-0.5,2.4-1.4,3.2
		s-2.1,1.2-3.6,1.2H347.3z M347.3,173.6v5.4h1.6c1.1,0,1.9-0.2,2.4-0.7c0.6-0.5,0.8-1.2,0.8-2.1c0-1.8-1-2.6-3.1-2.6H347.3z"/>
	<path class="st4" d="M359.6,173.5h-1.3v10.6h1.3v1.5h-4.4v-1.5h1.3v-10.6h-1.3V172h4.4V173.5z"/>
	<path class="st4" d="M365.5,181.5c0,0.5,0.1,1,0.1,1.5c-1.2,0.9-2.3,1.7-3.2,2.5l-0.8-1.1c0.4-0.4,0.6-0.9,0.6-1.6v-5.4h-1.9v-1.2
		h3.2v6.8C364.2,182.6,364.8,182.1,365.5,181.5z M362.5,171c0.8,0.8,1.7,1.7,2.6,2.8l-1.2,1c-0.9-1.2-1.7-2.1-2.5-2.9L362.5,171z
		 M367.4,172.9v7.2c0,3.4-0.9,6-2.8,7.8c-0.3-0.4-0.6-0.8-0.9-1.1c1.6-1.5,2.4-3.7,2.4-6.6v-8.6h10.8v14.1c0,1.3-0.6,2-1.8,2
		c-0.7,0-1.6,0-2.8-0.1c-0.1-0.4-0.1-0.9-0.3-1.4c1.2,0.1,2.1,0.1,2.7,0.1c0.6,0,0.9-0.3,0.9-0.9v-12.6H367.4z M367.9,177.8h3v-1.6
		h-2.5V175h2.5v-1.7h1.3v1.7h2.4v1.1h-2.4v1.6h3v1.1h-7.2V177.8z M368.7,180.3h5.4v4.5h-4.1v0.8h-1.2V180.3z M372.9,181.4h-2.9v2.2
		h2.9V181.4z"/>
	<path class="st4" d="M386.7,187.7v-5.6h-5.1c-0.2,2.4-0.9,4.5-2.1,6.1c-0.3-0.4-0.7-0.8-1-1.2c0.8-1.1,1.3-2.3,1.5-3.6
		c0.3-1.3,0.4-3.1,0.4-5.4v-6.3h14.3v14c0,1.4-0.7,2.1-2,2.1c-0.8,0-1.7,0-2.7-0.1c-0.1-0.4-0.1-0.9-0.3-1.5c1,0.1,1.8,0.1,2.5,0.1
		c0.7,0,1.1-0.3,1.1-1v-3.2h-5.2v5.6H386.7z M381.7,180.8h5v-3.3h-4.9C381.8,178.7,381.8,179.8,381.7,180.8z M381.8,173v3.3h4.9V173
		H381.8z M393.3,173h-5.2v3.3h5.2V173z M388.1,180.8h5.2v-3.3h-5.2V180.8z"/>
	<path class="st4" d="M396.4,186.4h8.1v-1h-6.7v-0.9h6.7v-1h-4.8v0.5h-1.2v-5.4h13.3v5.4h-1.2v-0.5h-4.9v1h6.7v0.9h-6.7v1h8.1v0.9
		h-17.4V186.4z M396.5,176.8h17.2v0.9h-17.2V176.8z M398.6,171.4h13v5h-1.2v-0.5h-10.6v0.5h-1.2V171.4z M399.6,180.6h4.8v-1.1h-4.8
		V180.6z M399.6,182.6h4.8v-1.1h-4.8V182.6z M410.4,172.3h-10.6v0.9h10.6V172.3z M399.8,175h10.6V174h-10.6V175z M410.5,179.5h-4.9
		v1.1h4.9V179.5z M405.7,182.6h4.9v-1.1h-4.9V182.6z"/>
	<path class="st4" d="M540,183.2c0.6,0,1.1,0.2,1.5,0.7s0.6,1,0.6,1.6c0,0.7-0.2,1.2-0.6,1.6s-0.9,0.6-1.5,0.6s-1.1-0.2-1.6-0.6
		c-0.4-0.4-0.7-1-0.7-1.6c0-0.7,0.2-1.2,0.7-1.6S539.4,183.2,540,183.2z M540,186.4c0.2,0,0.4-0.1,0.6-0.3s0.3-0.4,0.3-0.7
		c0-0.3-0.1-0.5-0.3-0.7c-0.2-0.2-0.4-0.3-0.7-0.3c-0.3,0-0.5,0.1-0.7,0.3c-0.2,0.2-0.3,0.4-0.3,0.7c0,0.3,0.1,0.5,0.3,0.7
		S539.7,186.4,540,186.4z"/>
	<path class="st4" d="M560.6,174l1.3,0.5c-0.3,0.3-0.5,0.7-0.8,1h8.1v1.1c-1,1.1-2.3,2.1-3.9,2.9c1.9,0.6,4.3,0.9,7.1,0.9
		c-0.3,0.5-0.6,0.9-0.9,1.4c-3.1-0.2-5.7-0.8-7.8-1.6c-2.3,0.9-5.1,1.6-8.3,2c-0.2-0.4-0.4-0.9-0.7-1.3c3-0.3,5.5-0.8,7.5-1.5
		c-1.1-0.6-2-1.4-2.7-2.3c-0.9,0.8-1.8,1.6-2.7,2.3c-0.3-0.3-0.6-0.6-0.9-0.9C557.9,177.1,559.5,175.6,560.6,174z M555.7,172.7h7.6
		c-0.3-0.5-0.7-1-1.2-1.5l1.2-0.8c0.5,0.5,1,1.1,1.5,1.8l-0.8,0.5h7.4v3.3h-1.3v-2.1H557v2.1h-1.3V172.7z M557.9,182.3h11.5v5.6H568
		v-0.7h-8.9v0.7h-1.3V182.3z M568,183.5h-8.9v2.6h8.9V183.5z M567.3,176.6h-6.7c0.8,0.9,1.8,1.7,3.1,2.3
		C565.2,178.3,566.4,177.5,567.3,176.6z"/>
	<path class="st4" d="M580.2,171.2l1.3-0.8c0.6,0.7,1.1,1.4,1.7,2.2l-0.9,0.5h6.6v7.8h-1.4v-0.9h-11.1c-0.2,3.4-1,6.1-2.6,8.1
		c-0.3-0.4-0.7-0.8-1-1.2c1.5-1.8,2.2-4.6,2.2-8.2v-5.6h6.7C581.2,172.5,580.8,171.9,580.2,171.2z M576.4,174.5v4.3h11.1v-4.3H576.4
		z"/>
	<path class="st4" d="M590.6,184c1-1.4,1.7-3,2.1-4.7h-1.5v-1.1h1.8c0.1-0.6,0.2-1.3,0.2-2.1h-2.4v-1.1h2.5c0-0.6,0-1.3,0-2h-2.1
		v-1.1h7.3v3.1h1v1.1h-1v3.9h-1.2v-0.7h-3.3c-0.1,0.7-0.3,1.3-0.6,2h5.3v6.3h-1.2v-1h-3.5v1.1h-1.2v-4.8c-0.4,0.9-0.9,1.7-1.4,2.6
		C591.2,185,590.9,184.5,590.6,184z M597.6,182.4h-3.5v3.1h3.5V182.4z M594.3,178.1h3.1V176h-2.8
		C594.4,176.8,594.4,177.5,594.3,178.1z M597.3,172.9h-2.7c0,0.7,0,1.4,0,2h2.8V172.9z M599.3,182h3.8v-3.1h-3.3v-1.2h3.3V175h-3.3
		v-1.2h8.3v1.2h-3.6v2.7h3.4v1.2h-3.4v3.1h3.9v1.2h-3.9v4.8h-1.3v-4.8h-3.8V182z M600.3,171.3l0.9-0.7c0.7,0.8,1.4,1.5,2,2.3
		l-1.1,0.8C601.6,172.9,601,172,600.3,171.3z M604.3,173.1c0.7-0.8,1.3-1.6,1.9-2.5l1.1,0.7c-0.7,0.9-1.4,1.8-2,2.5L604.3,173.1z"/>
	<path class="st4" d="M608.7,179.2c1.7-2.5,3-5.3,3.8-8.5l1.3,0.4c-0.5,1.5-1,2.9-1.5,4.2v12.6H611v-10c-0.5,1-1.1,1.9-1.7,2.7
		C609.1,180.1,608.9,179.6,608.7,179.2z M626.4,183.4c-0.4,0.5-0.7,0.9-1,1.3c-2.3-1.8-4.1-4.9-5.2-9.2v7.4h2.6v1.3h-2.6v3.7h-1.3
		v-3.7h-2.6V183h2.6v-7.4h0c-1.1,4-2.9,7.2-5.4,9.4c-0.3-0.3-0.6-0.7-0.9-1.1c2.3-2.1,4-4.8,5.1-8.3h-4.1v-1.3h5.4v-3.6h1.3v3.6h5.6
		v1.3h-4.5C622.5,179.2,624.2,181.8,626.4,183.4z"/>
	<path class="st4" d="M631.2,170.6l1.4,0.4c-0.3,0.6-0.5,1.2-0.8,1.8H642c0,4.2-0.1,7.1-0.3,8.7c-0.1,1.9-1.1,2.9-2.9,2.9
		c-0.5,0-1.3,0-2.5-0.1c-0.1-0.4-0.2-0.9-0.3-1.5c1,0.1,1.8,0.1,2.6,0.1c1.1,0,1.6-0.6,1.7-1.7c0.1-1.5,0.2-3.9,0.2-7.2h-9.4
		c-0.4,0.8-0.8,1.5-1.3,2.2h7.3v5.1h-6.4v3.3c0,0.9,0.5,1.4,1.5,1.4h8.2c1.1,0,1.8-0.4,2-1.1c0.2-0.6,0.3-1.5,0.4-2.6
		c0.5,0.2,1,0.4,1.4,0.5c-0.1,1-0.3,1.9-0.5,2.5c-0.3,1.3-1.3,2-3,2H632c-1.7,0-2.6-0.8-2.6-2.5v-8c-0.6,0.8-1.2,1.5-1.8,2.2
		c-0.3-0.5-0.6-0.9-0.9-1.2C628.8,175.7,630.3,173.3,631.2,170.6z M635.8,177.4h-5v2.7h5V177.4z"/>
	<path class="st4" d="M644.8,180c0.6-0.1,1.4-0.3,2.4-0.6v-4.2H645v-1.2h2.2v-3.3h1.4v3.3h2v1.2h-2v3.8c0.6-0.2,1.3-0.3,2-0.5
		c0,0.6,0,1.1-0.1,1.4c-0.7,0.2-1.3,0.3-1.9,0.5v5.3c0,1.2-0.6,1.8-1.8,1.9c-0.4,0-0.9,0-1.6,0c0-0.5-0.1-1-0.2-1.4
		c0.6,0,1.1,0.1,1.4,0.1c0.6,0,0.8-0.3,0.8-0.9v-4.6c-0.8,0.2-1.6,0.4-2.3,0.6L644.8,180z M651.4,180.3h4.1v-3h-5.1V176h5.1v-2.9
		c-1.4,0.1-2.9,0.1-4.5,0.2c-0.1-0.8-0.2-1.2-0.2-1.3c3.7-0.1,7.2-0.3,10.6-0.7l0.2,1.3c-1.3,0.1-2.9,0.2-4.7,0.4v3h5.3v1.3h-5.3v3
		h4.1v7.7h-1.3v-1h-7v1h-1.3V180.3z M659.7,181.5h-7v4.2h7V181.5z"/>
	<path class="st4" d="M31.5,216.9h11.9l0.2-3h-9.9v-1.2l1.1-7.7h-2.7v-1.3h15.4v1.3H36.3l-0.4,2.6h9.6l-0.7,9.4h3.3v1.2H31.5V216.9z
		 M44,208.8h-8.3l-0.6,3.9h8.5L44,208.8z"/>
	<path class="st4" d="M49.1,215.6c0.4-0.1,0.9-0.1,1.3-0.2v-10.7h-1.1v-1.2h7.6v1.2h-1.3v9.8c0.5-0.1,1.1-0.2,1.6-0.3
		c0,0.5,0.1,0.9,0.1,1.2c-0.6,0.1-1.1,0.2-1.7,0.3v3.7h-1.3V216c-1.5,0.3-3.1,0.6-4.9,1L49.1,215.6z M51.7,207.2h2.6v-2.6h-2.6
		V207.2z M51.7,211h2.6v-2.6h-2.6V211z M54.3,214.7v-2.5h-2.6v2.9C52.6,215,53.4,214.8,54.3,214.7z M56.2,210.4h4.1
		c0-0.9,0.1-1.9,0.1-3.2h-3.6v-1.3h4.7c0.5-0.8,1.2-2.1,2.1-3.7l1.4,0.7c-0.7,1.1-1.4,2.2-2,3.1h2.9v1.3h-4.1c0,1.3,0,2.3-0.1,3.2
		h4.8v1.3h-4.6c0.9,2.8,2.5,4.9,4.8,6.2c-0.4,0.4-0.8,0.9-1.1,1.3c-2.1-1.6-3.5-3.6-4.4-5.9c-0.6,2.5-2.1,4.5-4.3,6.1
		c-0.4-0.5-0.7-0.8-1-1.1c2.4-1.5,3.9-3.7,4.3-6.6h-4V210.4z M57.3,202.9l1-0.7c0.7,0.8,1.4,1.7,2,2.6l-1.1,0.8
		C58.7,204.8,58.1,203.9,57.3,202.9z"/>
	<path class="st4" d="M69.9,206.9l1-0.5c0.7,1.1,1.4,2.2,2.1,3.4c0.6-1.2,1.1-2.4,1.5-3.7l1.2,0.4c-0.6,1.6-1.2,3.1-1.9,4.5
		c0.7,1.1,1.3,2.3,2,3.5l-1.2,0.6c-0.5-0.9-1-1.9-1.5-2.8c-0.7,1.4-1.5,2.6-2.3,3.8l-1.1-0.6v3.7h-1.3v-16.1h15v14.1
		c0,1.3-0.7,1.9-2,1.9c-0.8,0-1.6,0-2.7,0c-0.1-0.4-0.1-0.8-0.2-1.4c1,0.1,1.8,0.1,2.5,0.1c0.8,0,1.1-0.3,1.1-1v-12.5H69.7v11.1
		c1-1.5,1.9-3,2.7-4.4C71.6,209.7,70.7,208.3,69.9,206.9z M75.7,207.7l1-0.6c0.6,0.9,1.2,2,1.8,3c0.7-1.3,1.2-2.7,1.7-4l1.2,0.5
		c-0.7,1.7-1.4,3.3-2.2,4.8c0.7,1.3,1.5,2.6,2.3,4l-1.2,0.7c-0.6-1.1-1.2-2.2-1.8-3.4c-0.7,1.3-1.5,2.5-2.3,3.7l-1.1-0.7
		c1-1.5,1.9-2.9,2.7-4.3C77.2,210.2,76.5,209,75.7,207.7z"/>
	<path class="st4" d="M90.3,218.3l-1.1,1.1c-1-1.1-2.1-2.1-3.3-3.1l0.9-1C88.4,216.5,89.5,217.5,90.3,218.3z"/>
	<path class="st4" d="M103.7,217.5h7.5v-4.3h-6.3v-1.3h6.3v-2.5h-4.6v-1.2c-0.8,0.5-1.7,1.1-2.7,1.6c-0.2-0.4-0.5-0.9-0.9-1.3
		c3.9-1.8,6.7-3.9,8.3-6.3h1.9l-0.4,0.5c1.9,2.4,4.5,4.2,7.9,5.6c-0.3,0.4-0.6,0.9-0.9,1.4c-0.9-0.4-1.8-0.8-2.7-1.4v1.2h-4.6v2.5
		h6.3v1.3h-6.3v4.3h7.5v1.3h-16.3V217.5z M105.7,214.3l1-0.8c0.9,0.9,1.7,1.8,2.5,2.7l-1.2,0.9C107.3,216.2,106.5,215.3,105.7,214.3
		z M111.9,203.7c-1.2,1.5-2.9,3-5.2,4.5H117C115.1,207,113.4,205.5,111.9,203.7z M114.4,216.3c0.9-1,1.8-1.9,2.4-2.9l1.2,0.8
		c-0.8,1-1.7,2-2.6,2.9L114.4,216.3z"/>
	<path class="st4" d="M121.7,203h8.6v1.1h-8.6V203z M123,219.4h-1.2v-9h8.3v7.3c0,1.1-0.6,1.7-1.7,1.7h-1.4
		c-0.1-0.4-0.1-0.8-0.3-1.2c0.6,0,1,0.1,1.4,0.1c0.6,0,0.8-0.3,0.8-0.8v-6h-6V219.4z M122.6,205.4h6.9v4.2h-1.2v-0.5h-4.6v0.5h-1.2
		V205.4z M123.3,214.3h2.7c0.7-1.2,1.1-2,1.3-2.5l1,0.5c-0.5,0.8-0.9,1.5-1.3,2h1.6v1.1h-2.1v3.7h-1.1v-3.7h-2.1V214.3z
		 M123.6,212.3l0.8-0.5c0.4,0.6,0.8,1.2,1.1,1.8l-0.9,0.6C124.4,213.6,124,212.9,123.6,212.3z M128.3,206.4h-4.6v1.7h4.6V206.4z
		 M136.1,214.3l1.2-0.3c0.5,1.8,1,3.5,1.3,5.1l-1.2,0.3c-0.1-0.3-0.1-0.6-0.2-0.9c-2.2,0.2-4.3,0.5-6.3,0.7l-0.3-1.5
		c1.1-0.1,2.2-0.1,3.3-0.2v-4.7h-1.5v0.6h-1.3v-7.8h2.7v-3.1h1.2v3.1h2.7v7.2h-2.7v4.6c0.6,0,1.2-0.1,1.8-0.1
		C136.6,216.2,136.4,215.3,136.1,214.3z M132.4,211.5h1.5v-4.9h-1.5V211.5z M136.6,211.5v-4.9h-1.5v4.9H136.6z"/>
	<path class="st4" d="M139,210.8c1.6-2.3,2.8-5.2,3.7-8.5l1.3,0.4c-0.5,1.5-1,3-1.6,4.3v12.4h-1.3v-9.8c-0.5,0.9-1,1.8-1.6,2.6
		C139.4,211.8,139.2,211.3,139,210.8z M145.2,203h9.8v6.6h-1.3V209h-3v2.4h5.8v1.2h-4.8c1.1,1.8,2.7,3.2,4.9,4.2
		c-0.4,0.5-0.7,0.9-0.9,1.3c-2.2-1.3-3.9-3.1-5.1-5.4v6.8h-1.3v-6.9c-1.4,2.6-3.2,4.5-5.3,5.8c-0.3-0.3-0.6-0.7-1-1.1
		c2.1-1.1,3.8-2.8,5.1-4.8h-4.6v-1.2h5.8V209h-2.9v0.8h-1.3V203z M153.7,204.2h-7.1v3.6h7.1V204.2z"/>
	<path class="st4" d="M162.7,212.7c0.4,2.2-0.2,3.5-1.5,3.8c-0.4,0.1-0.9,0.1-1.6,0c-0.1-0.4-0.2-0.8-0.3-1.3v4.2H158v-16.3h4.9v1.2
		c-0.7,2.1-1.2,3.8-1.6,4.9C162.1,210.3,162.6,211.5,162.7,212.7z M160.7,215.2c0.8-0.1,1.1-0.9,0.8-2.6c-0.2-0.9-0.7-2-1.5-3.2
		c0.5-1.6,1-3.3,1.5-5.1h-2.3v10.7C159.8,215.2,160.2,215.3,160.7,215.2z M169.4,202.3l-0.2,0.5c1.4,2.3,3.2,4.1,5.4,5.3
		c-0.4,0.5-0.7,0.9-1,1.2c-2.1-1.5-3.9-3.2-5.2-5.3c-1.3,2-3.1,3.8-5.3,5.4c-0.2-0.3-0.5-0.7-0.9-1.1c2.6-1.7,4.5-3.7,5.7-6.1H169.4
		z M162.5,217.5h7.2c1-2.5,1.7-4.7,2.3-6.6l1.5,0.5c-0.4,1.2-1.2,3.3-2.2,6.1h3v1.3h-11.6V217.5z M163.6,211.7l1.2-0.5
		c0.6,1.6,1.2,3.2,1.7,4.9l-1.4,0.4C164.6,214.8,164.1,213.2,163.6,211.7z M164.3,208.7h8.1v1.3h-8.1V208.7z M167,211l1.2-0.4
		c0.6,1.7,1,3.2,1.3,4.6l-1.4,0.4C167.9,214,167.5,212.5,167,211z"/>
	<path class="st4" d="M180.3,218.3l-1.1,1.1c-1-1.1-2.1-2.1-3.3-3.1l0.9-1C178.4,216.5,179.5,217.5,180.3,218.3z"/>
	<path class="st4" d="M202.8,209.1l-0.2,0.3c2,1.9,4.7,3.1,8.1,3.7c-0.3,0.5-0.6,1-0.9,1.4c-3.3-1-6-2.4-8-4.3
		c-1.9,1.7-4.6,3.2-8.1,4.6c-0.2-0.4-0.5-0.8-0.8-1.2c3.7-1.1,6.5-2.6,8.4-4.5H202.8z M194,205.2h7.1v-1.1h-6.6V203h14.3v1.1h-6.4
		v1.1h7.3v3.3h-1.3v-2.1h-6v2.5h-1.3v-2.5h-5.8v2.1H194V205.2z M195.9,209.1h3.9v1h-3.9V209.1z M196.1,207.2h3.7v1h-3.7V207.2z
		 M197.5,217.1l0.5-1.1c1.2,0.4,2.5,0.8,3.8,1.2l3.2-2h-8.7v-1.1h5.7c-0.5-0.6-1-1.2-1.6-1.9l1-0.7c0.6,0.6,1.1,1.2,1.7,1.9l-1,0.7
		h4.9v1.3l-3.7,2.3c0.7,0.2,1.4,0.5,2.2,0.8l-0.5,1.2C202,218.6,199.5,217.8,197.5,217.1z M203.8,207.2h3.6v1h-3.6V207.2z
		 M203.8,209.1h3.8v1h-3.8V209.1z"/>
	<path class="st4" d="M219.6,202.6l1.1-0.7c0.5,0.7,1,1.3,1.4,1.9l-0.7,0.4h6.4v1.1h-6.2v1.3h5.7v1.1h-5.7v1.3h5.7v1.1h-5.7v1.3h6.6
		v1.1h-13.6v0.7h-1.3v-6c-0.5,0.6-1,1.1-1.5,1.6c-0.2-0.4-0.5-0.7-0.8-1.1c1.7-1.6,3.1-3.5,4.1-5.6l1.3,0.5c-0.3,0.6-0.7,1.2-1,1.7
		h5.3C220.4,203.8,220,203.2,219.6,202.6z M213.3,213.9h13.3v5.7h-1.3v-0.9h-10.7v0.9h-1.3V213.9z M214.6,206.7h5.7v-1.3h-5.7
		l-0.1,0.1V206.7z M214.6,209h5.7v-1.3h-5.7V209z M214.6,211.4h5.7v-1.3h-5.7V211.4z M225.3,215h-10.7v2.5h10.7V215z"/>
	<path class="st4" d="M230,204.5h6.5v-2.2h1.5v2.2h6.5v9.9h-6.5v2.1c0,0.7,0.4,1.1,1.1,1.1h4.1c0.8,0,1.3-0.3,1.5-0.8
		c0.2-0.6,0.3-1.4,0.4-2.5c0.3,0.2,0.8,0.3,1.5,0.5c-0.1,0.9-0.3,1.7-0.5,2.4c-0.3,1.1-1.1,1.7-2.4,1.7H239c-1.7,0-2.5-0.8-2.5-2.4
		v-2h-5v1.2H230V204.5z M231.5,208.8h5v-3h-5V208.8z M231.5,213h5v-3h-5V213z M243,205.8h-5v3h5V205.8z M243,213v-3h-5v3H243z"/>
	<path class="st4" d="M247.3,204.1h8c-0.2-0.4-0.5-0.9-0.8-1.4l1.4-0.6c0.4,0.6,0.7,1.3,1.1,2h7.6v1.2h-17.2V204.1z M248.5,207.8
		h4.3c-0.4-0.6-0.8-1.2-1.3-1.8l1.1-0.7c0.6,0.7,1.1,1.3,1.5,1.8l-0.9,0.7h4c0.6-0.8,1.1-1.6,1.6-2.4l1.3,0.8
		c-0.6,0.7-1,1.2-1.4,1.6h4.4v9.2c0,1.5-0.7,2.2-2,2.2c-0.7,0-1.5,0-2.5,0c-0.1-0.7-0.2-1.2-0.3-1.5c0.9,0.1,1.7,0.1,2.3,0.1
		c0.8,0,1.1-0.4,1.1-1.3V209h-11.9v10.4h-1.3V207.8z M253.7,209.2l0.9,0.9c-1.4,1.2-2.7,2.2-3.8,3.1c-0.4-0.5-0.6-0.8-0.8-1
		C251.3,211.3,252.5,210.3,253.7,209.2z M252.3,217.7v-5.7h7v4.7h-5.8v0.9H252.3z M258.1,215.7v-2.5h-4.5v2.5H258.1z M256.8,210.2
		l0.8-1c1.7,1.1,3,2,3.9,2.6l-0.9,1.1C259.5,212,258.2,211.1,256.8,210.2z"/>
	<path class="st4" d="M270.3,218.3l-1.1,1.1c-1-1.1-2.1-2.1-3.3-3.1l0.9-1C268.4,216.5,269.5,217.5,270.3,218.3z"/>
	<path class="st4" d="M283.1,218.1c4.8-2.2,7.4-5.4,7.8-9.7h-7.5V207h7.6c0-1.6,0-3.2,0-4.8h1.5c0,1.6,0,3.2,0,4.8h7.8v1.4h-7.8
		c0.8,4.7,3.6,7.8,8.2,9.3c-0.6,0.6-1,1-1.3,1.4c-3.8-1.5-6.3-4.3-7.5-8.2c-0.9,3.6-3.5,6.4-7.7,8.6
		C284,219.1,283.6,218.7,283.1,218.1z"/>
	<path class="st4" d="M301.2,217.4h7.9V215h-6.3v-1.2h6.3v-1.4h1.4v1.4h6.4v1.2h-6.4v2.4h8v1.2h-17.2V217.4z M301.3,207.3h2.7
		c0-0.3,0-1.2,0-2.9h-2v-1.2h9.2v1.2h-1.9v2.9h2.5v1.2h-2.5v3.8H308v-3.8h-2.8c-0.1,1.7-1,3.1-2.5,4.4c-0.3-0.3-0.6-0.7-1-1
		c1.3-1,2.1-2.2,2.2-3.4h-2.6V207.3z M305.2,207.3h2.8v-2.9h-2.7C305.3,205.8,305.2,206.7,305.2,207.3z M312.5,203.5h1.3v6.1h-1.3
		V203.5z M317.3,202.5v8.1c0,1.2-0.6,1.9-1.8,1.9c-0.7,0-1.5,0-2.4,0c0-0.4-0.1-0.9-0.2-1.4c1,0.1,1.7,0.1,2.2,0.1
		c0.7,0,1-0.4,1-1.1v-7.6H317.3z"/>
	<path class="st4" d="M319.3,204.1h8c-0.2-0.4-0.5-0.9-0.8-1.4l1.4-0.6c0.4,0.6,0.7,1.3,1.1,2h7.6v1.2h-17.2V204.1z M320.5,207.8
		h4.3c-0.4-0.6-0.8-1.2-1.3-1.8l1.1-0.7c0.6,0.7,1.1,1.3,1.5,1.8l-0.9,0.7h4c0.6-0.8,1.1-1.6,1.6-2.4l1.3,0.8
		c-0.6,0.7-1,1.2-1.4,1.6h4.4v9.2c0,1.5-0.7,2.2-2,2.2c-0.7,0-1.5,0-2.5,0c-0.1-0.7-0.2-1.2-0.3-1.5c0.9,0.1,1.7,0.1,2.3,0.1
		c0.8,0,1.1-0.4,1.1-1.3V209h-11.9v10.4h-1.3V207.8z M325.7,209.2l0.9,0.9c-1.4,1.2-2.7,2.2-3.8,3.1c-0.4-0.5-0.6-0.8-0.8-1
		C323.3,211.3,324.5,210.3,325.7,209.2z M324.3,217.7v-5.7h7v4.7h-5.8v0.9H324.3z M330.1,215.7v-2.5h-4.5v2.5H330.1z M328.8,210.2
		l0.8-1c1.7,1.1,3,2,3.9,2.6l-0.9,1.1C331.5,212,330.2,211.1,328.8,210.2z"/>
	<path class="st4" d="M337.2,217.9c0.9-1.6,1.4-3.9,1.4-7l1.3,0.1c0,1.1-0.1,2.2-0.3,3.2c0.4,0.9,1,1.6,1.7,2.2v-6.5h-4.1v-1.3h3.5
		V206h-2.9v-1.3h2.9v-2.5h1.4v2.5h2.6v1.3h-2.6v2.5h2.8v1.3h-2.4v2.7h2.5v1.3h-2.5v3.3c0.8,0.4,1.8,0.5,2.9,0.5c2.2,0,5.2,0,9.1-0.1
		c-0.2,0.5-0.4,1-0.5,1.4c-3.5,0-6.5,0-9-0.1c-2.8-0.1-4.8-1.1-5.8-3.1c-0.3,1.5-0.8,2.8-1.4,3.7C337.7,219,337.4,218.4,337.2,217.9
		z M345.2,204.1v-1.2h8.4c-0.1,1.6-0.1,3-0.2,4c-0.1,1.3-0.8,2-2.1,2.1c-0.6,0-1.4,0-2.2-0.1c-0.1-0.4-0.2-0.9-0.3-1.4
		c0.9,0.1,1.6,0.2,2.2,0.2c0.7,0,1-0.4,1.1-1.1c0.1-0.7,0.1-1.5,0.2-2.5H349c-0.1,2.6-1.1,4.5-3,5.6c-0.2-0.4-0.5-0.7-0.9-1.1
		c1.6-0.9,2.5-2.4,2.5-4.4H345.2z M346.1,210.2h7.3v6.3h-1.3v-0.8h-4.7v0.9h-1.3V210.2z M352.1,211.4h-4.7v3.1h4.7V211.4z"/>
	<path class="st4" d="M360.3,218.3l-1.1,1.1c-1-1.1-2.1-2.1-3.3-3.1l0.9-1C358.4,216.5,359.5,217.5,360.3,218.3z"/>
	<path class="st4" d="M373.4,217.7c3.5-1,6.4-2.7,8.5-5c-0.2-0.3-0.4-0.7-0.6-1c-1.7,1.8-4.2,3.2-7.2,4.2c-0.2-0.4-0.4-0.8-0.6-1.2
		c3-0.8,5.4-2.2,7-4c-0.2-0.2-0.4-0.4-0.6-0.6c-1.6,1.1-3.5,2-5.7,2.7c-0.2-0.4-0.5-0.8-0.8-1.2c2.8-0.6,5-1.7,6.7-3.1h-4.4v-1.3
		h12.6v1.3h-6.4c-0.3,0.3-0.6,0.6-1,0.9c0.9,0.7,1.6,1.6,2.1,2.5c1.8-0.9,3.5-1.8,4.9-2.8l0.8,1.1c-1,0.6-2,1.1-3,1.7
		c1,2.2,2.7,3.8,5.1,4.7c-0.4,0.4-0.8,0.9-1.1,1.4c-2.3-1.2-4-3-5.1-5.5c-0.3,0.2-0.7,0.3-1,0.5c0.7,2.5,0.6,4.3-0.3,5.4
		c-0.4,0.5-1.2,0.8-2.4,0.8c-0.5,0-1.2,0-2.2-0.1c-0.1-0.5-0.2-0.9-0.3-1.5c0.9,0.1,1.7,0.2,2.4,0.2c1.3,0.1,1.9-0.7,1.8-2.3
		c0-0.5-0.1-1-0.2-1.5c-2.1,2-4.8,3.6-8.3,4.8C373.9,218.5,373.6,218.1,373.4,217.7z M373.8,204.4h7.9c-0.3-0.5-0.8-1.1-1.2-1.7
		l1.2-0.8c0.5,0.6,1,1.3,1.4,1.9l-0.9,0.5h7.6v3h-1.4v-1.7h-13.3v1.7h-1.4V204.4z"/>
	<path class="st4" d="M392.4,207.9h1.3v8.1c0.6-0.1,1.2-0.2,1.9-0.3v-10.6h-4v-1.2h8.3v1.2h-3v4.4h2.8v1.2h-2.8v4.7
		c1-0.2,2-0.4,3-0.6c0,0.5,0,1,0,1.4c-3.2,0.6-6.1,1.1-8.6,1.6l-0.2-1.4c0.4-0.1,0.9-0.1,1.3-0.2V207.9z M401.6,202.2l1.4,0.5
		c-0.4,1-0.9,2-1.3,2.9h6.8v1.2h-1.6c-0.3,3.3-1.1,5.9-2.5,8c1.1,1.2,2.6,2.3,4.3,3.2c-0.4,0.4-0.8,0.9-1.1,1.3
		c-1.6-1-3-2.1-4.2-3.3c-1.2,1.3-2.7,2.6-4.5,3.7c-0.2-0.4-0.6-0.7-0.9-1.2c1.9-1.1,3.4-2.3,4.5-3.6c-1.1-1.6-1.9-3.8-2.4-6.6
		c-0.2,0.4-0.5,0.7-0.7,1c-0.2-0.3-0.6-0.7-1-1.1C399.8,206.5,400.9,204.5,401.6,202.2z M405.5,206.7h-4.3c0.4,2.8,1.2,5.1,2.3,6.8
		C404.6,211.8,405.2,209.5,405.5,206.7z"/>
	<path class="st4" d="M410.4,203.2h5v14.3c0,1.2-0.5,1.8-1.6,1.8c-0.6,0-1.2,0-1.7-0.1c0-0.4-0.1-0.8-0.2-1.2
		c0.6,0.1,1.1,0.1,1.5,0.1c0.5,0,0.7-0.2,0.7-0.7v-4h-2.5c0,2.7-0.5,4.8-1.5,6.2c-0.3-0.3-0.6-0.7-1-1c0.8-1.2,1.2-2.9,1.2-5.1
		V203.2z M414.1,204.3h-2.5v3.4h2.5V204.3z M411.6,212.2h2.5v-3.4h-2.5V212.2z M416.8,203.2h8.7c-0.1,0.9-0.1,1.7-0.1,2.2
		c-0.1,1.8-1,2.7-2.8,2.7c-0.5,0-1.2,0-2.3-0.1c-0.1-0.5-0.1-0.9-0.2-1.4c0.9,0.1,1.6,0.2,2.3,0.2c1,0,1.6-0.4,1.6-1.4
		c0-0.3,0.1-0.6,0.1-1h-6v5.1h7.4v1c-0.5,2.1-1.3,3.8-2.6,5.4c1,1,2.3,1.7,3.8,2.2c-0.4,0.5-0.7,0.9-1,1.3c-1.4-0.7-2.7-1.5-3.7-2.5
		c-0.9,0.9-1.9,1.7-3.2,2.3c-0.2-0.4-0.5-0.8-0.7-1.2c1.2-0.6,2.2-1.3,3-2.1c-1.1-1.5-1.9-3.2-2.3-5.3h-0.8v8.7h-1.3V203.2z
		 M424.1,210.6h-4c0.4,1.7,1,3.1,1.9,4.3C423.1,213.7,423.7,212.3,424.1,210.6z"/>
	<path class="st4" d="M432.2,202l1.3,0.6c-0.3,0.4-0.5,0.9-0.8,1.3h9.5v1.2c-1.1,1.3-2.6,2.5-4.5,3.5c2,0.7,4.3,1.2,7,1.3
		c-0.4,0.5-0.7,1-1,1.5c-3.1-0.4-5.6-1.1-7.7-2c-2.3,1-5.1,1.8-8.4,2.3c-0.2-0.4-0.4-0.8-0.7-1.2c2.9-0.5,5.5-1.1,7.6-1.9
		c-1.3-0.8-2.4-1.8-3.2-2.9c-0.9,1.1-1.9,2.1-3,3c-0.4-0.4-0.7-0.7-1-0.9C429.6,205.8,431.2,204,432.2,202z M428.5,212.3h5.1
		c0.1-0.6,0.2-1.2,0.2-1.9h1.4c-0.1,0.7-0.2,1.3-0.2,1.9h7.1c-0.1,2.1-0.2,3.6-0.3,4.4c-0.2,1.7-1.2,2.5-3,2.5c-0.7,0-1.7,0-3.1-0.1
		c-0.1-0.4-0.2-0.9-0.3-1.5c1.3,0.1,2.5,0.2,3.3,0.2c1,0,1.5-0.5,1.7-1.5c0.1-0.9,0.2-1.8,0.2-2.8h-5.9c-0.6,2.8-2.8,4.9-6.5,6.1
		c-0.3-0.4-0.6-0.8-0.9-1.2c3.4-1.1,5.4-2.7,6-5h-4.9V212.3z M440.3,204.9h-7.8c0.9,1.1,2.2,2.1,3.6,2.8
		C437.8,207,439.2,206,440.3,204.9z"/>
	<path class="st4" d="M450.3,218.3l-1.1,1.1c-1-1.1-2.1-2.1-3.3-3.1l0.9-1C448.4,216.5,449.5,217.5,450.3,218.3z"/>
	<path class="st4" d="M468.2,202.3h1.4v2.7h3.8v1.2h-3.8v2.4h4.6v1.2h-4.6v2h3.8v4.2c0,1.3-0.6,1.9-1.7,1.9c-0.4,0-0.8,0-1.5,0
		c-0.1-0.4-0.1-0.8-0.3-1.3c0.6,0,1,0.1,1.4,0.1c0.5,0,0.7-0.3,0.7-0.9V213h-2.5v6.5h-1.4V213h-2.4v5.2h-1.3v-6.4h3.7v-2h-5v-1.2h5
		v-2.4h-2.6c-0.3,0.7-0.6,1.3-1,1.9c-0.4-0.2-0.8-0.4-1.2-0.7c0.9-1.4,1.6-2.9,1.9-4.5l1.3,0.3c-0.2,0.6-0.3,1.2-0.5,1.7h2.1V202.3z
		 M476.2,214.8h-1.4V204h1.4V214.8z M478.2,202.3h1.4v14.5c0,1.6-0.7,2.4-2.1,2.4c-0.5,0-1.2,0-2.4,0c-0.1-0.5-0.2-1-0.3-1.5
		c1,0.1,1.7,0.1,2.2,0.1c0.7,0,1.1-0.4,1.1-1.2V202.3z"/>
	<path class="st4" d="M488.3,217.7l4.4,0.1l5.9-0.1c-0.1,0.4-0.3,0.8-0.5,1.4l-5.8,0l-4.2-0.1c-2,0-3.4-0.7-4.2-2.1
		c-0.5,0.4-1.2,1.2-2.1,2.4l-0.7-1.5c1-1,1.8-1.7,2.2-2.2v-5.9h-2.1v-1.3h3.4v7.5C485.4,217.1,486.6,217.7,488.3,217.7z
		 M483.3,202.5c0.6,0.7,1.4,1.8,2.5,3.3l-1.2,0.9c-0.9-1.5-1.7-2.6-2.3-3.4L483.3,202.5z M486.1,208.3h5.6v-2.4h-3
		c-0.3,0.8-0.7,1.4-1,2.1c-0.3-0.2-0.7-0.4-1.2-0.6c0.9-1.4,1.5-2.9,1.9-4.6l1.3,0.3c-0.2,0.6-0.4,1.2-0.6,1.7h2.5v-2.5h1.4v2.5h4.5
		v1.2h-4.5v2.4h5.4v1.2h-12.3V208.3z M487.7,211h8.9v5.6h-1.4v-0.7H489v0.7h-1.4V211z M495.3,212.2H489v2.5h6.2V212.2z"/>
	<path class="st4" d="M499.2,217h5.6v-14.5h1.5V217h3.1v-14.5h1.5V217h5.7v1.3h-17.4V217z M501.2,205.9c1,2.3,1.9,4.7,2.8,7.2
		l-1.4,0.7c-0.8-2.5-1.7-4.9-2.6-7.3L501.2,205.9z M511.5,213.3c1.2-2.5,2.2-4.9,3-7.2l1.4,0.6c-1.1,2.8-2.1,5.2-3.1,7.2
		L511.5,213.3z"/>
	<path class="st4" d="M522.3,218.3l-1.1,1.1c-1-1.1-2.1-2.1-3.3-3.1l0.9-1C520.4,216.5,521.5,217.5,522.3,218.3z"/>
	<path class="st4" d="M541.1,214.2l1.1,1.1c-1.9,1.4-4,2.7-6.1,3.9c-0.3-0.4-0.6-0.8-0.9-1.2C537.2,216.9,539.2,215.6,541.1,214.2z
		 M535.2,211.9h4.5v-4.9h-3.8v-1.3h3.8v-3.4h1.4v3.4h5.3v-3.4h1.4v3.4h3.8v1.3H548v4.9h4.6v1.3h-17.3V211.9z M541.2,211.9h5.3v-4.9
		h-5.3V211.9z M545.4,215.4l0.9-1.1c2,1.2,4,2.4,5.8,3.7l-1,1.3C549.2,217.9,547.3,216.6,545.4,215.4z"/>
	<path class="st4" d="M553.2,214.6h8.1v-0.9l4.3-1.2h-10.9v-1.2H568v1.5l-5.3,1.6v0.2h7.8v1.2h-7.8v1.4c0,1.4-0.7,2-2.2,2
		c-0.7,0-1.5,0-2.6,0c0-0.4-0.1-0.9-0.2-1.4c0.9,0.1,1.8,0.2,2.6,0.2c0.7,0,1-0.3,1-0.9v-1.2h-8.1V214.6z M553.4,204.2h7.8
		c-0.4-0.5-0.7-1-1.1-1.5l1.3-0.8c0.6,0.7,1,1.4,1.4,1.9l-0.7,0.4h8.2v1.2h-17V204.2z M555.7,206.5h12.1v4.2h-1.3v-0.6h-9.4v0.6
		h-1.3V206.5z M566.5,207.6h-9.4v1.4h9.4V207.6z"/>
	<path class="st4" d="M571.2,216.7c2.4-0.5,4.5-0.9,6.2-1.4c0,0.5-0.1,0.9-0.1,1.3c-1.6,0.3-3.5,0.8-5.7,1.4L571.2,216.7z
		 M573.4,212.6c1.1-0.2,2.4-0.3,3.8-0.6c-0.1,0.5-0.1,0.9-0.2,1.3c-1.4,0.2-3.2,0.5-5.2,0.8l-0.3-1.3c0.9-0.9,1.8-2.1,2.8-3.5
		c-1.1,0.1-2,0.1-2.6,0.2l-0.3-1.2c1.3-1.7,2.5-3.8,3.6-6.3l1.3,0.5c-1.1,2.1-2.2,4-3.3,5.6c0.7,0,1.5,0,2.1-0.1
		c0.5-0.7,0.9-1.5,1.4-2.4l1.3,0.7C576.1,208.9,574.7,210.9,573.4,212.6z M578,204.3V203h8.5v1.3c-0.8,1.1-1.7,2.1-2.7,3
		c1.8,0.9,3.4,1.8,4.8,2.7l-0.9,1.2c-1.5-1-3.1-2-4.9-3c-1.4,1.1-3.2,2.1-5.3,3c-0.2-0.4-0.5-0.8-0.8-1.2c3.4-1.1,6.2-3,8.2-5.7H578
		z M576.9,217.4h5v-4.3h-3.8v-1.3h8.9v1.3h-3.7v4.3h4.9v1.3h-11.3V217.4z"/>
	<path class="st4" d="M589.9,206.8c1.1,0.8,2,1.5,2.9,2.2c-0.4,0.5-0.7,0.9-1,1.2c-0.8-0.8-1.7-1.6-2.8-2.4L589.9,206.8z M591.2,212
		c0.4,0.2,0.9,0.4,1.4,0.5c-0.5,2-1,4.3-1.6,6.7l-1.5-0.5C590.2,216.5,590.8,214.3,591.2,212z M590.7,202.5c1,0.8,2,1.6,2.9,2.4
		c-0.4,0.4-0.7,0.7-1,1c-0.9-0.9-1.8-1.8-2.8-2.5L590.7,202.5z M592.8,218.3c1.5-0.6,2.5-1.4,3-2.3c0.5-0.8,0.7-2.2,0.7-4.1h1.4
		c0,2.2-0.3,3.7-0.8,4.8c-0.6,1.1-1.7,2.1-3.2,2.8C593.5,219.1,593.2,218.7,592.8,218.3z M598.4,202.6l1.2-0.5
		c0.4,0.7,0.8,1.4,1.1,1.9l-0.9,0.4h6.3v1.2h-2.3c-0.8,1.5-1.8,2.7-3,3.6c1.6,0.8,3.5,1.3,5.8,1.4c-0.3,0.6-0.5,1.1-0.7,1.4
		c-2.5-0.3-4.6-0.9-6.3-2c-1.5,0.9-3.4,1.6-5.9,2.2c-0.2-0.4-0.4-0.9-0.7-1.4c2.2-0.4,4-1,5.4-1.8c-1.2-1-2.1-2.2-2.8-3.6h-1.7v-1.2
		h5.4C599.2,204,598.9,203.4,598.4,202.6z M599.6,208.5c1.1-0.8,2-1.8,2.6-2.9H597C597.7,206.7,598.6,207.7,599.6,208.5z
		 M601.7,211.8h1.4v7.3h-1.4V211.8z"/>
	<path class="st4" d="M612.3,218.3l-1.1,1.1c-1-1.1-2.1-2.1-3.3-3.1l0.9-1C610.4,216.5,611.5,217.5,612.3,218.3z"/>
	<path class="st4" d="M625.1,212.7c1.1-0.4,2.2-0.7,3.4-1.1v-4.1h-1.6c-0.2,1.1-0.5,2.1-0.9,3.1c-0.4-0.3-0.8-0.5-1.1-0.8
		c0.7-1.6,1.1-3.5,1.2-5.8l1.3,0.2c-0.1,0.7-0.2,1.4-0.3,2.1h1.4v-4h1.3v4h1.7v1.2h-1.7v3.7c0.6-0.2,1.2-0.4,1.8-0.6
		c0.1,0.5,0.1,1,0.2,1.3c-0.6,0.2-1.2,0.5-2,0.7v7h-1.3V213c-0.9,0.4-2,0.7-3.1,1.2L625.1,212.7z M630.9,209.1
		c1.2-1.8,2.2-4.1,3.2-7l1.3,0.4c-0.3,0.9-0.7,1.8-1,2.6h7.6c-0.2,4.7-0.4,8.3-0.6,10.8c-0.1,2-1.1,2.9-2.8,2.9
		c-0.7,0-1.4,0-2.3-0.1c-0.1-0.4-0.1-0.9-0.2-1.5c1,0.1,1.8,0.2,2.4,0.2c0.9,0,1.5-0.5,1.6-1.6c0.2-2.5,0.4-5.7,0.6-9.5h-1.3
		c-0.3,3-0.8,5.3-1.5,7.1c-0.9,2.2-2.5,4.1-4.8,5.7c-0.3-0.4-0.6-0.7-0.9-1.1c2.2-1.5,3.7-3.3,4.6-5.3c0.7-1.6,1.1-3.8,1.3-6.4h-1.6
		c-0.3,2.2-0.8,4-1.4,5.4c-0.8,1.5-1.8,2.9-3.2,4.1c-0.3-0.4-0.6-0.7-0.9-1c1.3-1.2,2.3-2.4,3-3.7c0.6-1.3,1-2.9,1.2-4.8h-1.3
		c-0.6,1.3-1.2,2.5-1.8,3.4C631.7,209.5,631.3,209.3,630.9,209.1z"/>
	<path class="st4" d="M643.1,208l0.9-1c0.9,0.7,1.9,1.4,3,2.3c-0.4,0.5-0.8,0.9-1,1.1C644.7,209.3,643.8,208.5,643.1,208z
		 M643.6,218.9c0.7-2.1,1.3-4.3,1.8-6.8c0.5,0.2,1,0.4,1.4,0.5c-0.5,2-1.1,4.3-1.7,6.8L643.6,218.9z M643.8,203.4l0.9-0.9
		c0.9,0.7,1.8,1.5,2.9,2.4l-1,1C645.5,204.9,644.6,204.1,643.8,203.4z M649.3,211.3h1.3c0,2.6-0.2,4.4-0.7,5.4
		c-0.5,1.1-1.5,2.1-2.9,2.9c-0.3-0.4-0.6-0.8-0.9-1.2c1.3-0.7,2.2-1.5,2.5-2.4C649.1,215.1,649.3,213.5,649.3,211.3z M657,206.6
		c0.9,1.1,1.9,2.3,3,3.8c-0.4,0.3-0.9,0.5-1.3,0.8c-0.3-0.4-0.6-0.8-0.9-1.2c-2.9,0.1-5.5,0.3-7.9,0.4c-0.4,0-0.8,0.1-1.4,0.2
		l-0.6-1.3c0.4-0.2,0.8-0.5,1.2-0.8c0.9-0.8,1.8-1.7,2.7-2.9H648v-1.2h5.6c-0.4-0.7-0.9-1.3-1.3-1.8l1.2-0.7
		c0.4,0.6,0.9,1.2,1.5,1.9l-0.9,0.6h6v1.2h-7.8l1.2,0.5c-1.1,1.2-2.1,2.2-3.1,3c1.9-0.1,4.1-0.1,6.7-0.2c-0.4-0.6-0.8-1.1-1.2-1.5
		L657,206.6z M652.8,211.3h1.3v7.8h-1.3V211.3z M656,211.2h1.3v5.9c0,0.5,0.2,0.8,0.6,0.8h0.6c0.4,0,0.6-0.3,0.7-0.9
		c0.1-0.6,0.1-1.4,0.2-2.2c0.4,0.2,0.8,0.4,1.3,0.5c-0.1,1-0.2,1.7-0.3,2.3c-0.1,1-0.7,1.6-1.7,1.6h-1.1c-1.1,0-1.7-0.7-1.7-2.1
		V211.2z"/>
	<path class="st4" d="M42.7,241.2l1.4,0.6c-0.9,2-1.9,3.6-3.1,4.8c1.8,1.3,4.3,2.2,7.5,2.8c-0.4,0.6-0.8,1.1-1.1,1.5
		c-3.1-0.8-5.6-1.9-7.5-3.3c-1.6,1.3-4.2,2.4-7.7,3.4c-0.3-0.4-0.6-0.9-0.9-1.4c3.3-0.8,5.8-1.8,7.5-3c-1.2-1.2-2.2-2.7-3-4.6
		l1.2-0.7c0.8,1.7,1.7,3.2,2.9,4.4C40.9,244.6,41.8,243.1,42.7,241.2z M31.4,236.3h8.2c-0.3-0.6-0.7-1.3-1.2-2.1l1.3-0.6
		c0.5,0.7,0.9,1.4,1.3,2.2l-1,0.5h8.2v1.3H31.4V236.3z M36.6,238.4l1.1,0.9c-1.6,1.7-3.3,3.3-5.1,4.6c-0.3-0.4-0.6-0.7-1-1.1
		C33.4,241.6,35.1,240.1,36.6,238.4z M42.9,238.3c2.1,1.7,3.8,3.1,5,4.2c-0.3,0.3-0.7,0.7-1.1,1.1c-1.3-1.4-3-2.8-4.9-4.5
		L42.9,238.3z"/>
	<path class="st4" d="M56.3,249.2l4.4,0.1l5.9-0.1c-0.1,0.4-0.3,0.8-0.5,1.4l-5.8,0l-4.2-0.1c-2,0-3.4-0.7-4.2-2.1
		c-0.5,0.4-1.2,1.2-2.1,2.4l-0.7-1.5c1-1,1.8-1.7,2.2-2.2v-5.9h-2.1v-1.3h3.4v7.5C53.4,248.6,54.6,249.2,56.3,249.2z M51.3,234
		c0.6,0.7,1.4,1.8,2.5,3.3l-1.2,0.9c-0.9-1.5-1.7-2.6-2.3-3.4L51.3,234z M56.2,248.2h-1.2v-9.9h4.2c-0.9-0.5-1.8-0.9-2.7-1.4
		l0.7-0.8c0.9,0.4,1.8,0.9,2.6,1.3l3.1-1.6h-8.2v-1.1h10.6v1.2l-4.2,2.2c0.2,0.1,0.4,0.2,0.6,0.3h3.8v7.9c0,1.3-0.6,2-1.8,2
		c-0.6,0-1.3,0-2-0.1c-0.1-0.4-0.1-0.9-0.3-1.4c0.7,0.1,1.4,0.1,1.9,0.1c0.6,0,0.9-0.3,0.9-0.9v-0.9h-3.4v2.7h-1.2v-2.7h-3.3V248.2z
		 M56.2,241.2h3.3v-1.8h-3.3V241.2z M56.2,244.1h3.3v-1.8h-3.3V244.1z M64.1,239.4h-3.4v1.8h3.4V239.4z M60.7,244.1h3.4v-1.8h-3.4
		V244.1z"/>
	<path class="st4" d="M70.5,233.6H72c-0.3,0.6-0.6,1.1-0.9,1.7h5.1v1.1h-5.9c-0.7,0.9-1.5,1.8-2.4,2.6c-0.2-0.3-0.5-0.6-0.9-0.9
		C68.5,236.8,69.7,235.3,70.5,233.6z M67.2,242.1H75v-1.7h-6.6v-1.1H75v-1.4h1.4v1.4h6.9v1.1h-6.9v1.7h8.1v1.2H67.2V242.1z
		 M67.8,245h11v-1.4h1.4v1.4h3.8v1.2h-3.8v2.3c0,1.5-0.8,2.2-2.3,2.2c-0.9,0-1.8,0-2.7,0c-0.1-0.4-0.1-0.9-0.3-1.5
		c0.9,0.1,1.8,0.1,2.6,0.1c0.9,0,1.3-0.3,1.3-1v-2.1h-11V245z M72.5,238.9c-0.4-0.6-0.9-1.2-1.5-1.8l0.9-0.7
		c0.6,0.5,1.1,1.1,1.6,1.7L72.5,238.9z M71.1,247.2l0.9-0.9c0.8,0.7,1.6,1.4,2.4,2.2l-1,1C72.8,248.8,72,248.1,71.1,247.2z
		 M78,233.6h1.5c-0.3,0.6-0.5,1.1-0.8,1.7h5.7v1.1h-6.3c-0.4,0.6-0.8,1.2-1.3,1.7c-0.5-0.4-0.9-0.6-1.2-0.7
		C76.6,236.2,77.4,235,78,233.6z M80.2,238.9c-0.2-0.4-0.7-0.9-1.4-1.8l0.9-0.7c0.6,0.6,1.1,1.2,1.5,1.7L80.2,238.9z"/>
	<path class="st4" d="M94.8,246.4l-1.5,4.7h-1.2l1.1-4.7H94.8z"/>
	<path class="st4" d="M103.6,235.8h5.2c0.3-0.7,0.5-1.4,0.8-2.2l1.5,0.4c-0.2,0.6-0.4,1.2-0.7,1.8h10.2v1.3h-10.8
		c-0.7,1.6-1.5,3-2.4,4.4v9.3h-1.4v-7.4c-0.6,0.8-1.3,1.5-2,2.3c-0.2-0.4-0.5-0.8-0.8-1.3c2.2-2.2,3.9-4.7,5.1-7.3h-4.6V235.8z
		 M107.9,248.3h5.5v-5.3h-4.6v-1.3h4.6v-3.5h1.4v3.5h4.6v1.3h-4.6v5.3h5.6v1.2h-12.6V248.3z"/>
	<path class="st4" d="M126.9,237l1.3,0.5c-0.3,0.3-0.5,0.7-0.8,1h8.1v1.1c-1,1.1-2.3,2.1-3.9,2.9c1.9,0.6,4.3,0.9,7.1,0.9
		c-0.3,0.5-0.6,0.9-0.9,1.4c-3.1-0.2-5.7-0.8-7.8-1.6c-2.3,0.9-5.1,1.6-8.3,2c-0.2-0.4-0.4-0.9-0.7-1.3c3-0.3,5.5-0.8,7.5-1.5
		c-1.1-0.6-2-1.4-2.7-2.3c-0.9,0.8-1.8,1.6-2.7,2.3c-0.3-0.3-0.6-0.6-0.9-0.9C124.2,240.1,125.8,238.6,126.9,237z M122.1,235.7h7.6
		c-0.3-0.5-0.7-1-1.2-1.5l1.2-0.8c0.5,0.5,1,1.1,1.5,1.8l-0.8,0.5h7.4v3.3h-1.3v-2.1h-13.1v2.1h-1.3V235.7z M124.2,245.3h11.5v5.6
		h-1.3v-0.7h-8.9v0.7h-1.3V245.3z M134.3,246.5h-8.9v2.6h8.9V246.5z M133.6,239.6h-6.7c0.8,0.9,1.8,1.7,3.1,2.3
		C131.5,241.3,132.7,240.5,133.6,239.6z"/>
	<path class="st4" d="M146.5,234.2l1.3-0.8c0.6,0.7,1.1,1.4,1.7,2.2l-0.9,0.5h6.6v7.8h-1.4v-0.9h-11.1c-0.2,3.4-1,6.1-2.6,8.1
		c-0.3-0.4-0.7-0.8-1-1.2c1.5-1.8,2.2-4.6,2.2-8.2v-5.6h6.7C147.5,235.5,147.1,234.9,146.5,234.2z M142.7,237.5v4.3h11.1v-4.3H142.7
		z"/>
	<path class="st4" d="M156.9,247c1-1.4,1.7-3,2.1-4.7h-1.5v-1.1h1.8c0.1-0.6,0.2-1.3,0.2-2.1h-2.4v-1.1h2.5c0-0.6,0-1.3,0-2h-2.1
		v-1.1h7.3v3.1h1v1.1h-1v3.9h-1.2v-0.7h-3.3c-0.1,0.7-0.3,1.3-0.6,2h5.3v6.3h-1.2v-1h-3.5v1.1h-1.2v-4.8c-0.4,0.9-0.9,1.7-1.4,2.6
		C157.5,248,157.2,247.5,156.9,247z M163.9,245.4h-3.5v3.1h3.5V245.4z M160.6,241.1h3.1V239h-2.8
		C160.7,239.8,160.7,240.5,160.6,241.1z M163.6,235.9h-2.7c0,0.7,0,1.4,0,2h2.8V235.9z M165.6,245h3.8v-3.1h-3.3v-1.2h3.3V238h-3.3
		v-1.2h8.3v1.2h-3.6v2.7h3.4v1.2h-3.4v3.1h3.9v1.2h-3.9v4.8h-1.3v-4.8h-3.8V245z M166.6,234.3l0.9-0.7c0.7,0.8,1.4,1.5,2,2.3
		l-1.1,0.8C167.9,235.9,167.3,235,166.6,234.3z M170.6,236.1c0.7-0.8,1.3-1.6,1.9-2.5l1.1,0.7c-0.7,0.9-1.4,1.8-2,2.5L170.6,236.1z"
		/>
	<path class="st4" d="M176.3,237.5h6.8v-3.8h1.5v3.8h6.8v8H190v-0.9h-5.4v6.5h-1.5v-6.5h-5.3v0.9h-1.4V237.5z M177.8,243.2h5.3v-4.5
		h-5.3V243.2z M190,238.8h-5.4v4.5h5.4V238.8z"/>
	<path class="st4" d="M193.1,243c0.8-0.2,1.5-0.4,2.3-0.7v-3.8h-2.1v-1.2h2.1v-3.5h1.3v3.5h2v1.2h-2v3.4c0.6-0.2,1.2-0.4,1.8-0.6
		c0,0.5,0,1,0,1.4c-0.6,0.2-1.2,0.4-1.9,0.6v5.5c0,1.2-0.5,1.9-1.6,1.9c-0.4,0-1,0-1.7,0c-0.1-0.5-0.1-1-0.2-1.4
		c0.7,0.1,1.2,0.1,1.5,0.1c0.5,0,0.7-0.3,0.7-0.8v-4.8c-0.7,0.2-1.4,0.5-2.1,0.7L193.1,243z M200.3,245.2c-0.1,2.3-0.7,4.2-1.8,5.7
		c-0.3-0.4-0.7-0.7-1-1c0.7-1.1,1.2-2.3,1.4-3.5c0.2-1,0.3-2.8,0.3-5.2v-6.6h10.4v14.2c0,1.3-0.6,1.9-1.7,2c-0.5,0-1.2,0-2.1,0
		c-0.1-0.5-0.2-1-0.3-1.4c0.8,0.1,1.5,0.1,1.9,0.1c0.6,0,0.9-0.3,0.9-1v-3.3H205v4.9h-1.3v-4.9H200.3z M200.4,240.5
		c0,1.2,0,2.3-0.1,3.4h3.3v-3.4H200.4z M200.4,239.2h3.2v-3.3h-3.2V239.2z M208.3,235.9H205v3.3h3.3V235.9z M205,243.9h3.3v-3.4H205
		V243.9z"/>
	<path class="st4" d="M216.1,250.9h-1.4v-9.1c-0.8,1-1.8,1.9-2.8,2.9c-0.2-0.4-0.5-0.8-0.8-1.3c2.3-1.9,4-4,5.3-6.3h-4.8v-1.3h5.5
		c0.3-0.7,0.6-1.5,0.9-2.2l1.5,0.3c-0.2,0.7-0.5,1.3-0.8,1.9h9.9v1.3h-10.6c-0.4,0.7-0.8,1.4-1.2,2h9.6v9.4c0,1.5-0.7,2.2-2.1,2.2
		c-0.6,0-1.6,0-2.8,0c-0.1-0.4-0.1-0.9-0.3-1.4c1.1,0.1,1.9,0.1,2.6,0.1c0.8,0,1.2-0.4,1.2-1.2v-1.2h-8.9V250.9z M224.9,240.4h-8.9
		v2.1h8.9V240.4z M216.1,245.7h8.9v-2.1h-8.9V245.7z"/>
	<path class="st4" d="M230.8,242.3h2.1v-3.8h1.2v3.8h1.8v1.1h-1.8v2.4c0.8-0.1,1.5-0.2,2.3-0.3c-0.1,0.4-0.1,0.8-0.1,1.2
		c-0.7,0.1-1.4,0.2-2.2,0.3v3.9h-1.2v-3.8c-1.1,0.1-2.3,0.3-3.7,0.5l-0.1-1.3c1.3-0.1,2.6-0.3,3.8-0.4v-2.5h-3.4v-1.1
		c0.6-1.8,1.2-3.4,1.6-4.8h-1.9v-1.2h2.2c0.3-1,0.6-2,0.7-2.8l1.4,0.3c-0.2,0.8-0.5,1.6-0.8,2.5h3.1v1.2h-3.4
		C232,239,231.4,240.6,230.8,242.3z M244.4,242c-0.6,1.9-1.4,3.5-2.3,4.8c1.1,1.1,2.7,1.9,4.6,2.5c-0.4,0.5-0.8,1-1.1,1.4
		c-1.8-0.7-3.3-1.7-4.5-2.8c-1.3,1.3-3,2.3-5,3c-0.2-0.3-0.4-0.7-0.8-1.2c2-0.7,3.7-1.6,5-2.8c-0.9-1.2-1.7-2.7-2.3-4.5l1.2-0.5
		c0.5,1.5,1.2,2.9,2,3.9c0.8-1.2,1.5-2.6,2-4.2L244.4,242z M239,238.1l1.2,0.7c-1,1.6-2.1,3-3.1,4.2c-0.4-0.4-0.8-0.6-1.1-0.8
		C237.1,241,238.1,239.6,239,238.1z M236.5,236.3h4.5c-0.4-0.7-0.9-1.4-1.4-2.1l1.1-0.7c0.7,0.7,1.2,1.5,1.7,2.2l-0.9,0.6h5v1.2
		h-9.9V236.3z M242,239l1-0.8c1.2,1.2,2.4,2.4,3.5,3.6l-1.1,0.9C244.4,241.5,243.2,240.3,242,239z"/>
	<path class="st4" d="M247.2,235.3h8.1c-0.3-0.5-0.5-0.9-0.7-1.3l1.3-0.5c0.3,0.6,0.7,1.2,1,1.8h7.7v1.2h-17.3V235.3z M249.6,250.8
		h-1.3v-8.2h15.4v6c0,1.4-0.7,2.2-2,2.2c-0.8,0-1.6,0-2.6,0c-0.1-0.4-0.2-0.9-0.3-1.4c1.1,0.1,1.9,0.1,2.5,0.1
		c0.7,0,1.1-0.4,1.1-1.1v-4.6h-12.7V250.8z M250.2,237.6h11.4v4.3h-1.3v-0.6h-8.7v0.5h-1.3V237.6z M260.3,238.7h-8.7v1.5h8.7V238.7z
		 M252,244.9h7.9v3.7h-6.7v0.8H252V244.9z M258.6,247.5V246h-5.4v1.5H258.6z"/>
	<path class="st4" d="M265.9,236.6h1.8c0.4-1.1,0.8-2,1.1-2.9l1.5,0.4c-0.4,0.9-0.7,1.7-1.1,2.5h3.5v14h-1.4v-1.4h-4v1.5h-1.4V236.6
		z M271.2,237.9h-4v4.3h4V237.9z M267.3,247.9h4v-4.4h-4V247.9z M272.9,240.2c1.1-1.7,2-3.9,2.8-6.5l1.5,0.4
		c-0.3,0.9-0.6,1.7-0.9,2.5h5.7c-0.1,6-0.3,9.8-0.4,11.4c-0.1,1.8-1,2.8-2.9,2.8c-1.1,0-2.2,0-3.3-0.1c-0.1-0.6-0.2-1.1-0.3-1.6h0.1
		c1.2,0.2,2.2,0.2,3.2,0.2c1.1,0,1.6-0.6,1.7-1.7c0.1-1.7,0.2-5,0.3-9.7h-4.7c-0.5,1.1-1,2.1-1.6,3
		C273.8,240.6,273.4,240.4,272.9,240.2z M274.4,241.4l1.1-0.8c1.3,1.5,2.3,2.9,3.1,4l-1.3,0.9C276.5,244.1,275.5,242.8,274.4,241.4z
		"/>
	<path class="st4" d="M284.1,242.8h6.7v8.1h-1.3v-1.2h-4v1.2h-1.3V242.8z M289.4,244.1h-4v4.5h4V244.1z M285.8,234.4h12.1v7h-1.4
		v-0.6h-9.3v0.6h-1.4V234.4z M296.5,235.7h-9.3v3.9h9.3V235.7z M292.9,242.8h6.7v8.1h-1.3v-1.2h-4v1.2h-1.3V242.8z M298.3,244.1h-4
		v4.6h4V244.1z"/>
	<path class="st4" d="M306.8,250.8h-1.3v-6.6h-1.9c0,3-0.5,5.3-1.4,6.9c-0.3-0.3-0.7-0.7-1.1-1c0.8-1.3,1.2-3.3,1.2-5.9v-9.8h1.3
		v5.2h1.8v-5.7h1.3v5.7h1.3v1.1h-4.3v2.5h3.2V250.8z M307.4,246.5h2.1c-0.2-0.3-0.5-0.6-0.8-0.9c1.2-0.6,2.1-1.4,2.7-2.1h-2.8v-7.8
		h3c0.2-0.6,0.5-1.2,0.7-2l1.4,0.4c-0.3,0.6-0.5,1.1-0.7,1.5h4.5v8.4h-1.2v-0.6h-3.3c-0.5,1.1-1.5,2.1-3.1,3.1h3.5v-2.2h1.3v2.2h4
		v1.2h-4v3.2h-1.3v-3.2h-6V246.5z M309.8,238.9h2.5v-2.2h-2.5V238.9z M312.4,240h-2.5v2.2h2.1C312.2,241.7,312.3,240.9,312.4,240z
		 M313.3,242.2h2.9V240h-2.7C313.5,240.9,313.5,241.6,313.3,242.2z M316.2,236.7h-2.6v2.2h2.6V236.7z"/>
	<path class="st4" d="M336.6,249.5c-0.4,0.6-0.8,1.1-1,1.5c-3.8-0.8-6.4-2.3-7.7-4.6c-1.1,2.4-3.8,4-7.9,4.7
		c-0.2-0.4-0.5-0.8-0.9-1.3c3.9-0.5,6.4-1.8,7.4-3.7h-7v-1.2h7.5c0.1-0.4,0.2-0.9,0.3-1.4h1.4c-0.1,0.5-0.2,1-0.3,1.4h7.8v1.2h-7.2
		C330.4,248,333,249.2,336.6,249.5z M319.3,241.9h7.9v-1.7h-6.5V239h6.5v-1.6h-7.5v-1.2h5.5c-0.6-0.5-1.4-1.1-2.3-1.9l0.8-0.9
		c1,0.7,1.9,1.3,2.5,1.8l-0.9,0.9h4.7l-0.7-0.7c0.9-0.6,1.8-1.3,2.5-2l1,1c-0.8,0.6-1.6,1.1-2.4,1.7h5.7v1.2h-7.5v1.6h6.6v1.2h-6.6
		v1.7h7.9v1.2h-17.2V241.9z"/>
	<path class="st4" d="M337.5,236.7h3.6c-0.4-0.7-0.8-1.4-1.4-2.2l1-0.7c0.6,0.8,1.1,1.6,1.5,2.2l-1.1,0.6h7.6c0.7-1,1.4-2.1,2-3.2
		l1.3,0.7c-0.7,1-1.3,1.8-1.8,2.5h3.9v1.2h-4.5c1.4,1.6,3,2.7,4.9,3.3c-0.4,0.5-0.7,0.9-0.9,1.2c-0.8-0.3-1.6-0.7-2.3-1.2h-11
		c-0.8,0.6-1.6,1.2-2.5,1.6c-0.2-0.2-0.5-0.6-0.9-1.1c2-0.9,3.6-2.2,5-3.8h-4.6V236.7z M340.1,246.3h11.9v4.7h-1.3v-0.7h-9.3v0.7
		h-1.3V246.3z M340.3,242.2h11.4v1h-11.4V242.2z M340.3,244.2h11.4v1h-11.4V244.2z M350.6,247.3h-9.3v1.8h9.3V247.3z M344.7,238.8
		l1.1-0.5c0.3,0.7,0.6,1.3,0.9,1.8h3.5c-0.7-0.6-1.3-1.4-1.8-2.2h-4.8c-0.6,0.8-1.3,1.6-2,2.2h3.7
		C345.2,239.7,344.9,239.2,344.7,238.8z M344.4,234l1.1-0.5c0.5,0.9,0.9,1.7,1.2,2.5l-1.2,0.5C345.2,235.6,344.8,234.8,344.4,234z"
		/>
	<path class="st4" d="M363.4,234.1l1.3-0.6c0.4,0.6,0.8,1.3,1.2,2.1h6.5v1.2h-14v5.3c0,4-0.8,7-2.3,9c-0.3-0.4-0.6-0.8-1-1.2
		c1.3-1.6,1.9-4.2,2-7.9v-6.4h7.3C364,235.1,363.7,234.6,363.4,234.1z M359.2,245.2V244h11v1.1c-1.1,1.1-2.3,2.1-3.7,3
		c1.7,0.7,3.7,1.1,6,1.3l-0.7,1.4c-2.6-0.4-4.8-1-6.7-1.9c-2,1-4.2,1.7-6.7,2.1c-0.2-0.4-0.4-0.8-0.7-1.3c2.3-0.4,4.4-0.9,6.1-1.6
		c-1.3-0.8-2.3-1.8-3.1-3H359.2z M358.7,238.7h2.6v-1.5h1.3v1.5h5v-1.5h1.3v1.5h3.2v1.2H369v3.4h-1.3v-0.6h-5v0.6h-1.3v-3.4h-2.6
		V238.7z M368.4,245.2h-6.3c0.8,0.9,1.8,1.7,3,2.3C366.4,246.9,367.5,246.1,368.4,245.2z M362.6,241.5h5v-1.6h-5V241.5z"/>
	<path class="st4" d="M376.3,246.2c0.6,0,1.1,0.2,1.5,0.7s0.6,1,0.6,1.6c0,0.7-0.2,1.2-0.6,1.6s-0.9,0.6-1.5,0.6s-1.1-0.2-1.6-0.6
		c-0.4-0.4-0.7-1-0.7-1.6c0-0.7,0.2-1.2,0.7-1.6S375.7,246.2,376.3,246.2z M376.3,249.4c0.2,0,0.4-0.1,0.6-0.3s0.3-0.4,0.3-0.7
		c0-0.3-0.1-0.5-0.3-0.7c-0.2-0.2-0.4-0.3-0.7-0.3c-0.3,0-0.5,0.1-0.7,0.3c-0.2,0.2-0.3,0.4-0.3,0.7c0,0.3,0.1,0.5,0.3,0.7
		S376,249.4,376.3,249.4z"/>
</g>
<g>
	<path class="st5" d="M262.4,187.7h-9.8l0.7-2h3.8l5-13.8l-4.4,1.2l0.8-2.1l6.8-1.9l-6,16.6h3.8L262.4,187.7z"/>
	<path class="st5" d="M268,179c1.2-3.2,2.5-5.6,4.1-7.3c1.6-1.6,3.3-2.5,5.2-2.5c3.6,0,4.3,3.1,2,9.3c-1.1,3.1-2.5,5.4-4.1,7
		c-1.6,1.6-3.3,2.4-5.2,2.4c-1.7,0-2.8-0.8-3.2-2.3C266.6,184.2,266.9,181.9,268,179z M270.2,178.9c-1.8,4.8-1.5,7.2,0.8,7.2
		c2.3,0,4.3-2.4,6.1-7.3c1.8-5.1,1.7-7.6-0.6-7.6C274.2,171.2,272.1,173.8,270.2,178.9z"/>
	<path class="st5" d="M281.2,179c1.2-3.2,2.5-5.6,4.1-7.3c1.6-1.6,3.3-2.5,5.2-2.5c3.6,0,4.3,3.1,2,9.3c-1.1,3.1-2.5,5.4-4.1,7
		c-1.6,1.6-3.3,2.4-5.2,2.4c-1.7,0-2.8-0.8-3.2-2.3C279.8,184.2,280.1,181.9,281.2,179z M283.4,178.9c-1.8,4.8-1.5,7.2,0.8,7.2
		c2.3,0,4.3-2.4,6.1-7.3c1.8-5.1,1.7-7.6-0.6-7.6C287.4,171.2,285.3,173.8,283.4,178.9z"/>
	<path class="st5" d="M294.4,179c1.2-3.2,2.5-5.6,4.1-7.3c1.6-1.6,3.3-2.5,5.2-2.5c3.6,0,4.3,3.1,2,9.3c-1.1,3.1-2.5,5.4-4.1,7
		c-1.6,1.6-3.3,2.4-5.2,2.4c-1.7,0-2.8-0.8-3.2-2.3C293,184.2,293.4,181.9,294.4,179z M296.7,178.9c-1.8,4.8-1.5,7.2,0.8,7.2
		c2.3,0,4.3-2.4,6.1-7.3c1.8-5.1,1.7-7.6-0.6-7.6C300.7,171.2,298.5,173.8,296.7,178.9z"/>
	<path class="st5" d="M319.9,181.1h-4.8l-1.8,5.1h-1.7l1.8-5.1h-4.8l0.7-1.8h4.8l1.8-5.1h1.7l-1.8,5.1h4.8L319.9,181.1z"/>
</g>
<g>
	<path class="st5" d="M425.6,186.7c1.9-2.1,3.6-5.2,5.2-9.4l1.6,0.1c-0.6,1.5-1.2,2.9-1.9,4.2c0.1,1.2,0.4,2.2,1,2.9l3.2-8.7h-5.1
		l0.6-1.7h4.4l1.2-3.4h-3.6l0.6-1.7h3.6l1.2-3.3h1.7l-1.2,3.3h3.3l-0.6,1.7h-3.3l-1.2,3.4h3.6l-0.6,1.7h-3l-1.3,3.6h3.2l-0.6,1.7
		h-3.1l-1.6,4.4c0.9,0.5,2,0.7,3.4,0.7c2.8,0,6.6,0,11.4-0.1c-0.5,0.7-1,1.3-1.3,1.9c-4.4,0-8.2,0-11.3-0.1
		c-3.5-0.1-5.4-1.4-5.8-4.1c-1.2,2-2.4,3.7-3.6,5C425.7,188.2,425.7,187.5,425.6,186.7z M440.5,176.6h9.2l-3.1,8.4H445l0.4-1h-5.9
		l-0.4,1.1h-1.6L440.5,176.6z M447.5,178.1h-5.9l-1.5,4.2h5.9L447.5,178.1z M442.3,168.4l0.6-1.6h10.5c-0.9,2.1-1.6,3.9-2.3,5.4
		c-0.8,1.8-2,2.7-3.6,2.8c-0.8,0-1.7,0-2.7-0.1c0.1-0.6,0.2-1.2,0.4-1.9c1,0.2,1.9,0.3,2.7,0.3c0.8,0,1.5-0.5,1.9-1.5
		c0.4-0.9,0.9-2,1.4-3.4H447c-1.4,3.5-3.5,6-6.4,7.4c-0.1-0.5-0.3-1-0.5-1.5c2.5-1.2,4.2-3.2,5.3-5.9H442.3z"/>
	<path class="st5" d="M457.6,186.3l5.9,0.1l6.8-0.2c-0.5,0.6-0.9,1.2-1.4,1.9l-6.5,0.1l-5.6-0.1c-2.5,0-4-0.9-4.6-2.7
		c-0.5,0.3-1.7,1.3-3.6,3l-0.2-2c1.5-1.1,2.8-2,3.6-2.6l2.9-8.1h-2.6l0.6-1.7h4.2l-3.7,10.2C454.1,185.5,455.4,186.2,457.6,186.3z
		 M458,165.9c0.5,1.2,1.1,2.6,1.6,4.4c-0.7,0.4-1.4,0.7-2,1.1c-0.4-1.7-0.8-3.2-1.3-4.5L458,165.9z M459.9,174.8l1.7-1.1
		c0.8,2.2,1.4,3.9,1.8,5.1l-2,1.2C461,178.1,460.5,176.4,459.9,174.8z M460.7,170.3h9.4l1.6-4.5h1.8l-1.6,4.5h3.8l-0.6,1.7h-3.8
		l-3.5,9.7c-0.7,2-2,3-3.8,3c-1,0-2.1,0-3.3,0c0.1-0.6,0.3-1.3,0.4-2.1c1.1,0.1,2.2,0.2,3.2,0.2c0.9,0,1.6-0.5,1.9-1.6l3.3-9.2H460
		L460.7,170.3z"/>
	<path class="st5" d="M473.7,182.9c0.9,0.8,1.9,1.2,3.1,1.2c1.2,0,2.2-0.3,3.2-1c1-0.7,1.7-1.6,2.1-2.8c0.4-1.2,0.4-2.1-0.1-2.7
		c-0.5-0.6-1.4-1-2.8-1c-0.7,0-1.6,0.1-2.8,0.2l3.4-9.2h8.4l-0.7,2H481l-1.9,5.1c0.7,0,1.1-0.1,1.5-0.1c1.8,0,3,0.5,3.7,1.5
		c0.7,1,0.7,2.3,0,4c-0.6,1.8-1.7,3.2-3.2,4.3c-1.5,1.1-3.2,1.6-5.1,1.6c-1.6,0-2.7-0.2-3.3-0.7L473.7,182.9z"/>
	<path class="st5" d="M487.2,177.4c3.3-3.2,6.4-7,9.3-11.6l1.6,0.6c-1.3,1.9-2.6,3.7-3.9,5.4l-6.2,16.9h-1.7l4.8-13.3
		c-1.3,1.5-2.6,2.8-3.9,4.1C487.3,178.8,487.3,178.1,487.2,177.4z M506.6,179.5c0.3,0.2,0.8,0.4,1.6,0.7c-0.8,1.7-1.5,3.2-2.2,4.5
		c-1,2-2.7,3-5,3c-2.4,0.1-4.6,0.1-6.7,0c-1.9-0.1-2.9-0.8-2.8-2c0.1-1.2,1.1-2.8,3.1-4.8c2-1.9,6.3-5.7,13.2-11.5h-9.8l0.7-1.9h12
		l-0.8,2.2c-5.1,4.1-9.5,8-13.5,11.5c-1.9,1.8-2.9,3-2.9,3.6c-0.2,0.7,0.5,1,2.1,1.1c1.8,0.1,3.5,0.1,5.4,0c1.1,0,1.8-0.2,2.2-0.5
		c0.5-0.3,0.9-0.8,1.3-1.6C505.1,183,505.7,181.5,506.6,179.5z"/>
	<path class="st5" d="M514.9,175.9c0.5,0.5,0.9,1,1.3,1.3c-3.2,3.6-5.8,6.6-7.9,9.2l-1.3-1.2C509.3,182.7,512,179.6,514.9,175.9z
		 M525.7,172.7c-0.3,0.8-0.6,1.6-0.9,2.3c-1,5.3,0.2,9.2,3.6,11.8c-0.9,0.7-1.6,1.3-2.1,1.8c-2.7-2.8-3.8-6.2-3.4-10.2
		c-2.5,4.4-6.5,7.9-11.8,10.5c-0.1-0.5-0.3-1-0.6-1.7c5.4-2.5,9.3-6.1,11.7-10.7c0.6-1.1,1.2-2.4,1.8-3.9H525.7z M515.4,167.3
		c0.7,1.3,1.5,2.8,2.3,4.7l-1.9,1.4c-0.7-2-1.4-3.6-2.1-4.9L515.4,167.3z M527.5,175.8c1.1-1.3,2.2-2.7,3.3-4.2h-8.7
		c-1.2,1.6-2.5,3-3.8,4.5c-0.4-0.4-0.8-0.7-1.2-1c2.8-3,5.2-6.1,7.1-9.3l1.6,0.5c-0.8,1.2-1.6,2.4-2.5,3.6h9.9l-0.6,1.7
		c-1.2,1.7-2.5,3.4-3.8,4.9C528.5,176.2,528.1,176,527.5,175.8z"/>
</g>
</svg>
