<?xml version="1.0" encoding="utf-8"?>
<!-- Generator: Adobe Illustrator 21.0.0, SVG Export Plug-In . SVG Version: 6.00 Build 0)  -->
<svg version="1.1" id="图层_1" xmlns="http://www.w3.org/2000/svg" xmlns:xlink="http://www.w3.org/1999/xlink" x="0px" y="0px"
	 viewBox="0 0 774 213" style="enable-background:new 0 0 774 213;" xml:space="preserve">
<style type="text/css">
	.st0{fill:#F68601;}
	.st1{fill:#FFFFFF;stroke:#FFFFFF;stroke-width:2;stroke-miterlimit:10;}
	.st2{font-family:'MicrosoftYaHei';}
	.st3{font-size:46px;}
	.st4{fill:#FFFFFF;}
	.st5{font-size:18px;}
	.st6{fill:#020202;}
	.st7{font-size:20.8376px;}
	.st8{font-size:28px;}
	.st9{font-size:29.797px;}
	.st10{fill:none;stroke:#FFFFFF;stroke-width:0.5;stroke-miterlimit:10;}
	.st11{fill:#F68601;stroke:#F68601;stroke-width:0.5;stroke-miterlimit:10;}
	.st12{font-size:24px;}
	.st13{font-size:22px;}
	.st14{fill:#E67E04;}
	.st15{fill:none;}
	.st16{fill:#FFFFFF;stroke:#FFFFFF;stroke-width:0.5;stroke-miterlimit:10;}
	.st17{fill:#E67E04;stroke:#E67E04;stroke-width:0.5;stroke-miterlimit:10;}
</style>
<path class="st0" d="M144,142h267.5L388,178H120.5L144,142z"/>
<path class="st0" d="M74.4,99h67.1l-11.9,32H62.5L74.4,99z"/>
<text transform="matrix(1 0 0 1 2 48.5047)" class="st1 st2 st3">易职信，企业都爱用的简历背调APP！</text>
<rect x="3" y="113" class="st4" width="8" height="8"/>
<rect x="3" y="156" class="st4" width="8" height="8"/>
<text transform="matrix(1 0 0 1 25.5425 122.8611)" class="st4 st2 st5">国内</text>
<text transform="matrix(1 0 0 1 61.5425 123.7254)" class="st6 st2 st5"> </text>
<text transform="matrix(1 0 0 1 66.8425 123.7254)" class="st6 st2 st7"> </text>
<text transform="matrix(1 0 0 1 73.0425 123.7254)" class="st6 st2 st8">        </text>
<text transform="matrix(1 0 0 1 139.3425 122.8611)" class="st4 st2 st5">在线实时核验应聘人员职业背景信息的</text>
<text transform="matrix(0.9397 0 -0.342 0.9397 70.4649 125.0625)" class="st4 st2 st9">首款</text>
<text transform="matrix(0.9397 0 -0.342 0.9397 70.4649 125.0625)" class="st10 st2 st9">首款</text>
<text transform="matrix(0.9397 0 -0.342 0.9397 446.5962 123.8888)" class="st11 st2 st12">职业信用风控平台。</text>
<text transform="matrix(1 0 0 1 26 166.6357)" class="st4 st2 st5">易职信通过</text>
<text transform="matrix(1 0 0 1 116 167.5)" class="st2 st8">                                    </text>
<text transform="matrix(1 0 0 1 414.3 166.6357)" class="st4 st2 st5">的模式为企业提供</text>
<text transform="matrix(1 0 0 1 558.3 167.5)" class="st2 st13"> </text>
<text transform="matrix(1 0 0 1 564.8 167.5)" class="st14 st2 st13">                           </text>
<text transform="matrix(1 0 0 1 740.5 167.5)" class="st4 st2 st13"> </text>
<text transform="matrix(1 0 0 1 747 166.6357)" class="st4 st2 st5">的</text>
<text transform="matrix(1 0 0 1 26 207.0357)" class="st4 st2 st5">应聘人员背景核验服务。</text>
<polygon class="st15" points="411.2,239.2 96.7,239.2 129.7,148.6 444.2,148.6 "/>
<text transform="matrix(0.9397 0 -0.342 0.9397 120.9398 170.5743)" class="st16 st2 st9">“SaaS服务+结合AI”</text>
<polygon class="st15" points="866.1,257.5 529.4,257.5 569.2,148.1 905.9,148.1 "/>
<text transform="matrix(0.9397 0 -0.342 0.9397 562.3116 166.9939)" class="st17 st2 st12">专业、高效、低价</text>
</svg>
