<?xml version="1.0" encoding="utf-8"?>
<!-- Generator: Adobe Illustrator 21.0.0, SVG Export Plug-In . SVG Version: 6.00 Build 0)  -->
<svg version="1.1" id="图层_1" xmlns="http://www.w3.org/2000/svg" xmlns:xlink="http://www.w3.org/1999/xlink" x="0px" y="0px"
	 viewBox="0 0 774 213" style="enable-background:new 0 0 774 213;" xml:space="preserve">
<style type="text/css">
	.st0{fill:#F68601;}
	.st1{enable-background:new    ;}
	.st2{fill:#FFFFFF;stroke:#FFFFFF;stroke-width:2;stroke-miterlimit:10;}
	.st3{fill:#FFFFFF;}
	.st4{font-family:'MicrosoftYaHei';}
	.st5{font-size:18px;}
	.st6{fill:#020202;}
	.st7{font-size:20.8376px;}
	.st8{font-size:28px;}
	.st9{font-size:29.797px;}
	.st10{fill:#FFFFFF;stroke:#FFFFFF;stroke-width:0.5;stroke-miterlimit:10;}
	.st11{fill:#FC933D;stroke:#FC933D;stroke-width:0.5;stroke-miterlimit:10;}
	.st12{font-size:22px;}
	.st13{fill:#E67E04;}
	.st14{fill:none;}
	.st15{font-size:24px;}
</style>
<path class="st0" d="M144,142h267.5L388,178H120.5L144,142z"/>
<path class="st0" d="M74.4,99h67.1l-11.9,32H62.5L74.4,99z"/>
<g class="st1">
	<path class="st2" d="M2.8,40.7c4.8-2.6,8.8-6.1,12.2-10.6l3.2,1.2c-0.6,0.8-1.2,1.6-1.8,2.3h27.9c-0.3,5.7-0.6,10-0.9,13.1
		C43,51.6,40.6,54,36.1,54c-2.5,0-5.1,0-7.8,0c-0.2-1.3-0.4-2.6-0.7-3.8c2.6,0.2,5.1,0.4,7.5,0.4c2.8,0,4.4-1.4,4.7-4.2
		c0.3-2.7,0.6-5.9,0.7-9.6h-6.9c-1.8,7.9-7.1,13.9-15.9,18.1c-0.8-1-1.6-2-2.5-3.1c8.4-3.4,13.4-8.5,15-15.1h-6.8
		c-2.2,6.4-8,11.4-17.3,15c-0.8-1-1.6-2-2.5-3c8.8-3.3,14.2-7.3,16.1-12h-6.1c-2.5,2.6-5.4,4.8-8.5,6.8C4.4,42.6,3.7,41.7,2.8,40.7z
		 M8.6,12.4h33.1v18.7h-3.5v-1.8H8.6V12.4z M38.2,15.6H12.1v3.7h26.1V15.6z M12.1,26.2h26.1v-3.8H12.1V26.2z"/>
	<path class="st2" d="M49.4,13.3h19.3v3.1h-3.1V41c1.1-0.3,2.2-0.6,3.3-0.9c0,1.4,0,2.6,0,3.5c-1.1,0.2-2.2,0.5-3.3,0.7v9.8h-3.3v-9
		c-4.2,1-8.4,2-12.7,3.1l-0.7-3.5l3-0.6V16.5h-2.5C49.4,16.5,49.4,13.3,49.4,13.3z M55.2,23h7.1v-6.5h-7.1V23z M55.2,32.6h7.1v-6.5
		h-7.1V32.6z M62.2,41.8v-6h-7.1v7.6C57.5,42.9,59.9,42.3,62.2,41.8z M75,39.5l3.3,1.7c-2.7,5-5.3,9.3-7.9,13
		c-1-0.8-2.1-1.4-3.1-1.8C70.2,48.3,72.7,44,75,39.5z M70.6,13.7h19.3v23.8h-3.3v-2.6H73.9v2.6h-3.3V13.7z M86.5,16.9H73.9v14.7
		h12.6V16.9z M85.4,39.2c2.6,3.9,5.2,8.2,7.8,13l-3.1,2c-2.4-4.5-5-8.9-7.8-13.2L85.4,39.2z"/>
	<path class="st2" d="M94.6,32c4.4-6.5,7.7-13.7,9.9-21.7l3.5,1c-1.3,4-2.7,7.7-4.3,11.1v32.2h-3.3V29c-1.4,2.4-2.8,4.6-4.4,6.6
		C95.6,34.4,95.1,33.1,94.6,32z M107.6,16.4h14.7c-0.9-1.5-1.8-3.1-2.8-4.6l3-1.6c1.1,1.6,2.1,3.3,3.2,5.1l-2,1h15.5v3.1h-31.6
		L107.6,16.4L107.6,16.4z M110,23.7h26.5v3.1H110V23.7z M110,30.9h26.5V34H110V30.9z M110.5,38.2h25.6v16.4h-3.5v-2.7H114v2.7h-3.5
		V38.2z M132.6,41.2H114v7.6h18.6V41.2z"/>
	<path class="st2" d="M165.4,42.9l-3.8,12h-3.1l2.8-12H165.4z"/>
	<path class="st2" d="M212.4,10.7l-0.9,1.2c4.7,6.2,11.3,11,19.9,14.4c-0.7,1-1.5,2.2-2.5,3.9c-8.2-4.1-14.8-9.3-19.8-15.5
		c-4.7,6.1-11.5,11.6-20.3,16.5c-0.8-1.1-1.6-2.4-2.6-3.7c9.1-4.2,16.2-9.8,21.3-16.8C207.5,10.7,212.4,10.7,212.4,10.7z
		 M188.7,49.2h6.1V31.8h3.7v17.4h9.3V24.1h3.7V34h13.7v3.3h-13.7v11.9h18v3.3h-40.8V49.2z"/>
	<path class="st2" d="M232.9,48.2h14.4V11.1h3.8v37.1h7.9V11.1h3.8v37.1h14.6v3.3H233v-3.3H232.9z M238.1,19.9
		c2.5,5.8,4.8,11.9,7.1,18.4l-3.7,1.7c-2-6.3-4.3-12.5-6.7-18.6L238.1,19.9z M264.3,38.7c3-6.3,5.5-12.5,7.5-18.4l3.6,1.4
		c-2.8,7.2-5.4,13.3-8,18.5L264.3,38.7z"/>
	<path class="st2" d="M278.9,25.3h9.7v-5.9h-8.1v-3h8.1v-6.1h3.2v6.1h6.6v3h-6.6v5.9h2.3c3.1-3.2,5.6-6.7,7.7-10.5l3.1,1.7
		c-1.9,3.1-4.1,6-6.5,8.8h6.7v3h-9.4c-1.7,1.7-3.5,3.4-5.3,4.9h11.5v21h-3.2v-2.7H287v2.7h-3.2V38.1c-1,0.7-2.1,1.4-3.1,2
		c-0.6-0.9-1.3-1.9-2.2-3c4.7-2.6,8.9-5.5,12.5-8.8h-12.2v-3H278.9z M298.5,36.1H287V41h11.5V36.1z M287,48.7h11.5v-4.9H287V48.7z
		 M316.9,28.3c4,3.3,6,7.2,6.1,11.8c0,4.8-2,7.4-5.9,7.9c-1.5,0.2-3.5,0.1-6-0.2c-0.1-1.1-0.3-2.4-0.6-3.9c2.1,0.4,3.7,0.6,5,0.6
		c2.9,0,4.2-1.9,3.9-5.6c-0.1-2.9-2.3-6.3-6.6-10c1.6-3.3,3.6-7.5,5.8-12.8h-8.8v38.3h-3.3V13h15.7v3.5
		C320.6,20.5,318.8,24.4,316.9,28.3z"/>
	<path class="st2" d="M325.6,30.2H339c0.5-1.2,0.9-2.4,1.3-3.7h3.8c-0.4,1.3-0.9,2.5-1.3,3.7h26v3.1h-27.4c-0.6,1.3-1.2,2.5-1.9,3.6
		h23.9V40c-2.5,3-5.8,5.5-9.7,7.7c4.5,1.5,9.6,2.4,15.5,2.8c-0.8,1.3-1.5,2.6-2.1,3.7c-6.9-0.8-12.7-2.3-17.6-4.4
		c-5.2,2.2-11.3,3.8-18.3,4.9c-0.6-1-1.3-2-2.1-3.1c6.4-0.8,11.9-2.1,16.5-3.8c-3.5-2-6.3-4.5-8.4-7.5c-3,4.4-6.8,8.2-11.2,11.4
		c-0.6-1.1-1.2-2.2-1.9-3.3c5.9-4,10.3-9.1,13.4-15.2h-12.1v-3H325.6z M343.5,16.9l2.4-1.3c-3.7,0.1-7.5,0.2-11.5,0.3
		c1.4,1.4,2.7,2.9,4,4.6l-2.6,1.8H358l-2-1.4c1.4-1.8,2.8-3.7,4-5.8l3.3,1.8c-1.3,1.9-2.6,3.7-4,5.3h8V29h-3.5v-3.7h-33.6V29h-3.5
		v-6.8h8.6c-1.2-1.6-2.4-3.2-3.8-4.8l2.4-1.6c-2,0-4,0.1-6.1,0.1c-0.1-1-0.4-2-0.6-3.2c14.4-0.1,27.5-0.5,39.3-1.3l0.5,3.2
		c-6.1,0.3-12.9,0.6-20.4,0.8c1.3,1.6,2.6,3.3,3.7,4.9l-3.1,1.7C346,20.1,344.8,18.4,343.5,16.9z M358.7,40.1h-17.6
		c2.4,2.5,5.3,4.5,8.8,6.2C353.5,44.5,356.4,42.5,358.7,40.1z"/>
	<path class="st2" d="M392.2,53.8V39.5h-13.1c-0.5,6.2-2.3,11.4-5.4,15.5c-0.8-1-1.7-2-2.7-3.1c1.9-2.8,3.3-5.8,4-9.2
		c0.7-3.2,1-7.8,1-13.7V13h36.6v35.7c0,3.6-1.7,5.3-5.1,5.3c-2.1,0-4.4,0-7-0.1c-0.1-1-0.4-2.2-0.7-3.7c2.6,0.2,4.7,0.3,6.3,0.3
		c1.9,0,2.8-0.9,2.8-2.7v-8.3h-13.2v14.3H392.2z M379.4,36.3h12.8v-8.4h-12.6C379.7,30.8,379.6,33.6,379.4,36.3z M379.6,16.3v8.4
		h12.6v-8.4H379.6z M409,16.3h-13.2v8.4H409V16.3z M395.8,36.3H409v-8.4h-13.2V36.3z"/>
	<path class="st2" d="M418.6,17.7h4.5c1.1-2.7,2-5.2,2.7-7.5l3.8,1.1c-0.9,2.3-1.9,4.4-2.7,6.4h9v35.8h-3.6V50h-10.1v3.8h-3.6
		L418.6,17.7L418.6,17.7z M432.3,21.1h-10.1V32h10.1V21.1z M422.2,46.6h10.1V35.2h-10.1V46.6z M436.5,26.9c2.8-4.5,5.2-10,7.1-16.7
		l3.8,0.9c-0.8,2.3-1.5,4.4-2.3,6.4h14.5c-0.4,15.4-0.7,25.1-0.9,29.1c-0.2,4.7-2.7,7.1-7.4,7.1c-2.7,0-5.5-0.1-8.3-0.3
		c-0.2-1.5-0.4-2.8-0.7-4h0.1c3,0.4,5.7,0.6,8.2,0.6c2.7,0,4.2-1.4,4.4-4.3c0.3-4.5,0.6-12.7,0.7-24.8h-12c-1.3,2.9-2.7,5.4-4,7.6
		C438.8,28,437.8,27.5,436.5,26.9z M440.5,30l2.7-2c3.3,3.9,6,7.3,8,10.2l-3.3,2.3C445.7,37,443.3,33.5,440.5,30z"/>
	<path class="st2" d="M471.4,10.3h3.8c-0.7,1.5-1.5,2.9-2.3,4.2h12.8v2.8H471c-1.8,2.5-3.8,4.8-6,6.8c-0.6-0.7-1.4-1.5-2.3-2.4
		C466.3,18.4,469.2,14.6,471.4,10.3z M466.1,28.4h3.3v26.1h-3.3V28.4z M468.6,23.5l2.2-1.9c1.9,1.6,3.6,3.3,5.2,5l-2.5,2.3
		C472,27.1,470.4,25.3,468.6,23.5z M477.6,23.8c-1.1-1.5-2.3-3-3.5-4.4l2.3-1.7c1.3,1.3,2.6,2.6,3.9,4.1L477.6,23.8z M475.6,31h18.9
		v16.8h-15.8v1.8h-3.1V31z M478.5,26.9V24h25.7v24.6c0,3.9-1.9,5.8-5.8,5.8c-1.8,0-3.6,0-5.4-0.1c-0.1-0.9-0.3-2-0.7-3.4
		c2.2,0.2,4.1,0.3,5.9,0.3s2.7-0.9,2.7-2.7V26.9H478.5z M491.4,33.7h-12.6V38h12.6V33.7z M478.8,45.1h12.6v-4.4h-12.6V45.1z
		 M490.9,10.3h3.8c-0.7,1.5-1.4,2.9-2.2,4.2h14.3v2.8h-16c-1.3,2.1-2.8,4.1-4.3,6c-0.8-0.6-1.8-1.2-2.9-1.9
		C486.4,18.2,488.8,14.5,490.9,10.3z M496.7,23.8c-0.6-0.9-1.8-2.4-3.6-4.6l2.3-1.7c1.6,1.6,2.9,3,4,4.2L496.7,23.8z"/>
	<path class="st2" d="M517.5,28.6c0,6.6-0.5,11.7-1.3,15.2c-0.9,3.7-2.5,7.2-4.9,10.7c-0.7-1-1.6-2-2.7-3.1c2-2.9,3.4-5.9,4.1-8.8
		c0.7-2.9,1-7.3,1-13.2V13.2h39.2v3.5h-35.4V28.6z M520,26.3h9.8c0.1-2.7,0.1-5.4,0.1-8.2h3.8c0,2.7-0.1,5.5-0.2,8.2h16.2
		c-0.4,8-0.7,14.5-1,19.7c-0.5,4.6-2.8,6.9-7,7c-2.2,0-4.9-0.1-7.9-0.2c-0.1-1.1-0.4-2.5-0.7-4c3,0.3,5.6,0.5,7.9,0.5
		c2.4,0,3.8-1.4,4.1-4.1c0.3-4.3,0.6-9.4,0.8-15.4h-12.5c-0.3,6.1-1.2,10.7-2.8,13.7c-2.2,4.1-6.1,7.8-11.7,11.1
		c-0.8-1-1.7-2-2.7-3.1c5.5-3.4,9.1-6.7,10.8-9.8c1.6-2.8,2.4-6.8,2.7-11.9H520V26.3z"/>
	<path class="st2" d="M554.9,23.4c5.3-0.8,10-1.6,14.3-2.5v-3.1h-13.1V15h13.1v-4.6h3.4v17h-3.4V24c-4.7,0.9-9.2,1.9-13.5,2.7
		L554.9,23.4z M564.7,54.3h-3.5V29.6H593v19c0,3.7-2,5.5-6,5.5c-2.7,0-5.6-0.1-8.8-0.2c-0.2-1-0.4-2.3-0.7-3.6
		c2.9,0.2,5.9,0.3,8.8,0.3c2.1,0,3.1-0.9,3.1-2.7v-2.1h-24.7L564.7,54.3L564.7,54.3z M589.4,32.6h-24.7v3.7h24.7V32.6z M564.7,42.9
		h24.7v-3.7h-24.7V42.9z M579.8,10.4h3.4v6.4c4.3-1.1,8.7-2.3,13.2-3.8l1.2,3c-5,1.3-9.8,2.5-14.4,3.6v1.8c0,1.8,0.9,2.7,2.8,2.7h6
		c1.8,0,2.8-0.5,3-1.6c0.3-1,0.6-2.4,0.8-4.4c0.9,0.4,2,0.8,3.3,1.3c-0.4,2-0.8,3.5-1.2,4.7c-0.7,2-2.4,3-5.1,3h-7.5
		c-3.7,0-5.6-1.8-5.6-5.3L579.8,10.4L579.8,10.4z"/>
	<path class="st2" d="M614,38c0.1,1.3,0.2,2.7,0.3,3.9c-3.1,2.3-5.8,4.4-8.1,6.4l-2.1-2.9c1-1.1,1.5-2.4,1.5-4V27.6h-4.9v-3.1h8.2
		V42C610.5,40.8,612.2,39.5,614,38z M606.2,11.2c2,2,4.3,4.3,6.7,7.1l-3,2.5c-2.3-3-4.4-5.4-6.3-7.4L606.2,11.2z M618.7,16.1v18.5
		c0,8.8-2.4,15.4-7.1,20c-0.7-1.1-1.5-2-2.3-2.9c4.1-4,6.2-9.5,6.2-16.8V13h27.7v36c0,3.3-1.5,5-4.6,5c-1.8,0-4.1,0-7.1-0.1
		c-0.1-1.1-0.4-2.3-0.7-3.5c3.2,0.2,5.5,0.3,6.8,0.3c1.5,0,2.2-0.8,2.2-2.4V16.1H618.7z M620.1,28.4h7.5v-4.1h-6.3v-2.9h6.3v-4.3
		h3.2v4.3h6.2v2.9h-6.2v4.1h7.5v2.9H620L620.1,28.4L620.1,28.4z M622.1,35h13.7v11.5h-10.6v2.1h-3.1L622.1,35L622.1,35z M632.7,37.8
		h-7.5v5.7h7.5V37.8z"/>
	<path class="st2" d="M677.8,48.5h-5l-3.5-9.5h-14.5l-3.3,9.5h-5l13.3-34.8h4.8L677.8,48.5z M667.9,35.1l-5.3-14.5
		c-0.2-0.5-0.3-1.3-0.5-2.4H662c-0.2,1-0.4,1.9-0.6,2.4l-5.2,14.5H667.9z"/>
	<path class="st2" d="M687.4,35.5v13h-4.5V13.7h9.9c3.8,0,6.7,0.9,8.7,2.7c2.1,1.8,3.1,4.4,3.1,7.8s-1.2,6.2-3.6,8.3
		c-2.4,2.1-5.5,3.1-9.1,3H687.4z M687.4,17.7v13.9h4.2c2.7,0,4.8-0.6,6.2-1.9c1.4-1.2,2.1-3,2.1-5.3c0-4.5-2.7-6.7-8-6.7H687.4z"/>
	<path class="st2" d="M715.5,35.5v13H711V13.7h9.9c3.8,0,6.7,0.9,8.7,2.7c2.1,1.8,3.1,4.4,3.1,7.8s-1.2,6.2-3.6,8.3
		c-2.4,2.1-5.5,3.1-9.1,3H715.5z M715.5,17.7v13.9h4.2c2.7,0,4.8-0.6,6.2-1.9c1.4-1.2,2.1-3,2.1-5.3c0-4.5-2.7-6.7-8-6.7H715.5z"/>
	<path class="st2" d="M757.7,43.4c0.8,0,1.5,0.3,2,0.8s0.9,1.2,0.9,2s-0.3,1.5-0.9,2c-0.6,0.5-1.2,0.8-2,0.8s-1.5-0.3-2-0.8
		c-0.6-0.5-0.9-1.2-0.9-2s0.3-1.5,0.9-2S756.9,43.4,757.7,43.4z M759.9,13.7l-0.5,24.9h-3.5l-0.5-24.9
		C755.4,13.7,759.9,13.7,759.9,13.7z"/>
</g>
<rect x="3" y="113" class="st3" width="8" height="8"/>
<rect x="3" y="156" class="st3" width="8" height="8"/>
<text transform="matrix(1 0 0 1 25.5425 122.8611)" class="st3 st4 st5">国内</text>
<text transform="matrix(1 0 0 1 61.5425 123.7254)" class="st6 st4 st5"> </text>
<text transform="matrix(1 0 0 1 66.8425 123.7254)" class="st6 st4 st7"> </text>
<text transform="matrix(1 0 0 1 73.0425 123.7254)" class="st6 st4 st8">        </text>
<g class="st1">
	<path class="st3" d="M140,110.1h5.2c0.3-0.7,0.5-1.4,0.8-2.2l1.5,0.4c-0.2,0.6-0.4,1.2-0.7,1.8H157v1.3h-10.8
		c-0.7,1.6-1.5,3-2.4,4.4v9.3h-1.4v-7.4c-0.6,0.8-1.3,1.5-2,2.3c-0.2-0.4-0.5-0.8-0.8-1.3c2.2-2.2,3.9-4.7,5.1-7.3H140V110.1z
		 M144.4,122.6h5.5v-5.3h-4.6V116h4.6v-3.5h1.4v3.5h4.6v1.3h-4.6v5.3h5.6v1.2h-12.6v-1.2H144.4z"/>
	<path class="st3" d="M159.9,118.5c1-0.2,2.3-0.4,3.7-0.6c-0.1,0.4-0.1,0.9-0.2,1.4c-2,0.3-3.7,0.6-5.2,0.8l-0.3-1.3
		c0.8-0.9,1.7-2.1,2.7-3.7c-0.9,0.1-1.8,0.1-2.7,0.2l-0.3-1.2c1.1-1.5,2.2-3.6,3.4-6.3l1.3,0.5c-1.2,2.4-2.2,4.3-3.1,5.6
		c0.7,0,1.4,0,2.1-0.1c0.4-0.7,0.8-1.5,1.3-2.3l1.3,0.7C162.5,114.7,161.1,116.8,159.9,118.5z M157.6,122.6c2.1-0.4,4.1-0.9,6.3-1.5
		c0,0.5-0.1,0.9-0.1,1.3c-2,0.5-3.9,0.9-5.8,1.5L157.6,122.6z M162.9,123.8c2.2-0.8,4.1-1.7,5.7-2.8c-0.4-1.1-0.7-2.3-1-3.8
		l-3.8,0.5l-0.2-1.3l3.8-0.5c-0.1-0.8-0.2-1.7-0.2-2.6l-3.2,0.4l-0.2-1.3l3.3-0.4c-0.1-1.2-0.1-2.6-0.2-4.2h1.4c0,1.5,0.1,2.9,0.1,4
		l5.9-0.7l0.2,1.2l-6,0.7c0,0.9,0.1,1.8,0.2,2.6l6.1-0.9l0.2,1.2l-6.1,0.9c0.2,1.2,0.5,2.3,0.8,3.2c1.2-0.9,2.3-2,3.1-3.1l1.1,0.9
		c-1.1,1.3-2.3,2.4-3.7,3.5c0.5,0.8,1,1.4,1.6,1.9c0.8,0.5,1.3,0.2,1.5-0.7c0.2-0.8,0.3-1.6,0.4-2.5c0.5,0.2,1,0.4,1.4,0.5
		c-0.2,1.3-0.4,2.2-0.6,2.9c-0.3,1-0.9,1.5-1.7,1.5c-0.9,0-1.6-0.4-2.4-1.1c-0.5-0.5-0.9-1-1.3-1.7c-1.6,1-3.4,1.9-5.4,2.7
		C163.5,124.7,163.3,124.3,162.9,123.8z M169.9,108.9l0.8-0.9c0.8,0.5,1.7,1.2,2.7,1.9l-0.8,1C171.5,110.1,170.6,109.4,169.9,108.9z
		"/>
	<path class="st3" d="M175.7,124c4.3-0.8,7.1-2.1,8.3-3.8h-8.1v-1.3h8.7c0.4-1.2,0.6-3.3,0.5-6.4h1.5c0,3-0.2,5.1-0.5,6.4h6.7v1.3
		h-7.2c-0.1,0.2-0.2,0.4-0.3,0.6c2.5,1.1,5,2.1,7.4,3.3l-0.8,1.3c-2.5-1.3-5-2.5-7.4-3.6c-1.6,1.6-4.3,2.8-8,3.6
		C176.2,124.9,176,124.4,175.7,124z M176.3,110.4h8.1c-0.3-0.5-0.7-1.1-1.2-1.8l1.3-0.7c0.4,0.5,0.9,1.2,1.4,2l-1,0.5h7.5v3.1H191
		v-1.8h-13.3v1.8h-1.4V110.4z M178.4,115.2c1.3,0.6,2.6,1.2,3.8,1.9l-0.8,1.2c-1.2-0.7-2.4-1.4-3.7-2L178.4,115.2z M180,112.5
		c1.4,0.7,2.6,1.3,3.7,2l-0.8,1.2c-1.1-0.7-2.3-1.4-3.6-2.1L180,112.5z"/>
	<path class="st3" d="M194.3,109.6h6.1v14.3H199v-1.5h-3.3v1.7h-1.4V109.6z M199,110.9h-3.3v4.4h3.3V110.9z M195.7,121.1h3.3v-4.6
		h-3.3V121.1z M201,111.8h6.2v-3.9h1.4v3.9h2.5v1.3h-2.5v9.5c0,1.6-0.8,2.4-2.2,2.4c-0.7,0-1.7,0-3-0.1c-0.1-0.4-0.2-0.9-0.3-1.5
		c1.2,0.1,2.2,0.1,2.9,0.1c0.8,0,1.2-0.4,1.2-1.2v-9.2H201V111.8z M202.9,114.8c0.9,1.7,1.6,3.1,2.1,4.1c-0.3,0.1-0.8,0.4-1.4,0.7
		c-0.5-1.1-1.1-2.5-2-4.2L202.9,114.8z"/>
	<path class="st3" d="M211.6,119.1c1.3-2,2.1-4.1,2.6-6.4h-2.5v-1.2h2.5V108h1.3v3.5h2v1.2h-2v3.1l0.5-0.6c0.8,0.6,1.4,1.3,2.1,1.9
		l-0.9,0.9c-0.6-0.6-1.2-1.2-1.7-1.7v9h-1.3V116c-0.6,1.9-1.3,3.5-2.1,4.6C212,120.1,211.8,119.6,211.6,119.1z M217.1,120.7
		c2.3-1.2,4.3-2.6,5.9-4.3c-1.1,0.1-2.2,0.2-3.2,0.3c-0.4,0-0.8,0.1-1.2,0.2l-0.7-1.3c0.5-0.3,0.9-0.6,1.1-0.9
		c0.7-0.9,1.5-1.9,2.2-3.1h-3.3v-1.3h5.4c-0.5-0.7-0.9-1.4-1.3-1.9l1.1-0.7c0.4,0.6,1,1.2,1.5,2l-0.9,0.6h5.4v1.3h-6.2
		c-0.9,1.3-1.7,2.5-2.7,3.7c1.3-0.1,2.6-0.1,3.9-0.2c0.7-0.8,1.3-1.7,1.8-2.7l1.3,0.7c-2,3.5-5,6.4-9,8.6
		C217.8,121.4,217.5,121.1,217.1,120.7z M217.7,124.2c4-1.7,7.3-4.4,9.9-8.3l1.2,0.8c-1,1.5-2.1,2.8-3.3,3.9
		c1.3,1.1,2.6,2.2,3.8,3.2l-1.1,1.1c-1.1-1.1-2.3-2.2-3.7-3.5c-1.8,1.6-3.7,2.8-5.9,3.8C218.4,125,218.1,124.6,217.7,124.2z"/>
	<path class="st3" d="M229.4,120c1.4-0.3,2.9-0.6,4.5-1c0,0.5,0,0.9,0,1.2c-1.3,0.3-2.7,0.6-4.2,1L229.4,120z M232,111.3l-0.4,4.8
		h1.8l0.5-5.9h-4V109h5.3l-0.5,7.1h1.1c-0.1,2.5-0.2,4.5-0.2,6.1c0,1.8-0.8,2.7-2.3,2.7c-0.6,0-1.4,0-2.2-0.1
		c-0.1-0.4-0.1-0.9-0.2-1.4c0.8,0.1,1.6,0.2,2.2,0.2c0.8,0,1.3-0.5,1.3-1.5c0.1-1.3,0.1-2.9,0.2-4.8h-4.2l0.6-6L232,111.3L232,111.3
		z M242.3,108l-0.3,0.6c1.4,2.5,3.2,4.4,5.3,5.5c-0.4,0.5-0.7,0.9-0.9,1.2c-2.1-1.5-3.7-3.4-5-5.5c-1.2,2.1-2.9,4-5,5.7
		c-0.2-0.3-0.5-0.7-0.9-1.1c2.3-1.6,4.1-3.8,5.4-6.4C240.9,108,242.3,108,242.3,108z M235.9,123.2h6.3c0.8-2.1,1.6-4.3,2.2-6.5
		l1.3,0.4c-0.7,2.1-1.4,4.1-2.2,6.1h3.1v1.2h-10.8L235.9,123.2L235.9,123.2z M236.8,117.5l1.2-0.4c0.6,1.7,1.1,3.1,1.4,4.4l-1.3,0.4
		C237.8,120.5,237.3,119,236.8,117.5z M237.7,114.5h7.2v1.2h-7.2V114.5z M239.8,116.7l1.2-0.3c0.5,1.8,0.9,3.3,1.2,4.6l-1.3,0.4
		C240.7,119.8,240.3,118.2,239.8,116.7z"/>
	<path class="st3" d="M255.7,108.4l1.3-0.7c0.5,0.6,1,1.3,1.4,2.1l-0.9,0.5h7.1v1.3H251v4.3c0,4.1-0.9,7.2-2.6,9.3
		c-0.3-0.4-0.6-0.8-1-1.2c1.4-1.6,2.1-4.3,2.1-8.1v-5.7h7.4C256.6,109.7,256.2,109,255.7,108.4z M250.9,122.9h8.1
		c0.9-2.3,1.9-5.5,2.9-9.6l1.5,0.4c-1.1,3.9-2.1,6.9-2.9,9.2h4.3v1.3h-14v-1.3H250.9z M251.8,114.3l1.3-0.5c0.7,2.1,1.4,4.5,2.1,7.2
		l-1.5,0.5C253.3,119.1,252.6,116.7,251.8,114.3z M256.1,113.4l1.4-0.4c0.6,2.1,1.1,4.5,1.6,7.1l-1.5,0.4
		C257.2,118.2,256.7,115.8,256.1,113.4z"/>
	<path class="st3" d="M265.6,121.1c0.4-0.1,0.7-0.1,1.1-0.2V110h-1v-1.2h7v1.2h-1.2v9.9c0.4-0.1,0.8-0.2,1.2-0.3
		c0,0.3,0.1,0.8,0.1,1.3l-1.4,0.3v3.9h-1.2v-3.7c-1.5,0.3-2.9,0.6-4.4,0.9L265.6,121.1z M267.9,112.7h2.4V110h-2.4V112.7z
		 M267.9,116.5h2.4v-2.7h-2.4V116.5z M270.3,120.2v-2.6h-2.4v3C268.7,120.5,269.5,120.4,270.3,120.2z M272.2,117.5h10.9v1.1h-7.3
		l-0.3,1.4h5.9c-0.1,1.1-0.1,2-0.2,2.7c-0.1,1.5-0.9,2.3-2.3,2.3h-3.1c-0.1-0.4-0.2-0.9-0.4-1.4c1.2,0.1,2.3,0.1,3.1,0.1
		c0.8,0,1.3-0.4,1.3-1.1c0-0.4,0.1-0.9,0.2-1.5h-6l0.6-2.5h-2.3v-1.1H272.2z M273.3,109.6h3.8V108h1.2v1.6h3.8v6.9H281V116h-6.5v0.4
		h-1.1L273.3,109.6L273.3,109.6z M274.4,112.3h2.6v-1.6h-2.6V112.3z M274.4,115h2.6v-1.6h-2.6V115z M280.9,110.7h-2.6v1.6h2.6V110.7
		z M278.3,115h2.6v-1.6h-2.6V115z"/>
	<path class="st3" d="M283.6,123.7c5.1-3,7.8-8.1,8.1-15.5h1.5c-0.1,1.3-0.2,2.4-0.4,3.6c1.5,5.9,4.2,9.7,8.2,11.6
		c-0.5,0.5-0.9,1-1.3,1.5c-3.5-2-6-5.5-7.4-10.5c-1.3,4.8-3.8,8.4-7.6,10.6C284.4,124.6,284,124.2,283.6,123.7z"/>
	<path class="st3" d="M309.5,116.9h1.4c0,0.6,0,1.3-0.1,2.1c0,0.5-0.1,1-0.2,1.5c2.5,1,5.3,2.2,8.3,3.6l-0.8,1.3
		c-2.3-1.2-4.9-2.4-8-3.7c-0.2,0.4-0.5,0.8-0.8,1.1c-1.4,1.3-3.7,2.2-6.9,2.7c-0.2-0.5-0.5-0.9-0.8-1.3c3.3-0.5,5.5-1.3,6.5-2.3
		c0.7-0.7,1.1-1.6,1.2-2.9C309.5,118.2,309.5,117.5,309.5,116.9z M303.5,115.2h13.8v6.4h-1.4v-5.2h-11v5.3h-1.4V115.2z M304.4,108.7
		h11.8v5.5h-1.4v-0.7h-9v0.7h-1.4V108.7z M314.8,112.3v-2.4h-9v2.4H314.8z"/>
	<path class="st3" d="M319.9,109.1h7.5v1.2h-1.2v9.6c0.4-0.1,0.9-0.2,1.3-0.3c0,0.5,0,1,0,1.4c-0.4,0.1-0.9,0.2-1.3,0.3v3.8h-1.3
		v-3.5c-1.6,0.4-3.3,0.8-5,1.2l-0.3-1.4l1.2-0.2v-10.8h-1L319.9,109.1L319.9,109.1z M322.2,112.9h2.8v-2.5h-2.8V112.9z M322.2,116.6
		h2.8v-2.5h-2.8V116.6z M324.9,120.2v-2.4h-2.8v3C323.1,120.7,324,120.5,324.9,120.2z M329.9,119.3l1.3,0.7
		c-1.1,1.9-2.1,3.6-3.1,5.1c-0.4-0.3-0.8-0.5-1.2-0.7C328,122.8,329,121.1,329.9,119.3z M328.2,109.2h7.5v9.3h-1.3v-1h-4.9v1h-1.3
		L328.2,109.2L328.2,109.2z M334.4,110.5h-4.9v5.8h4.9V110.5z M334,119.2c1,1.5,2,3.2,3.1,5.1l-1.2,0.8c-0.9-1.7-2-3.5-3-5.2
		L334,119.2z"/>
	<path class="st3" d="M337.7,122.7h5.6v-14.5h1.5v14.5h3.1v-14.5h1.5v14.5h5.7v1.3h-17.4L337.7,122.7L337.7,122.7z M339.7,111.7
		c1,2.3,1.9,4.7,2.8,7.2l-1.4,0.7c-0.8-2.5-1.7-4.9-2.6-7.3L339.7,111.7z M350,119c1.2-2.5,2.2-4.9,3-7.2l1.4,0.6
		c-1.1,2.8-2.1,5.2-3.1,7.2L350,119z"/>
	<path class="st3" d="M355.7,113c2.1-0.3,3.9-0.6,5.6-1v-1.2h-5.1v-1.1h5.1v-1.8h1.3v6.6h-1.3v-1.3c-1.8,0.4-3.6,0.7-5.3,1.1
		L355.7,113z M359.5,125.1h-1.4v-9.7h12.4v7.4c0,1.4-0.8,2.1-2.3,2.1c-1.1,0-2.2,0-3.5-0.1c-0.1-0.4-0.2-0.9-0.3-1.4
		c1.1,0.1,2.3,0.1,3.5,0.1c0.8,0,1.2-0.3,1.2-1.1v-0.8h-9.7L359.5,125.1L359.5,125.1z M369.2,116.6h-9.7v1.4h9.7V116.6z
		 M359.5,120.7h9.7v-1.4h-9.7V120.7z M365.4,108h1.3v2.5c1.7-0.4,3.4-0.9,5.2-1.5l0.5,1.2c-2,0.5-3.8,1-5.6,1.4v0.7
		c0,0.7,0.4,1,1.1,1h2.3c0.7,0,1.1-0.2,1.2-0.6s0.2-0.9,0.3-1.7c0.4,0.2,0.8,0.3,1.3,0.5c-0.2,0.8-0.3,1.4-0.5,1.8
		c-0.3,0.8-0.9,1.2-2,1.2h-2.9c-1.5,0-2.2-0.7-2.2-2.1L365.4,108L365.4,108z"/>
	<path class="st3" d="M374.3,115.1h7.3c-0.1-0.2-0.3-0.5-0.4-0.7l1.2-0.5c0.2,0.4,0.5,0.8,0.7,1.2h7.4v1.1h-16.1v-1.1H374.3z
		 M379.5,121.4l0.7,1.1c-1.7,0.8-3.4,1.6-5.2,2.4c-0.2-0.3-0.4-0.7-0.7-1.1C376.3,123,378,122.2,379.5,121.4z M375.9,108.6h12.9v5.9
		h-1.3v-0.6h-10.4v0.6h-1.3L375.9,108.6L375.9,108.6z M376.2,117.2h12.4v4h-1.3v-0.6h-4.2v2.4c0,1.2-0.6,1.9-1.8,1.9
		c-0.8,0-1.4,0-2,0c0-0.2-0.1-0.6-0.3-1.4c0.7,0.1,1.4,0.1,1.9,0.1c0.6,0,0.8-0.3,0.9-0.9v-2.1h-4.4v0.6h-1.3L376.2,117.2
		L376.2,117.2z M387.5,109.6h-10.4v1.1h10.4V109.6z M377.1,112.8h10.4v-1.1h-10.4V112.8z M387.4,118.3h-9.9v1.4h9.9V118.3z
		 M384.6,122.6l0.6-1.1c1.8,0.7,3.6,1.4,5.3,2.1l-0.7,1.2C388.3,124,386.5,123.3,384.6,122.6z"/>
	<path class="st3" d="M391.6,116.4c1.7-2.6,3-5.4,3.9-8.5l1.4,0.4c-0.5,1.6-1.1,3-1.7,4.4v12.6h-1.3v-10c-0.5,0.9-1.1,1.8-1.7,2.6
		C392,117.3,391.8,116.9,391.6,116.4z M396.7,110.3h5.7c-0.4-0.6-0.7-1.2-1.1-1.8l1.2-0.6c0.4,0.6,0.8,1.3,1.2,2l-0.8,0.4h6.1v1.2
		h-12.4L396.7,110.3L396.7,110.3z M397.6,113.1H408v1.2h-10.4V113.1z M397.6,116H408v1.2h-10.4V116z M397.8,118.8h10v6.4h-1.4v-1.1
		h-7.3v1.1h-1.4L397.8,118.8L397.8,118.8z M406.5,120h-7.3v3h7.3V120z"/>
	<path class="st3" d="M411.1,119.7l1.3,0.4c-0.5,1.4-1.1,2.7-1.6,3.8c-0.4-0.2-0.8-0.3-1.3-0.5C410.1,122.5,410.6,121.2,411.1,119.7
		z M411.9,109.6h4.3c0.3-0.6,0.5-1.2,0.6-1.8l1.4,0.4c-0.2,0.5-0.4,1-0.6,1.4h7v9.6h-1.4v-0.5h-10v0.5h-1.4v-9.6H411.9z
		 M423.2,110.8h-10v1.5h10V110.8z M413.3,114.9h10v-1.5h-10V114.9z M413.3,117.5h10V116h-10V117.5z M413.8,119.9h1.3v2.6
		c0,0.7,0.4,1.1,1.2,1.1h3.9c0.9,0,1.5-0.3,1.6-1c0.1-0.4,0.2-1.1,0.4-1.9c0.4,0.2,0.9,0.3,1.4,0.5c-0.1,0.8-0.3,1.5-0.4,2
		c-0.3,1.1-1.1,1.7-2.6,1.7H416c-1.5,0-2.3-0.7-2.3-2.2L413.8,119.9L413.8,119.9z M416.8,119.7l0.9-0.8c0.7,0.7,1.5,1.4,2.4,2.4
		l-1.1,0.9C418.2,121.1,417.5,120.3,416.8,119.7z M423.7,120.3l1-0.8c0.8,0.9,1.7,1.9,2.5,3l-1.1,0.9
		C425.4,122.2,424.6,121.2,423.7,120.3z"/>
	<path class="st3" d="M428.3,110.8h1.8c0.4-1.1,0.8-2,1.1-2.9l1.5,0.4c-0.4,0.9-0.7,1.7-1.1,2.5h3.5v14h-1.4v-1.4h-4v1.5h-1.4V110.8
		z M433.7,112.1h-4v4.3h4V112.1z M429.8,122.1h4v-4.4h-4V122.1z M435.4,114.4c1.1-1.7,2-3.9,2.8-6.5l1.5,0.4
		c-0.3,0.9-0.6,1.7-0.9,2.5h5.7c-0.1,6-0.3,9.8-0.4,11.4c-0.1,1.8-1,2.8-2.9,2.8c-1.1,0-2.2,0-3.3-0.1c-0.1-0.6-0.2-1.1-0.3-1.6h0.1
		c1.2,0.2,2.2,0.2,3.2,0.2c1.1,0,1.6-0.6,1.7-1.7c0.1-1.7,0.2-5,0.3-9.7h-4.7c-0.5,1.1-1,2.1-1.6,3
		C436.3,114.8,435.9,114.6,435.4,114.4z M436.9,115.6l1.1-0.8c1.3,1.5,2.3,2.9,3.1,4l-1.3,0.9C439,118.4,438,117,436.9,115.6z"/>
</g>
<text transform="matrix(0.9397 0 -0.342 0.9397 70.465 125.0621)" class="st3 st4 st9">首款</text>
<g class="st1">
	<path class="st10" d="M79.7,110.6h7.9c0.6-1,1.1-2,1.6-3H77.6l0.7-1.9h8.3c-0.3-1.2-0.7-2.2-1.1-3l2.1-1.1c0.7,1.3,1.2,2.4,1.5,3.3
		l-1.6,0.9H94c1.3-1.2,2.6-2.6,4.1-4.1l1.7,1.2c-1.1,1-2.2,2-3.4,3h8.4l-0.7,1.9H91.4c-0.6,0.9-1.2,1.9-1.8,3H100l-6.6,18.1h-2.1
		l0.6-1.6H75.8l-0.6,1.6h-2.1L79.7,110.6z M76.5,125.2h16.1l1.1-3.1H77.6L76.5,125.2z M78.2,120.3h16.1l1.1-3H79.3L78.2,120.3z
		 M97.2,112.5H81.1l-1.1,3h16.1L97.2,112.5z"/>
	<path class="st10" d="M98.9,124.9c1.5-1.4,3.1-3.1,4.7-5.1l1.4,0.9c-1.7,1.9-3.4,3.6-5,5.2C99.8,125.5,99.4,125.2,98.9,124.9z
		 M102,117.2h13.9l-0.6,1.8h-5.9l-2.2,6c-0.8,2.1-2.2,3.1-4.2,3.1c-1,0-1.8,0-2.5,0c0.2-0.7,0.3-1.4,0.4-2.1
		c0.7,0.1,1.5,0.2,2.3,0.2c1.1,0,1.8-0.6,2.2-1.7l2-5.5h-6L102,117.2z M104.9,113h11l-0.6,1.8h-11L104.9,113z M105.8,108.9h5.1
		l1-2.7h-6l0.6-1.8h6l1-2.8h2l-1,2.8h6l-0.6,1.8h-6l-1,2.7h4.6l-0.6,1.8h-11.8L105.8,108.9z M123,109.2h2c-0.5,1.4-1,2.6-1.4,3.8
		c-1.5,6.6-0.9,11.2,1.9,13.9c-0.9,0.6-1.7,1.2-2.3,1.7c-2-2.2-2.8-5.7-2.1-10.5c-2.4,4.2-5.9,7.7-10.4,10.7c-0.2-0.5-0.6-1-1-1.5
		c5.1-3.2,8.8-7.1,11-11.8C121.3,113.8,122.1,111.7,123,109.2z M109.9,120.7l1.9-0.8c0.4,1.2,0.7,2.5,1,3.8l-2.1,1
		C110.5,123.2,110.3,121.9,109.9,120.7z M116.5,112.3c2.7-3.3,5-6.8,6.9-10.6l1.9,0.4c-0.8,1.4-1.5,2.7-2.3,4h9.2l-0.7,1.9
		c-1.1,1.6-2.3,3.3-3.6,5.1c-0.4-0.3-0.9-0.6-1.6-0.8c1.1-1.4,2.2-2.9,3.1-4.3h-7.6c-1.2,1.8-2.5,3.6-3.8,5.2
		C117.5,112.8,117,112.5,116.5,112.3z"/>
</g>
<g class="st1">
	<path class="st11" d="M457.6,106.6h9.4l-0.6,1.5h-1.5l-4.4,12c0.6-0.1,1.2-0.3,1.8-0.4c-0.3,0.7-0.5,1.3-0.6,1.7
		c-0.6,0.1-1.2,0.2-1.8,0.4l-1.7,4.8h-1.6l1.6-4.4c-2.2,0.5-4.5,1-6.8,1.5l0.3-1.7l1.6-0.3l4.9-13.6H457L457.6,106.6z M458.8,120.6
		l1.1-3h-3.5l-1.4,3.7C456.3,121.1,457.5,120.9,458.8,120.6z M457,116.1h3.5l1.2-3.2h-3.5L457,116.1z M458.7,111.4h3.5l1.2-3.2h-3.5
		L458.7,111.4z M465.4,119.5l1.3,0.8c-2.2,2.4-4.3,4.6-6.2,6.4c-0.4-0.4-0.8-0.7-1.2-0.9C461.5,123.8,463.5,121.7,465.4,119.5z
		 M467.9,106.8h9.4l-4.2,11.7h-1.6l0.5-1.3h-6.2l-0.5,1.3h-1.6L467.9,106.8z M475.1,108.4h-6.2l-2.6,7.2h6.2L475.1,108.4z
		 M470.6,119.3c0.6,1.9,1.1,4,1.5,6.4l-1.9,1c-0.4-2.2-0.9-4.3-1.5-6.5L470.6,119.3z"/>
	<path class="st11" d="M473.6,123.7h7.1l6.6-18.2h1.8l-6.6,18.2h3.9l6.6-18.2h1.9l-6.6,18.2h7.1l-0.6,1.6H473L473.6,123.7z
		 M481.2,109.8c0.2,2.8,0.2,5.8,0.2,9l-2.1,0.8c0.1-3.1,0.2-6.1,0-9.1L481.2,109.8z M490.7,119.1c2.6-3.1,4.9-6.1,7-9l1.5,0.7
		c-2.6,3.5-5,6.5-7.2,9.1L490.7,119.1z"/>
	<path class="st11" d="M498.9,115.8c3.3-3.2,6.2-6.7,8.7-10.6l1.5,0.5c-1.4,2-2.7,3.8-4.1,5.5l-5.7,15.8h-1.6l4.6-12.6
		c-1.1,1.2-2.2,2.3-3.3,3.2C499,117,499,116.4,498.9,115.8z M505.6,118.8h12.5l-2.9,8.1h-1.7l0.5-1.3h-9.1l-0.5,1.3h-1.7
		L505.6,118.8z M515.9,120.3h-9.1l-1.4,3.7h9.1L515.9,120.3z M506.7,115.3h13l-0.5,1.5h-13L506.7,115.3z M508,111.7h13l-0.5,1.5h-13
		L508,111.7z M508.1,108.1h7.2c-0.2-0.8-0.4-1.5-0.6-2.2l1.8-0.8c0.2,0.8,0.5,1.6,0.6,2.5l-1.1,0.5h7.6l-0.6,1.5h-15.5L508.1,108.1z
		"/>
	<path class="st11" d="M528.2,126.5l2.5-7h-6.4c-1.4,3.1-3.2,5.6-5.4,7.6c-0.2-0.5-0.5-1-0.7-1.5c1.4-1.4,2.6-2.8,3.6-4.5
		c0.9-1.6,1.9-3.8,2.9-6.7l2.9-7.9h17.9l-6.4,17.5c-0.6,1.7-1.8,2.6-3.4,2.6c-1,0-2.1,0-3.4-0.1c0.1-0.5,0.2-1.1,0.3-1.8
		c1.2,0.1,2.3,0.1,3.1,0.1c0.9,0,1.5-0.4,1.8-1.3l1.5-4.1h-6.5l-2.5,7h-1.8V126.5z M525,117.9h6.3l1.5-4.1h-6.2
		C526.2,115.2,525.6,116.6,525,117.9z M528.7,108.1l-1.5,4.1h6.2l1.5-4.1H528.7z M533.1,117.9h6.5l1.5-4.1h-6.5L533.1,117.9z
		 M543.1,108.1h-6.5l-1.5,4.1h6.5L543.1,108.1z"/>
	<path class="st11" d="M550.8,108.2l-2.3,6.2c-1.2,3.3-2.3,5.8-3.3,7.5c-1,1.8-2.3,3.4-4,5c-0.3-0.7-0.6-1.2-0.8-1.5
		c1.3-1.3,2.4-2.8,3.3-4.4c0.8-1.5,1.8-3.7,2.9-6.6l2.9-7.9h16.3l-4.4,12c-1,2.6-1.5,4.5-1.5,5.5c0,0.3,0.1,0.5,0.4,0.5
		c0.2,0,0.5-0.3,0.7-0.8c0.4-0.8,1-2,1.7-3.7c0.6,0.3,1.1,0.5,1.5,0.6c-0.7,1.5-1.3,2.8-1.8,3.7c-0.8,1.5-1.7,2.2-2.8,2.2
		c-0.8,0-1.3-0.6-1.4-1.7c-0.1-1,0.4-3.1,1.6-6.3l3.8-10.4h-12.8V108.2z M551.2,110.7l1.7-1c0.6,1.7,1.2,3.4,1.8,5.2
		c1.8-1.8,3.5-3.7,5.2-5.7l1.2,0.7c-1.9,2.2-3.9,4.4-6,6.5c0.7,2.1,1.4,4.3,2,6.6l-1.9,1.1c-0.6-2.1-1.2-4.1-1.7-6
		c-2.2,2.2-4.6,4.3-7,6.3c-0.2-0.3-0.6-0.7-1-1.1c2.6-2.1,5.1-4.4,7.5-6.8C552.5,114.5,551.8,112.5,551.2,110.7z"/>
	<path class="st11" d="M566.2,116.9c1.2-0.3,2.3-0.5,3.4-0.8l1.9-5.1h-3l0.6-1.6h3l1.6-4.3h1.7l-1.6,4.3h2.2l-0.6,1.6h-2.2l-1.7,4.6
		c0.8-0.2,1.6-0.4,2.4-0.6c-0.2,0.7-0.4,1.2-0.5,1.7c-0.9,0.2-1.8,0.5-2.6,0.7l-2.5,6.8c-0.6,1.6-1.5,2.3-2.9,2.3
		c-0.5,0-1.2,0-2.3,0c0.2-0.6,0.3-1.2,0.4-1.8c0.8,0.1,1.5,0.2,1.9,0.2c0.7,0,1.1-0.3,1.4-1l2.1-5.9c-1.1,0.3-2.2,0.6-3.2,0.9
		L566.2,116.9z M574.3,117.2h12.5l-0.6,1.5h-5.4l-2,5.5h6.5l-0.6,1.6h-15l0.6-1.6h6.8l2-5.5h-5.4L574.3,117.2z M581.2,112.8
		c-2.3,1.5-4.4,2.9-6.4,4.1l-0.7-1.3c2.3-1.3,4.4-2.6,6.3-4L581.2,112.8z M577.2,108.5h6.3c-0.2-0.9-0.5-1.7-0.9-2.6l1.7-0.9
		c0.5,1,0.8,1.9,1.1,2.8l-1.4,0.7h6.4l-1.4,4h-1.7l0.9-2.4h-9.8l-0.9,2.4h-1.7L577.2,108.5z M583.3,112.7l1.6-1.1
		c1.4,1.4,2.6,2.7,3.5,3.9l-1.7,1.4C585.8,115.6,584.7,114.2,583.3,112.7z"/>
	<path class="st11" d="M589,117.1h9.8l3.4-9.2h-8.8l0.6-1.7h19.5l-0.6,1.7H604l-3.4,9.2h9.8l-0.6,1.7H600l-3,8.1h-1.8l3-8.1h-9.8
		L589,117.1z M593.6,110.3l1.7-1c0.9,1.9,1.7,3.8,2.2,5.6l-2,1.2C595.1,114.2,594.4,112.3,593.6,110.3z M603.1,114.9
		c2.2-1.7,4.4-3.6,6.4-5.6l1.3,1.1c-2.5,2.3-4.7,4.2-6.7,5.7L603.1,114.9z"/>
	<path class="st11" d="M630.2,116.8l-3.6,10h-1.8l0.5-1.5h-12.1l-0.5,1.5h-1.8l3.6-10H630.2z M630.1,108c1.5,2.1,2.9,4.3,4.1,6.6
		l-2,1.3c-0.3-0.7-0.7-1.4-1-2c-6.7,0.3-11.8,0.5-15.4,0.7c-0.8,0.1-1.6,0.2-2.5,0.4v-1.9c0.8-0.2,1.5-0.6,2.2-1
		c3.3-2.1,6.4-4.4,9.5-7.1l1.3,1c-3.1,2.6-6.3,4.9-9.4,6.9c4.6-0.1,9-0.3,13.5-0.5c-0.6-1.1-1.2-2.2-1.9-3.2L630.1,108z
		 M627.8,118.4h-12.1l-1.9,5.3h12.1L627.8,118.4z"/>
	<path class="st11" d="M636.4,120.8c0.7,0,1.2,0.3,1.6,0.8s0.4,1.2,0.1,1.9c-0.3,0.8-0.8,1.5-1.5,2s-1.5,0.8-2.2,0.8
		c-0.8,0-1.3-0.3-1.7-0.8s-0.4-1.2-0.1-2c0.3-0.8,0.8-1.5,1.6-2S635.7,120.8,636.4,120.8z M634.9,124.9c0.3,0,0.6-0.1,0.9-0.3
		c0.3-0.2,0.5-0.5,0.7-0.8c0.1-0.4,0.1-0.7,0-0.9c-0.2-0.2-0.4-0.3-0.7-0.3s-0.6,0.1-0.9,0.3c-0.3,0.2-0.5,0.5-0.7,0.9
		c-0.1,0.4-0.1,0.6,0.1,0.8C634.4,124.8,634.6,124.9,634.9,124.9z"/>
</g>
<g class="st1">
	<path class="st3" d="M26.3,163.6c1.9-1,3.5-2.4,4.8-4.1l1.2,0.5c-0.2,0.3-0.5,0.6-0.7,0.9h10.9c-0.1,2.2-0.2,3.9-0.3,5.1
		c-0.2,1.9-1.1,2.8-2.8,2.8c-1,0-2,0-3,0c-0.1-0.5-0.2-1-0.3-1.5c1,0.1,2,0.1,3,0.1c1.1,0,1.7-0.6,1.8-1.7c0.1-1.1,0.2-2.3,0.3-3.7
		h-2.7c-0.7,3.1-2.8,5.4-6.2,7.1c-0.3-0.4-0.6-0.8-1-1.2c3.3-1.3,5.2-3.3,5.9-5.9h-2.7c-0.9,2.5-3.1,4.5-6.8,5.9
		c-0.3-0.4-0.6-0.8-1-1.2c3.5-1.3,5.6-2.9,6.3-4.7h-2.4c-1,1-2.1,1.9-3.3,2.7C26.9,164.3,26.7,164,26.3,163.6z M28.6,152.5h12.9v7.3
		h-1.4v-0.7H28.6V152.5z M40.2,153.7H30v1.4h10.2V153.7z M30,157.9h10.2v-1.5H30V157.9z"/>
	<path class="st3" d="M44.5,152.9H52v1.2h-1.2v9.6c0.4-0.1,0.9-0.2,1.3-0.3c0,0.5,0,1,0,1.4c-0.4,0.1-0.9,0.2-1.3,0.3v3.8h-1.3v-3.5
		c-1.6,0.4-3.3,0.8-5,1.2l-0.3-1.4l1.2-0.2v-10.8h-1L44.5,152.9L44.5,152.9z M46.8,156.6h2.8v-2.5h-2.8V156.6z M46.8,160.4h2.8v-2.5
		h-2.8V160.4z M49.6,164v-2.4h-2.8v3C47.7,164.4,48.7,164.2,49.6,164z M54.5,163.1l1.3,0.7c-1.1,1.9-2.1,3.6-3.1,5.1
		c-0.4-0.3-0.8-0.5-1.2-0.7C52.7,166.6,53.7,164.9,54.5,163.1z M52.8,153h7.5v9.3H59v-1h-4.9v1h-1.3V153z M59.1,154.3h-4.9v5.8h4.9
		V154.3z M58.6,163c1,1.5,2,3.2,3.1,5.1l-1.2,0.8c-0.9-1.7-2-3.5-3-5.2L58.6,163z"/>
	<path class="st3" d="M62.2,160.2c1.7-2.6,3-5.4,3.9-8.5l1.4,0.4c-0.5,1.6-1.1,3-1.7,4.4V169h-1.3v-10c-0.5,0.9-1.1,1.8-1.7,2.6
		C62.6,161.1,62.4,160.6,62.2,160.2z M67.3,154.1H73c-0.4-0.6-0.7-1.2-1.1-1.8l1.2-0.6c0.4,0.6,0.8,1.3,1.2,2l-0.8,0.4h6.1v1.2H67.3
		V154.1z M68.3,156.9h10.4v1.2H68.3V156.9z M68.3,159.8h10.4v1.2H68.3V159.8z M68.5,162.6h10v6.4h-1.4v-1h-7.3v1.1h-1.4v-6.5H68.5z
		 M77.1,163.8h-7.3v3h7.3V163.8z"/>
	<path class="st3" d="M87.5,167.2l4.4,0.1l5.9-0.1c-0.1,0.4-0.3,0.8-0.5,1.4h-5.8l-4.2-0.1c-2,0-3.4-0.7-4.2-2.1
		c-0.5,0.4-1.2,1.2-2.1,2.4l-0.7-1.5c1-1,1.8-1.7,2.2-2.2v-5.9h-2.1v-1.3h3.4v7.5C84.5,166.6,85.8,167.2,87.5,167.2z M82.4,152
		c0.6,0.7,1.4,1.8,2.5,3.3l-1.2,0.9c-0.9-1.5-1.7-2.6-2.3-3.4L82.4,152z M87.3,166.2H86v-9.9h4.2c-0.9-0.5-1.8-0.9-2.7-1.4l0.7-0.8
		c0.9,0.4,1.8,0.9,2.6,1.3l3.1-1.6h-8.2v-1.1h10.6v1.2l-4.2,2.2c0.2,0.1,0.4,0.2,0.6,0.3h3.8v7.9c0,1.3-0.6,2-1.8,2
		c-0.6,0-1.3,0-2-0.1c-0.1-0.4-0.1-0.9-0.3-1.4c0.7,0.1,1.4,0.1,1.9,0.1c0.6,0,0.9-0.3,0.9-0.9v-0.9h-3.4v2.7h-1.2v-2.7h-3.3
		C87.3,163.1,87.3,166.2,87.3,166.2z M87.3,159.2h3.3v-1.8h-3.3V159.2z M87.3,162.1h3.3v-1.8h-3.3V162.1z M95.2,157.5h-3.4v1.8h3.4
		V157.5z M91.8,162.1h3.4v-1.8h-3.4V162.1z"/>
	<path class="st3" d="M105.7,167l4.7,0.1l5.3-0.2c-0.2,0.5-0.4,0.9-0.6,1.4l-5.2,0.1l-4.5-0.1c-2,0-3.5-0.7-4.4-2
		c-0.3,0.3-1,1-2,2.2l-0.7-1.5c0.9-0.8,1.6-1.5,2.2-1.9v-6h-2v-1.3h3.4v7.6C102.7,166.5,104,167,105.7,167z M100.1,151.8
		c0.8,0.9,1.6,2,2.5,3.3c-0.5,0.3-0.9,0.6-1.2,0.8c-0.8-1.3-1.6-2.4-2.3-3.4L100.1,151.8z M103.5,155.1h7.5v-3.4h1.4v3.4h3v1.3h-3
		v7.3c0,1.5-0.7,2.3-2.2,2.3c-0.8,0-1.7,0-2.7,0c-0.1-0.5-0.1-1-0.3-1.6c0.9,0.1,1.8,0.1,2.6,0.1c0.7,0,1.1-0.4,1.1-1.2v-6.9h-7.5
		L103.5,155.1L103.5,155.1z M104.2,158.5l1.1-0.8c1.3,1.6,2.3,2.9,2.9,3.8l-1.2,0.9C106.1,160.9,105.1,159.6,104.2,158.5z"/>
</g>
<text transform="matrix(1 0 0 1 116 167.5)" class="st4 st8">                                    </text>
<g class="st1">
	<path class="st3" d="M415.3,154.6h1.8c0.4-1.1,0.8-2,1.1-2.9l1.5,0.4c-0.4,0.9-0.7,1.7-1.1,2.5h3.5v14h-1.4v-1.4h-4v1.5h-1.4V154.6
		z M420.7,155.9h-4v4.3h4V155.9z M416.7,165.9h4v-4.4h-4V165.9z M422.3,158.2c1.1-1.7,2-3.9,2.8-6.5l1.5,0.4
		c-0.3,0.9-0.6,1.7-0.9,2.5h5.7c-0.1,6-0.3,9.8-0.4,11.4c-0.1,1.8-1,2.8-2.9,2.8c-1.1,0-2.2,0-3.3-0.1c-0.1-0.6-0.2-1.1-0.3-1.6h0.1
		c1.2,0.2,2.2,0.2,3.2,0.2c1.1,0,1.6-0.6,1.7-1.7c0.1-1.7,0.2-5,0.3-9.7h-4.7c-0.5,1.1-1,2.1-1.6,3
		C423.2,158.6,422.8,158.4,422.3,158.2z M423.9,159.4l1.1-0.8c1.3,1.5,2.3,2.9,3.1,4l-1.3,0.9C425.9,162.1,425,160.8,423.9,159.4z"
		/>
	<path class="st3" d="M432.5,162.7c1-1.7,1.8-3.7,2.4-5.9h-2.2v-1.2h2.4v-3.9h1.2v3.9h2.3v1.2h-2.3v2.3l0.7-0.6
		c0.7,0.7,1.3,1.4,1.9,2.2l-1,0.8c-0.5-0.8-1.1-1.5-1.6-2.1v9.5h-1.2v-9.6c-0.6,2.1-1.3,3.8-2.1,4.8
		C432.9,163.7,432.7,163.2,432.5,162.7z M438.1,163.9h5.1c0.1-0.4,0.1-1,0.1-1.6h-2.7v0.5h-1.3v-6.4h9.4v6.4h-1.3v-0.5h-3
		c0,0.6-0.1,1.2-0.2,1.6h5.5v1.1H445c1.3,1.4,3,2.3,5,2.6c-0.3,0.4-0.6,0.9-0.9,1.3c-2.3-0.7-4-1.9-5.3-3.6
		c-0.8,1.7-2.8,2.9-5.8,3.7c-0.2-0.4-0.4-0.8-0.7-1.2c2.8-0.6,4.5-1.5,5.3-2.8h-4.7v-1.1H438.1z M445.6,151.7h1.2v1.7h3v1.1h-3v1.4
		h-1.2v-1.4h-3.1v1.4h-1.2v-1.4h-2.8v-1.1h2.8v-1.7h1.2v1.7h3.1V151.7z M447.5,157.5h-6.9v1.3h6.9V157.5z M440.6,161.2h6.9v-1.3
		h-6.9V161.2z"/>
	<path class="st3" d="M450.6,155h9.8c0-1.1-0.1-2.2-0.1-3.4h1.5c0,1.2,0,2.3,0.1,3.4h6v1.3h-6c0.2,5.9,1.2,9.5,3,10.8
		c0.6,0.5,1.1,0.4,1.3-0.4c0.2-0.6,0.3-1.5,0.5-2.7c0.6,0.2,1,0.4,1.4,0.5c-0.2,1.4-0.5,2.5-0.7,3.3c-0.3,0.8-0.8,1.2-1.6,1.2
		c-0.8,0-1.6-0.4-2.4-1.2c-1.7-1.8-2.6-5.6-2.9-11.4h-9.9L450.6,155L450.6,155z M450.6,166.2c1.3-0.2,2.7-0.3,4.1-0.5v-4.9h-3.4
		v-1.3h8.3v1.3h-3.4v4.7c1.4-0.2,2.8-0.4,4.2-0.6c0,0.5,0,0.9,0,1.4c-3.5,0.5-6.6,1-9.3,1.4L450.6,166.2z M463.1,152.6l0.8-0.9
		c0.8,0.6,1.7,1.3,2.6,2.1l-1,1C464.7,154.1,463.9,153.3,463.1,152.6z"/>
	<path class="st3" d="M469.3,156.3h6.6c0.2-1.4,0.3-3,0.3-4.7h1.5c0,1.7-0.1,3.3-0.2,4.7h7.5c-0.1,3.6-0.2,6.6-0.3,9
		c-0.1,2.2-1.3,3.3-3.5,3.3c-0.9,0-2,0-3.3-0.1c0-0.5-0.1-1-0.3-1.6c1.1,0.2,2.2,0.2,3.3,0.2c1.4,0,2.1-0.7,2.2-2.1
		c0.2-2.3,0.3-4.7,0.3-7.3h-6.1c-0.9,5.2-3.3,9-7.2,11.5c-0.3-0.4-0.7-0.8-1.1-1.3c3.6-2.2,5.9-5.6,6.8-10.2h-6.4L469.3,156.3
		L469.3,156.3z M470.5,152.8l0.9-0.9c1,0.8,1.9,1.7,2.8,2.6l-1.1,1C472.4,154.6,471.5,153.7,470.5,152.8z M477.7,160.8l1-0.9
		c1.1,1,2.1,2.1,3.1,3.1l-1.1,1C479.7,162.9,478.7,161.9,477.7,160.8z"/>
	<path class="st3" d="M496.6,151.8l-0.4,0.5c1.8,2.4,4.4,4.3,7.8,5.6c-0.3,0.4-0.6,0.9-1,1.5c-3.2-1.6-5.8-3.6-7.7-6
		c-1.8,2.4-4.5,4.5-8,6.5c-0.3-0.4-0.6-0.9-1-1.4c3.6-1.6,6.4-3.8,8.3-6.6h2V151.8z M487.3,166.9h2.4v-6.8h1.5v6.8h3.6v-9.8h1.5v3.9
		h5.4v1.3h-5.4v4.7h7v1.3h-16V166.9z"/>
	<path class="st3" d="M504.6,166.5h5.6V152h1.5v14.5h3.1V152h1.5v14.5h5.7v1.3h-17.4V166.5z M506.7,155.4c1,2.3,1.9,4.7,2.8,7.2
		l-1.4,0.7c-0.8-2.5-1.7-4.9-2.6-7.3L506.7,155.4z M516.9,162.8c1.2-2.5,2.2-4.9,3-7.2l1.4,0.6c-1.1,2.8-2.1,5.2-3.1,7.2
		L516.9,162.8z"/>
	<path class="st3" d="M522.5,161c0.8-0.3,1.5-0.7,2.3-1v-3.7h-2.1V155h2.1v-3.3h1.3v3.3h2.2v1.2h-2.2v3.1c0.7-0.3,1.3-0.7,2-1.1
		c0,0.5,0.1,0.9,0.1,1.4c-0.7,0.4-1.4,0.7-2.2,1.1v6.1c0,1.1-0.4,1.8-1.3,1.8c-0.6,0.1-1.3,0.1-2.1,0.1c-0.1-0.5-0.1-1-0.2-1.5
		c0.6,0.1,1.2,0.1,1.7,0.1c0.4,0,0.6-0.2,0.6-0.7v-5.3c-0.7,0.4-1.4,0.7-2.1,1.1L522.5,161z M526.8,168.2c1.7-1.4,2.6-3.4,2.8-5.9
		h1.3c-0.1,0.8-0.2,1.6-0.4,2.3c0.7,1.1,1.7,1.9,2.9,2.3v-5.3H528v-1.2h11.8v1.2h-5.1v2h4.4v1.1h-4.4v2.5c0.8,0.1,2.6,0.1,5.3,0
		c0,0.1-0.2,0.5-0.4,1.3c-1.4,0-2.8,0-4.3-0.1c-2.4,0-4.1-0.9-5.2-2.5c-0.5,1.2-1.2,2.3-2.1,3.1
		C527.6,168.7,527.2,168.5,526.8,168.2z M529.5,152.5h8.8v6.9H537v-0.5h-6.2v0.5h-1.3V152.5z M537,153.6h-6.2v1.5h6.2V153.6z
		 M530.8,157.8h6.2v-1.5h-6.2V157.8z"/>
	<path class="st3" d="M540.4,160.1c1.8-2.5,3.3-5.3,4.3-8.5l1.4,0.5c-0.6,1.6-1.2,3-1.9,4.3V169h-1.4v-9.9c-0.6,1-1.2,1.9-1.9,2.7
		C540.8,161.2,540.6,160.7,540.4,160.1z M550.5,164.5c-1.4,1.7-2.8,3.2-4.3,4.5c-0.3-0.4-0.7-0.7-1.1-1c1.5-1.1,2.9-2.6,4.2-4.3
		L550.5,164.5z M553.4,151.8h1.4v3.9h2.5v1.3h-2.5v4.9h3.1v1.3h-12.8v-1.3h3V157h-2.3v-1.3h2.3v-3.8h1.4v3.8h3.8L553.4,151.8
		L553.4,151.8z M549.6,161.8h3.8V157h-3.8V161.8z M552.6,164.5l1-0.9c1.9,1.7,3.3,3.1,4.3,4.3l-1.2,1.1
		C555.6,167.5,554.2,166.1,552.6,164.5z"/>
</g>
<text transform="matrix(1 0 0 1 558.3 167.5)" class="st4 st12"> </text>
<text transform="matrix(1 0 0 1 564.8 167.5)" class="st13 st4 st12">                           </text>
<text transform="matrix(1 0 0 1 740.5 167.5)" class="st3 st4 st12"> </text>
<g class="st1">
	<path class="st3" d="M748,154.6h1.8c0.4-1.1,0.8-2,1.1-2.9l1.5,0.4c-0.4,0.9-0.7,1.7-1.1,2.5h3.5v14h-1.4v-1.4h-4v1.5H748V154.6z
		 M753.4,155.9h-4v4.3h4V155.9z M749.4,165.9h4v-4.4h-4V165.9z M755,158.2c1.1-1.7,2-3.9,2.8-6.5l1.5,0.4c-0.3,0.9-0.6,1.7-0.9,2.5
		h5.7c-0.1,6-0.3,9.8-0.4,11.4c-0.1,1.8-1,2.8-2.9,2.8c-1.1,0-2.2,0-3.3-0.1c-0.1-0.6-0.2-1.1-0.3-1.6h0.1c1.2,0.2,2.2,0.2,3.2,0.2
		c1.1,0,1.6-0.6,1.7-1.7c0.1-1.7,0.2-5,0.3-9.7h-4.7c-0.5,1.1-1,2.1-1.6,3C755.9,158.6,755.5,158.4,755,158.2z M756.6,159.4l1.1-0.8
		c1.3,1.5,2.3,2.9,3.1,4l-1.3,0.9C758.6,162.1,757.7,160.8,756.6,159.4z"/>
</g>
<g class="st1">
	<path class="st3" d="M34.3,192.6l1.3-0.7c0.5,0.6,1,1.3,1.4,2.1l-0.9,0.5h7.1v1.3H29.7v4.3c0,4.1-0.9,7.2-2.6,9.3
		c-0.3-0.4-0.6-0.8-1-1.2c1.4-1.6,2.1-4.3,2.1-8.1v-5.7h7.4C35.2,193.8,34.8,193.2,34.3,192.6z M29.6,207.1h8.1
		c0.9-2.3,1.9-5.5,2.9-9.6l1.5,0.4c-1.1,3.9-2.1,6.9-2.9,9.2h4.3v1.3h-14v-1.3H29.6z M30.5,198.4l1.3-0.5c0.7,2.1,1.4,4.5,2.1,7.2
		l-1.5,0.5C31.9,203.3,31.3,200.9,30.5,198.4z M34.7,197.6l1.4-0.4c0.6,2.1,1.1,4.5,1.6,7.1l-1.5,0.4
		C35.8,202.3,35.3,200,34.7,197.6z"/>
	<path class="st3" d="M44.2,205.3c0.4-0.1,0.7-0.1,1.1-0.2v-10.9h-1V193h7v1.2h-1.2v9.9c0.4-0.1,0.8-0.2,1.2-0.3
		c0,0.3,0.1,0.8,0.1,1.3l-1.4,0.3v3.9h-1.2v-3.7c-1.5,0.3-2.9,0.6-4.4,0.9L44.2,205.3z M46.6,196.9H49v-2.7h-2.4V196.9z M46.6,200.7
		H49V198h-2.4V200.7z M48.9,204.4v-2.6h-2.4v3C47.3,204.7,48.1,204.6,48.9,204.4z M50.9,201.6h10.9v1.1h-7.3l-0.3,1.4h5.9
		c-0.1,1.1-0.1,2-0.2,2.7c-0.1,1.5-0.9,2.3-2.3,2.3h-3.1c-0.1-0.4-0.2-0.9-0.4-1.4c1.2,0.1,2.3,0.1,3.1,0.1s1.3-0.4,1.3-1.1
		c0-0.4,0.1-0.9,0.2-1.5h-6.1l0.6-2.5h-2.3C50.9,202.7,50.9,201.6,50.9,201.6z M52,193.7h3.8v-1.6H57v1.6h3.8v6.9h-1.1v-0.4h-6.5
		v0.4H52V193.7z M53.1,196.4h2.6v-1.6h-2.6V196.4z M53.1,199.1h2.6v-1.6h-2.6V199.1z M59.6,194.8H57v1.6h2.6V194.8z M56.9,199.1h2.6
		v-1.6h-2.6V199.1z"/>
	<path class="st3" d="M62.3,207.9c5.1-3,7.8-8.1,8.1-15.5h1.5c-0.1,1.3-0.2,2.4-0.4,3.6c1.5,5.9,4.2,9.7,8.2,11.6
		c-0.5,0.5-0.9,1-1.3,1.5c-3.5-2-6-5.5-7.4-10.5c-1.3,4.8-3.8,8.4-7.6,10.6C63.1,208.8,62.7,208.3,62.3,207.9z"/>
	<path class="st3" d="M88.2,201.1h1.4c0,0.6,0,1.3-0.1,2.1c0,0.5-0.1,1-0.2,1.5c2.5,1,5.3,2.2,8.3,3.6l-0.8,1.3
		c-2.3-1.2-4.9-2.4-8-3.7c-0.2,0.4-0.5,0.8-0.8,1.1c-1.4,1.3-3.7,2.2-6.9,2.7c-0.2-0.5-0.5-0.9-0.8-1.3c3.3-0.5,5.5-1.3,6.5-2.3
		c0.7-0.7,1.1-1.6,1.2-2.9C88.2,202.4,88.2,201.7,88.2,201.1z M82.1,199.3h13.8v6.4h-1.4v-5.2h-11v5.3h-1.4V199.3z M83.1,192.9h11.8
		v5.5h-1.4v-0.7h-9v0.7h-1.4V192.9z M93.5,196.4V194h-9v2.4H93.5z"/>
	<path class="st3" d="M98.4,197.2c2.1-0.3,3.9-0.6,5.6-1V195h-5.1v-1.1h5.1v-1.8h1.3v6.6H104v-1.3c-1.8,0.4-3.6,0.7-5.3,1.1
		L98.4,197.2z M102.2,209.3h-1.4v-9.7h12.4v7.4c0,1.4-0.8,2.1-2.3,2.1c-1.1,0-2.2,0-3.5-0.1c-0.1-0.4-0.2-0.9-0.3-1.4
		c1.1,0.1,2.3,0.1,3.5,0.1c0.8,0,1.2-0.3,1.2-1.1V206h-9.7v3.3H102.2z M111.9,200.8h-9.7v1.4h9.7V200.8z M102.2,204.8h9.7v-1.4h-9.7
		V204.8z M108.1,192.1h1.3v2.5c1.7-0.4,3.4-0.9,5.2-1.5l0.5,1.2c-2,0.5-3.8,1-5.6,1.4v0.7c0,0.7,0.4,1,1.1,1h2.3
		c0.7,0,1.1-0.2,1.2-0.6c0.1-0.4,0.2-0.9,0.3-1.7c0.4,0.2,0.8,0.3,1.3,0.5c-0.2,0.8-0.3,1.4-0.5,1.8c-0.3,0.8-0.9,1.2-2,1.2h-2.9
		c-1.5,0-2.2-0.7-2.2-2.1C108.1,196.5,108.1,192.1,108.1,192.1z"/>
	<path class="st3" d="M116.9,199.3h7.3c-0.1-0.2-0.3-0.5-0.4-0.7l1.2-0.5c0.2,0.4,0.5,0.8,0.7,1.2h7.4v1.1H117L116.9,199.3
		L116.9,199.3z M122.1,205.6l0.7,1.1c-1.7,0.8-3.4,1.6-5.2,2.4c-0.2-0.3-0.4-0.7-0.7-1.1C119,207.2,120.7,206.4,122.1,205.6z
		 M118.5,192.7h12.9v5.9h-1.3V198h-10.4v0.6h-1.3v-5.9H118.5z M118.8,201.4h12.4v4H130v-0.6h-4.2v2.4c0,1.2-0.6,1.9-1.8,1.9
		c-0.8,0-1.4,0-2,0c0-0.2-0.1-0.6-0.3-1.4c0.7,0.1,1.4,0.1,1.9,0.1c0.6,0,0.8-0.3,0.9-0.9v-2.1h-4.4v0.6h-1.3
		C118.8,205.4,118.8,201.4,118.8,201.4z M130.2,193.8h-10.4v1.1h10.4V193.8z M119.8,197h10.4v-1.1h-10.4
		C119.8,195.9,119.8,197,119.8,197z M130,202.5h-9.9v1.4h9.9V202.5z M127.2,206.7l0.6-1.1c1.8,0.7,3.6,1.4,5.3,2.1l-0.7,1.2
		C130.9,208.2,129.2,207.5,127.2,206.7z"/>
	<path class="st3" d="M134.2,203.2c1.3-2,2.1-4.1,2.6-6.4h-2.5v-1.2h2.5v-3.5h1.3v3.5h2v1.2h-2v3.1l0.5-0.6c0.8,0.6,1.4,1.3,2.1,1.9
		l-0.9,0.9c-0.6-0.6-1.2-1.2-1.7-1.7v9h-1.3v-9.3c-0.6,1.9-1.3,3.5-2.1,4.6C134.7,204.3,134.5,203.8,134.2,203.2z M139.8,204.9
		c2.3-1.2,4.3-2.6,5.9-4.3c-1.1,0.1-2.2,0.2-3.2,0.3c-0.4,0-0.8,0.1-1.2,0.2l-0.7-1.3c0.5-0.3,0.9-0.6,1.1-0.9
		c0.7-0.9,1.5-1.9,2.2-3.1h-3.3v-1.3h5.4c-0.5-0.7-0.9-1.4-1.3-1.9l1.1-0.7c0.4,0.6,1,1.2,1.5,2l-0.9,0.6h5.4v1.3h-6.2
		c-0.9,1.3-1.7,2.5-2.7,3.7c1.3-0.1,2.6-0.1,3.9-0.2c0.7-0.8,1.3-1.7,1.8-2.7l1.3,0.7c-2,3.5-5,6.4-9,8.6
		C140.5,205.6,140.1,205.3,139.8,204.9z M140.3,208.4c4-1.7,7.3-4.4,9.9-8.3l1.2,0.8c-1,1.5-2.1,2.8-3.3,3.9
		c1.3,1.1,2.6,2.2,3.8,3.2l-1.1,1.1c-1.1-1.1-2.3-2.2-3.7-3.5c-1.8,1.6-3.7,2.8-5.9,3.8C141,209.2,140.7,208.8,140.3,208.4z"/>
	<path class="st3" d="M152.1,204.1c1.4-0.3,2.9-0.6,4.5-1c0,0.5,0,0.9,0,1.2c-1.3,0.3-2.7,0.6-4.2,1L152.1,204.1z M154.7,195.5
		l-0.4,4.8h1.8l0.5-5.9h-4v-1.2h5.3l-0.5,7.1h1.1c-0.1,2.5-0.2,4.5-0.2,6.1c0,1.8-0.8,2.7-2.3,2.7c-0.6,0-1.4,0-2.2-0.1
		c-0.1-0.4-0.1-0.9-0.2-1.4c0.8,0.1,1.6,0.2,2.2,0.2c0.8,0,1.3-0.5,1.3-1.5c0.1-1.3,0.1-2.9,0.2-4.8h-4.2l0.6-6L154.7,195.5
		L154.7,195.5z M165,192.2l-0.3,0.6c1.4,2.5,3.2,4.4,5.3,5.5c-0.4,0.5-0.7,0.9-0.9,1.2c-2.1-1.5-3.7-3.4-5-5.5c-1.2,2.1-2.9,4-5,5.7
		c-0.2-0.3-0.5-0.7-0.9-1.1c2.3-1.6,4.1-3.8,5.4-6.4H165z M158.6,207.3h6.3c0.8-2.1,1.6-4.3,2.2-6.5l1.3,0.4
		c-0.7,2.1-1.4,4.1-2.2,6.1h3.1v1.2h-10.8L158.6,207.3L158.6,207.3z M159.5,201.7l1.2-0.4c0.6,1.7,1.1,3.1,1.4,4.4l-1.3,0.4
		C160.5,204.7,160,203.2,159.5,201.7z M160.4,198.7h7.2v1.2h-7.2V198.7z M162.5,200.9l1.2-0.3c0.5,1.8,0.9,3.3,1.2,4.6l-1.3,0.4
		C163.3,203.9,162.9,202.4,162.5,200.9z"/>
	<path class="st3" d="M171.5,193.1h5v14.3c0,1.2-0.5,1.8-1.6,1.8c-0.6,0-1.2,0-1.7-0.1c0-0.4-0.1-0.8-0.2-1.2
		c0.6,0.1,1.1,0.1,1.5,0.1c0.5,0,0.7-0.2,0.7-0.7v-4h-2.5c0,2.7-0.5,4.8-1.5,6.2c-0.3-0.3-0.6-0.7-1-1c0.8-1.2,1.2-2.9,1.2-5.1
		v-10.3H171.5z M175.2,194.2h-2.5v3.4h2.5V194.2z M172.8,202.1h2.5v-3.4h-2.5V202.1z M177.9,193.1h8.7c-0.1,0.9-0.1,1.7-0.1,2.2
		c-0.1,1.8-1,2.7-2.8,2.7c-0.5,0-1.2,0-2.3-0.1c-0.1-0.5-0.1-0.9-0.2-1.4c0.9,0.1,1.6,0.2,2.3,0.2c1,0,1.6-0.4,1.6-1.4
		c0-0.3,0.1-0.6,0.1-1h-6v5.1h7.4v1c-0.5,2.1-1.3,3.8-2.6,5.4c1,1,2.3,1.7,3.8,2.2c-0.4,0.5-0.7,0.9-1,1.3c-1.4-0.7-2.7-1.5-3.7-2.5
		c-0.9,0.9-1.9,1.7-3.2,2.3c-0.2-0.4-0.5-0.8-0.7-1.2c1.2-0.6,2.2-1.3,3-2.1c-1.1-1.5-1.9-3.2-2.3-5.3h-0.8v8.7h-1.3v-16.1H177.9z
		 M185.3,200.6h-4c0.4,1.7,1,3.1,1.9,4.3C184.2,203.6,184.9,202.2,185.3,200.6z"/>
	<path class="st3" d="M193.3,191.9l1.3,0.6c-0.3,0.4-0.5,0.9-0.8,1.3h9.5v1.2c-1.1,1.3-2.6,2.5-4.5,3.5c2,0.7,4.3,1.2,7,1.3
		c-0.4,0.5-0.7,1-1,1.5c-3.1-0.4-5.6-1.1-7.7-2c-2.3,1-5.1,1.8-8.4,2.3c-0.2-0.4-0.4-0.8-0.7-1.2c2.9-0.5,5.5-1.1,7.6-1.9
		c-1.3-0.8-2.4-1.8-3.2-2.9c-0.9,1.1-1.9,2.1-3,3c-0.4-0.4-0.7-0.7-1-0.9C190.7,195.8,192.3,193.9,193.3,191.9z M189.7,202.2h5.1
		c0.1-0.6,0.2-1.2,0.2-1.9h1.4c-0.1,0.7-0.2,1.3-0.2,1.9h7.1c-0.1,2.1-0.2,3.6-0.3,4.4c-0.2,1.7-1.2,2.5-3,2.5c-0.7,0-1.7,0-3.1-0.1
		c-0.1-0.4-0.2-0.9-0.3-1.5c1.3,0.1,2.5,0.2,3.3,0.2c1,0,1.5-0.5,1.7-1.5c0.1-0.9,0.2-1.8,0.2-2.8H196c-0.6,2.8-2.8,4.9-6.5,6.1
		c-0.3-0.4-0.6-0.8-0.9-1.2c3.4-1.1,5.4-2.7,6-5h-4.9L189.7,202.2L189.7,202.2z M201.5,194.9h-7.8c0.9,1.1,2.2,2.1,3.6,2.8
		C198.9,196.9,200.4,195.9,201.5,194.9z"/>
	<path class="st3" d="M209.4,204.6c0.6,0,1.1,0.2,1.5,0.7s0.6,1,0.6,1.6c0,0.7-0.2,1.2-0.6,1.6s-0.9,0.6-1.5,0.6s-1.1-0.2-1.6-0.6
		s-0.7-1-0.7-1.6c0-0.7,0.2-1.2,0.7-1.6S208.8,204.6,209.4,204.6z M209.4,207.8c0.2,0,0.4-0.1,0.6-0.3s0.3-0.4,0.3-0.7
		s-0.1-0.5-0.3-0.7s-0.4-0.3-0.7-0.3s-0.5,0.1-0.7,0.3s-0.3,0.4-0.3,0.7s0.1,0.5,0.3,0.7S209.2,207.8,209.4,207.8z"/>
</g>
<polygon class="st14" points="411.2,239.2 96.7,239.2 129.7,148.6 444.2,148.6 "/>
<g class="st1">
	<path class="st10" d="M150.5,149l-4,6.6h-2.4l4.6-6.6H150.5z M155.2,149l-4,6.6h-2.4l4.6-6.6H155.2z"/>
	<path class="st10" d="M152.1,166.6c0.4,0.6,1.1,1,2.1,1.4s1.9,0.5,2.9,0.5c3,0,4.8-1.1,5.6-3.2c0.2-0.6,0.3-1.1,0.1-1.6
		c-0.1-0.5-0.4-0.9-0.9-1.3s-1.3-0.9-2.5-1.7c-1.7-1.1-2.8-2-3.1-2.9s-0.3-1.9,0.1-3.1c0.6-1.8,1.9-3.2,3.6-4.2
		c1.8-1,3.8-1.5,5.9-1.5c2.1,0,3.6,0.3,4.4,0.8l-1.1,3c-1-0.9-2.4-1.3-4.4-1.3c-1.3,0-2.4,0.3-3.5,0.8c-1,0.5-1.7,1.3-2,2.3
		c-0.3,0.9-0.3,1.6,0.1,2.1c0.4,0.5,1.3,1.3,2.9,2.2c1.7,1,2.8,2,3.3,3s0.5,2.1,0,3.3c-0.7,1.9-1.9,3.3-3.6,4.3
		c-1.7,1-3.8,1.5-6.2,1.5c-0.8,0-1.8-0.1-2.8-0.3s-1.7-0.5-2.1-0.9L152.1,166.6z"/>
	<path class="st10" d="M173,156.5c1.8-0.9,3.8-1.4,5.7-1.4c3.6,0,4.8,1.9,3.4,5.7l-3.5,9.7h-2.7l0.9-2.3h-0.1
		c-1.7,1.8-3.6,2.7-5.6,2.7c-1.5,0-2.5-0.4-3.1-1.2s-0.6-1.9-0.1-3.2c1-2.8,3.3-4.5,6.8-4.9l4.7-0.6c0.9-2.5,0.3-3.7-1.7-3.7
		c-1.8,0-3.7,0.6-5.6,1.8L173,156.5z M174.9,163.5c-1.3,0.2-2.3,0.5-2.9,0.9s-1.1,1.1-1.4,1.9c-0.3,0.7-0.2,1.3,0.1,1.8
		s0.9,0.7,1.8,0.7c1.2,0,2.3-0.4,3.3-1.2s1.8-1.9,2.3-3.1l0.5-1.4L174.9,163.5z"/>
	<path class="st10" d="M188.4,156.5c1.8-0.9,3.8-1.4,5.7-1.4c3.6,0,4.8,1.9,3.4,5.7l-3.5,9.7h-2.7l0.9-2.3h-0.1
		c-1.7,1.8-3.6,2.7-5.6,2.7c-1.5,0-2.5-0.4-3.1-1.2s-0.6-1.9-0.1-3.2c1-2.8,3.3-4.5,6.8-4.9l4.7-0.6c0.9-2.5,0.3-3.7-1.7-3.7
		c-1.8,0-3.7,0.6-5.6,1.8L188.4,156.5z M190.4,163.5c-1.3,0.2-2.3,0.5-2.9,0.9s-1.1,1.1-1.4,1.9c-0.3,0.7-0.2,1.3,0.1,1.8
		s0.9,0.7,1.8,0.7c1.2,0,2.3-0.4,3.3-1.2s1.8-1.9,2.3-3.1l0.5-1.4L190.4,163.5z"/>
	<path class="st10" d="M199.3,166.6c0.4,0.6,1.1,1,2.1,1.4s1.9,0.5,2.9,0.5c3,0,4.8-1.1,5.6-3.2c0.2-0.6,0.3-1.1,0.1-1.6
		c-0.1-0.5-0.4-0.9-0.9-1.3s-1.3-0.9-2.5-1.7c-1.7-1.1-2.8-2-3.1-2.9s-0.3-1.9,0.1-3.1c0.6-1.8,1.9-3.2,3.6-4.2
		c1.8-1,3.8-1.5,5.9-1.5c2.1,0,3.6,0.3,4.4,0.8l-1.1,3c-1-0.9-2.4-1.3-4.4-1.3c-1.3,0-2.4,0.3-3.5,0.8c-1,0.5-1.7,1.3-2,2.3
		c-0.3,0.9-0.3,1.6,0.1,2.1c0.4,0.5,1.3,1.3,2.9,2.2c1.7,1,2.8,2,3.3,3s0.5,2.1,0,3.3c-0.7,1.9-1.9,3.3-3.6,4.3
		c-1.7,1-3.8,1.5-6.2,1.5c-0.8,0-1.8-0.1-2.8-0.3s-1.7-0.5-2.1-0.9L199.3,166.6z"/>
	<path class="st10" d="M222.5,148.8h7.7l-8.1,22.2c-0.7,1.8-1.8,2.7-3.5,2.7c-0.9,0-1.8,0-2.6-0.1c0.1-0.5,0.3-1.2,0.4-1.9
		c0.9,0.1,1.7,0.2,2.3,0.2c0.7,0,1.3-0.4,1.5-1.1l2.3-6.3h-3.8c-1.5,4.2-3.4,7.4-5.8,9.6c-0.2-0.5-0.5-1-0.9-1.5
		c1.9-1.9,3.5-4.5,4.7-8L222.5,148.8z M219.3,162.8h3.8l1.9-5.3h-3.8L219.3,162.8z M227.6,150.6h-3.8l-1.9,5.2h3.8L227.6,150.6z
		 M232.4,149h13.5c-0.6,1.5-1.1,2.6-1.5,3.5c-1.2,2.8-3.1,4.2-5.8,4.2c-0.7,0-1.9-0.1-3.5-0.1c0.1-0.7,0.3-1.4,0.4-2.2
		c1.3,0.2,2.5,0.3,3.5,0.3c1.5,0.1,2.7-0.7,3.4-2.2c0.2-0.5,0.5-1,0.7-1.6h-9.3l-2.9,7.9h11.5l-0.6,1.6c-1.9,3.2-4.2,6-7,8.4
		c1,1.5,2.6,2.7,4.6,3.5c-0.9,0.7-1.7,1.4-2.3,2c-1.9-1-3.3-2.4-4.3-3.9c-1.9,1.4-4,2.6-6.2,3.6c-0.1-0.6-0.3-1.2-0.5-1.8
		c2.2-0.9,4.1-2,5.9-3.3c-0.9-2.3-1.1-5-0.5-8.2h-1.3l-4.9,13.6h-2.1L232.4,149z M239.7,160.5h-6.2c-0.4,2.6-0.2,4.9,0.6,6.7
		C236.2,165.3,238.1,163.1,239.7,160.5z"/>
	<path class="st10" d="M245.5,163h8c0.4-0.9,0.9-1.9,1.4-3h2.2c-0.5,1.1-1,2.1-1.4,3h11c-1.4,3.3-2.4,5.6-3,6.9
		c-1.2,2.6-3.2,3.9-6,3.9c-1.1,0-2.7,0-4.8-0.1c0.1-0.7,0.3-1.4,0.4-2.3c2,0.2,3.7,0.3,5.1,0.3c1.6,0,2.7-0.8,3.4-2.4
		c0.7-1.4,1.3-2.8,1.9-4.4h-9.1c-2.6,4.4-7.1,7.6-13.7,9.5c-0.2-0.6-0.4-1.2-0.7-1.8c5.8-1.7,9.9-4.3,12.1-7.7h-7.6L245.5,163z
		 M257.1,147l1.7,0.9c-0.7,0.7-1.3,1.3-2,2h14.8l-0.7,1.8c-2.4,2.1-5.4,3.9-8.9,5.4c2.7,1.1,6.1,1.8,10.2,2.1
		c-0.9,0.8-1.7,1.6-2.4,2.3c-4.5-0.6-8.1-1.7-10.8-3.2c-4.2,1.5-9,2.8-14.5,3.7c-0.1-0.6-0.2-1.2-0.4-1.9c4.8-0.7,9.1-1.7,13-3
		c-1.6-1.3-2.7-2.8-3.4-4.5c-2,1.7-4.2,3.2-6.4,4.7c-0.3-0.6-0.7-1.1-1-1.5C250.8,153,254.3,150.1,257.1,147z M268.1,151.6h-12.2
		c0.8,1.8,2.2,3.2,4.1,4.3C263,154.8,265.7,153.3,268.1,151.6z"/>
	<path class="st10" d="M288.4,162.8h-5.9l-2.2,5.9h-2.1l2.2-5.9h-5.9l0.8-2.1h5.9l2.2-5.9h2.1l-2.2,5.9h5.9L288.4,162.8z"/>
	<path class="st10" d="M289.5,170.2c3.6-0.7,7.2-1.4,10.7-2.2c-0.3,0.7-0.6,1.4-0.8,2.1c-3.2,0.6-6.5,1.3-10,2.2L289.5,170.2z
		 M295.4,163.7c2.6-0.3,4.7-0.7,6.4-0.9c-0.4,0.7-0.7,1.4-1,2.1c-2.1,0.3-5,0.7-8.8,1.3l0.3-2c1.6-1.2,3.7-3.1,6.3-5.8
		c-1.6,0.1-3,0.2-4.3,0.3l0.2-1.9c2.5-2.2,5.4-5.5,8.8-9.7l1.8,0.8c-3.4,3.9-6,6.8-8,8.7c1.1,0,2.2-0.1,3.3-0.1
		c1-1.1,2.1-2.2,3.2-3.5l1.7,1C301.8,157.6,298.6,160.8,295.4,163.7z M303.2,163.1h14.4l-4,11.1h-2.1l0.6-1.7h-10.2l-0.6,1.7h-2.1
		L303.2,163.1z M314.8,165h-10.2l-2,5.6h10.2L314.8,165z M304.5,157.9h6.7l1.6-4.3h-7.6l0.7-2h7.6l1.6-4.4h2.2l-1.6,4.4h7.7l-0.7,2
		H315l-1.6,4.3h6.7l-0.7,2h-15.6L304.5,157.9z"/>
	<path class="st10" d="M324.5,162.2h19.1l-4.4,12.1H337l0.7-1.8H323l-0.7,1.9h-2.2L324.5,162.2z M341.5,147.7l-0.9,0.8
		c1.6,4,4.6,6.9,8.9,8.9c-0.9,0.8-1.6,1.5-2.2,2.2c-1.2-0.7-2.3-1.5-3.3-2.4l-0.6,1.6h-16l0.5-1.4c-1.6,0.9-3.4,1.7-5.2,2.6
		c-0.1-0.6-0.3-1.3-0.6-2.1c6.7-2.8,12.2-6.2,16.5-10.2L341.5,147.7L341.5,147.7z M340.7,164.2H326l-2.3,6.4h14.7L340.7,164.2z
		 M338.5,150.1c-2.7,2.4-6,4.6-9.8,6.8h14.6C341.3,154.9,339.7,152.7,338.5,150.1z"/>
	<path class="st10" d="M364.4,170.6h-3v-5.8h-8.8l-4.1,5.8h-3l15.8-21.2h2.9L364.4,170.6z M361.3,162.4v-8.8c0-0.3,0.1-0.8,0.2-1.5
		h-0.1c-0.3,0.6-0.6,1.1-0.9,1.5l-6.4,8.8H361.3z"/>
	<path class="st10" d="M379.1,151.7h-2l-6,16.6h2l-0.8,2.3h-6.8l0.8-2.3h2l6-16.6h-2l0.8-2.3h6.8L379.1,151.7z"/>
	<path class="st10" d="M386.4,149l-4.6,6.6H380l4-6.6H386.4z M391.1,149l-4.6,6.6h-1.9l4-6.6H391.1z"/>
</g>
<polygon class="st14" points="866.1,257.5 529.4,257.5 569.2,148.1 905.9,148.1 "/>
<text transform="matrix(0.9397 0 -0.342 0.9397 562.3113 166.9943)" class="st13 st4 st15">专业、高效、低价</text>
<text transform="matrix(0.9397 0 -0.342 0.9397 562.3113 166.9943)" class="st11 st4 st15">专业、高效、低价</text>
</svg>
