<?xml version="1.0" encoding="utf-8"?>
<!-- Generator: Adobe Illustrator 21.0.0, SVG Export Plug-In . SVG Version: 6.00 Build 0)  -->
<svg version="1.1" id="图层_1" xmlns="http://www.w3.org/2000/svg" xmlns:xlink="http://www.w3.org/1999/xlink" x="0px" y="0px"
	 viewBox="0 0 38 34" style="enable-background:new 0 0 38 34;" xml:space="preserve">
<style type="text/css">
	.st0{fill:#434243;}
</style>
<g>
	<g>
		<path class="st0" d="M34.4,33.7c-0.3,0-0.7-0.1-0.9-0.4L2.7,2.5C2.2,2,2.2,1.2,2.7,0.7c0.5-0.5,1.3-0.5,1.8,0l30.8,30.8
			c0.4,0.4,0.5,0.9,0.3,1.4C35.4,33.4,34.9,33.7,34.4,33.7"/>
		<path class="st0" d="M3.6,33.7c-0.5,0-1-0.3-1.2-0.8c-0.2-0.5-0.1-1,0.3-1.4L33.5,0.7c0.5-0.5,1.3-0.4,1.8,0
			c0.5,0.5,0.5,1.3,0,1.8L4.5,33.3C4.3,33.6,3.9,33.7,3.6,33.7"/>
	</g>
</g>
</svg>
