<?xml version="1.0" encoding="utf-8"?>
<!-- Generator: Adobe Illustrator 21.0.0, SVG Export Plug-In . SVG Version: 6.00 Build 0)  -->
<svg version="1.1" id="图层_1" xmlns="http://www.w3.org/2000/svg" xmlns:xlink="http://www.w3.org/1999/xlink" x="0px" y="0px"
	 viewBox="0 0 32 32" style="enable-background:new 0 0 32 32;" xml:space="preserve">
<style type="text/css">
	.st0{opacity:0.81;fill:#333333;}
	.st1{fill:#FFFFFF;}
</style>
<circle class="st0" cx="16" cy="16" r="15.2"/>
<g>
	<g>
		<path class="st1" d="M24.5,25.8c-0.1,0-0.3-0.1-0.4-0.2L7.7,9.2C7.5,9,7.5,8.6,7.7,8.4c0.2-0.2,0.6-0.2,0.8,0l16.4,16.4
			c0.2,0.2,0.2,0.6,0,0.8C24.8,25.7,24.7,25.8,24.5,25.8L24.5,25.8z M24.5,25.8"/>
		<path class="st1" d="M8.1,25.8c-0.1,0-0.3-0.1-0.4-0.2c-0.2-0.2-0.2-0.6,0-0.8L24.1,8.4c0.2-0.2,0.6-0.2,0.8,0
			c0.2,0.2,0.2,0.6,0,0.8L8.5,25.6C8.4,25.7,8.2,25.8,8.1,25.8L8.1,25.8z M8.1,25.8"/>
	</g>
</g>
</svg>
