<?xml version="1.0" encoding="utf-8"?>
<!-- Generator: Adobe Illustrator 21.0.0, SVG Export Plug-In . SVG Version: 6.00 Build 0)  -->
<svg version="1.1" id="图层_1" xmlns="http://www.w3.org/2000/svg" xmlns:xlink="http://www.w3.org/1999/xlink" x="0px" y="0px"
	 viewBox="0 0 142 142" style="enable-background:new 0 0 142 142;" xml:space="preserve">
<style type="text/css">
	.st0{fill:#00ADB3;}
	.st1{fill:#FFFFFF;}
</style>
<path class="st0" d="M116,142H26c-14.3,0-26-11.7-26-26V26C0,11.7,11.7,0,26,0h90c14.3,0,26,11.7,26,26v90
	C142,130.3,130.3,142,116,142z"/>
<g>
	<path class="st1" d="M87.7,25.6c7.9,0,15.9,0,23.8,0c2,0,3.3,1.3,3.2,3.3c-0.1,2.6-0.1,5.3-0.1,7.9c0,11.2,0,22.5,0,33.7
		c0,1.9,0,3.9,0.1,5.8c0,2.2-1,3.7-2.9,4.1c-0.2,0.1-0.5,0.1-0.7,0.1c-11.2,0-22.4,0-33.6,0c-0.8,0-1.3-0.4-1.6-1
		c-0.3-0.6-0.1-1.2,0.3-1.7c3.2-3.5,6.3-7,9.5-10.6c3-3.4,6.1-6.7,9-10.1c1.3-1.5,1.7-3.4,1.8-5.3c0.1-1.4-0.2-2.6-1-3.8
		c-1.1-1.6-2.8-2.4-4.6-3c-0.1,0-0.3,0-0.4,0c-13.7,0.1-27.3,0-41,0c-1.1,0-2.2,0-3.2,0c-0.7,0-1.2-0.3-1.5-0.9
		c-0.3-0.6-0.1-1.1,0.3-1.5c1.4-1.7,2.9-3.2,4.3-4.8c2.7-2.8,5.4-5.7,8-8.5c1.2-1.3,2.5-2.4,4.2-3.2c0.7-0.3,1.5-0.5,2.3-0.5
		C71.9,25.6,79.8,25.6,87.7,25.6z"/>
	<path class="st1" d="M54,117.3c-8,0-15.9,0-23.9,0c-1.9,0-3.2-1.3-3.2-3.2c0.1-14.4,0-28.9-0.1-43.3c0-1.7-0.2-3.5,0-5.2
		c0.2-2,1.6-3.2,3.7-3.2c9.5,0,18.9,0,28.4,0c1.7,0,3.4,0,5.1,0c0.8,0,1.3,0.4,1.6,1c0.3,0.6,0.1,1.2-0.3,1.7c-1,1.1-2,2.3-3,3.4
		C57.2,74.3,52,80.1,46.9,85.8c-1.1,1.2-1.5,2.8-1.7,4.4c-0.3,2,0,3.8,1.4,5.3c1.1,1.2,2.5,1.9,4.1,2.4c0.2,0.1,0.4,0,0.5,0
		c14.6-0.1,29.3-0.1,43.9-0.1c0.3,0,0.5,0,0.8,0.1c1.2,0.5,1.5,1.5,0.5,2.6c-1.1,1.2-2.2,2.4-3.3,3.6c-3,3.2-6,6.3-9,9.5
		c-1.2,1.3-2.5,2.4-4,3.1c-0.7,0.3-1.5,0.5-2.3,0.5c-7.9,0-15.8,0-23.7,0C54,117.3,54,117.3,54,117.3z"/>
</g>
</svg>
