<?xml version="1.0" encoding="utf-8"?>
<!-- Generator: Adobe Illustrator 21.0.0, SVG Export Plug-In . SVG Version: 6.00 Build 0)  -->
<svg version="1.1" id="图层_1" xmlns="http://www.w3.org/2000/svg" xmlns:xlink="http://www.w3.org/1999/xlink" x="0px" y="0px"
	 viewBox="0 0 60 60" style="enable-background:new 0 0 60 60;" xml:space="preserve">
<style type="text/css">
	.st0{fill:#F2FBFB;}
	.st1{display:none;}
	.st2{display:inline;fill:#00ADB4;}
	.st3{display:inline;fill:#FFA92E;}
	.st4{display:inline;}
	.st5{fill:#00ADB4;}
	.st6{fill:#FFA92E;}
</style>
<circle class="st0" cx="30" cy="30" r="29.5"/>
<g class="st1">
	<path class="st2" d="M46.8,43.2h-1.2V26.4c0-2.6-2.2-4.8-4.8-4.8h-7.2v-2.4c0-2.6-2.2-4.8-4.8-4.8h-9.6c-2.6,0-4.8,2.2-4.8,4.8v24
		h-1.2c-0.7,0-1.2,0.5-1.2,1.2s0.5,1.2,1.2,1.2h33.6c0.7,0,1.2-0.5,1.2-1.2S47.5,43.2,46.8,43.2L46.8,43.2z"/>
	<path class="st2" d="M31.2,21.6v21.6H16.8v-24c0-1.3,1.1-2.4,2.4-2.4h9.6c1.3,0,2.4,1.1,2.4,2.4V21.6z"/>
	<path class="st2" d="M43.2,43.2h-9.6V24h7.2c1.3,0,2.4,1.1,2.4,2.4V43.2z"/>
	<path class="st3" d="M27.6,21.6h-7.2c-0.7,0-1.2,0.5-1.2,1.2c0,0.7,0.5,1.2,1.2,1.2h7.2c0.7,0,1.2-0.5,1.2-1.2
		C28.8,22.1,28.3,21.6,27.6,21.6L27.6,21.6z"/>
	<path class="st2" d="M27.6,28.8h-7.2c-0.7,0-1.2,0.5-1.2,1.2c0,0.7,0.5,1.2,1.2,1.2h7.2c0.7,0,1.2-0.5,1.2-1.2
		C28.8,29.3,28.3,28.8,27.6,28.8L27.6,28.8z"/>
	<path class="st2" d="M27.6,36h-7.2c-0.7,0-1.2,0.5-1.2,1.2c0,0.7,0.5,1.2,1.2,1.2h7.2c0.7,0,1.2-0.5,1.2-1.2
		C28.8,36.5,28.3,36,27.6,36L27.6,36z"/>
	<path class="st2" d="M39.6,28.8h-2.4c-0.7,0-1.2,0.5-1.2,1.2c0,0.7,0.5,1.2,1.2,1.2h2.4c0.7,0,1.2-0.5,1.2-1.2
		C40.8,29.3,40.3,28.8,39.6,28.8L39.6,28.8z"/>
	<path class="st3" d="M39.6,36h-2.4c-0.7,0-1.2,0.5-1.2,1.2c0,0.7,0.5,1.2,1.2,1.2h2.4c0.7,0,1.2-0.5,1.2-1.2
		C40.8,36.5,40.3,36,39.6,36L39.6,36z"/>
</g>
<g class="st1">
	<g class="st4">
		<path class="st5" d="M38.6,36.2 M47.4,42.9h-1.2V26.5c0-2.6-2.1-4.7-4.7-4.7h-7v-2.3c0-2.6-2.1-4.7-4.7-4.7h-9.4
			c-2.6,0-4.7,2.1-4.7,4.7v23.4h-1.2c-0.7,0-1.2,0.5-1.2,1.2c0,0.7,0.5,1.2,1.2,1.2h32.7c0.7,0,1.2-0.5,1.2-1.2
			C48.5,43.4,48,42.9,47.4,42.9L47.4,42.9z M32.2,21.8v21h-14V19.5c0-1.3,1.1-2.3,2.3-2.3h9.4c1.3,0,2.3,1.1,2.3,2.3V21.8z
			 M43.9,42.9h-9.4V24.2h7c1.3,0,2.3,1.1,2.3,2.3V42.9z M28.7,21.8h-7c-0.7,0-1.2,0.5-1.2,1.2c0,0.7,0.5,1.2,1.2,1.2h7
			c0.7,0,1.2-0.5,1.2-1.2C29.8,22.3,29.3,21.8,28.7,21.8L28.7,21.8z M28.7,28.8h-7c-0.7,0-1.2,0.5-1.2,1.2c0,0.7,0.5,1.2,1.2,1.2h7
			c0.7,0,1.2-0.5,1.2-1.2C29.8,29.3,29.3,28.8,28.7,28.8L28.7,28.8z M28.7,35.8h-7c-0.7,0-1.2,0.5-1.2,1.2c0,0.7,0.5,1.2,1.2,1.2h7
			c0.7,0,1.2-0.5,1.2-1.2C29.8,36.4,29.3,35.8,28.7,35.8L28.7,35.8z M40.4,28.8H38c-0.7,0-1.2,0.5-1.2,1.2c0,0.7,0.5,1.2,1.2,1.2
			h2.3c0.7,0,1.2-0.5,1.2-1.2C41.5,29.3,41,28.8,40.4,28.8L40.4,28.8z M40.4,35.8H38c-0.7,0-1.2,0.5-1.2,1.2c0,0.7,0.5,1.2,1.2,1.2
			h2.3c0.7,0,1.2-0.5,1.2-1.2C41.5,36.4,41,35.8,40.4,35.8L40.4,35.8z"/>
	</g>
	<path class="st3" d="M28.7,24.3h-6.9c-0.7,0-1.3-0.6-1.3-1.3v0c0-0.7,0.6-1.3,1.3-1.3h6.9c0.7,0,1.3,0.6,1.3,1.3v0
		C30,23.7,29.4,24.3,28.7,24.3z"/>
	<path class="st3" d="M40.4,38.3H38c-0.7,0-1.3-0.6-1.3-1.3v0c0-0.7,0.6-1.3,1.3-1.3h2.4c0.7,0,1.3,0.6,1.3,1.3v0
		C41.7,37.7,41.1,38.3,40.4,38.3z"/>
</g>
<g>
	<g>
		<g>
			<path class="st5" d="M40.1,17.1l-8.9-2.6c-0.8-0.2-1.6-0.2-2.3,0l-8.9,2.6c-1.6,0.4-2.8,1.9-2.8,3.5v13c0.2,6.9,6,12.2,12.8,12
				c6.9,0.2,12.6-5.1,12.8-12v-13C42.8,19,41.7,17.5,40.1,17.1L40.1,17.1z M20.5,18.9l8.9-2.6c0.4-0.1,0.9-0.1,1.3,0l8.9,2.6
				c0.9,0.2,1.5,0.9,1.5,1.8v1.4c-0.4-0.3-0.9-0.6-1.4-0.7l-8.2-2.6c-0.9-0.3-1.8-0.3-2.7,0l-8.3,2.6c-0.5,0.2-1,0.4-1.4,0.7v-1.4
				C19,19.8,19.6,19,20.5,18.9L20.5,18.9z M41,33.6c-0.2,5.9-5.2,10.4-11,10.2c-5.8,0.2-10.8-4.3-11-10.2v-7.8
				c0-1.2,0.8-2.4,1.9-2.7l8.3-2.6c0.5-0.2,1.1-0.2,1.6,0l8.3,2.6c1.2,0.4,2,1.4,1.9,2.6V33.6z M41,33.6"/>
			<path class="st5" d="M30.4,45.9c-0.1,0-0.3,0-0.4,0c-0.1,0-0.3,0-0.4,0c-3.2,0-6.3-1.2-8.7-3.4c-2.5-2.3-3.9-5.5-4-8.8l0,0v-13
				c0-1.8,1.2-3.3,3-3.8l8.9-2.5c0.8-0.2,1.7-0.2,2.5,0l8.9,2.5c1.7,0.4,3,2,3,3.8v13l0,0c-0.1,3.4-1.5,6.5-4,8.8
				C36.7,44.7,33.7,45.9,30.4,45.9z M30,45.3L30,45.3c3.3,0.1,6.3-1.1,8.7-3.3c2.4-2.2,3.7-5.2,3.9-8.5v-13c0-1.5-1.1-2.9-2.6-3.3
				l0,0l-8.9-2.6c-0.7-0.2-1.5-0.2-2.2,0L20,17.4l0,0c-1.5,0.4-2.6,1.7-2.6,3.3l0,12.9c0.1,3.2,1.5,6.3,3.9,8.5
				C23.7,44.3,26.7,45.4,30,45.3L30,45.3z M29.6,44c-2.7,0-5.4-1-7.4-2.9c-2.1-2-3.4-4.6-3.5-7.5l0,0v-7.8c0-1.4,0.8-2.6,2.1-3
				l8.3-2.6c0.6-0.2,1.2-0.2,1.8,0l8.3,2.6c0.6,0.2,1.2,0.6,1.5,1.1c0.4,0.5,0.6,1.1,0.6,1.8v7.8l0,0c-0.1,2.9-1.3,5.6-3.5,7.6
				c-2.1,2-4.9,3-7.8,2.9C29.9,44,29.7,44,29.6,44z M19.3,33.6c0.1,2.8,1.3,5.3,3.3,7.2c2,1.9,4.7,2.8,7.4,2.7l0,0l0,0
				c2.8,0.1,5.4-0.9,7.4-2.8c2-1.9,3.2-4.4,3.3-7.2v-7.8c0-1.1-0.7-2.1-1.8-2.4l-8.3-2.6c-0.5-0.1-1-0.1-1.5,0L21,23.4
				c-1.1,0.3-1.8,1.3-1.8,2.5l0,0V33.6z M41.3,22.7l-0.4-0.3c-0.4-0.3-0.9-0.5-1.3-0.7L31.3,19c-0.8-0.3-1.7-0.3-2.5,0l-8.3,2.6
				c-0.5,0.1-0.9,0.4-1.3,0.7l-0.4,0.3l0-2c0-1,0.7-1.8,1.7-2l8.9-2.5c0.5-0.1,1-0.1,1.4,0l8.9,2.5c1,0.2,1.7,1.1,1.7,2.1V22.7z
				 M30,18.3c0.5,0,1,0.1,1.4,0.2l8.2,2.6c0.4,0.1,0.7,0.3,1.1,0.5l0-0.9c0-0.8-0.5-1.4-1.3-1.6l0,0l-8.9-2.6
				c-0.4-0.1-0.8-0.1-1.2,0l-8.9,2.6l0,0c-0.7,0.1-1.2,0.8-1.3,1.5v0.9c0.3-0.2,0.7-0.4,1-0.5l8.3-2.6C29,18.4,29.5,18.3,30,18.3z"
				/>
		</g>
	</g>
	<g>
		<path class="st6" d="M35.6,27L29.2,35l-4.6-4.6c-0.3-0.3-0.9-0.3-1.3,0c-0.3,0.3-0.3,0.9,0,1.3l5.3,5.3c0.1,0.1,0.3,0.2,0.5,0.2
			c0.1,0,0.2,0,0.4,0h0.1l0.2-0.1l7.1-8.8c0.3-0.4,0.2-0.9-0.2-1.2c-0.4-0.3-0.9-0.2-1.2,0.1L35.6,27z M35.6,27"/>
		<path class="st6" d="M29.3,37.4c-0.1,0-0.1,0-0.2,0c-0.2,0-0.4-0.1-0.6-0.2l0,0l-5.3-5.3c-0.4-0.4-0.4-1.2,0-1.6
			c0.4-0.4,1.2-0.4,1.6,0l4.4,4.4l6.1-7.7l0,0c0,0,0.1-0.1,0.1-0.1l0.1-0.1l0,0c0.4-0.3,0.9-0.3,1.3,0.1c0.5,0.4,0.6,1,0.2,1.5l0,0
			l-7.1,8.9l-0.3,0.2h-0.2C29.4,37.4,29.3,37.4,29.3,37.4z M28.8,36.8c0.1,0.1,0.2,0.1,0.3,0.1l0,0l0,0c0.1,0,0.2,0,0.3,0l0,0h0.1
			l0.1,0l7-8.8c0.2-0.3,0.1-0.6-0.1-0.8c-0.2-0.2-0.5-0.2-0.7-0.1l-6.6,8.2l-4.8-4.8c-0.2-0.2-0.6-0.2-0.9,0c-0.2,0.2-0.2,0.6,0,0.9
			L28.8,36.8z"/>
	</g>
</g>
</svg>
