<?xml version="1.0" encoding="utf-8"?>
<!-- Generator: Adobe Illustrator 21.0.0, SVG Export Plug-In . SVG Version: 6.00 Build 0)  -->
<svg version="1.1" id="图层_1" xmlns="http://www.w3.org/2000/svg" xmlns:xlink="http://www.w3.org/1999/xlink" x="0px" y="0px"
	 viewBox="0 0 60 60" style="enable-background:new 0 0 60 60;" xml:space="preserve">
<style type="text/css">
	.st0{fill:#F2FBFB;}
	.st1{display:none;}
	.st2{display:inline;fill:#00ADB4;}
	.st3{display:inline;fill:#FFA92E;}
	.st4{display:inline;}
	.st5{fill:#00ADB4;}
	.st6{fill:#FFA92E;}
	.st7{fill:#13A3A9;}
	.st8{display:inline;fill:#F4A435;}
</style>
<circle class="st0" cx="30" cy="30" r="29.5"/>
<g class="st1">
	<path class="st2" d="M46.8,43.2h-1.2V26.4c0-2.6-2.2-4.8-4.8-4.8h-7.2v-2.4c0-2.6-2.2-4.8-4.8-4.8h-9.6c-2.6,0-4.8,2.2-4.8,4.8v24
		h-1.2c-0.7,0-1.2,0.5-1.2,1.2s0.5,1.2,1.2,1.2h33.6c0.7,0,1.2-0.5,1.2-1.2S47.5,43.2,46.8,43.2L46.8,43.2z"/>
	<path class="st2" d="M31.2,21.6v21.6H16.8v-24c0-1.3,1.1-2.4,2.4-2.4h9.6c1.3,0,2.4,1.1,2.4,2.4C31.2,19.2,31.2,21.6,31.2,21.6z"/>
	<path class="st2" d="M43.2,43.2h-9.6V24h7.2c1.3,0,2.4,1.1,2.4,2.4V43.2z"/>
	<path class="st3" d="M27.6,21.6h-7.2c-0.7,0-1.2,0.5-1.2,1.2s0.5,1.2,1.2,1.2h7.2c0.7,0,1.2-0.5,1.2-1.2
		C28.8,22.1,28.3,21.6,27.6,21.6L27.6,21.6z"/>
	<path class="st2" d="M27.6,28.8h-7.2c-0.7,0-1.2,0.5-1.2,1.2s0.5,1.2,1.2,1.2h7.2c0.7,0,1.2-0.5,1.2-1.2
		C28.8,29.3,28.3,28.8,27.6,28.8L27.6,28.8z"/>
	<path class="st2" d="M27.6,36h-7.2c-0.7,0-1.2,0.5-1.2,1.2s0.5,1.2,1.2,1.2h7.2c0.7,0,1.2-0.5,1.2-1.2C28.8,36.5,28.3,36,27.6,36
		L27.6,36z"/>
	<path class="st2" d="M39.6,28.8h-2.4c-0.7,0-1.2,0.5-1.2,1.2s0.5,1.2,1.2,1.2h2.4c0.7,0,1.2-0.5,1.2-1.2S40.3,28.8,39.6,28.8
		L39.6,28.8z"/>
	<path class="st3" d="M39.6,36h-2.4c-0.7,0-1.2,0.5-1.2,1.2s0.5,1.2,1.2,1.2h2.4c0.7,0,1.2-0.5,1.2-1.2S40.3,36,39.6,36L39.6,36z"/>
</g>
<g class="st1">
	<g class="st4">
		<path class="st5" d="M47.4,42.9h-1.2V26.5c0-2.6-2.1-4.7-4.7-4.7h-7v-2.3c0-2.6-2.1-4.7-4.7-4.7h-9.4c-2.6,0-4.7,2.1-4.7,4.7v23.4
			h-1.2c-0.7,0-1.2,0.5-1.2,1.2s0.5,1.2,1.2,1.2h32.7c0.7,0,1.2-0.5,1.2-1.2C48.5,43.4,48,42.9,47.4,42.9L47.4,42.9z M32.2,21.8v21
			h-14V19.5c0-1.3,1.1-2.3,2.3-2.3h9.4c1.3,0,2.3,1.1,2.3,2.3V21.8z M43.9,42.9h-9.4V24.2h7c1.3,0,2.3,1.1,2.3,2.3v16.4H43.9z
			 M28.7,21.8h-7c-0.7,0-1.2,0.5-1.2,1.2s0.5,1.2,1.2,1.2h7c0.7,0,1.2-0.5,1.2-1.2C29.8,22.3,29.3,21.8,28.7,21.8L28.7,21.8z
			 M28.7,28.8h-7c-0.7,0-1.2,0.5-1.2,1.2s0.5,1.2,1.2,1.2h7c0.7,0,1.2-0.5,1.2-1.2C29.8,29.3,29.3,28.8,28.7,28.8L28.7,28.8z
			 M28.7,35.8h-7c-0.7,0-1.2,0.5-1.2,1.2s0.5,1.2,1.2,1.2h7c0.7,0,1.2-0.5,1.2-1.2C29.8,36.4,29.3,35.8,28.7,35.8L28.7,35.8z
			 M40.4,28.8H38c-0.7,0-1.2,0.5-1.2,1.2s0.5,1.2,1.2,1.2h2.3c0.7,0,1.2-0.5,1.2-1.2S41,28.8,40.4,28.8L40.4,28.8z M40.4,35.8H38
			c-0.7,0-1.2,0.5-1.2,1.2s0.5,1.2,1.2,1.2h2.3c0.7,0,1.2-0.5,1.2-1.2C41.5,36.4,41,35.8,40.4,35.8L40.4,35.8z"/>
	</g>
	<path class="st3" d="M28.7,24.3h-6.9c-0.7,0-1.3-0.6-1.3-1.3l0,0c0-0.7,0.6-1.3,1.3-1.3h6.9c0.7,0,1.3,0.6,1.3,1.3l0,0
		C30,23.7,29.4,24.3,28.7,24.3z"/>
	<path class="st3" d="M40.4,38.3H38c-0.7,0-1.3-0.6-1.3-1.3l0,0c0-0.7,0.6-1.3,1.3-1.3h2.4c0.7,0,1.3,0.6,1.3,1.3l0,0
		C41.7,37.7,41.1,38.3,40.4,38.3z"/>
</g>
<g class="st1">
	<g class="st4">
		<g>
			<path class="st5" d="M40.1,17.1l-8.9-2.6c-0.8-0.2-1.6-0.2-2.3,0L20,17.1c-1.6,0.4-2.8,1.9-2.8,3.5v13c0.2,6.9,6,12.2,12.8,12
				c6.9,0.2,12.6-5.1,12.8-12v-13C42.8,19,41.7,17.5,40.1,17.1L40.1,17.1z M20.5,18.9l8.9-2.6c0.4-0.1,0.9-0.1,1.3,0l8.9,2.6
				c0.9,0.2,1.5,0.9,1.5,1.8v1.4c-0.4-0.3-0.9-0.6-1.4-0.7l-8.2-2.6c-0.9-0.3-1.8-0.3-2.7,0l-8.3,2.6c-0.5,0.2-1,0.4-1.4,0.7v-1.4
				C19,19.8,19.6,19,20.5,18.9L20.5,18.9z M41,33.6c-0.2,5.9-5.2,10.4-11,10.2c-5.8,0.2-10.8-4.3-11-10.2v-7.8
				c0-1.2,0.8-2.4,1.9-2.7l8.3-2.6c0.5-0.2,1.1-0.2,1.6,0l8.3,2.6c1.2,0.4,2,1.4,1.9,2.6C41,25.7,41,33.6,41,33.6z"/>
			<path class="st5" d="M30.4,45.9c-0.1,0-0.3,0-0.4,0s-0.3,0-0.4,0c-3.2,0-6.3-1.2-8.7-3.4c-2.5-2.3-3.9-5.5-4-8.8l0,0v-13
				c0-1.8,1.2-3.3,3-3.8l8.9-2.5c0.8-0.2,1.7-0.2,2.5,0l8.9,2.5c1.7,0.4,3,2,3,3.8v13l0,0c-0.1,3.4-1.5,6.5-4,8.8
				C36.7,44.7,33.7,45.9,30.4,45.9z M30,45.3L30,45.3c3.3,0.1,6.3-1.1,8.7-3.3s3.7-5.2,3.9-8.5v-13c0-1.5-1.1-2.9-2.6-3.3l0,0
				l-8.9-2.6c-0.7-0.2-1.5-0.2-2.2,0L20,17.4l0,0c-1.5,0.4-2.6,1.7-2.6,3.3v12.9c0.1,3.2,1.5,6.3,3.9,8.5S26.7,45.4,30,45.3L30,45.3
				z M29.6,44c-2.7,0-5.4-1-7.4-2.9c-2.1-2-3.4-4.6-3.5-7.5l0,0v-7.8c0-1.4,0.8-2.6,2.1-3l8.3-2.6c0.6-0.2,1.2-0.2,1.8,0l8.3,2.6
				c0.6,0.2,1.2,0.6,1.5,1.1c0.4,0.5,0.6,1.1,0.6,1.8v7.8l0,0c-0.1,2.9-1.3,5.6-3.5,7.6c-2.1,2-4.9,3-7.8,2.9
				C29.9,44,29.7,44,29.6,44z M19.3,33.6c0.1,2.8,1.3,5.3,3.3,7.2s4.7,2.8,7.4,2.7l0,0l0,0c2.8,0.1,5.4-0.9,7.4-2.8
				c2-1.9,3.2-4.4,3.3-7.2v-7.8c0-1.1-0.7-2.1-1.8-2.4l-8.3-2.6c-0.5-0.1-1-0.1-1.5,0L21,23.4c-1.1,0.3-1.8,1.3-1.8,2.5l0,0
				L19.3,33.6L19.3,33.6z M41.3,22.7l-0.4-0.3c-0.4-0.3-0.9-0.5-1.3-0.7L31.3,19c-0.8-0.3-1.7-0.3-2.5,0l-8.3,2.6
				c-0.5,0.1-0.9,0.4-1.3,0.7l-0.4,0.3v-2c0-1,0.7-1.8,1.7-2l8.9-2.5c0.5-0.1,1-0.1,1.4,0l8.9,2.5c1,0.2,1.7,1.1,1.7,2.1v2H41.3z
				 M30,18.3c0.5,0,1,0.1,1.4,0.2l8.2,2.6c0.4,0.1,0.7,0.3,1.1,0.5v-0.9c0-0.8-0.5-1.4-1.3-1.6l0,0l-8.9-2.6c-0.4-0.1-0.8-0.1-1.2,0
				l-8.9,2.6l0,0c-0.7,0.1-1.2,0.8-1.3,1.5v0.9c0.3-0.2,0.7-0.4,1-0.5l8.3-2.6C29,18.4,29.5,18.3,30,18.3z"/>
		</g>
	</g>
	<g class="st4">
		<path class="st6" d="M35.6,27l-6.4,8l-4.6-4.6c-0.3-0.3-0.9-0.3-1.3,0c-0.3,0.3-0.3,0.9,0,1.3l5.3,5.3c0.1,0.1,0.3,0.2,0.5,0.2
			c0.1,0,0.2,0,0.4,0h0.1l0.2-0.1l7.1-8.8c0.3-0.4,0.2-0.9-0.2-1.2c-0.4-0.3-0.9-0.2-1.2,0.1L35.6,27z"/>
		<path class="st6" d="M29.3,37.4c-0.1,0-0.1,0-0.2,0c-0.2,0-0.4-0.1-0.6-0.2l0,0l-5.3-5.3c-0.4-0.4-0.4-1.2,0-1.6s1.2-0.4,1.6,0
			l4.4,4.4l6.1-7.7l0,0l0.1-0.1l0.1-0.1l0,0c0.4-0.3,0.9-0.3,1.3,0.1c0.5,0.4,0.6,1,0.2,1.5l0,0l-7.1,8.9l-0.3,0.2L29.3,37.4
			C29.4,37.4,29.3,37.4,29.3,37.4z M28.8,36.8c0.1,0.1,0.2,0.1,0.3,0.1l0,0l0,0c0.1,0,0.2,0,0.3,0l0,0h0.1h0.1l7-8.8
			c0.2-0.3,0.1-0.6-0.1-0.8c-0.2-0.2-0.5-0.2-0.7-0.1l-6.6,8.2l-4.8-4.8c-0.2-0.2-0.6-0.2-0.9,0c-0.2,0.2-0.2,0.6,0,0.9L28.8,36.8z"
			/>
	</g>
</g>
<g class="st1">
	<path class="st2" d="M41.7,45.7h-26c-2.2,0-3.9-1.8-3.9-3.9V18.2c0-2.2,1.8-3.9,3.9-3.9h26.2c2.2,0,3.9,1.8,3.9,3.9V22
		c0,0.7-0.6,1.3-1.3,1.3s-1.3-0.6-1.3-1.3v-3.8c0-0.7-0.6-1.3-1.3-1.3H15.6c-0.7,0-1.3,0.6-1.3,1.3v23.6c0,0.7,0.6,1.3,1.3,1.3h26
		c0.7,0,1.3-0.6,1.3-1.3v-4c0-0.7,0.6-1.3,1.3-1.3s1.3,0.6,1.3,1.3v4C45.6,43.9,43.8,45.7,41.7,45.7L41.7,45.7z"/>
	<path class="st3" d="M37.3,30L37.3,30L37.3,30c0-0.3-0.1-0.7-0.4-0.9c-0.2-0.2-0.6-0.4-0.9-0.4c-0.3,0-0.7,0.1-0.9,0.4
		c-0.2,0.2-0.4,0.6-0.4,0.9l0,0l0,0l0,0c0,0.3,0.1,0.7,0.4,0.9c0.2,0.2,0.6,0.4,0.9,0.4c0.3,0,0.7-0.1,0.9-0.4
		C37.2,30.6,37.3,30.3,37.3,30L37.3,30L37.3,30L37.3,30z"/>
	<path class="st2" d="M46,35.1H32.5c-1.3,0-2.3-1-2.3-2.3V27c0-1.3,1-2.3,2.3-2.3H46c1.3,0,2.3,1,2.3,2.3v5.8
		C48.3,34.1,47.2,35.1,46,35.1L46,35.1z M32.7,32.6h13v-5.3h-13V32.6z"/>
</g>
<g class="st1">
	<g class="st4">
		<g>
			<g>
				<path class="st7" d="M43.2,35.9L37,30l6.1-5.9c2.4,0,4.4-2,4.4-4.4s-2-4.4-4.4-4.4s-4.4,2-4.4,4.4c0,1.5,0.9,2.9,2,3.7l-5.3,5.3
					l-5-5c-0.4-0.4-1.1-0.4-1.5,0l-4.8,4.8l-5.3-5c1.5-0.7,2.4-2.2,2.4-3.9c0-2.4-2-4.4-4.4-4.4s-4.4,2-4.4,4.4
					c0,2.2,1.8,3.9,3.7,4.4l6.1,6.1l-6.1,6.1c-2.2,0.2-3.7,2.2-3.7,4.4c0,2.4,2,4.4,4.4,4.4s4.4-2,4.4-4.4c0-1.8-0.9-3.3-2.4-3.9
					l5-5l3.7,3.5c-1.1,0.7-2,2-2,3.3c0,2.2,1.8,3.9,3.9,3.9c2.2,0,3.9-1.8,3.9-3.9c0-1.3-0.7-2.6-2-3.3l3.7-3.5l5.3,5.3
					c-1.1,0.9-2,2.2-2,3.7c0,2.4,2,4.4,4.4,4.4s4.4-2,4.4-4.4C47.6,37.9,45.6,35.9,43.2,35.9L43.2,35.9z M43.2,17.3
					c1.3,0,2.2,1.1,2.2,2.2s-1.1,2.2-2.2,2.2c-1.1,0-2.2-1.1-2.2-2.2S41.8,17.3,43.2,17.3L43.2,17.3z M14.6,19.5
					c0-1.3,1.1-2.2,2.2-2.2c1.3,0,2.2,1.1,2.2,2.2s-1.1,2.2-2.2,2.2C15.7,21.9,14.6,20.8,14.6,19.5L14.6,19.5z M16.8,42.7
					c-1.3,0-2.2-1.1-2.2-2.2c0-1.3,1.1-2.2,2.2-2.2c1.3,0,2.2,1.1,2.2,2.2C19,41.6,18.2,42.7,16.8,42.7L16.8,42.7z M29.8,40.3
					c-0.9,0-1.8-0.9-1.8-1.8c0-0.9,0.9-1.8,1.8-1.8s1.8,0.9,1.8,1.8C31.5,39.4,30.7,40.3,29.8,40.3L29.8,40.3z M29.8,34.2L25.6,30
					l4.2-4.2l3.9,4.2L29.8,34.2z M43.2,42.7c-1.3,0-2.2-1.1-2.2-2.2c0-1.3,1.1-2.2,2.2-2.2c1.1,0,2.2,1.1,2.2,2.2
					C45.4,41.6,44.3,42.7,43.2,42.7L43.2,42.7z"/>
				<path class="st7" d="M42.9,45.2c-2.6,0-4.7-2.1-4.7-4.7c0-1.4,0.7-2.7,1.8-3.7l-4.9-4.9L32,35c1.1,0.7,1.8,2,1.8,3.3
					c0,1.1-0.4,2.2-1.2,3s-1.9,1.2-3,1.2s-2.2-0.4-3-1.2s-1.2-1.9-1.2-3c0-1.2,0.7-2.5,1.8-3.3l-3.3-3.1l-4.6,4.6
					c1.4,0.8,2.2,2.3,2.2,4c0,2.6-2.1,4.7-4.7,4.7s-4.7-2.1-4.7-4.7c0-1.1,0.4-2.3,1.1-3.1C14,36.6,15,36,16,35.9l5.9-5.9L16,24.1
					c-1-0.2-2-0.8-2.7-1.6c-0.8-0.9-1.2-1.9-1.2-3c0-2.6,2.1-4.7,4.7-4.7s4.7,2.1,4.7,4.7c0,1.8-0.8,3.3-2.2,4l4.8,4.6l4.6-4.6
					c0.3-0.3,0.6-0.4,1-0.4s0.7,0.1,1,0.4l4.9,4.8l4.9-4.9c-1.2-1-1.8-2.4-1.8-3.7c0-2.6,2.1-4.7,4.7-4.7c2.6,0,4.7,2.1,4.7,4.7
					c0,2.5-2,4.6-4.6,4.7L37.4,30l5.9,5.6c1.2,0,2.4,0.5,3.2,1.4s1.3,2.2,1.2,3.5C47.6,43.1,45.5,45.2,42.9,45.2z M35.3,31.1
					l5.7,5.7L40.7,37c-1.2,1-1.9,2.2-1.9,3.5c0,2.3,1.8,4.1,4.1,4.1s4.1-1.8,4.1-4.1l0,0c0.1-1.2-0.3-2.2-1-3.1
					c-0.7-0.8-1.8-1.2-2.9-1.2H43L36.6,30l6.4-6.2h0.1c2.3,0,4.1-1.8,4.1-4.1s-1.8-4.1-4.1-4.1S39,17.4,39,19.7
					c0,1.3,0.7,2.6,1.9,3.5l0.2,0.2l-5.7,5.7l-5.2-5.2c-0.2-0.2-0.4-0.2-0.6-0.2s-0.4,0.1-0.6,0.2l-5,5l-5.8-5.5l0.4-0.2
					c1.4-0.6,2.2-2,2.2-3.7c0-2.3-1.8-4.1-4.1-4.1s-4.1,1.8-4.1,4.1c0,1,0.4,1.9,1.1,2.7c0.6,0.7,1.5,1.2,2.5,1.4h0.1l6.4,6.4
					l-6.4,6.4h-0.1c-1,0.1-1.9,0.6-2.5,1.4c-0.6,0.8-1,1.7-1,2.8c0,2.3,1.8,4.1,4.1,4.1s4.1-1.8,4.1-4.1c0-1.7-0.9-3.1-2.2-3.7
					l-0.4-0.2l5.5-5.5l4.2,3.9l-0.3,0.2c-1.1,0.6-1.8,1.9-1.8,3.1c0,1,0.4,1.9,1.1,2.6c0.7,0.7,1.6,1.1,2.6,1.1s1.9-0.4,2.6-1.1
					c0.7-0.7,1.1-1.6,1.1-2.6c0-1.3-0.7-2.5-1.8-3l-0.4-0.2L35.3,31.1z M43.2,43c-1.5,0-2.5-1.3-2.5-2.5c0-1.5,1.3-2.5,2.5-2.5
					s2.5,1.2,2.5,2.5C45.6,41.8,44.4,43,43.2,43z M43.2,38.6c-0.9,0-1.9,0.7-1.9,1.9c0,0.9,0.7,1.9,1.9,1.9c0.9,0,1.9-1,1.9-1.9
					C45.1,39.6,44.1,38.6,43.2,38.6z M16.8,43c-1.5,0-2.5-1.3-2.5-2.5c0-1.5,1.3-2.5,2.5-2.5c1.5,0,2.5,1.3,2.5,2.5S18.4,43,16.8,43
					z M16.8,38.6c-0.9,0-1.9,0.7-1.9,1.9c0,0.9,0.7,1.9,1.9,1.9s1.9-1,1.9-1.9C18.7,39.6,18,38.6,16.8,38.6z M29.8,40.6
					c-1,0-2-1-2-2s1-2,2-2s2,1,2,2S30.8,40.6,29.8,40.6z M29.8,37.1c-0.7,0-1.5,0.8-1.5,1.5s0.8,1.5,1.5,1.5s1.5-0.8,1.5-1.5
					S30.5,37.1,29.8,37.1z M29.8,34.6L25.2,30l4.6-4.6l4.3,4.6L29.8,34.6z M26,30l3.8,3.8l3.6-3.8l-3.6-3.8L26,30z M16.5,22
					c-0.4,0-0.9-0.2-1.2-0.5c-0.6-0.5-0.9-1.2-0.9-2c0-1.5,1.3-2.5,2.5-2.5c1.5,0,2.5,1.3,2.5,2.5S18.2,22,17,22
					C16.8,22,16.7,22,16.5,22z M16.8,17.6c-0.9,0-1.9,0.7-1.9,1.9c0,0.6,0.3,1.2,0.7,1.6c0.3,0.3,0.7,0.4,1.1,0.3l0,0l0,0
					c0.9,0,1.9-1,1.9-1.9C18.7,18.5,18,17.6,16.8,17.6z M43.2,21.9c-1.2,0-2.5-1.2-2.5-2.5c0-1.2,0.9-2.5,2.5-2.5
					c1.5,0,2.5,1.3,2.5,2.5C45.6,20.7,44.4,21.9,43.2,21.9z M43.2,17.6c-1.2,0-1.9,1-1.9,1.9s1,1.9,1.9,1.9s1.9-1,1.9-1.9
					C45.1,18.5,44.3,17.6,43.2,17.6z"/>
			</g>
		</g>
	</g>
	<circle class="st8" cx="16.7" cy="19.5" r="2.6"/>
	<circle class="st8" cx="43" cy="40.6" r="2.6"/>
</g>
<g>
	<g>
		<path class="st5" d="M41,15.1H18.8c-3.3,0-3.6,3.9-3.6,3.9v22.4c0,2.3,3.6,3.4,3.6,3.4h16.5l9.6-9.4V18.8
			C44.8,15.8,41,15.1,41,15.1L41,15.1z M42.6,34.6c0,1.2-1.2,1.2-1.2,1.2h-4.2c-1.4,0-1.4,1-1.4,1V41c0,1.5-0.7,1.6-0.7,1.6H19.4
			c-1.7,0-1.9-1.5-1.9-1.5V19.6c0-1.9,1.9-2.2,1.9-2.2s19.2,0.1,21,0.1s2.1,2.1,2.1,2.1V34.6L42.6,34.6L42.6,34.6z M38.1,25.4
			c0,0.7-0.6,1.1-1.1,1.1H23c-0.7,0-1.1-0.6-1.1-1.1c0-0.7,0.6-1.1,1.1-1.1H37C37.5,24.2,38.1,24.8,38.1,25.4L38.1,25.4z M35.6,31.3
			c0,0.7-0.5,1.1-1.1,1.1H22.9c-0.7,0-1.1-0.5-1.1-1.1s0.5-1.1,1.1-1.1h11.5C35.1,30.2,35.6,30.7,35.6,31.3L35.6,31.3z"/>
	</g>
	<path class="st6" d="M37.3,26.6H22.8c-0.7,0-1.3-0.6-1.3-1.3l0,0c0-0.7,0.6-1.3,1.3-1.3h14.5c0.7,0,1.3,0.6,1.3,1.3l0,0
		C38.6,26,37.9,26.6,37.3,26.6z"/>
</g>
</svg>
