<?xml version="1.0" encoding="utf-8"?>
<!-- Generator: Adobe Illustrator 21.0.0, SVG Export Plug-In . SVG Version: 6.00 Build 0)  -->
<svg version="1.1" id="图层_1" xmlns="http://www.w3.org/2000/svg" xmlns:xlink="http://www.w3.org/1999/xlink" x="0px" y="0px"
	 viewBox="0 0 60 60" style="enable-background:new 0 0 60 60;" xml:space="preserve">
<style type="text/css">
	.st0{fill:#F2FBFB;}
	.st1{display:none;}
	.st2{display:inline;fill:#00ADB4;}
	.st3{display:inline;fill:#FFA92E;}
	.st4{fill:#00ADB4;}
	.st5{fill:#FFA92E;}
</style>
<circle class="st0" cx="30" cy="30" r="29.5"/>
<g class="st1">
	<path class="st2" d="M46.8,43.2h-1.2V26.4c0-2.6-2.2-4.8-4.8-4.8h-7.2v-2.4c0-2.6-2.2-4.8-4.8-4.8h-9.6c-2.6,0-4.8,2.2-4.8,4.8v24
		h-1.2c-0.7,0-1.2,0.5-1.2,1.2s0.5,1.2,1.2,1.2h33.6c0.7,0,1.2-0.5,1.2-1.2S47.5,43.2,46.8,43.2L46.8,43.2z"/>
	<path class="st2" d="M31.2,21.6v21.6H16.8v-24c0-1.3,1.1-2.4,2.4-2.4h9.6c1.3,0,2.4,1.1,2.4,2.4V21.6z"/>
	<path class="st2" d="M43.2,43.2h-9.6V24h7.2c1.3,0,2.4,1.1,2.4,2.4V43.2z"/>
	<path class="st3" d="M27.6,21.6h-7.2c-0.7,0-1.2,0.5-1.2,1.2c0,0.7,0.5,1.2,1.2,1.2h7.2c0.7,0,1.2-0.5,1.2-1.2
		C28.8,22.1,28.3,21.6,27.6,21.6L27.6,21.6z"/>
	<path class="st2" d="M27.6,28.8h-7.2c-0.7,0-1.2,0.5-1.2,1.2c0,0.7,0.5,1.2,1.2,1.2h7.2c0.7,0,1.2-0.5,1.2-1.2
		C28.8,29.3,28.3,28.8,27.6,28.8L27.6,28.8z"/>
	<path class="st2" d="M27.6,36h-7.2c-0.7,0-1.2,0.5-1.2,1.2c0,0.7,0.5,1.2,1.2,1.2h7.2c0.7,0,1.2-0.5,1.2-1.2
		C28.8,36.5,28.3,36,27.6,36L27.6,36z"/>
	<path class="st2" d="M39.6,28.8h-2.4c-0.7,0-1.2,0.5-1.2,1.2c0,0.7,0.5,1.2,1.2,1.2h2.4c0.7,0,1.2-0.5,1.2-1.2
		C40.8,29.3,40.3,28.8,39.6,28.8L39.6,28.8z"/>
	<path class="st3" d="M39.6,36h-2.4c-0.7,0-1.2,0.5-1.2,1.2c0,0.7,0.5,1.2,1.2,1.2h2.4c0.7,0,1.2-0.5,1.2-1.2
		C40.8,36.5,40.3,36,39.6,36L39.6,36z"/>
</g>
<g>
	<g>
		<path class="st4" d="M38.6,36.2 M47.4,42.9h-1.2V26.5c0-2.6-2.1-4.7-4.7-4.7h-7v-2.3c0-2.6-2.1-4.7-4.7-4.7h-9.4
			c-2.6,0-4.7,2.1-4.7,4.7v23.4h-1.2c-0.7,0-1.2,0.5-1.2,1.2c0,0.7,0.5,1.2,1.2,1.2h32.7c0.7,0,1.2-0.5,1.2-1.2
			C48.5,43.4,48,42.9,47.4,42.9L47.4,42.9z M32.2,21.8v21h-14V19.5c0-1.3,1.1-2.3,2.3-2.3h9.4c1.3,0,2.3,1.1,2.3,2.3V21.8z
			 M43.9,42.9h-9.4V24.2h7c1.3,0,2.3,1.1,2.3,2.3V42.9z M28.7,21.8h-7c-0.7,0-1.2,0.5-1.2,1.2c0,0.7,0.5,1.2,1.2,1.2h7
			c0.7,0,1.2-0.5,1.2-1.2C29.8,22.3,29.3,21.8,28.7,21.8L28.7,21.8z M28.7,28.8h-7c-0.7,0-1.2,0.5-1.2,1.2c0,0.7,0.5,1.2,1.2,1.2h7
			c0.7,0,1.2-0.5,1.2-1.2C29.8,29.3,29.3,28.8,28.7,28.8L28.7,28.8z M28.7,35.8h-7c-0.7,0-1.2,0.5-1.2,1.2c0,0.7,0.5,1.2,1.2,1.2h7
			c0.7,0,1.2-0.5,1.2-1.2C29.8,36.4,29.3,35.8,28.7,35.8L28.7,35.8z M40.4,28.8H38c-0.7,0-1.2,0.5-1.2,1.2c0,0.7,0.5,1.2,1.2,1.2
			h2.3c0.7,0,1.2-0.5,1.2-1.2C41.5,29.3,41,28.8,40.4,28.8L40.4,28.8z M40.4,35.8H38c-0.7,0-1.2,0.5-1.2,1.2c0,0.7,0.5,1.2,1.2,1.2
			h2.3c0.7,0,1.2-0.5,1.2-1.2C41.5,36.4,41,35.8,40.4,35.8L40.4,35.8z"/>
	</g>
	<path class="st5" d="M28.7,24.3h-6.9c-0.7,0-1.3-0.6-1.3-1.3v0c0-0.7,0.6-1.3,1.3-1.3h6.9c0.7,0,1.3,0.6,1.3,1.3v0
		C30,23.7,29.4,24.3,28.7,24.3z"/>
	<path class="st5" d="M40.4,38.3H38c-0.7,0-1.3-0.6-1.3-1.3v0c0-0.7,0.6-1.3,1.3-1.3h2.4c0.7,0,1.3,0.6,1.3,1.3v0
		C41.7,37.7,41.1,38.3,40.4,38.3z"/>
</g>
</svg>
