<?xml version="1.0" encoding="utf-8"?>
<!-- Generator: Adobe Illustrator 21.0.0, SVG Export Plug-In . SVG Version: 6.00 Build 0)  -->
<svg version="1.1" id="图层_1" xmlns="http://www.w3.org/2000/svg" xmlns:xlink="http://www.w3.org/1999/xlink" x="0px" y="0px"
	 viewBox="0 0 44 56" style="enable-background:new 0 0 44 56;" xml:space="preserve">
<style type="text/css">
	.st0{fill:#FFFFFF;}
</style>
<path class="st0" d="M43.6,39.7c-0.1,0.2-1.1,3.8-3.7,7.6c-2.2,3.2-4.5,6.5-8.1,6.5c-3.6,0.1-4.7-2.1-8.7-2.1
	c-4.1,0-5.3,2.1-8.7,2.2C10.9,54,8.2,50.3,6,47.1c-4.5-6.6-8-18.6-3.3-26.6c2.3-4,6.4-6.6,11-6.7c3.4-0.1,6.6,2.3,8.7,2.3
	c2.1,0,6-2.9,10.2-2.4c1.7,0.1,6.6,0.7,9.7,5.2c-0.2,0.2-5.8,3.4-5.7,10.1C36.5,37,43.5,39.7,43.6,39.7 M29.8,9.4
	c1.9-2.3,3.1-5.4,2.8-8.5c-2.7,0.1-5.9,1.8-7.8,4c-1.7,2-3.2,5.1-2.8,8.2C24.9,13.3,27.9,11.6,29.8,9.4"/>
</svg>
