<?xml version="1.0" encoding="utf-8"?>
<!-- Generator: Adobe Illustrator 21.0.0, SVG Export Plug-In . SVG Version: 6.00 Build 0)  -->
<svg version="1.1" id="图层_1" xmlns="http://www.w3.org/2000/svg" xmlns:xlink="http://www.w3.org/1999/xlink" x="0px" y="0px"
	 viewBox="0 0 76.3 17.2" style="enable-background:new 0 0 76.3 17.2;" xml:space="preserve">
<style type="text/css">
	.st0{fill:#333333;}
</style>
<g>
	<path class="st0" d="M3.2,16l-0.7-1.6h0.8L4,10.6h3.5L6.4,16H3.2z M3.8,5.7l-1.1-3h3.5l0.7,1.9h0.6L6.8,5.7H3.8z M3.8,9.6l-1.1-3
		h3.5l0.7,1.9h0.6L6.8,9.6H3.8z M19.6,2.8l-1,1.7h-2.7v1.8h4.4V8h-4.4v1.7h3.8V16h-3.4l0-1.7L15.3,16H8.5V9.7h3.8V8H7.8V6.3h4.4V4.5
		H8.5V2.8H19.6z M16.2,14.3v-3h-4.3v3H16.2z"/>
	<path class="st0" d="M26.2,14.6L25.8,16h-5.1l0-1.4L22.8,9h-2.3V7.3h8.7V9h-3.2l-2.1,5.6H26.2z M29,3.1v1.7h-8V3.1H29z M26.7,16
		l-0.9-4h2.9l1,4H26.7z M30.1,16l-0.4-1.4h0.7L31,5.3h-1.3V3.6h1.4l0.1-1h3l-0.1,1h4V16h-3.3l-0.7-1.6h1V5.3H34L33.2,16H30.1z"/>
	<path class="st0" d="M42,7.6h-3.2l-0.4-1.3H39l2-3.5h3.5L42,7.6z M39.6,16.1L39,14.1h1.2l0.6-5.8h3.3L43.3,16L39.6,16.1z M53.5,2.8
		l2,3.5h0.8l-0.4,1.3h-3.3l-1.7-3.1h-6.7L45,2.8H53.5z M50.2,16.1V8.3h3.6v7.8H50.2z"/>
	<path class="st0" d="M60.5,11.4H63V13h-6.2v-1.3l2.9-3.8H57V6.6l3-3.9h3.4l-2.7,3.6h2.4v1.6L60.5,11.4z M63.2,14.1l-0.8,1.6h-5.6
		v-1.6H63.2z M64.1,9l-0.6-1.4h0.9l0.8-3.2h-1.4V2.8H74V9h-3.7l-0.4-1.4h1V4.4h-2.4L67.2,9H64.1z M70.2,14.2l-0.8,1.6h-5.5v-6h9.9v6
		h-3.6v-4.4h-3v2.8H70.2z"/>
</g>
</svg>
