<?xml version="1.0" encoding="utf-8"?>
<!-- Generator: Adobe Illustrator 21.0.0, SVG Export Plug-In . SVG Version: 6.00 Build 0)  -->
<svg version="1.1" id="图层_1" xmlns="http://www.w3.org/2000/svg" xmlns:xlink="http://www.w3.org/1999/xlink" x="0px" y="0px"
	 viewBox="0 0 93.2 40" style="enable-background:new 0 0 93.2 40;" xml:space="preserve">
<style type="text/css">
	.st0{fill:#14A4AA;}
	.st1{fill:#FFFFFF;}
</style>
<path class="st0" d="M29.1,36.7H6.5c-3,0-5.5-2.5-5.5-5.5V8.6c0-3,2.5-5.5,5.5-5.5h22.6c3,0,5.5,2.5,5.5,5.5v22.6
	C34.6,34.2,32.1,36.7,29.1,36.7z"/>
<g>
	<g>
		<path class="st1" d="M21.6,9.5c1.8,0,3.6,0,5.4,0c0.5,0,0.7,0.3,0.7,0.8c0,0.6,0,1.2,0,1.8c0,2.5,0,5.1,0,7.6c0,0.4,0,0.9,0,1.3
			c0,0.5-0.2,0.8-0.7,0.9c-0.1,0-0.1,0-0.2,0c-2.5,0-5.1,0-7.6,0c-0.2,0-0.3-0.1-0.4-0.2s0-0.3,0.1-0.4c0.7-0.8,1.4-1.6,2.2-2.4
			c0.7-0.8,1.4-1.5,2-2.3c0.3-0.3,0.4-0.8,0.4-1.2c0-0.3,0-0.6-0.2-0.9c-0.3-0.4-0.6-0.6-1-0.7h-0.1c-3.1,0-6.2,0-9.3,0
			c-0.2,0-0.5,0-0.7,0s-0.3-0.1-0.3-0.2c-0.1-0.1,0-0.2,0.1-0.3c0.3-0.4,0.7-0.7,1-1.1c0.6-0.6,1.2-1.3,1.8-1.9
			c0.3-0.3,0.6-0.6,0.9-0.7c0.2-0.1,0.3-0.1,0.5-0.1C18,9.5,19.8,9.5,21.6,9.5z"/>
		<path class="st1" d="M14,30.3c-1.8,0-3.6,0-5.4,0c-0.4,0-0.7-0.3-0.7-0.7c0-3.3,0-6.5,0-9.8c0-0.4,0-0.8,0-1.2
			c0.1-0.5,0.4-0.7,0.8-0.7c2.1,0,4.3,0,6.4,0c0.4,0,0.8,0,1.1,0c0.2,0,0.3,0.1,0.4,0.2s0,0.3-0.1,0.4c-0.2,0.3-0.5,0.5-0.7,0.8
			c-1.2,1.3-2.3,2.6-3.5,3.9c-0.2,0.3-0.3,0.6-0.4,1c-0.1,0.4,0,0.9,0.3,1.2c0.3,0.3,0.6,0.4,0.9,0.5h0.1c3.3,0,6.6,0,10,0
			c0.1,0,0.1,0,0.2,0c0.3,0.1,0.3,0.3,0.1,0.6c-0.2,0.3-0.5,0.6-0.7,0.8c-0.7,0.7-1.4,1.4-2,2.2c-0.3,0.3-0.6,0.5-0.9,0.7
			c-0.2,0.1-0.3,0.1-0.5,0.1C17.6,30.3,15.8,30.3,14,30.3L14,30.3z"/>
	</g>
</g>
<g>
	<g>
		<path class="st1" d="M40.3,14.4V7.8h11.1v6.7h-6.9c-0.2,0.4-0.5,0.7-0.8,1h9c-0.1,1.9-0.2,3.5-0.3,4.7c-0.2,1.2-0.5,2-0.8,2.5
			c-0.4,0.5-1,0.7-1.8,0.7h-2.5l-0.5-1.7c0.7,0.1,1.4,0.1,2.1,0.1c0.8,0,1.2-0.3,1.5-0.9c0.2-0.6,0.4-1.9,0.5-3.8h-1.2
			c-1.5,3.2-3.9,5.4-7.1,6.5l-1-1.6c2.8-0.9,4.9-2.5,6.3-4.9h-1.7C45,19,43,20.5,40.4,21.5l-1.2-1.4c2.2-0.8,3.9-1.8,5-3H42
			c-0.8,0.6-1.8,1.1-2.8,1.6l-1-1.6c1.9-0.7,3.3-1.6,4.2-2.7C42.4,14.4,40.3,14.4,40.3,14.4z M49.6,10.4v-1h-7.5v1H49.6z M49.6,11.8
			h-7.5v1.1h7.5V11.8z"/>
		<path class="st1" d="M63.5,7.8v1.7h-0.8v9c0.4-0.1,0.7-0.2,1-0.3V20c-0.4,0.1-0.7,0.2-1,0.3v3.3h-1.8v-2.8
			c-1.4,0.3-2.8,0.6-4.3,0.9l-0.4-1.8l1.1-0.2V9.5h-0.9V7.8H63.5z M60.9,11.6V9.5H59v2.1H60.9z M60.9,15.2v-2H59v2H60.9z M60.9,19
			v-2.1H59v2.5L60.9,19z M67.3,18.4c-0.7,2-1.6,3.8-2.6,5.3l-1.5-1.1c1-1.4,1.9-3,2.6-5L67.3,18.4z M71.8,8.1v8.8h-7.7V8.1H71.8z
			 M70,9.9h-4.1v5.3H70V9.9z M72.8,22.5l-1.5,1.1c-0.6-1.6-1.5-3.3-2.6-5.2l1.4-0.9C71.2,19.4,72.2,21.1,72.8,22.5z"/>
		<path class="st1" d="M75.4,16.1l-0.6-2c1.6-2,2.8-4.4,3.5-7.1L80,7.9c-0.4,1.3-0.9,2.6-1.5,3.8v12h-1.8v-9.1
			C76.3,15.1,75.8,15.6,75.4,16.1z M84.7,9.3c-0.2-0.6-0.5-1.1-0.7-1.6l1.8-0.5C86,8,86.3,8.7,86.5,9.3h4.7V11H79.6V9.3H84.7z
			 M90.1,23.6h-1.8v-0.9h-5.7v0.9h-1.8v-6.5h9.3V23.6z M89.7,12v1.6h-8.5V12H89.7z M89.7,14.4v1.7h-8.5v-1.7
			C81.2,14.4,89.7,14.4,89.7,14.4z M88.3,20.9v-2.2h-5.7v2.2H88.3z"/>
	</g>
	<g>
		<path class="st1" d="M43,29.9c0.4,0.5,0.6,1.2,0.6,2h-4.2c0,0.6,0.2,1.1,0.5,1.5s0.7,0.5,1.3,0.5c0.5,0,0.8-0.1,1.1-0.4
			c0.2-0.2,0.4-0.5,0.5-0.9h0.6c-0.1,0.5-0.3,0.9-0.7,1.2c-0.4,0.4-0.9,0.6-1.6,0.6c-0.7,0-1.3-0.2-1.7-0.7s-0.7-1.2-0.7-2
			s0.2-1.4,0.6-1.9c0.4-0.5,1-0.8,1.7-0.8C42,29.1,42.6,29.3,43,29.9z M40,30.1c-0.3,0.3-0.5,0.8-0.5,1.3H43
			c-0.1-1.2-0.7-1.9-1.8-1.9C40.7,29.6,40.3,29.8,40,30.1z"/>
		<path class="st1" d="M48.2,29.2v0.5l-3.3,4.1h3.5v0.5h-4.2v-0.5l3.3-4.1h-3.2v-0.5C44.3,29.2,48.2,29.2,48.2,29.2z"/>
		<path class="st1" d="M49.8,27.1v3c0.2-0.3,0.4-0.6,0.7-0.8c0.3-0.2,0.6-0.3,1-0.3c0.6,0,1,0.2,1.4,0.5c0.3,0.3,0.5,0.8,0.5,1.5
			v3.3h-0.6v-3.2c0-0.5-0.1-0.9-0.4-1.2c-0.3-0.3-0.6-0.4-1.1-0.4c-0.4,0-0.8,0.2-1.1,0.5s-0.4,0.8-0.4,1.3v3h-0.6v-7.2
			C49.2,27.1,49.8,27.1,49.8,27.1z"/>
		<path class="st1" d="M55.6,27.5c0.1,0.1,0.1,0.2,0.1,0.3c0,0.1-0.1,0.3-0.2,0.4c-0.1,0.1-0.2,0.1-0.3,0.1s-0.3,0-0.4-0.1
			c-0.1-0.1-0.1-0.2-0.1-0.4c0-0.1,0-0.3,0.1-0.3c0.1-0.1,0.2-0.1,0.4-0.1C55.4,27.4,55.5,27.4,55.6,27.5z M55.5,29.2v5.1h-0.6v-5.1
			C54.9,29.2,55.5,29.2,55.5,29.2z"/>
		<path class="st1" d="M57.4,29.2l1.5,2l1.5-2H61l-1.8,2.4l2,2.7h-0.7L58.8,32l-1.7,2.3h-0.7l2.1-2.7l-1.8-2.4
			C56.7,29.2,57.4,29.2,57.4,29.2z"/>
		<path class="st1" d="M62.9,27.5c0.1,0.1,0.1,0.2,0.1,0.3c0,0.1-0.1,0.3-0.2,0.4c-0.1,0.1-0.2,0.1-0.3,0.1s-0.3,0-0.4-0.1
			c0-0.1-0.1-0.2-0.1-0.3s0-0.3,0.1-0.3c0.1-0.1,0.2-0.1,0.4-0.1C62.7,27.4,62.8,27.4,62.9,27.5z M62.8,29.2v5.1h-0.6v-5.1
			C62.2,29.2,62.8,29.2,62.8,29.2z"/>
		<path class="st1" d="M68.5,31.2v3.1h-0.6v-3.1c0-1.1-0.5-1.6-1.5-1.6c-0.4,0-0.8,0.1-1,0.4c-0.3,0.3-0.5,0.7-0.5,1.2v3.1h-0.6
			v-5.1H65V30c0.2-0.3,0.4-0.5,0.7-0.7c0.3-0.2,0.6-0.3,1-0.3C67.9,29.1,68.5,29.8,68.5,31.2z"/>
		<path class="st1" d="M70.8,33.5c0.1,0.1,0.1,0.2,0.1,0.4s0,0.3-0.1,0.4c-0.1,0.1-0.2,0.1-0.4,0.1c-0.1,0-0.3,0-0.4-0.1
			s-0.1-0.2-0.1-0.4s0-0.3,0.1-0.4c0.1-0.1,0.2-0.1,0.4-0.1C70.6,33.3,70.7,33.4,70.8,33.5z"/>
		<path class="st1" d="M76,29.5c0.4,0.3,0.6,0.8,0.7,1.4h-0.6c-0.1-0.4-0.2-0.8-0.5-1s-0.6-0.3-1.1-0.3s-1,0.2-1.3,0.6
			s-0.5,0.9-0.5,1.6c0,0.7,0.1,1.2,0.4,1.6s0.7,0.6,1.3,0.6c0.9,0,1.5-0.5,1.6-1.5h0.6c-0.1,0.6-0.3,1.1-0.7,1.5
			c-0.4,0.3-0.9,0.5-1.5,0.5c-0.8,0-1.3-0.3-1.8-0.8c-0.4-0.5-0.6-1.1-0.6-1.9c0-0.8,0.2-1.4,0.6-1.9s1-0.8,1.8-0.8
			C75.1,29.1,75.6,29.2,76,29.5z"/>
		<path class="st1" d="M81.7,29.9c0.4,0.5,0.6,1.1,0.6,1.9s-0.2,1.4-0.6,1.9c-0.5,0.5-1.1,0.8-1.8,0.8c-0.8,0-1.4-0.3-1.8-0.8
			s-0.6-1.1-0.6-1.9c0-0.8,0.2-1.4,0.6-1.9s1-0.8,1.8-0.8C80.6,29.1,81.2,29.3,81.7,29.9z M78.5,30.3c-0.3,0.4-0.5,0.9-0.5,1.5
			c0,0.6,0.1,1.1,0.5,1.5c0.3,0.4,0.8,0.7,1.4,0.7s1-0.2,1.4-0.7c0.3-0.4,0.5-0.9,0.5-1.5c0-0.6-0.2-1.1-0.5-1.5
			c-0.3-0.5-0.8-0.7-1.4-0.7C79.3,29.6,78.8,29.8,78.5,30.3z"/>
		<path class="st1" d="M87,30.1c0.2-0.3,0.4-0.6,0.7-0.8c0.3-0.2,0.6-0.3,0.9-0.3c0.5,0,1,0.2,1.3,0.5s0.5,0.8,0.5,1.4v3.3h-0.6
			v-3.3c0-0.5-0.1-0.9-0.3-1.1c-0.2-0.3-0.6-0.4-1-0.4s-0.7,0.1-0.9,0.4c-0.3,0.3-0.4,0.6-0.4,1.1v3.3h-0.6v-3.3
			c0-1-0.4-1.5-1.3-1.5c-0.4,0-0.7,0.1-1,0.5c-0.3,0.3-0.4,0.7-0.4,1.1v3.1h-0.6V29h0.6v1c0.4-0.6,0.9-0.9,1.5-0.9
			C86.2,29.1,86.8,29.4,87,30.1z"/>
	</g>
</g>
</svg>
