<?xml version="1.0" encoding="utf-8"?>
<!-- Generator: Adobe Illustrator 21.0.0, SVG Export Plug-In . SVG Version: 6.00 Build 0)  -->
<svg version="1.1" id="图层_1" xmlns="http://www.w3.org/2000/svg" xmlns:xlink="http://www.w3.org/1999/xlink" x="0px" y="0px"
	 viewBox="0 0 117 41" style="enable-background:new 0 0 117 41;" xml:space="preserve">
<style type="text/css">
	.st0{fill:#13A3A9;}
	.st1{fill:#FFFFFF;}
</style>
<g>
	<path class="st0" d="M31.7,40.1H9.4c-4.9,0-9-4.1-9-9V9.9c0-5,4.1-9,9-9h22.3c4.9,0,9,4.1,9,9v21.3C40.7,36.1,36.7,40.1,31.7,40.1z
		"/>
	<g>
		<path class="st1" d="M25.2,8.1c2.2,0,4.4,0,6.6,0c0.6,0,0.9,0.4,0.9,0.9c0,0.7,0,1.5,0,2.2c0,3.1,0,6.2,0,9.3c0,0.5,0,1.1,0,1.6
			c0,0.6-0.3,1-0.8,1.1c-0.1,0-0.1,0-0.2,0c-3.1,0-6.2,0-9.3,0c-0.2,0-0.4-0.1-0.4-0.3c-0.1-0.2,0-0.3,0.1-0.5c0.9-1,1.8-2,2.6-2.9
			c0.8-0.9,1.7-1.8,2.5-2.8c0.3-0.4,0.5-0.9,0.5-1.5c0-0.4-0.1-0.7-0.3-1c-0.3-0.4-0.8-0.7-1.3-0.8H26c-3.8,0-7.6,0-11.3,0
			c-0.3,0-0.6,0-0.9,0c-0.2,0-0.3-0.1-0.4-0.3s0-0.3,0.1-0.4c0.4-0.5,0.8-0.9,1.2-1.3c0.7-0.8,1.5-1.6,2.2-2.3
			c0.3-0.4,0.7-0.7,1.2-0.9c0.2-0.1,0.4-0.1,0.6-0.1C20.9,8.1,23.1,8.1,25.2,8.1z"/>
		<path class="st1" d="M15.9,33.5c-2.2,0-4.4,0-6.6,0c-0.5,0-0.9-0.3-0.9-0.9c0-4,0-8,0-12c0-0.5,0-1,0-1.4c0.1-0.5,0.5-0.9,1-0.9
			c2.6,0,5.2,0,7.9,0c0.5,0,0.9,0,1.4,0c0.2,0,0.4,0.1,0.4,0.3c0.1,0.2,0,0.3-0.1,0.5c-0.3,0.3-0.6,0.6-0.8,0.9
			c-1.4,1.6-2.9,3.2-4.3,4.8c-0.3,0.3-0.4,0.8-0.5,1.2c-0.1,0.5,0,1.1,0.4,1.5c0.3,0.3,0.7,0.5,1.1,0.7c0,0,0.1,0,0.2,0
			c4.1,0,8.1,0,12.2,0c0.1,0,0.1,0,0.2,0c0.3,0.1,0.4,0.4,0.1,0.7c-0.3,0.3-0.6,0.7-0.9,1c-0.8,0.9-1.7,1.8-2.5,2.6
			c-0.3,0.3-0.7,0.7-1.1,0.9c-0.2,0.1-0.4,0.1-0.6,0.1C20.3,33.5,18.1,33.5,15.9,33.5L15.9,33.5z"/>
	</g>
</g>
<g>
	<path class="st1" d="M48.3,13.1V5.2h13.2v7.9h-8.2c-0.3,0.4-0.6,0.8-0.9,1.2H63c-0.1,2.3-0.2,4.2-0.4,5.6c-0.2,1.4-0.5,2.4-1,2.9
		c-0.4,0.5-1.1,0.8-2.1,0.9h-3l-0.5-2c0.9,0.1,1.7,0.1,2.5,0.1c0.9,0,1.5-0.4,1.8-1c0.3-0.7,0.5-2.2,0.6-4.5h-1.5
		c-1.8,3.8-4.6,6.4-8.4,7.7l-1.2-1.8c3.4-1,5.8-3,7.4-5.8h-2c-1.5,2.2-3.8,4-6.9,5.3L46.9,20c2.7-0.9,4.6-2.1,5.9-3.6h-2.5
		c-1,0.7-2.1,1.4-3.3,1.9l-1.2-1.9c2.2-0.8,3.9-1.9,5-3.2L48.3,13.1L48.3,13.1z M59.3,8.3V7.1h-8.9v1.2H59.3z M59.3,10h-8.9v1.3h8.9
		C59.3,11.3,59.3,10,59.3,10z"/>
	<path class="st1" d="M75.8,5.2v2h-1V18c0.4-0.1,0.8-0.2,1.2-0.4v2.1c-0.4,0.1-0.8,0.2-1.2,0.3v4h-2.1v-3.3
		c-1.6,0.4-3.3,0.8-5.1,1.1l-0.5-2.1l1.4-0.2V7.2h-1.1v-2H75.8z M72.7,9.7V7.2h-2.2v2.5H72.7z M72.7,14.1v-2.4h-2.2v2.4H72.7z
		 M72.7,18.5V16h-2.2v3L72.7,18.5z M80.2,17.8c-0.9,2.4-1.9,4.5-3.1,6.3l-1.8-1.3c1.2-1.6,2.2-3.6,3-5.9L80.2,17.8z M85.6,5.6V16
		h-9.1V5.6H85.6z M83.5,7.7h-4.9V14h4.9V7.7z M86.8,22.7L85,24c-0.7-1.8-1.8-3.9-3.1-6.1l1.7-1.1C85,19,86,21,86.8,22.7z"/>
	<path class="st1" d="M89.8,15.1l-0.7-2.3c1.9-2.4,3.3-5.2,4.2-8.4l2,1c-0.5,1.6-1.1,3.1-1.8,4.5V24h-2.1V13.2
		C90.9,13.9,90.4,14.5,89.8,15.1z M100.9,7c-0.3-0.7-0.6-1.3-0.9-1.9l2.1-0.6c0.4,0.9,0.7,1.7,0.9,2.5h5.6v2.1H94.9V7H100.9z
		 M107.3,23.9h-2.1v-1h-6.8v1h-2.1v-7.7h11V23.9z M106.8,10.2v1.9H96.7v-1.9H106.8z M106.8,13.1v2H96.7v-2H106.8z M105.2,20.8v-2.6
		h-6.8v2.6H105.2z"/>
</g>
<g>
	<path class="st1" d="M51.4,31.4c0.4,0.6,0.7,1.4,0.7,2.4h-4.9c0,0.7,0.2,1.3,0.6,1.7c0.4,0.4,0.9,0.6,1.5,0.6s1-0.2,1.3-0.4
		s0.5-0.6,0.6-1.1H52c-0.1,0.6-0.4,1.1-0.8,1.4c-0.5,0.4-1.1,0.7-1.9,0.7c-0.9,0-1.5-0.3-2-0.9c-0.5-0.6-0.8-1.4-0.8-2.3
		c0-0.9,0.2-1.6,0.8-2.2c0.5-0.6,1.2-0.9,2.1-0.9C50.2,30.5,51,30.8,51.4,31.4z M47.9,31.7c-0.4,0.4-0.6,0.9-0.6,1.6h4.2
		c-0.1-1.5-0.8-2.2-2.1-2.2C48.7,31.1,48.2,31.3,47.9,31.7z"/>
	<path class="st1" d="M57.6,30.6v0.5L53.7,36h4.1v0.6h-5V36l3.9-4.9h-3.8v-0.6h4.7V30.6z"/>
	<path class="st1" d="M59.6,28.2v3.6c0.2-0.4,0.5-0.7,0.8-0.9c0.3-0.2,0.7-0.3,1.1-0.3c0.7,0,1.2,0.2,1.6,0.6s0.6,1,0.6,1.7v3.9H63
		V33c0-0.6-0.2-1-0.4-1.4c-0.3-0.3-0.7-0.5-1.3-0.5c-0.5,0-0.9,0.2-1.3,0.6c-0.4,0.4-0.5,0.9-0.5,1.5v3.5h-0.7v-8.5
		C58.8,28.2,59.6,28.2,59.6,28.2z"/>
	<path class="st1" d="M66.4,28.6c0.1,0.1,0.2,0.2,0.2,0.4c0,0.2-0.1,0.3-0.2,0.4s-0.2,0.2-0.4,0.2c-0.2,0-0.3-0.1-0.4-0.2
		s-0.2-0.3-0.2-0.4c0-0.2,0.1-0.3,0.2-0.4s0.2-0.2,0.4-0.2C66.1,28.4,66.3,28.5,66.4,28.6z M66.3,30.6v6.1h-0.7v-6.1H66.3z"/>
	<path class="st1" d="M68.5,30.6l1.7,2.3l1.7-2.3h0.8l-2.2,2.9l2.4,3.2h-0.8l-2-2.7l-2,2.7h-0.8l2.4-3.2l-2.2-2.9
		C67.5,30.6,68.5,30.6,68.5,30.6z"/>
	<path class="st1" d="M75,28.6c0.1,0.1,0.2,0.2,0.2,0.4c0,0.2-0.1,0.3-0.2,0.4s-0.2,0.2-0.4,0.2c-0.2,0-0.3-0.1-0.4-0.2
		S74,29.2,74,29s0.1-0.3,0.2-0.4s0.2-0.2,0.4-0.2S74.9,28.5,75,28.6z M75,30.6v6.1h-0.7v-6.1H75z"/>
	<path class="st1" d="M81.7,33v3.7H81V33c0-1.3-0.6-1.9-1.7-1.9c-0.5,0-0.9,0.2-1.2,0.5c-0.4,0.4-0.5,0.8-0.6,1.4v3.7h-0.7v-6.1h0.7
		v1c0.2-0.4,0.5-0.6,0.8-0.9c0.3-0.2,0.7-0.3,1.1-0.3C81,30.5,81.7,31.3,81.7,33z"/>
	<path class="st1" d="M84.4,35.7c0.1,0.1,0.2,0.3,0.2,0.4c0,0.2-0.1,0.3-0.2,0.4c-0.1,0.1-0.3,0.2-0.4,0.2c-0.2,0-0.3-0.1-0.4-0.2
		c-0.1-0.1-0.2-0.3-0.2-0.4c0-0.2,0.1-0.3,0.2-0.4c0.1-0.1,0.2-0.2,0.4-0.2C84.1,35.5,84.3,35.6,84.4,35.7z"/>
	<path class="st1" d="M90.5,31c0.5,0.4,0.7,0.9,0.8,1.6h-0.7c-0.1-0.5-0.3-0.9-0.6-1.1c-0.3-0.3-0.8-0.4-1.3-0.4
		c-0.6,0-1.1,0.2-1.5,0.7s-0.6,1.1-0.6,1.9c0,0.8,0.2,1.4,0.5,1.9c0.4,0.5,0.9,0.7,1.5,0.7c1.1,0,1.8-0.6,1.9-1.7h0.7
		c-0.1,0.8-0.4,1.3-0.9,1.7c-0.4,0.4-1,0.6-1.8,0.6c-0.9,0-1.6-0.3-2.1-0.9c-0.5-0.6-0.7-1.3-0.7-2.2s0.2-1.7,0.7-2.3
		c0.5-0.6,1.2-1,2.1-1C89.5,30.5,90.1,30.6,90.5,31z"/>
	<path class="st1" d="M97.3,31.4c0.5,0.6,0.7,1.3,0.7,2.2c0,0.9-0.2,1.6-0.7,2.2c-0.5,0.6-1.3,1-2.1,1c-0.9,0-1.6-0.3-2.1-1
		c-0.5-0.6-0.7-1.3-0.7-2.2s0.2-1.6,0.8-2.2c0.5-0.6,1.2-1,2.1-1C96.1,30.5,96.8,30.8,97.3,31.4z M93.6,31.9
		c-0.4,0.5-0.5,1.1-0.5,1.8s0.2,1.3,0.5,1.8c0.4,0.5,0.9,0.8,1.6,0.8s1.2-0.3,1.6-0.8s0.5-1.1,0.5-1.8s-0.2-1.3-0.5-1.8
		c-0.4-0.5-0.9-0.8-1.6-0.8C94.5,31.1,94,31.3,93.6,31.9z"/>
	<path class="st1" d="M103.7,31.7c0.2-0.4,0.5-0.7,0.8-0.9c0.3-0.2,0.7-0.3,1.1-0.3c0.6,0,1.1,0.2,1.5,0.6s0.6,0.9,0.6,1.7v4H107
		v-3.9c0-0.6-0.1-1-0.4-1.3s-0.7-0.5-1.2-0.5c-0.4,0-0.8,0.2-1.1,0.5c-0.3,0.3-0.4,0.7-0.4,1.3v3.9h-0.7v-3.9c0-1.2-0.5-1.7-1.5-1.7
		c-0.5,0-0.8,0.2-1.1,0.6c-0.3,0.4-0.5,0.8-0.5,1.3v3.7h-0.7v-6.1h0.7v0.9c0.4-0.7,1-1.1,1.8-1.1C102.7,30.5,103.4,30.9,103.7,31.7z
		"/>
</g>
</svg>
