<?xml version="1.0" encoding="utf-8"?>
<!-- Generator: Adobe Illustrator 21.0.0, SVG Export Plug-In . SVG Version: 6.00 Build 0)  -->
<svg version="1.1" xmlns="http://www.w3.org/2000/svg" xmlns:xlink="http://www.w3.org/1999/xlink" x="0px" y="0px"
	 viewBox="0 0 132 106" style="enable-background:new 0 0 132 106;" xml:space="preserve">
<style type="text/css">
	.st0{display:none;}
	
		.st1{display:inline;fill-rule:evenodd;clip-rule:evenodd;fill:none;stroke:#00ADB4;stroke-width:5;stroke-linecap:round;stroke-miterlimit:10;}
	
		.st2{display:inline;fill-rule:evenodd;clip-rule:evenodd;fill:none;stroke:#666666;stroke-width:5;stroke-linecap:round;stroke-miterlimit:10;}
	.st3{display:inline;fill-rule:evenodd;clip-rule:evenodd;fill:none;stroke:#666666;stroke-width:5;stroke-miterlimit:10;}
	.st4{display:inline;fill-rule:evenodd;clip-rule:evenodd;fill:none;stroke:#666666;stroke-miterlimit:10;}
	.st5{display:inline;fill-rule:evenodd;clip-rule:evenodd;fill:none;}
	.st6{display:inline;fill-rule:evenodd;clip-rule:evenodd;fill:none;stroke:#00ADB4;stroke-width:5;stroke-miterlimit:10;}
	
		.st7{display:inline;fill-rule:evenodd;clip-rule:evenodd;fill:none;stroke:#00ADB4;stroke-width:6;stroke-linecap:round;stroke-linejoin:round;stroke-miterlimit:10;}
	.st8{display:inline;fill-rule:evenodd;clip-rule:evenodd;fill:none;stroke:#666666;stroke-width:4;stroke-miterlimit:10;}
	.st9{display:inline;fill-rule:evenodd;clip-rule:evenodd;fill:#666666;stroke:#666666;stroke-miterlimit:10;}
	
		.st10{display:inline;fill-rule:evenodd;clip-rule:evenodd;fill:none;stroke:#FFFFFF;stroke-width:8;stroke-linecap:round;stroke-miterlimit:10;}
	.st11{fill-rule:evenodd;clip-rule:evenodd;fill:none;stroke:#666666;stroke-width:6;stroke-miterlimit:10;}
	.st12{fill-rule:evenodd;clip-rule:evenodd;fill:#FFFFFF;}
	.st13{fill-rule:evenodd;clip-rule:evenodd;fill:#FFFFFF;stroke:#666666;stroke-width:4;stroke-miterlimit:10;}
	.st14{fill:#00ADB4;}
	
		.st15{fill-rule:evenodd;clip-rule:evenodd;fill:#FFFFFF;stroke:#666666;stroke-width:4;stroke-linecap:round;stroke-miterlimit:10;}
</style>
<g id="图层_1" class="st0">
	<path class="st1" d="M50.7,56.7l12.5,12.7l24.6-23"/>
	<path class="st2" d="M82.5,16.5v9"/>
	<path class="st2" d="M52.5,16.5v9"/>
	<path class="st3" d="M57.7,21.5c6.2,0,13,0,19.1,0 M87.9,21.5c1.8,0,3.5,0,4.9,0c3,0,4.9,0,4.9,0c2.1,0,3.9,1.9,3.9,4.2v59
		c0,2.3-1.7,4.2-3.9,4.2H35.4c-2.1,0-3.9-1.9-3.9-4.2v-59c0-2.3,1.7-4.2,3.9-4.2c0,0,4.8,0,11.7,0"/>
</g>
<g id="图层_2" class="st0">
	<path class="st3" d="M65.1,14.1c21.5,0,39,17.5,39,39c0,21.5-17.5,39-39,39c-21.5,0-39-17.5-39-39C26.1,31.6,43.6,14.1,65.1,14.1z"
		/>
	<path class="st6" d="M47,43h36c1.7,0,3,1.3,3,3v20c0,1.7-1.3,3-3,3H47c-1.7,0-3-1.3-3-3V46C44,44.3,45.3,43,47,43z"/>
	<polyline class="st7" points="53,42 71,30 79,42 	"/>
</g>
<g id="图层_3" class="st0">
	<path class="st8" d="M37.5,80.5h55"/>
	<path class="st9" d="M59,21.5h10c0.8,0,1.5,0.7,1.5,1.5c0,0.8-0.7,1.5-1.5,1.5H59c-0.8,0-1.5-0.7-1.5-1.5
		C57.5,22.2,58.2,21.5,59,21.5z"/>
	<path class="st3" d="M42.5,15.5h45c2.2,0,4,1.8,4,4c0,0,0,12.1,0,26c0,3.1,0,6.3,0,9.5c0,1.2,0,2.3,0,3.5c0,4.6,0,9,0,13
		c0,8.7,0,15,0,15c0,2.2-1.8,4-4,4h-45c-2.2,0-4-1.8-4-4v-67C38.5,17.3,40.3,15.5,42.5,15.5z"/>
	<line class="st10" x1="76.1" y1="55.4" x2="107.9" y2="24.6"/>
	<line class="st1" x1="71.8" y1="59.1" x2="106.7" y2="25.4"/>
</g>
<g id="图层_4">
</g>
<g id="图层_6">
</g>
<g id="图层_5">
</g>
<g id="图层_7">
	<path class="st11" d="M51.6,37.2c0,0-14.3-16.3,3.9-17.3c1-0.2,8-9.6,17.3-0.4c1.4,0.2,18.8,0.2,3.9,18.4
		c0.8,0.6,40.4,30.8,12.2,51c-2.2-0.2-47.5,0-47.5,0S11.2,72.1,51.6,37.2z"/>
	<circle class="st12" cx="92.8" cy="75.8" r="17"/>
	<circle class="st13" cx="92.8" cy="75.8" r="12"/>
	<g>
		<path class="st14" d="M59.8,47.8l5.5,10.7l5.5-10.7h4.6l-6.8,12.3h4.7v2.2h-5.9l0,0v3h5.9v2.2h-5.9v5.3h-4.1v-5.3h-5.9v-2.2h5.9
			v-3l0,0h-5.8v-2.2H62l-6.8-12.3H59.8z"/>
	</g>
	<line class="st15" x1="86.8" y1="75.8" x2="98.6" y2="75.8"/>
</g>
</svg>
