<?xml version="1.0" encoding="utf-8"?>
<!-- Generator: Adobe Illustrator 21.0.0, SVG Export Plug-In . SVG Version: 6.00 Build 0)  -->
<svg version="1.1" id="图层_1" xmlns="http://www.w3.org/2000/svg" xmlns:xlink="http://www.w3.org/1999/xlink" x="0px" y="0px"
	 viewBox="0 0 457 288" style="enable-background:new 0 0 457 288;" xml:space="preserve">
<style type="text/css">
	.st0{fill-rule:evenodd;clip-rule:evenodd;fill:none;stroke:#FFFFFF;stroke-miterlimit:10;stroke-dasharray:4;}
	.st1{fill-rule:evenodd;clip-rule:evenodd;fill:#FFFFFF;stroke:#FFFFFF;stroke-miterlimit:10;}
	.st2{fill:#13A3A9;}
	.st3{font-family:'PingFangSC-Regular-GBpc-EUC-H';}
	.st4{font-size:19px;}
</style>
<path class="st0" d="M169.5,154.5v36h-46v22"/>
<path class="st0" d="M262.5,155.5v63h86l4,62h23"/>
<path class="st0" d="M291.5,137.5h44v37h115"/>
<path class="st0" d="M408.5,32.5v21h-75v19h-38"/>
<path class="st0" d="M157.5,131.5h-16v22h-43"/>
<path class="st0" d="M20.5,10.5h72v25h65"/>
<path class="st1" d="M177,28H281c9,0,16.3,7.3,16.3,16.3v93.5c0,9-7.3,16.3-16.3,16.3H177c-9,0-16.3-7.3-16.3-16.3V44.3
	C160.7,35.3,168,28,177,28z"/>
<g>
	<text transform="matrix(1 0 0 1 201.4998 125.9634)" class="st2 st3 st4">易职信</text>
	<g>
		<path class="st2" d="M237.4,59c3.1,0,6.2,0,9.3,0c0.8,0,1.3,0.5,1.3,1.3c0,1,0,2.1,0,3.1c0,4.4,0,8.8,0,13.2c0,0.8,0,1.5,0,2.3
			c0,0.8-0.4,1.4-1.1,1.6c-0.1,0-0.2,0-0.3,0c-4.4,0-8.8,0-13.2,0c-0.3,0-0.5-0.2-0.6-0.4c-0.1-0.2,0-0.5,0.1-0.7
			c1.2-1.4,2.5-2.8,3.7-4.1c1.2-1.3,2.4-2.6,3.5-4c0.5-0.6,0.7-1.3,0.7-2.1c0-0.5-0.1-1-0.4-1.5c-0.4-0.6-1.1-1-1.8-1.2
			c0,0-0.1,0-0.1,0c-5.4,0-10.7,0-16.1,0c-0.4,0-0.8,0-1.3,0c-0.3,0-0.5-0.1-0.6-0.4c-0.1-0.2,0-0.4,0.1-0.6
			c0.5-0.7,1.1-1.3,1.7-1.9c1-1.1,2.1-2.2,3.1-3.3c0.5-0.5,1-1,1.6-1.2c0.3-0.1,0.6-0.2,0.9-0.2C231.2,59,234.3,59,237.4,59z"/>
		<path class="st2" d="M224.2,95c-3.1,0-6.2,0-9.4,0c-0.8,0-1.2-0.5-1.2-1.2c0-5.7,0-11.3,0-17c0-0.7-0.1-1.4,0-2
			c0.1-0.8,0.6-1.3,1.4-1.3c3.7,0,7.4,0,11.1,0c0.7,0,1.3,0,2,0c0.3,0,0.5,0.2,0.6,0.4c0.1,0.2,0,0.5-0.1,0.7
			c-0.4,0.4-0.8,0.9-1.2,1.3c-2,2.3-4,4.5-6,6.8c-0.4,0.5-0.6,1.1-0.7,1.7c-0.1,0.8,0,1.5,0.5,2.1c0.4,0.5,1,0.7,1.6,0.9
			c0.1,0,0.1,0,0.2,0c5.7,0,11.5,0,17.2,0c0.1,0,0.2,0,0.3,0c0.5,0.2,0.6,0.6,0.2,1c-0.4,0.5-0.9,1-1.3,1.4
			c-1.2,1.2-2.3,2.5-3.5,3.7c-0.5,0.5-1,0.9-1.6,1.2c-0.3,0.1-0.6,0.2-0.9,0.2C230.4,94.9,227.3,94.9,224.2,95
			C224.2,94.9,224.2,95,224.2,95z"/>
	</g>
</g>
</svg>
