<?xml version="1.0" encoding="utf-8"?>
<!-- Generator: Adobe Illustrator 21.0.0, SVG Export Plug-In . SVG Version: 6.00 Build 0)  -->
<svg version="1.1" id="图层_1" xmlns="http://www.w3.org/2000/svg" xmlns:xlink="http://www.w3.org/1999/xlink" x="0px" y="0px"
	 viewBox="0 0 1056 433.9" style="enable-background:new 0 0 1056 433.9;" xml:space="preserve">
<style type="text/css">
	.st0{opacity:0.5;fill:none;stroke:#3CC0C6;stroke-miterlimit:10;stroke-dasharray:4;enable-background:new    ;}
	.st1{fill:#00ADB4;stroke:#00ADB4;stroke-miterlimit:10;}
	.st2{fill:none;stroke:#3CC0C6;stroke-miterlimit:10;}
	.st3{opacity:0.33;fill:none;stroke:#00ADB4;stroke-miterlimit:10;enable-background:new    ;}
	.st4{opacity:0.34;fill:none;stroke:#00ADB4;stroke-miterlimit:10;enable-background:new    ;}
	.st5{fill:#3CC0C6;}
	.st6{font-family:'PingFangSC-Ultralight-GBpc-EUC-H';}
	.st7{font-size:18px;}
</style>
<path class="st0" d="M771,107.6h-29"/>
<path class="st1" d="M237,266.6c1.9,0,3.5,1.6,3.5,3.5s-1.6,3.5-3.5,3.5s-3.5-1.6-3.5-3.5S235.1,266.6,237,266.6z"/>
<path class="st1" d="M354.8,387.1c1.9,0,3.5,1.6,3.5,3.5s-1.6,3.5-3.5,3.5s-3.5-1.6-3.5-3.5S352.9,387.1,354.8,387.1z"/>
<path class="st1" d="M666.4,388.4c1.9,0,3.5,1.6,3.5,3.5s-1.6,3.5-3.5,3.5s-3.5-1.6-3.5-3.5S664.5,388.4,666.4,388.4z"/>
<path class="st1" d="M829.2,218.7c1.9,0,3.5,1.6,3.5,3.5s-1.6,3.5-3.5,3.5s-3.5-1.6-3.5-3.5S827.2,218.7,829.2,218.7z"/>
<path class="st1" d="M778.9,103.2c1.9,0,3.5,1.6,3.5,3.5s-1.6,3.5-3.5,3.5s-3.5-1.6-3.5-3.5S777,103.2,778.9,103.2z"/>
<path class="st1" d="M568.5,87.6c1.9,0,3.5,1.6,3.5,3.5s-1.6,3.5-3.5,3.5S565,93,565,91.1S566.6,87.6,568.5,87.6z"/>
<path class="st1" d="M166.5,110.6c1.9,0,3.5,1.6,3.5,3.5s-1.6,3.5-3.5,3.5s-3.5-1.6-3.5-3.5S164.6,110.6,166.5,110.6z"/>
<path class="st0" d="M588.7,323.3v26.1h39v41.1h32.5"/>
<path class="st0" d="M594.2,271.4h134v-20.6h90.9v-16.9v-8.2h10"/>
<path class="st0" d="M569.2,94.1v21.1H613V190h-71.2v8.1"/>
<path class="st0" d="M517.4,323.3v22.6h-46.9V388H354.8"/>
<path class="st0" d="M246.3,272.3H316V291v19.7h138.7"/>
<path class="st0" d="M169.5,112.7H283V219h167.7"/>
<path class="st2" d="M463,201.3h125.2c4.4,0,8,3.6,8,8v106c0,4.4-3.6,8-8,8H463c-4.4,0-8-3.6-8-8v-106
	C455,204.8,458.6,201.3,463,201.3z"/>
<path class="st2" d="M683.7,359.2c-6.2-3.2-10.4-9.5-10.4-16.8c0-10.5,8.6-18.9,19.2-18.9s19.2,8.5,19.2,18.9"/>
<path class="st2" d="M692.6,328.5c7.8,0,14.2,6.4,14.2,14.2s-6.4,14.2-14.2,14.2s-14.2-6.4-14.2-14.2S684.7,328.5,692.6,328.5z"/>
<path class="st3" d="M757.4,336c35.6,0,77.7,0,110.2,0c30.9,0,53.2,0,53.2,0c7.3,0,13.2,3.2,13.2,7c0,0,0,10.7,0,22.6
	c0,7.3,0,15,0,20.9c0,6,0,10.1,0,10.1c0,3.9-5.9,7-13.2,7"/>
<path class="st2" d="M726.6,342.2c58.5,0,180.7,0,180.7,0c6.5,0,11.8,2.8,11.8,6.3v48.2c0,3.5-5.3,6.3-11.8,6.3H696
	c-6.5,0-11.8-2.8-11.8-6.3c0,0,0-19.3,0-33.4c0-3.2,0-6.1,0-8.5"/>
<path class="st2" d="M844.9,219.8c-6.2-3.2-10.4-9.5-10.4-16.8c0-10.5,8.6-18.9,19.2-18.9s19.2,8.5,19.2,18.9"/>
<path class="st2" d="M853.7,189.1c7.8,0,14.2,6.4,14.2,14.2c0,7.9-6.4,14.2-14.2,14.2s-14.2-6.4-14.2-14.2
	C839.5,195.4,845.9,189.1,853.7,189.1z"/>
<path class="st3" d="M903.9,196.6c28.5,0,62.1,0,88.1,0c24.7,0,42.5,0,42.5,0c5.8,0,10.5,3.2,10.5,7c0,0,0,10.7,0,22.6
	c0,7.3,0,15,0,20.9c0,6,0,10.1,0,10.1c0,3.9-4.7,7-10.5,7"/>
<path class="st2" d="M879.2,202.8c46.8,0,144.4,0,144.4,0c5.2,0,9.4,2.8,9.4,6.3v48.2c0,3.5-4.2,6.3-9.4,6.3H854.8
	c-5.2,0-9.4-2.8-9.4-6.3c0,0,0-19.3,0-33.4c0-3.2,0-6.1,0-8.5"/>
<path class="st2" d="M784.3,62.9c-6.2-3.2-10.4-9.5-10.4-16.8c0-10.5,8.6-18.9,19.2-18.9c10.6,0,19.2,8.5,19.2,18.9"/>
<path class="st2" d="M793.1,32.2c7.8,0,14.2,6.4,14.2,14.2s-6.4,14.2-14.2,14.2s-14.2-6.4-14.2-14.2S785.3,32.2,793.1,32.2z"/>
<path class="st3" d="M843.3,39.7c28.5,0,62.1,0,88.1,0c24.7,0,42.5,0,42.5,0c5.8,0,10.6,3.2,10.6,7c0,0,0,10.7,0,22.6
	c0,7.3,0,15,0,20.9c0,6,0,10.1,0,10.1c0,3.9-4.7,7-10.6,7"/>
<path class="st2" d="M818.7,45.9c46.8,0,144.4,0,144.4,0c5.2,0,9.4,2.8,9.4,6.3v48.2c0,3.5-4.2,6.3-9.4,6.3H794.2
	c-5.2,0-9.4-2.8-9.4-6.3c0,0,0-19.3,0-33.4c0-3.2,0-6.1,0-8.5"/>
<path class="st2" d="M422,42.3c-6.2-3.2-10.4-9.5-10.4-16.8c0-10.5,8.6-18.9,19.2-18.9S450,15.1,450,25.5"/>
<path class="st2" d="M430.8,11.6c7.8,0,14.2,6.4,14.2,14.2S438.6,40,430.8,40c-7.8,0-14.2-6.4-14.2-14.2S423,11.6,430.8,11.6z"/>
<path class="st3" d="M480.9,19.1c28.5,0,62.1,0,88.1,0c24.7,0,42.5,0,42.5,0c5.8,0,10.5,3.2,10.5,7c0,0,0,10.7,0,22.6
	c0,7.3,0,15,0,20.9c0,6,0,10.1,0,10.1c0,3.9-4.7,7-10.5,7"/>
<path class="st2" d="M456.3,25.4c46.8,0,144.4,0,144.4,0c5.2,0,9.4,2.8,9.4,6.3v48.2c0,3.5-4.2,6.3-9.4,6.3H431.9
	c-5.2,0-9.4-2.8-9.4-6.3c0,0,0-19.3,0-33.4c0-3.2,0-6.1,0-8.5"/>
<path class="st0" d="M736.7,107.6v39.5h-40.3v78.6H596.1"/>
<path class="st2" d="M159.4,374.2c-6.2-3.2-10.4-9.5-10.4-16.8c0-10.5,8.6-18.9,19.2-18.9s19.2,8.5,19.2,18.9"/>
<path class="st2" d="M168.2,343.5c7.8,0,14.2,6.4,14.2,14.2c0,7.8-6.4,14.2-14.2,14.2s-14.2-6.4-14.2-14.2
	C154,349.8,160.4,343.5,168.2,343.5z"/>
<path class="st3" d="M213.7,350.6c26.2,0,57.2,0,81.1,0c22.7,0,39.1,0,39.1,0c5.4,0,9.7,3.2,9.7,7c0,0,0,10.7,0,22.6
	c0,7.3,0,15,0,20.9c0,6,0,10.1,0,10.1c0,3.9-4.3,7-9.7,7"/>
<path class="st2" d="M191.1,357.2c43.1,0,133,0,133,0c4.8,0,8.7,2.8,8.7,6.3v48.2c0,3.5-3.9,6.3-8.7,6.3H168.5
	c-4.8,0-8.7-2.8-8.7-6.3c0,0,0-19.3,0-33.4c0-3.2,0-6.1,0-8.5"/>
<path class="st2" d="M70,225.7c-6.2-3.2-10.4-9.5-10.4-16.8c0-10.5,8.6-18.9,19.2-18.9S98,198.5,98,208.9"/>
<path class="st2" d="M78.9,195c7.8,0,14.2,6.4,14.2,14.2c0,7.9-6.4,14.2-14.2,14.2s-14.2-6.4-14.2-14.2C64.7,201.3,71,195,78.9,195z
	"/>
<path class="st4" d="M118,202.5c23.1,0,50.4,0,71.5,0c20,0,34.5,0,34.5,0c4.7,0,8.6,3.2,8.6,7c0,0,0,10.7,0,22.6c0,7.3,0,15,0,20.9
	c0,6,0,10.1,0,10.1c0,3.9-3.8,7-8.6,7"/>
<path class="st2" d="M21.4,61.1C15.2,58,11,51.6,11,44.3c0-10.5,8.6-18.9,19.2-18.9s19.2,8.5,19.2,18.9"/>
<path class="st2" d="M30.2,30.4c7.8,0,14.2,6.4,14.2,14.2S38,58.8,30.2,58.8S16,52.4,16,44.6C16,36.7,22.4,30.4,30.2,30.4z"/>
<path class="st3" d="M61.5,37.4c19.1,0,41.7,0,59.2,0c16.6,0,28.6,0,28.6,0c3.9,0,7.1,3.2,7.1,7c0,0,0,10.7,0,22.6
	c0,7.3,0,15,0,20.9c0,6,0,10.1,0,10.1c0,3.9-3.2,7-7.1,7"/>
<path class="st2" d="M45,44.1c31.4,0,97,0,97,0c3.5,0,6.3,2.8,6.3,6.3v48.2c0,3.5-2.8,6.3-6.3,6.3H28.6c-3.5,0-6.3-2.8-6.3-6.3
	c0,0,0-19.3,0-33.4c0-3.2,0-6.1,0-8.5"/>
<path class="st2" d="M98.1,209.1c38.5,0,118.7,0,118.7,0c4.3,0,7.7,2.8,7.7,6.3v48.2c0,3.5-3.5,6.3-7.7,6.3H78
	c-4.3,0-7.7-2.8-7.7-6.3c0,0,0-19.3,0-33.4c0-3.2,0-6.1,0-8.5"/>
<text transform="matrix(1 0 0 1 26.5481 51.306)" class="st5 st6 st7">1</text>
<text transform="matrix(1 0 0 1 26.5481 51.306)" class="st2 st6 st7">1</text>
<text transform="matrix(1 0 0 1 425.5481 31.306)" class="st5 st6 st7">2</text>
<text transform="matrix(1 0 0 1 425.5481 31.306)" class="st2 st6 st7">2</text>
<text transform="matrix(1 0 0 1 787.5481 53.306)" class="st5 st6 st7">4</text>
<text transform="matrix(1 0 0 1 787.5481 53.306)" class="st2 st6 st7">4</text>
<text transform="matrix(1 0 0 1 848.5481 210.3059)" class="st5 st6 st7">5</text>
<text transform="matrix(1 0 0 1 848.5481 210.3059)" class="st2 st6 st7">5</text>
<text transform="matrix(1 0 0 1 687.5481 349.306)" class="st5 st6 st7">7</text>
<text transform="matrix(1 0 0 1 687.5481 349.306)" class="st2 st6 st7">7</text>
<text transform="matrix(1 0 0 1 163.2481 363.9423)" class="st5 st6 st7">6</text>
<text transform="matrix(1 0 0 1 163.2481 363.9423)" class="st2 st6 st7">6</text>
<text transform="matrix(1 0 0 1 73.5481 215.306)" class="st5 st6 st7">3</text>
<text transform="matrix(1 0 0 1 73.5481 215.306)" class="st2 st6 st7">3</text>
</svg>
