<?xml version="1.0" encoding="utf-8"?>
<!-- Generator: Adobe Illustrator 21.0.0, SVG Export Plug-In . SVG Version: 6.00 Build 0)  -->
<svg version="1.1" id="图层_1" xmlns="http://www.w3.org/2000/svg" xmlns:xlink="http://www.w3.org/1999/xlink" x="0px" y="0px"
	 viewBox="0 0 132 106" style="enable-background:new 0 0 132 106;" xml:space="preserve">
<style type="text/css">
	.st0{fill-rule:evenodd;clip-rule:evenodd;fill:none;stroke:#00ADB4;stroke-width:5;stroke-linecap:round;stroke-miterlimit:10;}
	.st1{fill-rule:evenodd;clip-rule:evenodd;fill:none;stroke:#666666;stroke-width:5;stroke-linecap:round;stroke-miterlimit:10;}
	.st2{fill-rule:evenodd;clip-rule:evenodd;fill:none;stroke:#666666;stroke-width:5;stroke-miterlimit:10;}
</style>
<path class="st0" d="M50.7,56.7l12.5,12.7l24.6-23"/>
<path class="st1" d="M82.5,16.5v9"/>
<path class="st1" d="M52.5,16.5v9"/>
<path class="st2" d="M57.7,21.5c6.2,0,13,0,19.1,0 M87.9,21.5c1.8,0,3.5,0,4.9,0c3,0,4.9,0,4.9,0c2.1,0,3.9,1.9,3.9,4.2v59
	c0,2.3-1.7,4.2-3.9,4.2H35.4c-2.1,0-3.9-1.9-3.9-4.2v-59c0-2.3,1.7-4.2,3.9-4.2c0,0,4.8,0,11.7,0"/>
</svg>
